<svg width="37" height="37" viewBox="0 0 37 37" fill="none" xmlns="http://www.w3.org/2000/svg">
<rect width="36.9129" height="36.9129" rx="18.4564" fill="url(#paint0_linear_10089_1109)"/>
<g clip-path="url(#clip0_10089_1109)">
<path d="M19.3247 15.8745C19.4325 15.6976 19.4195 15.4725 19.2921 15.3091L15.7344 10.748H22.592C22.8207 10.748 23.0368 10.8528 23.1784 11.0324L26.2245 14.8943C26.4823 15.2212 26.5096 15.6739 26.293 16.0293L23.2053 21.095C23.0697 21.3175 22.828 21.4532 22.5676 21.4532H20.6545L24.0543 15.8754C24.1624 15.6981 24.1491 15.4723 24.021 15.3089L22.0059 12.7397H19.8069L21.4971 14.8947C21.7534 15.2215 21.78 15.673 21.5639 16.0276L18.1184 21.6803C18.0109 21.8567 18.0234 22.081 18.1498 22.2443L21.5849 26.6813H14.7289C14.4993 26.6813 14.2824 26.5757 14.1408 26.3949L11.2157 22.6589C10.9598 22.3321 10.9334 21.881 11.1494 21.5267L14.1625 16.5833C14.2981 16.3608 14.5398 16.2251 14.8003 16.2251H16.7133L13.3894 21.6784C13.2813 21.8557 13.2946 22.0814 13.4228 22.2448L15.3403 24.6896H17.5393L15.9467 22.659C15.6904 22.3322 15.6638 21.8807 15.8799 21.5261L19.3247 15.8745Z" fill="white"/>
</g>
<defs>
<linearGradient id="paint0_linear_10089_1109" x1="18.4564" y1="0" x2="18.4564" y2="36.9129" gradientUnits="userSpaceOnUse">
<stop stop-color="#9349DF" stop-opacity="0.2"/>
<stop offset="1" stop-color="#208622" stop-opacity="0.01"/>
</linearGradient>
<clipPath id="clip0_10089_1109">
<rect width="15.9332" height="15.9332" fill="white" transform="translate(10.7554 10.748)"/>
</clipPath>
</defs>
</svg>
