<svg width="126" height="29" viewBox="0 0 126 29" fill="none" xmlns="http://www.w3.org/2000/svg">
<rect width="28.3264" height="28.3264" rx="2.6556" fill="black"/>
<rect x="0.4426" y="0.4426" width="27.4412" height="27.4412" rx="2.213" stroke="white" stroke-opacity="0.3" stroke-width="0.885201"/>
<g clip-path="url(#clip0_10089_303)">
<path d="M14.7659 11.3229C14.8737 11.146 14.8607 10.9208 14.7333 10.7575L11.1755 6.19641H18.0332C18.2618 6.19641 18.4779 6.30119 18.6196 6.48075L21.6657 10.3427C21.9235 10.6695 21.9508 11.1222 21.7341 11.4777L18.6465 16.5434C18.5109 16.7658 18.2692 16.9016 18.0087 16.9016H16.0957L19.4955 11.3237C19.6036 11.1464 19.5903 10.9207 19.4621 10.7573L17.4471 8.18807H15.2481L16.9383 10.3431C17.1946 10.6699 17.2212 11.1214 17.005 11.476L13.5595 17.1287C13.4521 17.305 13.4646 17.5294 13.591 17.6927L17.026 22.1297H10.1701C9.94044 22.1297 9.72358 22.024 9.58201 21.8432L6.65682 18.1072C6.40099 17.7805 6.3746 17.3294 6.59058 16.975L9.6037 12.0316C9.73927 11.8092 9.98095 11.6735 10.2414 11.6735H12.1545L8.83057 17.1267C8.72251 17.304 8.73581 17.5298 8.86395 17.6932L10.7815 20.138H12.9805L11.3878 18.1073C11.1315 17.7806 11.1049 17.3291 11.3211 16.9745L14.7659 11.3229Z" fill="white"/>
</g>
<path d="M44.7538 19.0929C46.3189 19.0929 47.8604 18.3711 47.8604 17.0455C47.8604 15.9628 46.9701 15.5294 45.2833 15.2391L43.5732 14.9507C41.2139 14.5663 39.6724 13.4582 39.6724 11.5793C39.6724 9.70045 41.6219 7.96472 44.1284 7.96472C46.729 7.96472 48.6804 9.24137 49.1373 11.9402H47.2114C46.778 9.84358 45.2836 9.53191 44.1284 9.53191C42.8988 9.53191 41.5023 10.2066 41.5023 11.4578C41.5023 12.3971 42.1045 12.8308 43.8616 13.2171C44.199 13.2896 45.3796 13.5055 45.7895 13.578C47.7408 13.9154 49.7885 14.5901 49.7885 17.118C49.7885 19.4556 47.4273 20.6833 44.4893 20.6833C41.5023 20.6833 39.4057 18.9966 38.9487 16.4433H40.8765C41.406 18.4436 43.116 19.0929 44.7538 19.0929Z" fill="white"/>
<path d="M53.4067 8.30208V10.277H54.2735C54.4677 9.24137 55.407 7.96472 57.5978 7.96472C60.9456 7.96472 63.042 10.6868 63.042 14.1562V14.517C63.042 17.961 60.9454 20.6831 57.5978 20.6831C55.407 20.6831 54.4423 19.4064 54.2735 18.3708H53.4067V26.3667H51.4807V8.30208H53.4067ZM57.2133 18.9966C59.5727 18.9966 61.0671 17.2865 61.0671 14.517V14.1562C61.0671 11.3851 59.5727 9.62768 57.2133 9.62768C54.8029 9.62768 53.4067 11.3848 53.4067 14.1562V14.517C53.4067 17.2865 54.8032 18.9966 57.2133 18.9966Z" fill="white"/>
<path d="M70.4881 11.1945C70.0547 9.84509 70.1036 9.72551 70.1036 9.02538H69.2368C69.2368 9.72551 69.2839 9.86863 68.8505 11.1945L65.9361 20.3475H63.7688L67.7186 8.30359H71.6194L75.5714 20.3475H73.4023L70.4881 11.1945Z" fill="white"/>
<path d="M80.444 18.6594V9.98874H77.6513V8.30197H82.3718V10.7828H83.2386C83.5995 9.45904 85.4548 7.60372 87.9121 8.08608V10.2533C84.9976 9.36299 82.3716 11.2889 82.3716 14.4209V18.6591H87.8629V20.3459H76.7839V18.6591H80.444V18.6594Z" fill="white"/>
<path d="M91.9395 8.30263C92.5417 8.30263 92.7102 8.13409 92.7102 7.53188V4.69019H94.6362V8.30263H100.61V9.9894H94.6362V18.4677H100.61V20.3465H94.4206C93.4813 20.3465 92.7105 19.5758 92.7105 18.6365V9.9894H89.0488V8.30263H91.9395Z" fill="white"/>
<path d="M108.444 11.1945C108.01 9.84509 108.059 9.72551 108.059 9.02538H107.192C107.192 9.72551 107.239 9.86863 106.806 11.1945L103.892 20.3475H101.724L105.674 8.30359H109.575L113.527 20.3475H111.358L108.444 11.1945Z" fill="white"/>
<path d="M116.666 8.30208V10.0849H117.533C118.161 8.37484 119.726 7.96472 120.954 7.96472C124.229 7.96472 125.819 10.0849 125.819 13.5542V20.346H123.893V13.5542C123.893 10.7831 122.399 9.62795 120.279 9.62795C117.798 9.62795 116.666 11.097 116.666 13.8662V20.346H114.74V8.30208H116.666Z" fill="white"/>
<defs>
<clipPath id="clip0_10089_303">
<rect width="15.9332" height="15.9332" fill="white" transform="translate(6.19653 6.19641)"/>
</clipPath>
</defs>
</svg>
