<svg width="198" height="198" viewBox="0 0 198 198" fill="none" xmlns="http://www.w3.org/2000/svg">
<g clip-path="url(#clip0_13391_34606)">
<path d="M106.327 63.6079C107.665 61.4132 107.504 58.6195 105.923 56.5928L61.7794 0H146.867C149.704 0 152.386 1.30003 154.143 3.52796L191.938 51.4458C195.137 55.5012 195.476 61.1183 192.788 65.5286L154.476 128.383C152.794 131.143 149.796 132.827 146.564 132.827H122.827L165.011 63.6183C166.352 61.4184 166.187 58.6174 164.597 56.5902L139.595 24.7119H112.31L133.282 51.451C136.462 55.5053 136.792 61.1074 134.11 65.5071L91.3595 135.645C90.026 137.833 90.1812 140.616 91.7496 142.642L134.371 197.695H49.3038C46.4546 197.695 43.7638 196.385 42.0073 194.141L5.71231 147.786C2.53809 143.732 2.2106 138.135 4.89041 133.738L42.2764 72.4016C43.9586 69.6418 46.9572 67.9578 50.1893 67.9578H73.9256L32.6837 135.62C31.3428 137.82 31.5078 140.621 33.0978 142.648L56.8899 172.983H84.1747L64.4134 147.788C61.2335 143.733 60.9034 138.131 63.5851 133.731L106.327 63.6079Z" fill="white"/>
</g>
<defs>
<clipPath id="clip0_13391_34606">
<rect width="197.695" height="197.695" fill="white"/>
</clipPath>
</defs>
</svg>
