<svg width="200" height="18" viewBox="0 0 200 18" fill="none" xmlns="http://www.w3.org/2000/svg">
<g clip-path="url(#clip0_13400_1429)">
<g clip-path="url(#clip1_13400_1429)">
<path d="M29.2099 9.7483C27.6307 9.37852 27.3084 9.08388 27.3084 8.75694C27.3084 8.2346 27.9496 7.88397 28.9058 7.88397C29.822 7.88397 30.5902 8.33112 30.8166 8.99553L30.9216 9.30474L32.9847 8.80812L32.8506 8.4406C32.3 6.92978 30.7152 5.91516 28.9052 5.91516C26.6332 5.91516 25.1052 7.10111 25.1052 8.86642C25.1052 10.6035 26.4341 11.2343 28.7328 11.7365C30.6691 12.1676 31.0583 12.5176 31.0583 12.9433C31.0583 13.5846 30.1732 14.0338 28.9068 14.0338C27.5518 14.0338 26.6564 13.3888 26.6248 12.3922L26.6139 12.0491H24.5066L24.5137 12.41C24.5565 14.5587 26.3194 16.0037 28.9058 16.0037C31.4992 16.0037 33.2415 14.7456 33.2415 12.8711C33.2415 10.934 31.7629 10.2592 29.2099 9.7483Z" fill="white"/>
<path d="M35.1205 15.821H37.5092V9.90431H43.1837V7.75539H37.5092V4.89069H44.0353V2.74011H35.1205V15.821Z" fill="white"/>
<path d="M51.4113 2.56213C47.4914 2.56213 44.8566 5.25533 44.8566 9.26499C44.8566 13.296 47.4899 16.0036 51.4113 16.0036C55.3327 16.0036 57.9648 13.2958 57.9648 9.2648C57.9648 5.2551 55.3322 2.56213 51.4113 2.56213ZM51.4113 13.8545C48.919 13.8545 47.2435 12.0112 47.2435 9.26499C47.2435 6.54176 48.919 4.71271 51.4113 4.71271C53.9036 4.71271 55.5787 6.54176 55.5787 9.26499C55.5787 12.0092 53.9032 13.8545 51.4113 13.8545Z" fill="white"/>
<path d="M72.1391 13.6704C69.2215 13.6704 67.6059 11.0601 67.18 10.2597L66.6593 9.28062L67.1791 8.30176C68.5175 5.78575 70.6874 4.8909 72.1382 4.8909H72.2274V2.74011H72.1373C70.0453 2.74011 67.2225 3.8575 65.4162 6.96231C63.6113 3.8575 60.7876 2.74011 58.6947 2.74011H58.606V4.8909H58.698C60.1488 4.8909 62.3187 5.78349 63.6571 8.30176L64.1779 9.28062L63.6552 10.2597C63.2299 11.0601 61.6138 13.6704 58.6961 13.6704H58.606V15.8212H58.698C61.3896 15.8212 63.8776 14.25 65.4195 11.5988C66.961 14.25 69.449 15.8212 72.1406 15.8212H72.2312V13.6704H72.1391Z" fill="white"/>
<path d="M2.24301 6.90115H2.10361C1.94898 6.90068 1.79959 6.8452 1.68236 6.74468C1.56512 6.64416 1.48774 6.50519 1.46416 6.35287L1.45929 6.31744H0.784928L0.779853 6.35287C0.756346 6.50524 0.67899 6.64425 0.561735 6.74477C0.44448 6.84534 0.295048 6.90077 0.140391 6.90115H-0.000488281V7.39928H2.24301V6.90115Z" fill="#9C9C9C"/>
<path d="M16.9345 -0.00182896C15.4371 -0.00295048 13.974 0.445672 12.736 1.28557C11.498 2.12546 10.5425 3.31768 9.99396 4.70683H8.73535V4.84541C8.73563 4.99947 8.7913 5.14835 8.89219 5.26505C8.99308 5.38175 9.13254 5.4586 9.28537 5.48162L9.32172 5.48563V6.15773L9.28664 6.16259C9.13372 6.18551 8.99417 6.26236 8.89327 6.37916C8.79234 6.49591 8.73677 6.64492 8.73663 6.79903V6.9363H11.7444L11.7839 6.65162C11.8627 6.10679 12.0302 5.57841 12.28 5.0875C12.776 4.11423 13.564 3.3193 14.5343 2.81329C14.9381 2.60294 15.3681 2.44693 15.813 2.34934V6.31401H15.9532C16.1081 6.31448 16.2576 6.37015 16.3748 6.47095C16.4921 6.57171 16.5694 6.71096 16.5927 6.86356L16.5978 6.89856H17.2717L17.2768 6.86337C17.3 6.71063 17.3774 6.57129 17.4948 6.47053C17.6122 6.36972 17.762 6.3142 17.9169 6.31401H18.0563V-0.00182896H16.9345Z" fill="#9C9C9C"/>
<path d="M18.056 6.06702V6.31566H17.9166C17.7617 6.31585 17.612 6.37137 17.4945 6.47218C17.3771 6.57293 17.2998 6.71228 17.2765 6.86502L17.2715 6.90021H16.5975L16.5924 6.86521C16.5691 6.71261 16.4919 6.57336 16.3746 6.4726C16.2574 6.37179 16.1078 6.31613 15.953 6.31566H15.8127V6.06702V11.0713C14.5231 11.2697 13.3078 11.8007 12.2874 12.6117C11.2671 13.4226 10.477 14.4854 9.99565 15.6946H9.2743V15.8323C9.27416 15.9864 9.21859 16.1354 9.1177 16.2522C9.01676 16.369 8.87721 16.4458 8.72433 16.4687L8.68921 16.4736V17.1449L8.72476 17.1497C8.87758 17.1727 9.01709 17.2496 9.11798 17.3664C9.21888 17.4831 9.27449 17.632 9.27473 17.7862V17.9251H11.7444L11.7841 17.6406C12.1484 15.1191 14.3629 13.2167 16.9345 13.2167H18.0556V6.06763L18.056 6.06702Z" fill="#9C9C9C"/>
<path d="M9.27595 17.7878C9.27572 17.6337 9.2201 17.4847 9.11921 17.368C9.01832 17.2512 8.87881 17.1743 8.72594 17.1513L8.69044 17.1465L8.69062 16.4746L8.72575 16.4697C8.87862 16.4468 9.01818 16.37 9.11912 16.2532C9.22001 16.1364 9.27558 15.9874 9.27572 15.8333V15.6956H8.06134C7.57926 14.4788 6.78238 13.4112 5.75185 12.6013C4.73557 11.7958 3.52584 11.2691 2.24252 11.0734V6.90121H2.10312C1.94849 6.90074 1.79911 6.84526 1.68187 6.74474C1.56463 6.64422 1.48725 6.50525 1.46367 6.35293L1.4588 6.3175H0.78444L0.779364 6.35293C0.755858 6.5053 0.678502 6.64431 0.561247 6.74483C0.443991 6.8454 0.294559 6.90083 0.139903 6.90121H-0.000976562V13.2171H1.12141C3.69384 13.2171 5.90816 15.1194 6.27198 17.6419L6.31135 17.9261H9.27614L9.27595 17.7878Z" fill="#9C9C9C"/>
<path d="M9.28459 5.48119C9.13181 5.45817 8.9923 5.38133 8.89141 5.26462C8.79052 5.14792 8.73491 4.99905 8.73462 4.84498V4.7062H8.05964C6.95121 1.88328 4.18522 -0.00183105 1.12141 -0.00183105H-0.000976562V6.89856H0.139903C0.294559 6.89818 0.443991 6.84276 0.561247 6.74219C0.678502 6.64166 0.755858 6.50265 0.779364 6.35028L0.78444 6.31486H1.4588L1.46367 6.35028C1.48725 6.5026 1.56463 6.64157 1.68187 6.74209C1.79911 6.84262 1.94849 6.89809 2.10312 6.89856H2.24252V2.34976C2.6876 2.44713 3.11768 2.60315 3.52144 2.81371C4.00425 3.06507 4.4448 3.38995 4.82721 3.77661C5.20986 4.16205 5.52967 4.60477 5.77507 5.08877C6.02492 5.58001 6.19247 6.10876 6.27113 6.65393L6.28085 6.72289L6.31069 6.93738H8.73651V6.79903C8.7367 6.64492 8.79227 6.4959 8.89316 6.37915C8.99405 6.26235 9.13361 6.18551 9.28653 6.16259L9.32161 6.15773V5.48562L9.28459 5.48119Z" fill="#9C9C9C"/>
</g>
</g>
<defs>
<clipPath id="clip0_13400_1429">
<rect width="199.17" height="17.9253" fill="white"/>
</clipPath>
<clipPath id="clip1_13400_1429">
<rect width="72.2337" height="17.9253" fill="white"/>
</clipPath>
</defs>
</svg>
