<svg width="200" height="14" viewBox="0 0 200 14" fill="none" xmlns="http://www.w3.org/2000/svg">
<g clip-path="url(#clip0_13400_1419)">
<path d="M40.9021 6.22939C40.9021 4.59346 39.6256 3.26307 38.0562 3.26307H32.0796V13.942H28.949V1.63156C28.949 0.729785 29.649 6.10352e-05 30.5143 6.10352e-05H38.0562C41.3575 6.10352e-05 44.0328 2.78844 44.0328 6.22939V13.942H40.9021V6.22939Z" fill="#9C9C9C"/>
<path d="M27.3841 6.10352e-05H24.2534V13.942H27.3841V6.10352e-05Z" fill="#9C9C9C"/>
<path d="M18.277 13.942C20.7132 13.942 22.6884 11.8833 22.6884 9.34408V4.59792C22.6884 2.05871 20.7132 6.10352e-05 18.277 6.10352e-05H5.9766C2.67525 6.10352e-05 0 2.78844 0 6.22939V13.942H3.13062V6.22939C3.13062 4.59346 4.40703 3.26307 5.9766 3.26307H18.277C18.9829 3.26307 19.5578 3.86227 19.5578 4.59792V9.34408C19.5578 10.0798 18.9829 10.6789 18.277 10.6789H12.585C11.8792 10.6789 11.3043 10.0798 11.3043 9.34408C11.3043 8.60847 11.8792 8.00923 12.585 8.00923H18.1348V4.74624H12.585C10.1489 4.74624 8.17373 6.80487 8.17373 9.34408C8.17373 11.8833 10.1489 13.942 12.585 13.942H18.277Z" fill="#9C9C9C"/>
</g>
<defs>
<clipPath id="clip0_13400_1419">
<rect width="199.17" height="13.9419" fill="white"/>
</clipPath>
</defs>
</svg>
