<svg width="200" height="12" viewBox="0 0 200 12" fill="none" xmlns="http://www.w3.org/2000/svg">
<g clip-path="url(#clip0_13400_1407)">
<path d="M6.05566 0.439769V0.440746C8.07826 0.485198 10.1068 0.470293 12.1387 0.440746C13.3191 0.430287 14.3077 0.696722 15.1406 1.20637C15.9532 1.70368 16.6365 2.44609 17.209 3.43098V3.43489L17.2578 3.51985C17.7156 4.31519 17.9461 5.57824 17.8301 6.83723C17.7138 8.09826 17.259 9.26405 16.4502 9.9261L16.4482 9.92805C16.3559 10.005 16.2692 10.0779 16.1904 10.137C14.3189 11.5284 12.1195 11.5421 9.7959 11.4827C8.05097 11.4376 6.37799 11.4975 4.66992 11.3509H4.6709C3.69519 11.2649 2.62603 10.669 1.78613 9.80793C0.998106 9.00006 0.462622 8.01123 0.379883 7.09211L0.369141 6.9095C0.369143 6.38637 0.369752 5.8786 0.405273 5.3802C0.516762 3.91117 1.14931 2.51387 2.25488 1.60969L2.48242 1.43489C3.44733 0.74374 4.62087 0.411631 6.05566 0.439769ZM5.86133 1.69661C3.56942 1.71284 1.63976 3.44519 1.49316 5.66047C1.34111 7.9594 3.0733 10.1915 5.43066 10.3148C7.79893 10.441 10.1845 10.4488 12.5566 10.3001L12.5557 10.2991C14.986 10.1608 16.5407 8.22308 16.5273 5.85969L16.5215 5.6302C16.4228 3.48898 14.5163 1.7049 12.1367 1.69661H5.86133Z" fill="#9C9C9C" stroke="#9C9C9C" stroke-width="0.738579"/>
<path d="M36.4325 6.11525C36.4325 7.71796 36.4029 9.31329 36.4472 10.9086C36.4694 11.6472 36.1444 11.7654 35.4723 11.8909C33.648 12.2159 32.7543 10.8348 31.6465 9.91893C28.8916 7.62195 26.1958 5.25849 23.4704 2.92459C23.2045 2.70301 22.9756 2.28202 22.5398 2.46667C22.0671 2.66608 22.2074 3.13877 22.2074 3.52283C22.2074 5.92322 22.2074 8.3236 22.237 10.7166C22.2517 11.4995 21.9932 11.8097 21.1808 11.8245C20.3167 11.8392 20.2354 11.3592 20.2354 10.7092C20.2354 7.48162 20.2354 4.25403 20.2207 1.02644C20.2207 0.332174 20.5456 0.1623 21.2325 0.0515137C23.3892 -0.303004 24.534 1.24801 25.8634 2.38542C28.4263 4.579 31.063 6.67657 33.5077 9.00309C33.7071 9.18773 33.9139 9.30591 34.165 9.1508C34.4752 8.95877 34.4531 8.6338 34.4457 8.3236C34.4383 6.01923 34.4309 3.70748 34.4161 1.40311C34.4161 0.324788 34.5417 0.184458 35.5092 0.177072C36.3955 0.177072 36.4546 0.716235 36.4398 1.4105C36.4103 2.97629 36.4325 4.54946 36.4325 6.11525Z" fill="#9C9C9C"/>
<path d="M39.98 9.65957C39.98 9.80409 40.0821 9.92005 40.2086 9.94668L40.2642 9.95254L50.5054 9.96621H50.5103C50.6414 9.97143 50.7702 9.9785 50.8873 9.99746C51.0046 10.0165 51.1192 10.0492 51.2183 10.1117C51.404 10.2289 51.4999 10.4257 51.5162 10.7172L51.5181 10.848C51.5113 11.1443 51.4723 11.3897 51.3082 11.5492C51.1443 11.7083 50.8907 11.749 50.5582 11.7455H50.5572C47.6554 11.7038 40.3553 11.717 39.5269 11.7309V11.7318H39.5201L39.5191 11.7309C38.8461 11.7338 38.3082 11.1855 38.3082 10.5033V1.75625C38.3082 1.52077 38.3051 1.30751 38.3111 1.12637C38.317 0.945569 38.3319 0.782305 38.3746 0.645896C38.4185 0.50572 38.4941 0.387673 38.6207 0.307029C38.7437 0.228705 38.9 0.195617 39.0884 0.193748H39.0894C39.397 0.193748 39.635 0.265925 39.7877 0.452537C39.9347 0.632623 39.9767 0.889879 39.9732 1.19277L39.9722 1.32461C39.972 1.36771 39.9714 1.42136 39.9712 1.48379C39.9708 1.67036 39.9704 1.93929 39.9703 2.26699C39.9701 2.92288 39.9704 3.8161 39.9712 4.76406C39.973 6.66005 39.9766 8.77622 39.98 9.65859V9.65957Z" fill="#9C9C9C" stroke="#9C9C9C" stroke-width="0.26556"/>
<path d="M59.4285 0.443463V0.444439C60.4402 0.466674 61.4535 0.471627 62.4676 0.468853L65.5115 0.444439C66.692 0.43397 67.6806 0.700302 68.5145 1.21006C69.3502 1.72101 70.0519 2.49008 70.6375 3.51573L70.6385 3.51671C71.0962 4.31202 71.3258 5.57429 71.2098 6.83311C71.0935 8.09421 70.6397 9.26087 69.8309 9.92296L69.828 9.92491C69.7357 10.0018 69.6497 10.0748 69.5711 10.1339C67.6995 11.5253 65.4993 11.538 63.1756 11.4786C61.6489 11.4392 60.1775 11.48 58.6893 11.3927L58.0506 11.3468C57.075 11.2606 56.0056 10.6657 55.1658 9.80479C54.3777 8.99678 53.8422 8.00723 53.7596 7.08799L53.7498 6.90538C53.7426 6.38887 53.7501 5.87701 53.786 5.3751C53.8978 3.81688 54.6086 2.33099 55.8553 1.43858C56.8202 0.747423 57.9938 0.415336 59.4285 0.443463ZM59.2342 1.7003C56.9423 1.71657 55.0126 3.44891 54.866 5.66417C54.714 7.96307 56.4462 10.1951 58.8035 10.3185C61.1718 10.4447 63.5574 10.4525 65.9295 10.3038L65.9285 10.3028C68.3589 10.1645 69.9146 8.22679 69.9012 5.86338L69.8944 5.63389C69.7956 3.49266 67.8892 1.70856 65.5096 1.7003H59.2342Z" fill="#9C9C9C" stroke="#9C9C9C" stroke-width="0.738579"/>
<path d="M79.6518 0.443463V0.444439C80.6634 0.466674 81.6767 0.471627 82.6908 0.468853L85.7348 0.444439C86.919 0.433969 87.9069 0.700537 88.7397 1.21006C89.5744 1.72088 90.2749 2.48966 90.8607 3.51573L90.8617 3.51671C91.3194 4.31202 91.549 5.57429 91.433 6.83311C91.3168 8.09421 90.863 9.26087 90.0541 9.92296L90.0512 9.92491C89.9589 10.0018 89.873 10.0748 89.7943 10.1339C87.9227 11.5253 85.7225 11.538 83.3988 11.4786C81.8722 11.4392 80.4007 11.48 78.9125 11.3927L78.2738 11.3468C77.2983 11.2606 76.2288 10.6657 75.3891 9.80479C74.6009 8.99678 74.0654 8.00723 73.9828 7.08799L73.9731 6.90538C73.9658 6.38888 73.9733 5.87701 74.0092 5.3751C74.121 3.81688 74.8319 2.33099 76.0785 1.43858C77.0434 0.747423 78.217 0.415336 79.6518 0.443463ZM79.4574 1.7003C77.1655 1.71657 75.2359 3.44891 75.0893 5.66417C74.9372 7.96307 76.6694 10.1951 79.0268 10.3185C81.395 10.4447 83.7807 10.4525 86.1527 10.3038L86.1518 10.3028C88.5821 10.1645 90.1378 8.22679 90.1244 5.86338L90.1176 5.63389C90.0188 3.49266 88.1125 1.70856 85.7328 1.7003H79.4574Z" fill="#9C9C9C" stroke="#9C9C9C" stroke-width="0.738579"/>
<path d="M93.8319 6.00047C93.8319 4.40514 93.8466 2.80242 93.8245 1.20709C93.8171 0.631002 93.9574 0.19524 94.6074 0.232169C95.1761 0.269098 95.8039 0.276484 95.6783 1.19971C95.5897 1.86443 95.6562 2.55131 95.6414 3.22341C95.6266 3.91029 95.9442 4.25004 96.6385 4.24265C98.0861 4.23527 99.5263 4.20572 100.974 4.24265C101.949 4.26481 102.385 3.45237 103.027 2.98707C103.958 2.30019 104.785 1.48037 105.657 0.727017C106.462 0.032753 107.466 0.320799 108.382 0.269098C108.84 0.246941 108.618 0.631002 108.397 0.823032C106.971 2.02692 105.553 3.24557 104.105 4.41991C103.47 4.93692 103.374 5.52039 103.958 6.11864C105.472 7.66966 106.993 9.2059 108.515 10.7569C108.722 10.9637 109.076 11.1484 108.899 11.5029C108.751 11.8057 108.404 11.6211 108.146 11.6654C107.141 11.8648 106.484 11.3626 105.849 10.6609C104.6 9.27976 103.293 7.95032 102.001 6.59872C101.646 6.22943 101.24 6.03001 100.701 6.03001C99.3786 6.03001 98.0639 6.10387 96.7419 5.9857C96.0698 5.92661 95.6414 6.28113 95.6562 7.04187C95.6783 8.26791 95.6266 9.50133 95.6857 10.7274C95.7226 11.4955 95.3533 11.6654 94.7034 11.6949C93.9648 11.7245 93.8319 11.3035 93.8393 10.7052C93.8466 9.13943 93.8393 7.57364 93.8393 6.00047H93.8319Z" fill="#9C9C9C"/>
</g>
<defs>
<clipPath id="clip0_13400_1407">
<rect width="199.17" height="11.9394" fill="white"/>
</clipPath>
</defs>
</svg>
