<svg width="24" height="24" viewBox="0 0 24 24" fill="none" xmlns="http://www.w3.org/2000/svg">
<path d="M11.9504 19.9176C12.9969 19.9189 14.0332 19.7134 14.9999 19.313C15.9667 18.9125 16.8448 18.325 17.5838 17.5841C18.3246 16.8451 18.9121 15.9671 19.3126 15.0003C19.7131 14.0336 19.9185 12.9972 19.9172 11.9508C19.9185 10.9044 19.7131 9.86806 19.3126 8.90132C18.9121 7.93457 18.3246 7.05648 17.5838 6.31749C16.8448 5.57664 15.9667 4.98911 14.9999 4.58866C14.0332 4.18821 12.9969 3.98272 11.9504 3.98401C10.904 3.98272 9.8677 4.18821 8.90095 4.58866C7.93421 4.98911 7.05611 5.57664 6.31712 6.31749C5.57628 7.05648 4.98875 7.93457 4.58829 8.90132C4.18784 9.86806 3.98236 10.9044 3.98365 11.9508C3.98236 12.9972 4.18784 14.0336 4.58829 15.0003C4.98875 15.9671 5.57628 16.8451 6.31712 17.5841C7.05611 18.325 7.93421 18.9125 8.90095 19.313C9.8677 19.7134 10.904 19.9189 11.9504 19.9176Z" fill="black" stroke="#208622" stroke-width="0.79668" stroke-linejoin="round"/>
<path d="M8.76379 11.9507L11.1538 14.3407L15.9339 9.56067" stroke="#208622" stroke-width="0.79668" stroke-linejoin="round"/>
</svg>
