<svg width="24" height="24" viewBox="0 0 24 24" fill="none" xmlns="http://www.w3.org/2000/svg">
<path d="M11.9502 21.9087C12.2539 21.9087 12.5365 21.7681 13.1029 21.4855L17.6465 19.2237C19.6593 18.2241 20.6639 17.7224 20.6639 16.9295V6.97095M11.9502 21.9087C11.6465 21.9087 11.3639 21.7681 10.7975 21.4855L6.25394 19.2237C4.24108 18.2241 3.23652 17.7224 3.23652 16.9295V6.97095M11.9502 21.9087V11.9502M20.6639 6.97095C20.6639 6.17801 19.6581 5.67759 17.6477 4.67676L13.1029 2.41369C12.5353 2.13237 12.2539 1.9917 11.9502 1.9917C11.6465 1.9917 11.3639 2.13237 10.7975 2.41494L6.25394 4.67676C4.24108 5.67635 3.23652 6.17801 3.23652 6.97095M20.6639 6.97095C20.6639 7.7639 19.6581 8.26432 17.6477 9.26515L13.1029 11.5282C12.5365 11.8095 12.2539 11.9502 11.9502 11.9502M3.23652 6.97095C3.23652 7.7639 4.24232 8.26432 6.2527 9.26515L10.7975 11.5282C11.3639 11.8095 11.6465 11.9502 11.9502 11.9502" stroke="url(#paint0_linear_13400_758)" stroke-width="1.03734" stroke-linejoin="round"/>
<defs>
<linearGradient id="paint0_linear_13400_758" x1="11.9502" y1="23.9004" x2="11.9502" y2="2.36638e-07" gradientUnits="userSpaceOnUse">
<stop stop-color="#6CFF80"/>
<stop offset="0.5" stop-color="#95D3FF"/>
<stop offset="1" stop-color="#9A28F8"/>
</linearGradient>
</defs>
</svg>
