<svg width="24" height="24" viewBox="0 0 24 24" fill="none" xmlns="http://www.w3.org/2000/svg">
<path d="M18.9172 4.47973C18.9174 4.8498 18.835 5.21524 18.676 5.54944C18.517 5.88363 18.2855 6.17816 17.9984 6.41157C17.7112 6.64498 17.3755 6.81138 17.0159 6.89867C16.6563 6.98595 16.2817 6.99192 15.9195 6.91613L14.6456 9.02309C15.0583 9.40262 15.3862 9.86506 15.6078 10.3801C15.8294 10.8952 15.9397 11.4512 15.9314 12.0119L17.2213 12.2706C17.502 11.7467 17.961 11.3406 18.5153 11.1257C19.0695 10.9109 19.6823 10.9016 20.2428 11.0995C20.8033 11.2974 21.2745 11.6894 21.571 12.2046C21.8675 12.7198 21.9697 13.3241 21.8593 13.9082C21.7488 14.4922 21.4329 15.0174 20.9687 15.3887C20.5045 15.76 19.9228 15.9529 19.3287 15.9324C18.7346 15.9119 18.1675 15.6794 17.7301 15.277C17.2926 14.8746 17.0136 14.3289 16.9436 13.7386L15.6309 13.4739C15.2888 14.3023 14.6772 14.991 13.8951 15.4286L14.3878 16.9324H14.4385C15.0308 16.9325 15.6037 17.1439 16.0541 17.5286C16.5045 17.9133 16.8029 18.446 16.8956 19.031C16.9883 19.616 16.8693 20.2149 16.56 20.72C16.2507 21.2251 15.7713 21.6033 15.2081 21.7866C14.6448 21.9699 14.0347 21.9462 13.4873 21.7199C12.94 21.4935 12.4913 21.0794 12.222 20.5518C11.9527 20.0243 11.8805 19.418 12.0182 18.8419C12.156 18.2658 12.4947 17.7578 12.9735 17.4091L12.4789 15.9003C11.7715 15.9951 11.0516 15.8979 10.3947 15.619C9.73771 15.34 9.16783 14.8896 8.74466 14.3149L6.95917 15.1589C6.96912 15.2504 6.9741 15.3433 6.9741 15.4375C6.97394 16.02 6.76946 16.5839 6.39627 17.0311C6.02309 17.4783 5.50485 17.7804 4.93184 17.8847C4.35882 17.9891 3.76735 17.8892 3.26046 17.6023C2.75356 17.3154 2.36337 16.8598 2.15785 16.3148C1.95233 15.7699 1.9445 15.1701 2.13574 14.6199C2.32698 14.0698 2.70516 13.6041 3.20441 13.3041C3.70365 13.0041 4.29231 12.8888 4.86785 12.9782C5.44339 13.0676 5.96933 13.3561 6.35405 13.7934L8.09973 12.9683C7.9388 12.3573 7.92563 11.7167 8.06131 11.0995C8.19699 10.4824 8.47763 9.9064 8.88002 9.4192L7.89372 8.29456C7.34139 8.51423 6.72867 8.52891 6.16645 8.33594C5.60424 8.14298 5.12968 7.75512 4.82867 7.24256C4.52766 6.73 4.42009 6.12662 4.52543 5.54162C4.63077 4.95662 4.94205 4.42866 5.40294 4.0533C5.86383 3.67793 6.44388 3.47996 7.03809 3.49523C7.6323 3.51049 8.20142 3.73798 8.64243 4.13651C9.08344 4.53504 9.36721 5.07829 9.44237 5.66793C9.51753 6.25757 9.37913 6.85463 9.0522 7.35105L10.0295 8.46575C10.6179 8.14179 11.2787 7.97197 11.9504 7.9721C12.453 7.9721 12.9347 8.06466 13.3776 8.23485L14.6167 6.18461C14.3386 5.88891 14.137 5.52965 14.0296 5.13816C13.9222 4.74668 13.9122 4.33485 14.0005 3.93862C14.0888 3.54238 14.2727 3.17378 14.5362 2.86494C14.7997 2.55611 15.1347 2.31644 15.5121 2.16683C15.8895 2.01722 16.2977 1.96223 16.7013 2.00663C17.1048 2.05104 17.4913 2.19351 17.8271 2.42161C18.1629 2.64971 18.4378 2.95651 18.6278 3.31525C18.8178 3.67399 18.9172 4.07378 18.9172 4.47973ZM17.4243 4.47973C17.4243 4.21577 17.3195 3.96262 17.1328 3.77598C16.9462 3.58933 16.693 3.48447 16.4291 3.48447C16.1651 3.48447 15.912 3.58933 15.7253 3.77598C15.5387 3.96262 15.4338 4.21577 15.4338 4.47973C15.4338 4.74369 15.5387 4.99684 15.7253 5.18349C15.912 5.37013 16.1651 5.47499 16.4291 5.47499C16.693 5.47499 16.9462 5.37013 17.1328 5.18349C17.3195 4.99684 17.4243 4.74369 17.4243 4.47973ZM6.9741 6.97684C7.23806 6.97684 7.4912 6.87198 7.67785 6.68533C7.8645 6.49869 7.96936 6.24554 7.96936 5.98158C7.96936 5.71762 7.8645 5.46447 7.67785 5.27782C7.4912 5.09118 7.23806 4.98632 6.9741 4.98632C6.71014 4.98632 6.45699 5.09118 6.27034 5.27782C6.08369 5.46447 5.97884 5.71762 5.97884 5.98158C5.97884 6.24554 6.08369 6.49869 6.27034 6.68533C6.45699 6.87198 6.71014 6.97684 6.9741 6.97684ZM11.9504 14.4413C12.6103 14.4413 13.2432 14.1791 13.7098 13.7125C14.1764 13.2459 14.4385 12.613 14.4385 11.9531C14.4385 11.2932 14.1764 10.6604 13.7098 10.1937C13.2432 9.72713 12.6103 9.46499 11.9504 9.46499C11.2905 9.46499 10.6576 9.72713 10.191 10.1937C9.72439 10.6604 9.46224 11.2932 9.46224 11.9531C9.46224 12.613 9.72439 13.2459 10.191 13.7125C10.6576 14.1791 11.2905 14.4413 11.9504 14.4413ZM5.48121 15.4365C5.48121 15.1726 5.37635 14.9194 5.1897 14.7328C5.00305 14.5461 4.74991 14.4413 4.48595 14.4413C4.22199 14.4413 3.96884 14.5461 3.78219 14.7328C3.59555 14.9194 3.49069 15.1726 3.49069 15.4365C3.49069 15.7005 3.59555 15.9536 3.78219 16.1403C3.96884 16.3269 4.22199 16.4318 4.48595 16.4318C4.74991 16.4318 5.00305 16.3269 5.1897 16.1403C5.37635 15.9536 5.48121 15.7005 5.48121 15.4365ZM15.4338 19.4196C15.4338 19.1556 15.3289 18.9025 15.1423 18.7158C14.9556 18.5292 14.7025 18.4243 14.4385 18.4243C14.1746 18.4243 13.9214 18.5292 13.7348 18.7158C13.5481 18.9025 13.4433 19.1556 13.4433 19.4196C13.4433 19.6835 13.5481 19.9367 13.7348 20.1233C13.9214 20.31 14.1746 20.4148 14.4385 20.4148C14.7025 20.4148 14.9556 20.31 15.1423 20.1233C15.3289 19.9367 15.4338 19.6835 15.4338 19.4196ZM19.4148 14.4413C19.6788 14.4413 19.9319 14.3364 20.1186 14.1498C20.3052 13.9631 20.4101 13.71 20.4101 13.446C20.4101 13.1821 20.3052 12.9289 20.1186 12.7423C19.9319 12.5556 19.6788 12.4508 19.4148 12.4508C19.1509 12.4508 18.8977 12.5556 18.7111 12.7423C18.5244 12.9289 18.4196 13.1821 18.4196 13.446C18.4196 13.71 18.5244 13.9631 18.7111 14.1498C18.8977 14.3364 19.1509 14.4413 19.4148 14.4413Z" fill="url(#paint0_linear_13400_760)" stroke="black" stroke-width="0.829876"/>
<defs>
<linearGradient id="paint0_linear_13400_760" x1="11.9502" y1="23.9004" x2="11.9502" y2="2.36638e-07" gradientUnits="userSpaceOnUse">
<stop stop-color="#6CFF80"/>
<stop offset="0.5" stop-color="#95D3FF"/>
<stop offset="1" stop-color="#9A28F8"/>
</linearGradient>
</defs>
</svg>
