<svg width="206" height="32" viewBox="0 0 206 32" fill="none" xmlns="http://www.w3.org/2000/svg">
<g clip-path="url(#clip0_13418_32236)">
<path d="M29.9743 30.0072V20.013L22.8473 17.6346V17.6313C20.329 16.7919 20.329 13.2235 22.8473 12.3824L29.9743 10.004V0.00329189L29.9776 0H19.9867L17.6099 7.13516C16.7722 9.65675 13.207 9.6584 12.3676 7.13681L9.99088 0H0L0.00493783 0.00493783V10.004L7.13187 12.3824C9.65017 13.2219 9.65017 16.7903 7.13187 17.6313L0.00493783 20.0097V30.0055L0 30.0105H0.00493783V30.0138L0.00822972 30.0105H9.99088L12.3676 22.877C13.207 20.3537 16.7705 20.3537 17.6099 22.877L19.9867 30.0105H29.9677L29.9743 30.0171V30.0105H29.9776L29.9743 30.0072ZM8.24453 21.6787C11.3916 17.7943 11.3899 12.2063 8.23959 8.32518L8.3186 8.24618C12.1997 11.4015 17.7844 11.3998 21.6639 8.24288L21.7446 8.32354C18.5876 12.2063 18.586 17.7992 21.738 21.6853C21.7808 21.7363 21.71 21.8071 21.6573 21.7643C17.7811 18.614 12.203 18.6123 8.32518 21.7594C8.27251 21.8022 8.20338 21.7314 8.24618 21.6787H8.24453Z" fill="white"/>
</g>
<g clip-path="url(#clip1_13418_32236)">
<path d="M60.1668 15.4355C61.1082 14.1369 61.579 12.6193 61.579 10.8796C61.579 9.14144 61.2119 7.78189 60.4795 6.582C59.7454 5.38211 58.7183 4.45215 57.3966 3.79048C56.0766 3.13046 54.5343 2.79962 52.7732 2.79962H42.7938V28.5126H46.6091V18.9611H52.5526L57.6896 28.5126H61.946L56.4041 18.153C57.9694 17.6394 59.2236 16.7342 60.1651 15.4355H60.1668ZM52.4802 15.582H46.6108V6.17874H52.5164C54.0817 6.17874 55.3359 6.60175 56.2774 7.44612C57.2189 8.29049 57.6896 9.43607 57.6896 10.8812C57.6896 12.3263 57.2189 13.4406 56.2774 14.2965C55.3359 15.1541 54.0702 15.582 52.4802 15.582Z" fill="white"/>
<path d="M76.8849 10.6033C75.5517 9.88237 73.9799 9.52026 72.171 9.52026C70.3604 9.52026 68.8067 9.92517 67.4372 10.7333C66.0678 11.5398 65.0029 12.6607 64.2457 14.0943C63.487 15.5263 63.1084 17.2101 63.1084 19.1441C63.1084 21.0797 63.4935 22.7273 64.2639 24.1593C65.0342 25.5913 66.1353 26.7121 67.5656 27.5203C68.9959 28.3285 70.6649 28.7334 72.5742 28.7334C74.0901 28.7334 75.4283 28.4453 76.5903 27.8692C77.7524 27.2932 78.707 26.5163 79.4526 25.5369C80.1982 24.5576 80.6937 23.4433 80.9389 22.194H77.3442C77.0495 23.2968 76.457 24.1593 75.5649 24.7847C74.6711 25.4086 73.6013 25.7213 72.3537 25.7213C71.2772 25.7213 70.3308 25.4876 69.5111 25.0234C68.6914 24.5592 68.0561 23.9025 67.6035 23.0581C67.1508 22.2138 66.899 21.241 66.8513 20.1382V19.8815H81.1595C81.1825 19.6362 81.2023 19.391 81.2138 19.1457C81.2253 18.9021 81.2335 18.6684 81.2335 18.4479C81.1825 16.5879 80.7792 14.9963 80.0221 13.673C79.2633 12.3513 78.2182 11.3292 76.8849 10.6066V10.6033ZM66.9978 17.1245C67.0949 16.1699 67.3944 15.3485 67.8964 14.6638C68.3985 13.9791 69.0272 13.4458 69.786 13.0656C70.5431 12.6854 71.3513 12.4961 72.2072 12.4961C73.6737 12.4961 74.8851 12.8944 75.8398 13.6894C76.7928 14.4861 77.3425 15.63 77.4907 17.1245H66.9978Z" fill="white"/>
<path d="M95.213 18.1512C94.0395 17.8336 92.7425 17.5883 91.3253 17.4171C90.4201 17.2954 89.6185 17.1719 88.9206 17.0501C88.2244 16.9283 87.6861 16.7077 87.3076 16.3901C86.9274 16.0708 86.7381 15.5934 86.7381 14.9565C86.7381 14.173 87.1101 13.5492 87.8573 13.0834C88.6029 12.6176 89.5872 12.3855 90.8101 12.3855C92.0331 12.3855 93.0667 12.6735 93.837 13.248C94.6073 13.8241 95.0419 14.5647 95.139 15.4716H98.6991C98.5757 13.5113 97.7807 12.0316 96.3142 11.026C94.846 10.0219 92.9992 9.51991 90.7723 9.51991C89.3304 9.49687 88.0334 9.72236 86.8846 10.1997C85.7341 10.6787 84.8354 11.3453 84.1869 12.2028C83.54 13.0603 83.2158 14.0891 83.2158 15.2873C83.2158 16.2666 83.4116 17.0699 83.8017 17.6937C84.1934 18.3175 84.7383 18.8129 85.4361 19.1816C86.1324 19.5486 86.9389 19.8416 87.8573 20.0622C88.7741 20.2827 89.7584 20.4539 90.8101 20.5774C91.7631 20.6745 92.5943 20.7913 93.3054 20.9263C94.0131 21.0613 94.5645 21.2999 94.9563 21.6423C95.3464 21.9846 95.5422 22.5113 95.5422 23.2207C95.5422 23.7359 95.3595 24.2017 94.9925 24.6165C94.6254 25.0329 94.13 25.3457 93.5062 25.553C92.8824 25.7621 92.1417 25.8658 91.2858 25.8658C89.7946 25.8658 88.6194 25.53 87.7651 24.8552C86.9076 24.182 86.4566 23.331 86.4072 22.3023H82.8125C82.8849 24.3597 83.698 25.9448 85.2518 27.0591C86.8039 28.1734 88.8153 28.7314 91.2875 28.7314C92.754 28.7314 94.0757 28.4976 95.2492 28.0335C96.4245 27.5677 97.3544 26.8994 98.0391 26.032C98.7222 25.163 99.0662 24.1392 99.0662 22.964C99.0662 21.5452 98.7173 20.4671 98.021 19.7313C97.3231 18.9973 96.3882 18.4706 95.2147 18.1529L95.213 18.1512Z" fill="white"/>
<path d="M105.187 9.74298H101.593V28.5133H105.187V9.74298Z" fill="white"/>
<path d="M103.428 2.46753C102.817 2.46753 102.291 2.67656 101.851 3.09134C101.41 3.50777 101.189 4.03447 101.189 4.67145C101.189 5.30678 101.41 5.84007 101.851 6.26801C102.291 6.6976 102.817 6.91158 103.428 6.91158C104.039 6.91158 104.595 6.6976 105.024 6.26801C105.452 5.84007 105.666 5.30843 105.666 4.67145C105.666 4.03447 105.452 3.50777 105.024 3.09134C104.595 2.67492 104.063 2.46753 103.428 2.46753Z" fill="white"/>
<path d="M130.737 24.7823C130.495 24.6358 130.26 24.4268 130.031 24.1651C130.452 23.617 130.837 23.0294 131.176 22.3941C132.228 20.4239 132.755 18.1755 132.755 15.6539C132.755 13.1307 132.228 10.8856 131.176 8.91379C130.125 6.94195 128.676 5.39311 126.829 4.26729C124.983 3.13982 122.836 2.5769 120.39 2.5769C117.945 2.5769 115.792 3.13982 113.932 4.26729C112.074 5.39311 110.619 6.94195 109.567 8.91379C108.515 10.8856 107.988 13.1323 107.988 15.6539C107.988 18.1755 108.515 20.4239 109.567 22.3941C110.619 24.3659 112.074 25.9147 113.932 27.0406C115.79 28.168 117.943 28.7309 120.39 28.7309C122.836 28.7309 124.983 28.168 126.829 27.0406C127.111 26.8694 127.379 26.685 127.641 26.4941L127.802 26.7097C128.266 27.322 128.786 27.7746 129.361 28.0693C129.937 28.3639 130.737 28.5104 131.766 28.5104H134.187V25.0934H132.059C131.52 25.0934 131.079 24.9897 130.737 24.7823ZM124.83 24.1026C123.559 24.9354 122.078 25.3502 120.39 25.3502C118.703 25.3502 117.224 24.9354 115.951 24.1026C114.679 23.2697 113.682 22.1192 112.961 20.6494C112.24 19.1812 111.879 17.5155 111.879 15.6539C111.879 13.794 112.24 12.097 112.961 10.6404C113.682 9.18372 114.679 8.03814 115.951 7.2053C117.224 6.3741 118.703 5.95767 120.39 5.95767C122.078 5.95767 123.559 6.3741 124.83 7.2053C126.102 8.03814 127.091 9.18372 127.802 10.6404C128.512 12.097 128.865 13.7693 128.865 15.6539C128.865 17.5402 128.512 19.1812 127.802 20.6494C127.743 20.7728 127.679 20.8897 127.616 21.0082L126.811 19.9515C126.543 19.5597 126.243 19.2306 125.913 18.9606C125.582 18.6907 125.203 18.4882 124.775 18.3533C124.347 18.2199 123.827 18.1525 123.217 18.1525H120.501V21.5316H122.739C123.179 21.5316 123.564 21.6303 123.895 21.8262C124.224 22.0204 124.548 22.3397 124.866 22.7809L125.49 23.6154C125.277 23.7882 125.06 23.9528 124.83 24.1026Z" fill="white"/>
<path d="M149.075 19.1077C149.075 20.4541 148.874 21.6112 148.471 22.579C148.066 23.5452 147.485 24.2875 146.728 24.801C145.969 25.3146 145.064 25.573 144.012 25.573C142.521 25.573 141.384 25.0891 140.6 24.1213C139.818 23.1535 139.427 21.7281 139.427 19.8418V9.74066H135.868V20.1726C135.868 21.7643 136.057 23.1057 136.436 24.1953C136.816 25.2849 137.348 26.1655 138.033 26.8387C138.717 27.5136 139.506 27.9958 140.399 28.2904C141.292 28.5851 142.24 28.7316 143.242 28.7316C144.978 28.7316 146.35 28.376 147.352 27.665C148.053 27.1696 148.637 26.6379 149.11 26.0701L149.553 28.511H152.672V9.73901H149.075V19.1077Z" fill="white"/>
<path d="M171.95 25.0761C171.753 24.9181 171.655 24.5938 171.655 24.1033V16.3164C171.655 14.1124 170.977 12.4286 169.619 11.265C168.262 10.1029 166.36 9.52026 163.915 9.52026C162.374 9.52026 161.016 9.75893 159.843 10.2379C158.669 10.7152 157.732 11.395 157.036 12.2756C156.338 13.1578 155.917 14.2112 155.77 15.4341H159.293C159.464 14.5289 159.94 13.8129 160.723 13.2862C161.505 12.7595 162.52 12.4961 163.768 12.4961C165.114 12.4961 166.165 12.8154 166.923 13.4524C167.682 14.0894 168.061 14.97 168.061 16.0958V17.2727H163.034C160.491 17.2727 158.552 17.7862 157.219 18.8149C155.887 19.8436 155.221 21.3118 155.221 23.2227C155.221 24.3733 155.507 25.3592 156.083 26.1789C156.658 27.0002 157.471 27.6306 158.522 28.07C159.574 28.5112 160.784 28.7317 162.155 28.7317C163.941 28.7317 165.366 28.335 166.43 27.5384C167.211 26.9541 167.863 26.2776 168.388 25.5155C168.393 26.3978 168.614 27.1039 169.053 27.6306C169.542 28.2182 170.46 28.5128 171.805 28.5128H173.713V25.3164H172.832C172.441 25.3164 172.148 25.2374 171.952 25.0777L171.95 25.0761ZM168.061 20.8328C168.061 21.8138 167.84 22.6829 167.401 23.4417C166.961 24.2004 166.336 24.7946 165.529 25.2226C164.723 25.6522 163.732 25.8661 162.558 25.8661C161.385 25.8661 160.503 25.5962 159.843 25.058C159.182 24.5197 158.852 23.8334 158.852 23.0005C158.852 21.9965 159.196 21.2558 159.88 20.7785C160.563 20.2995 161.543 20.0609 162.815 20.0609H168.062L168.061 20.8328Z" fill="white"/>
<path d="M188.976 10.3465C187.839 9.79514 186.56 9.52026 185.143 9.52026C183.357 9.52026 181.949 9.88237 180.922 10.6033C180.187 11.1218 179.573 11.6732 179.076 12.2608L178.648 9.73917H175.53V28.5112H179.125V19.07C179.125 17.7483 179.332 16.6093 179.749 15.6547C180.165 14.7 180.769 13.9643 181.564 13.4508C182.359 12.9372 183.294 12.6788 184.371 12.6788C185.936 12.6788 187.116 13.1578 187.911 14.1124C188.706 15.0671 189.103 16.476 189.103 18.3359V28.5112H192.699V18.0792C192.699 15.974 192.362 14.2951 191.69 13.0475C191.017 11.7982 190.113 10.8979 188.974 10.3482L188.976 10.3465Z" fill="white"/>
<path d="M202.544 25.3132C201.785 25.3132 201.254 25.1535 200.948 24.8359C200.643 24.5182 200.49 23.98 200.49 23.2195V12.9357H205.186V9.73927H200.49V4.48706H196.894V9.73927H193.592V12.9357H196.894V23.478C196.894 25.1667 197.285 26.4291 198.069 27.262C198.851 28.0932 200.134 28.5096 201.92 28.5096H205.406V25.3148H202.544V25.3132Z" fill="white"/>
</g>
<defs>
<clipPath id="clip0_13418_32236">
<rect width="31.2729" height="31.2729" fill="white"/>
</clipPath>
<clipPath id="clip1_13418_32236">
<rect width="162.948" height="26.3351" fill="white" transform="translate(42.7939 2.46753)"/>
</clipPath>
</defs>
</svg>
