<svg width="103" height="27" viewBox="0 0 103 27" fill="none" xmlns="http://www.w3.org/2000/svg">
<path d="M95.7195 21.083C94.1391 21.083 92.7742 20.7704 91.6248 20.1452C90.4857 19.5105 89.6082 18.6153 88.9925 17.4596C88.387 16.2944 88.0843 14.9256 88.0843 13.3531V13.3389C88.0843 11.7853 88.3922 10.426 89.0079 9.26083C89.6236 8.08619 90.4908 7.1768 91.6094 6.53264C92.728 5.87902 94.0416 5.5522 95.5501 5.5522C97.069 5.5522 98.3723 5.86481 99.4601 6.49002C100.558 7.10575 101.405 7.98199 102 9.11874C102.595 10.246 102.893 11.558 102.893 13.0547V14.092H89.7314V11.918H101.277L99.6294 13.9499V12.7563C99.6294 11.7048 99.455 10.8333 99.1061 10.1418C98.7674 9.44081 98.2902 8.91981 97.6745 8.57878C97.069 8.23776 96.366 8.06725 95.5655 8.06725C94.7753 8.06725 94.0672 8.24723 93.4412 8.6072C92.8152 8.96717 92.3226 9.49765 91.9635 10.1986C91.6043 10.8902 91.4247 11.7427 91.4247 12.7563V13.9499C91.4247 14.9161 91.5991 15.745 91.9481 16.4365C92.3072 17.1186 92.8152 17.6443 93.472 18.0138C94.1288 18.3737 94.9036 18.5537 95.7964 18.5537C96.4532 18.5537 97.0331 18.4637 97.5359 18.2837C98.0388 18.0943 98.4544 17.848 98.7828 17.5448C99.1214 17.2322 99.3575 16.8865 99.4909 16.5076L99.5371 16.3939H102.708L102.677 16.5502C102.544 17.1375 102.293 17.7012 101.923 18.2411C101.554 18.7811 101.071 19.2689 100.476 19.7047C99.8911 20.1309 99.1984 20.4672 98.3979 20.7135C97.5975 20.9598 96.7047 21.083 95.7195 21.083Z" fill="white"/>
<path d="M82.3502 20.79V0.285939H85.6906V20.79H82.3502Z" fill="white"/>
<path d="M71.8286 26.0562C70.4432 26.0562 69.2322 25.8762 68.1957 25.5163C67.1695 25.1563 66.3434 24.6684 65.7174 24.0527C65.0914 23.437 64.6963 22.7502 64.5321 21.9924L64.5013 21.8645H67.8263L67.8724 21.9782C68.0982 22.4518 68.5498 22.8354 69.2271 23.1291C69.9147 23.4322 70.7767 23.5838 71.8132 23.5838C73.1268 23.5838 74.1376 23.2759 74.8457 22.6602C75.5538 22.0539 75.9079 21.2345 75.9079 20.202V18.1416H75.8309C75.523 18.6816 75.1177 19.1505 74.6148 19.5484C74.1222 19.9462 73.5475 20.2541 72.8907 20.472C72.2339 20.6898 71.5156 20.7988 70.7356 20.7988C69.381 20.7988 68.1957 20.4909 67.1797 19.8752C66.1638 19.25 65.3787 18.369 64.8245 17.2322C64.2704 16.0955 63.9933 14.7504 63.9933 13.1968V13.1826C63.9933 11.6196 64.2755 10.2697 64.8399 9.13295C65.4044 7.98673 66.1946 7.10575 67.2105 6.49002C68.2368 5.86481 69.4323 5.5522 70.7972 5.5522C71.5669 5.5522 72.2699 5.67061 72.9061 5.90743C73.5527 6.14426 74.1222 6.47581 74.6148 6.90209C75.1074 7.31889 75.5128 7.81148 75.8309 8.37985H75.9079V5.83639H79.2483V20.3725C79.2483 21.5092 78.9455 22.5039 78.34 23.3565C77.7448 24.209 76.8879 24.8721 75.7693 25.3458C74.661 25.8194 73.3474 26.0562 71.8286 26.0562ZM71.6746 18.2979C72.5264 18.2979 73.2653 18.0895 73.8913 17.6727C74.5276 17.2559 75.0202 16.6686 75.3691 15.9108C75.7283 15.153 75.9079 14.2625 75.9079 13.2394V13.2252C75.9079 12.2022 75.7283 11.3164 75.3691 10.5681C75.0202 9.81026 74.5276 9.22768 73.8913 8.82034C73.255 8.40354 72.5162 8.19513 71.6746 8.19513C70.8023 8.19513 70.0429 8.3988 69.3964 8.80613C68.7601 9.21347 68.2675 9.79605 67.9186 10.5539C67.5697 11.3022 67.3952 12.1879 67.3952 13.211V13.2252C67.3952 14.2767 67.5697 15.1814 67.9186 15.9392C68.2675 16.6876 68.7601 17.2701 69.3964 17.6869C70.0429 18.0943 70.8023 18.2979 71.6746 18.2979Z" fill="white"/>
<path d="M47.8364 20.7846V5.83639H51.1922V8.09567H51.2537C51.6848 7.33784 52.3159 6.72684 53.1471 6.26267C53.9784 5.78902 55.0046 5.5522 56.2258 5.5522C58.0012 5.5522 59.3764 6.04953 60.3513 7.04418C61.3262 8.02936 61.8137 9.38398 61.8137 11.108V20.7846H58.4733V11.7048C58.4733 10.5776 58.186 9.71079 57.6113 9.10453C57.0468 8.49826 56.1899 8.19513 55.0405 8.19513C54.2606 8.19513 53.5782 8.35617 52.9932 8.67825C52.4185 9.00033 51.9721 9.45029 51.654 10.0281C51.3461 10.606 51.1922 11.288 51.1922 12.0743V20.7846H47.8364Z" fill="white"/>
<path d="M36.8911 21.0545C35.8135 21.0545 34.8694 20.8651 34.0586 20.4862C33.2479 20.1073 32.6168 19.5768 32.1652 18.8947C31.7137 18.2127 31.4879 17.4264 31.4879 16.536V16.5076C31.4879 15.6361 31.724 14.8877 32.196 14.2625C32.6681 13.6278 33.3505 13.1258 34.2434 12.7563C35.1465 12.3869 36.2343 12.169 37.5068 12.1027L43.6334 11.7617V13.9215L37.9532 14.2483C36.9578 14.3051 36.1881 14.5277 35.6442 14.9161C35.1105 15.295 34.8437 15.8018 34.8437 16.4365V16.4649C34.8437 17.1186 35.1105 17.6348 35.6442 18.0138C36.1881 18.3927 36.9064 18.5821 37.7993 18.5821C38.5792 18.5821 39.277 18.4353 39.8928 18.1416C40.5188 17.848 41.0114 17.4454 41.3706 16.9339C41.7297 16.4128 41.9093 15.8303 41.9093 15.1861V10.7386C41.9093 9.91446 41.6323 9.2703 41.0781 8.80613C40.5239 8.33249 39.7286 8.09567 38.6921 8.09567C37.7377 8.09567 36.968 8.28512 36.3831 8.66404C35.8084 9.04295 35.4492 9.53081 35.3055 10.1276L35.2747 10.2555H32.1345L32.1498 10.0992C32.2319 9.23715 32.5449 8.46511 33.0889 7.78306C33.6328 7.09154 34.387 6.54685 35.3517 6.14899C36.3164 5.75113 37.4606 5.5522 38.7845 5.5522C40.1083 5.5522 41.2525 5.75587 42.2172 6.1632C43.1819 6.57054 43.931 7.14364 44.4647 7.88253C44.9983 8.62141 45.2651 9.48818 45.2651 10.4828V20.7846H41.9093V18.4258H41.8478C41.5296 18.9658 41.1191 19.4347 40.6163 19.8325C40.1134 20.2209 39.5439 20.5241 38.9076 20.7419C38.2816 20.9503 37.6094 21.0545 36.8911 21.0545Z" fill="white"/>
<path d="M25.9934 20.7882V5.84002H29.3492V20.7882H25.9934ZM27.6713 3.53812C27.1376 3.53812 26.6809 3.3676 26.3012 3.02658C25.9215 2.67608 25.7317 2.25928 25.7317 1.77616C25.7317 1.2741 25.9215 0.852558 26.3012 0.511535C26.6809 0.170512 27.1376 0 27.6713 0C28.2152 0 28.6718 0.170512 29.0413 0.511535C29.421 0.852558 29.6108 1.2741 29.6108 1.77616C29.6108 2.25928 29.421 2.67608 29.0413 3.02658C28.6718 3.3676 28.2152 3.53812 27.6713 3.53812Z" fill="white"/>
<path d="M15.7946 20.7846V5.83639H19.1504V8.39406H19.212C19.4685 7.51309 19.9252 6.82157 20.582 6.3195C21.2388 5.80797 22.029 5.5522 22.9526 5.5522C23.1989 5.5522 23.4196 5.56641 23.6145 5.59483C23.8198 5.61378 23.984 5.63746 24.1071 5.66588V8.52195C23.9737 8.47458 23.7736 8.43669 23.5068 8.40827C23.24 8.37038 22.9424 8.35144 22.614 8.35144C21.9059 8.35144 21.2901 8.49353 20.7667 8.77771C20.2434 9.05243 19.8431 9.45502 19.566 9.9855C19.289 10.5065 19.1504 11.1365 19.1504 11.8753V20.7846H15.7946Z" fill="white"/>
<path d="M6.78855 20.79V3.04254H0V0.285939H17.0406V3.04254H10.2521V20.79H6.78855Z" fill="white"/>
</svg>
