<svg width="207" height="32" viewBox="0 0 207 32" fill="none" xmlns="http://www.w3.org/2000/svg">
<path d="M5.55651 24.7803C4.79342 24.7846 4.03861 24.6221 3.34489 24.3041C2.67672 24.0013 2.07668 23.5664 1.58084 23.0257C1.08231 22.4811 0.688474 21.8492 0.41909 21.1617C0.137922 20.4435 -0.00426189 19.6785 9.72775e-05 18.9072C-0.00355247 18.1402 0.134458 17.3792 0.407186 16.6623C0.667466 15.9828 1.05716 15.3602 1.55465 14.8292C2.05108 14.3053 2.64667 13.8854 3.3068 13.5936C4.0093 13.2841 4.76984 13.1283 5.53746 13.1366C6.48706 13.1191 7.42352 13.3602 8.24663 13.8341C9.02323 14.2914 9.64256 14.9738 10.0226 15.791L10.1821 16.1266L8.57039 16.6623L8.44184 16.4242C8.16675 15.9018 7.74794 15.4689 7.23486 15.1768C6.70625 14.8714 6.10504 14.7143 5.49461 14.7221C4.98086 14.7192 4.47253 14.8272 4.00433 15.0387C3.54721 15.2487 3.13681 15.5483 2.79735 15.9195C2.44401 16.3119 2.16491 16.7653 1.97365 17.2574C1.76965 17.7891 1.66788 18.3545 1.67369 18.9239C1.66844 20.0472 2.07593 21.1333 2.81877 21.9759C3.16447 22.3532 3.58213 22.6575 4.04718 22.871C4.50723 23.0937 5.01205 23.2085 5.52318 23.2067C5.85969 23.2062 6.19427 23.1556 6.5159 23.0567C6.84015 22.9617 7.15186 22.8282 7.44435 22.6591C7.70928 22.5088 7.95005 22.3194 8.15854 22.0973C8.3325 21.923 8.46441 21.7113 8.54421 21.4783L8.63705 21.1855L10.2797 21.6616L10.1583 21.9949C10.0007 22.41 9.76921 22.7931 9.47504 23.1257C9.16898 23.4762 8.80992 23.7767 8.41089 24.0161C7.99225 24.2679 7.54137 24.4617 7.07059 24.5922C6.57669 24.7229 6.06737 24.7861 5.55651 24.7803Z" fill="white"/>
<path d="M20.9761 24.5735V18.3267C20.9761 15.8984 20.2262 14.72 18.6788 14.72C18.285 14.7204 17.8948 14.7955 17.529 14.9414C17.1401 15.0965 16.7784 15.3127 16.4577 15.5818C16.1182 15.8651 15.8208 16.1954 15.5745 16.5626C15.3378 16.9117 15.1533 17.2934 15.0269 17.6958V24.5639H13.3605V9.04218H15.0269V15.0461L15.3412 14.7224C15.635 14.4169 15.9643 14.1476 16.322 13.9201C17.1107 13.4075 18.031 13.1346 18.9716 13.1345C19.5484 13.1195 20.1202 13.2445 20.6381 13.4987C21.1084 13.7427 21.5096 14.1014 21.8046 14.5414C22.1233 15.0249 22.347 15.5646 22.464 16.1317C22.6042 16.7954 22.672 17.4722 22.6664 18.1505V24.5782L20.9761 24.5735Z" fill="white"/>
<path d="M29.5214 24.7816C28.5246 24.7886 27.562 24.4187 26.8265 23.746C26.4767 23.4247 26.1977 23.0338 26.0076 22.5985C25.8114 22.148 25.7117 21.6615 25.7147 21.1702C25.7098 20.6701 25.8362 20.1776 26.0814 19.7418C26.3324 19.3093 26.6733 18.9359 27.0812 18.6467C27.534 18.332 28.0372 18.0969 28.5691 17.9515C29.1818 17.7847 29.8149 17.7046 30.4498 17.7135C31.0452 17.7143 31.6395 17.7669 32.2258 17.8706C32.5543 17.9301 32.8686 18.0015 33.1661 18.0848L33.4042 18.1491V17.5635C33.4042 16.6374 33.1661 15.928 32.6424 15.3971C32.1187 14.8662 31.4521 14.6091 30.5593 14.6091C30.0402 14.6189 29.5272 14.723 29.0452 14.9162C28.4471 15.1475 27.8789 15.4496 27.3526 15.8161L27.0574 16.0185L26.3432 14.7496L26.5813 14.5805C27.9859 13.6283 29.3476 13.1379 30.6284 13.1379C31.9877 13.1379 33.0781 13.545 33.8708 14.3449C34.6636 15.1448 35.0611 16.2494 35.0611 17.6444V23.0032H35.4944L35.5087 23.3413V24.5316L35.2444 24.584C35.1659 24.5983 35.0849 24.6102 35.0064 24.6197C34.9278 24.6292 34.8445 24.6197 34.7826 24.6197C34.6137 24.6246 34.4458 24.5924 34.2907 24.5254C34.1357 24.4583 33.9972 24.3581 33.8851 24.2317C33.7329 24.06 33.6243 23.8542 33.5685 23.6317L33.497 23.3556L33.2756 23.5341C32.921 23.8215 32.5304 24.0616 32.1139 24.2483C31.297 24.6069 30.4135 24.7886 29.5214 24.7816ZM30.5593 19.068C30.1004 19.0633 29.6427 19.1177 29.1976 19.2299C28.8364 19.3218 28.4918 19.4696 28.1763 19.668C27.9228 19.8271 27.7106 20.0441 27.5574 20.3012C27.4153 20.5453 27.3428 20.8236 27.3479 21.1059C27.3448 21.4039 27.4049 21.6992 27.524 21.9724C27.6318 22.2352 27.794 22.4722 28.0001 22.6676C28.2223 22.8734 28.4816 23.035 28.7643 23.1437C29.0682 23.2599 29.3912 23.3181 29.7166 23.3151C30.4157 23.3225 31.1082 23.1796 31.7473 22.8961C32.2952 22.6646 32.7729 22.2936 33.1328 21.8201C33.2852 21.6459 33.377 21.4271 33.3947 21.1963V19.5442L33.2709 19.5013C32.9011 19.3786 32.5233 19.2816 32.1401 19.2109C31.619 19.119 31.0909 19.0728 30.5617 19.0728L30.5593 19.068Z" fill="white"/>
<path d="M39.0432 24.5717V13.3256H40.6763V15.0801L40.993 14.7373C41.1804 14.5351 41.3842 14.3488 41.6024 14.1802C42.2077 13.6922 42.9408 13.3889 43.714 13.3065C43.8592 13.2922 43.9949 13.2851 44.1116 13.2851H44.7044V14.8896H44.3854C43.5534 14.8966 42.7457 15.1703 42.0809 15.6705C41.4305 16.1666 40.9552 16.8571 40.7239 17.6417V24.5717H39.0432Z" fill="white"/>
<path d="M51.5977 29.12C51.0181 29.1263 50.4398 29.0656 49.8741 28.939C49.3922 28.8306 48.9281 28.6542 48.4958 28.4153C48.0988 28.1919 47.737 27.9112 47.4221 27.5821C47.1133 27.2576 46.8425 26.899 46.615 26.5132L46.4579 26.2465L47.6935 25.4086L47.872 25.7109C48.2267 26.3462 48.7734 26.8529 49.4337 27.1583C50.1115 27.4735 50.8502 27.636 51.5977 27.6344C52.0817 27.6371 52.5633 27.5665 53.0261 27.425C53.4449 27.299 53.8359 27.0946 54.1783 26.8227C54.5028 26.556 54.7646 26.2211 54.9449 25.8418C55.1405 25.4067 55.2365 24.9333 55.2258 24.4563V23.1231L54.9211 23.4017C54.6349 23.6603 54.3221 23.8877 53.9879 24.0802C53.2973 24.4842 52.5176 24.7113 51.718 24.7412C50.9185 24.7711 50.124 24.6029 49.4052 24.2516C48.7685 23.9327 48.202 23.49 47.7387 22.9494C47.2689 22.4043 46.8975 21.7816 46.6412 21.1091C46.3772 20.4257 46.2424 19.6992 46.2437 18.9665C46.2421 18.2203 46.3694 17.4794 46.6198 16.7764C46.8576 16.0945 47.2183 15.4619 47.684 14.9099C48.1458 14.3696 48.7128 13.929 49.3504 13.6149C50.0183 13.293 50.7516 13.1301 51.493 13.1387C52.4195 13.1204 53.3283 13.3944 54.0903 13.922C54.4149 14.151 54.7206 14.4058 55.0044 14.6838L55.3139 14.9885V13.3268H56.9065V24.4587C56.9212 25.1646 56.7703 25.8641 56.4661 26.5013C56.1828 27.0722 55.7763 27.5731 55.2758 27.9677C54.7718 28.3632 54.1975 28.6596 53.5832 28.8414C52.9384 29.0301 52.2695 29.1239 51.5977 29.12ZM51.6596 14.7076C51.1187 14.6986 50.5842 14.8255 50.1051 15.0766C49.6537 15.3199 49.2561 15.6519 48.9362 16.0526C48.6102 16.4637 48.3603 16.9297 48.1982 17.4287C48.0285 17.9303 47.9408 18.456 47.9387 18.9856C47.9361 19.5372 48.0387 20.0841 48.241 20.5973C48.4367 21.093 48.7188 21.55 49.0742 21.9471C49.4232 22.3326 49.8447 22.6457 50.3146 22.8684C50.7855 23.0916 51.3004 23.2063 51.8215 23.2041C52.2297 23.2002 52.6335 23.1194 53.0118 22.966C53.3987 22.8126 53.7618 22.605 54.0903 22.3494C54.3944 22.1135 54.6581 21.8297 54.8711 21.5091C55.0473 21.2566 55.1697 20.9705 55.2306 20.6687V17.2953C55.0918 16.9236 54.8958 16.5758 54.6497 16.2645C54.4053 15.9507 54.1166 15.674 53.7927 15.4432C53.4726 15.2157 53.1225 15.0338 52.7523 14.9028C52.402 14.7754 52.0324 14.7093 51.6596 14.7076Z" fill="white"/>
<path d="M65.7753 24.7797C65.0122 24.784 64.2574 24.6215 63.5637 24.3036C62.8955 24.0007 62.2954 23.5659 61.7996 23.0252C60.7761 21.8991 60.215 20.4284 60.2284 18.9067C60.2209 17.4017 60.7821 15.9495 61.7996 14.8406C62.292 14.3123 62.8854 13.8881 63.5446 13.5931C64.2363 13.2886 64.9838 13.1313 65.7396 13.1313C66.4953 13.1313 67.2428 13.2886 67.9345 13.5931C68.5949 13.8939 69.1901 14.3209 69.6867 14.8501C70.1789 15.3861 70.5664 16.0094 70.8294 16.6879C71.1029 17.3922 71.2418 18.1416 71.2388 18.8972V19.1614C71.2461 19.2758 71.2283 19.3904 71.1865 19.4971L71.0984 19.6852H61.9615L62.0043 19.9018C62.0692 20.2529 62.178 20.5944 62.3281 20.9183C62.5415 21.3856 62.8329 21.8131 63.1899 22.1825C63.5314 22.5306 63.9352 22.8116 64.3802 23.0109C64.8298 23.2105 65.3167 23.312 65.8086 23.3085C66.1421 23.3084 66.4739 23.2611 66.7942 23.168C67.1139 23.0773 67.421 22.9469 67.7084 22.78C67.9819 22.6232 68.2313 22.4275 68.4487 22.1991C68.6549 21.9824 68.8238 21.733 68.9487 21.4611L69.0653 21.2064L70.5818 21.623L70.4651 21.9634C70.2995 22.3872 70.0574 22.777 69.7509 23.1133C69.432 23.4594 69.0648 23.7577 68.6606 23.9989C68.2376 24.2503 67.7828 24.4441 67.3084 24.575C66.8092 24.7132 66.2933 24.7821 65.7753 24.7797ZM65.7348 14.6287C65.2441 14.6268 64.7581 14.7248 64.3064 14.9168C63.8622 15.1081 63.4583 15.382 63.1161 15.7238C62.7649 16.0822 62.4846 16.5039 62.29 16.9665C62.1518 17.2972 62.0504 17.6421 61.9877 17.9949L61.9496 18.2116H69.5676L69.5295 17.9949C69.4659 17.6395 69.3587 17.2933 69.2105 16.9641C69.0035 16.504 68.7157 16.0847 68.3606 15.7262C68.0193 15.3827 67.6152 15.1079 67.1703 14.9168C66.7165 14.7237 66.228 14.6257 65.7348 14.6287Z" fill="white"/>
<path d="M78.7731 25.2683H82.2226V15.8672H91.9094V12.6057H82.2226V6.8017H93.6306V3.48309H78.7731V25.2683Z" fill="white"/>
<path d="M115.389 14.4318C115.39 15.421 115.291 16.4077 115.092 17.3767C114.925 18.2425 114.602 19.0709 114.139 19.8216C113.715 20.5023 113.123 21.0629 112.42 21.4499C111.706 21.8618 110.754 22.0689 109.607 22.0689C108.459 22.0689 107.54 21.8642 106.831 21.4642C106.127 21.0734 105.528 20.518 105.086 19.8454C104.614 19.1067 104.288 18.285 104.124 17.4243C103.925 16.4393 103.825 15.4368 103.826 14.4318V3.4809H100.374V14.4318C100.372 15.7427 100.516 17.0498 100.803 18.3289C101.08 19.5919 101.593 20.7913 102.315 21.8642C103.059 22.9454 104.056 23.8287 105.219 24.4376C106.409 25.0804 107.904 25.4066 109.64 25.4066C111.306 25.4066 112.763 25.0971 113.939 24.4876C115.09 23.8993 116.081 23.0408 116.827 21.9856C117.568 20.9178 118.097 19.7177 118.386 18.4503C118.696 17.1334 118.85 15.7847 118.846 14.4318V3.4809H115.394L115.389 14.4318Z" fill="white"/>
<path d="M125.788 6.8017H138.491L125.592 22.7186V25.2683H143.254V21.9497H130.511L143.309 6.03038V3.48309H125.788V6.8017Z" fill="white"/>
<path d="M153.517 21.9497V15.7838H163.538V12.5224H153.517V6.8017H164.98V3.48309H150.066V25.2683H165.23V21.9497H153.517Z" fill="white"/>
<path d="M187.924 0L176.012 15.886H184.818L175.888 31.8672L195.876 11.9627H187.853L196.659 0H187.924Z" fill="#72B5F3"/>
<path d="M197.776 6.38011L202.302 0H197.681L192.981 6.36821L197.776 6.38011Z" fill="#72B5F3"/>
<path d="M201.791 6.38011L206.152 0H203.295L198.762 6.36821L201.791 6.38011Z" fill="#72B5F3"/>
</svg>
