<svg width="46" height="52" viewBox="0 0 46 52" fill="none" xmlns="http://www.w3.org/2000/svg">
<path d="M29.3499 51.2376H29.973L40.1423 46.1522L40.3116 45.913V5.32153L40.1423 5.08107L29.973 6.10352e-05H29.3423L29.3499 51.2376Z" fill="#5294CF"/>
<path d="M16.1151 51.2376H15.4837L5.32264 46.1522L5.11653 45.7976L5.01196 5.5284L5.32264 5.08133L15.4834 6.10352e-05H16.123L16.1151 51.2376Z" fill="#1F5B98"/>
<path d="M15.5017 6.10352e-05H29.963V51.2376H15.5017V6.10352e-05Z" fill="#2D72B8"/>
<path d="M45.4654 24.4688L45.1216 24.3925L40.2152 23.9351L40.1422 23.9712L29.9637 23.5643H15.5017L5.32299 23.9712V16.2092L5.31238 16.215L5.32299 16.1923L15.5017 13.8339H29.9637L40.1422 16.1923L43.884 18.1814V16.9026L45.4654 16.7298L45.3017 16.4105L40.2947 12.8304L40.1422 12.8799L29.9637 9.72562H15.5017L5.32299 12.8797V5.08234L0 11.3179V16.7642L0.041171 16.7344L1.58144 16.9023V18.2074L0 19.0536V24.4728L0.041171 24.4685L1.58144 24.4913V26.7658L0.252586 26.7855L0 26.7615V32.1827L1.58119 33.0329V34.353L0.0661777 34.5204L0 34.4707V39.9159L5.32299 46.153V38.3562L15.5017 41.5102H29.9637L40.1722 38.3468L40.3079 38.4065L45.2489 34.8788L45.4654 34.5275L43.884 34.353V33.0595L43.6768 32.9766L40.2947 34.7998L40.1722 35.0554L29.9637 37.4004V37.4032H15.5017V37.4004L5.32299 35.0456V27.2553L15.5017 27.661V27.6708H29.9637L40.1422 27.2553L40.374 27.3619L45.13 26.9525L45.4654 26.7885L43.884 26.7658V24.4913L45.4654 24.4688Z" fill="#1A476F"/>
<path d="M40.1418 38.3567V46.1535L45.4651 39.9167V34.5068L40.1727 38.3476L40.1418 38.3567ZM40.1418 35.0632L40.1727 35.0562L45.4651 32.2095V26.7663L40.1418 27.2558V35.0632ZM40.1727 16.1996L40.1418 16.1928V23.9714L45.4651 24.469V19.0283L40.1727 16.1996ZM40.1727 12.9105L45.4651 16.7298V11.3199L40.1418 5.08234V12.8797L40.1727 12.8905V12.9105Z" fill="#2D72B8"/>
</svg>
