<svg width="52" height="52" viewBox="0 0 52 52" fill="none" xmlns="http://www.w3.org/2000/svg">
<g clip-path="url(#clip0_13400_1226)">
<path d="M46.8678 25.7523C46.8242 25.6574 46.8038 25.6094 46.7797 25.5641C46.1377 24.3436 45.4976 23.1216 44.8479 21.9007C44.7839 21.7774 44.7919 21.7049 44.88 21.5992C45.9019 20.4072 46.911 19.2055 47.9342 18.019C47.9766 17.974 48.0051 17.9177 48.0163 17.8569L47.1228 18.0891C45.8907 18.4165 44.6474 18.7423 43.4269 19.0742C43.3112 19.1046 43.26 19.071 43.2023 18.9749C42.5038 17.8053 41.7995 16.6391 41.0896 15.4764C41.0528 15.4081 41.0001 15.3497 40.9359 15.3062C40.8798 15.6193 40.8218 15.9287 40.7657 16.2397C40.5696 17.3417 40.3727 18.4357 40.1785 19.5409C40.1577 19.6598 40.1289 19.7803 40.1177 19.8988C40.1081 20.0109 40.0504 20.0545 39.9459 20.0865C38.4931 20.5442 37.0409 21.0035 35.5892 21.4643C35.5251 21.4852 35.4627 21.5108 35.3934 21.5736C36.5823 22.0452 37.7712 22.5167 38.9756 22.9979C38.932 23.0315 38.9036 23.0587 38.8716 23.0795C38.1286 23.5595 37.3841 24.0402 36.6431 24.5218C36.5535 24.581 36.483 24.589 36.3829 24.5442C35.4943 24.1447 34.6012 23.7516 33.709 23.3553C33.3099 23.1776 32.9524 22.9402 32.673 22.5968C32.041 21.8254 32.1663 20.9464 33.0085 20.4024C33.2843 20.2262 33.5969 20.0961 33.9099 19.9933C35.3342 19.5297 36.7652 19.0822 38.1851 18.6331C38.3035 18.5946 38.3596 18.5418 38.382 18.4117C38.5729 17.3097 38.7703 16.1997 38.9692 15.1105C39.0765 14.5221 39.1325 13.9188 39.4184 13.378C39.5288 13.1699 39.6585 12.9657 39.8175 12.7928C40.3859 12.1623 41.1764 12.1399 41.7829 12.74C41.9846 12.9417 42.158 13.1795 42.3089 13.4265C42.9686 14.507 43.6231 15.5907 44.2723 16.6776C44.3492 16.8061 44.418 16.8317 44.5593 16.7949C46.1525 16.3666 47.7453 15.9463 49.346 15.5244C49.6763 15.4379 50.0085 15.4059 50.3468 15.47C51.0817 15.6061 51.4023 16.1665 51.1537 16.8782C51.0417 17.2008 50.8455 17.4734 50.6262 17.7316C49.5129 19.0406 48.3977 20.3575 47.2909 21.6601C47.2013 21.7678 47.1997 21.8442 47.2621 21.9647C47.9294 23.2208 48.5887 24.4737 49.2596 25.7443C49.4181 26.0441 49.5398 26.3583 49.5434 26.7034C49.5514 27.4895 48.9754 28.1324 48.1944 28.2481C47.7581 28.3121 47.3506 28.2193 46.9399 28.0924C45.9398 27.7829 44.9382 27.4781 43.9353 27.1781C43.844 27.1493 43.8072 27.1125 43.7912 27.0128C43.6755 26.3087 43.5502 25.6062 43.4285 24.9005C43.4253 24.8812 43.4301 24.8604 43.4333 24.8168C44.5741 25.133 45.711 25.4424 46.8838 25.7683" fill="#E15919"/>
<path d="M23.076 21.7967C22.2373 21.7967 21.5328 22.5028 21.5328 23.3403C21.5328 23.9963 21.9708 24.5191 22.6689 24.5191C22.8752 24.5167 23.0786 24.47 23.2653 24.3822H23.2669L23.3414 23.7554C23.1665 23.8911 22.9518 23.9655 22.7305 23.9671C22.3506 23.9671 22.1105 23.6669 22.1105 23.2838C22.1105 22.7819 22.5388 22.3463 23.0183 22.3463C23.2493 22.3463 23.4374 22.4368 23.5531 22.5653L23.6312 21.9328C23.4603 21.8419 23.2695 21.7951 23.076 21.7967ZM29.1784 21.8239L28.7141 24.4619H30.176L30.2688 23.9295H29.3582L29.4502 23.3987H30.2876L30.3797 22.8687H29.5443L29.6364 22.3563H30.5478L30.6411 21.8239H29.1784ZM28.7141 24.4619H28.7129V24.4659L28.7141 24.4619ZM27.014 21.828L26.8279 22.8735H25.6811L25.8656 21.8288H25.3136L24.8485 24.4707H25.3989L25.585 23.4087H26.7334L26.5493 24.4707H27.1009L27.566 21.828H27.014ZM12.7976 21.8288L11.3854 24.4707H12.0259L12.3129 23.9079H13.2159L13.3024 24.4707H13.8944L13.4137 21.8288H12.7976ZM19.3484 21.8288L17.9366 24.4707H18.5771L18.8637 23.9079H19.7667L19.852 24.4707H20.4452L19.9637 21.8288H19.3484ZM15.6669 21.8336L15.2018 24.4739H15.7534L15.9247 23.508H16.289C16.863 23.508 17.2665 23.1249 17.2665 22.5537C17.2665 22.1014 16.9583 21.8384 16.516 21.8384H15.6697L15.6669 21.8336ZM16.1273 22.3691H16.4495L16.4479 22.3699C16.592 22.3699 16.6885 22.4512 16.6885 22.6101C16.6885 22.8507 16.5364 22.9788 16.3406 22.9788H16.0196L16.1273 22.3691ZM13.001 22.5533L13.1291 23.3767H12.5871L13.001 22.5533ZM19.5538 22.5533L19.6819 23.3767H19.1395L19.5542 22.5537L19.5538 22.5533ZM6.3161 22.9083C4.69571 22.9576 3.45601 23.7257 2.58537 25.136C2.2119 25.7364 2.06779 26.4129 2.16866 27.1334C2.26033 27.7863 2.54854 28.3571 2.97405 28.8495C3.5833 29.568 4.24098 30.2457 4.87144 30.9466C5.13564 31.2388 5.40583 31.5319 5.62279 31.8589C5.99907 32.4269 5.903 33.0578 5.39463 33.5101C5.22504 33.6597 5.03414 33.7833 4.82821 33.8768C4.04564 34.2314 3.26507 34.0137 2.78071 33.2963C2.6206 33.0546 2.51132 32.7752 2.37962 32.5118C2.3556 32.4605 2.33639 32.4077 2.31077 32.3436C1.54101 32.7543 0.780849 33.163 -0.00012207 33.5806C0.12637 33.8936 0.23525 34.2026 0.376554 34.4944C0.775646 35.3126 1.3973 35.8994 2.29075 36.1612C2.96124 36.3602 3.64775 36.3806 4.33745 36.2697C5.9066 36.0215 7.08466 35.2049 7.83521 33.8111C8.24111 33.0506 8.41283 32.2424 8.27153 31.3841C8.15304 30.6544 7.76836 30.0636 7.28881 29.536C6.76082 28.9504 6.20402 28.3976 5.66963 27.8199C5.34939 27.4701 5.03516 27.1142 4.74775 26.7387C4.48796 26.3973 4.52439 25.9654 4.80179 25.6636C5.11482 25.3253 5.50831 25.1752 5.96664 25.2072C6.51905 25.2441 6.89732 25.5631 7.20355 25.9898C7.32244 26.1563 7.42371 26.3361 7.53579 26.5142C8.2339 25.9934 8.93041 25.4746 9.65214 24.9382C9.4644 24.6868 9.29068 24.4467 9.10414 24.2141C8.47688 23.4215 7.66388 22.9452 6.64554 22.9083C6.53575 22.9051 6.42589 22.9051 6.3161 22.9083ZM9.65214 24.9378L9.65614 24.9434L9.66615 24.9278C9.66161 24.9316 9.65694 24.935 9.65214 24.9382V24.9378ZM39.5868 23.311C39.5452 23.3238 39.5276 23.3234 39.5164 23.3315C38.7014 23.8558 37.8864 24.3802 37.073 24.9114C37.033 24.937 36.9989 25.0019 36.9929 25.0515C36.768 26.7347 36.5486 28.418 36.3273 30.1004C36.0963 31.8665 35.8637 33.617 35.6339 35.3831C35.6051 35.6044 35.5811 35.8274 35.5539 36.0564H37.9144C38.1406 34.3399 38.3667 32.6243 38.5961 30.8738C38.657 30.9606 38.6922 31.0111 38.7258 31.0619C39.7826 32.6807 40.8622 34.3071 41.929 35.9323C41.9946 36.0331 42.0623 36.0668 42.1807 36.0668C43.0862 36.0636 43.9825 36.0668 44.8819 36.068V36.0488C44.8511 36.0167 44.8131 35.9875 44.7874 35.9527L40.5303 29.9615C40.5027 29.9235 40.4807 29.8826 40.4543 29.841C40.4951 29.7962 40.5303 29.7558 40.5656 29.7173C41.3914 28.8431 42.2136 27.9753 43.0398 27.1106C43.1122 27.0334 43.1414 26.9677 43.1222 26.8604C43.0246 26.328 42.9361 25.7925 42.8444 25.2581C42.8124 25.0719 42.7788 24.8862 42.742 24.6676C41.4378 26.1035 40.1593 27.5265 38.8791 28.9428L38.8503 28.9223C39.0957 27.0582 39.3415 25.1924 39.5868 23.311ZM44.8819 36.068V36.0804L44.8891 36.0684L44.8819 36.068ZM25.4997 26.228C25.3111 26.2322 25.1193 26.2464 24.9245 26.2704C22.2522 26.6006 20.0209 28.9604 19.9064 31.6503C19.8596 32.8072 20.1838 33.856 20.9604 34.7382C22.3959 36.3778 24.708 36.4915 26.474 35.6765C26.5109 35.6605 26.5441 35.6008 26.5505 35.5564C26.6666 34.6978 26.7779 33.8383 26.8968 32.9321L26.904 32.9189C26.5381 33.2991 26.1538 33.5834 25.7015 33.7635C24.8096 34.1149 23.9442 34.1125 23.1276 33.5685C22.2886 33.0073 21.9291 31.999 22.1569 30.945C22.4875 29.3571 24.0355 28.2326 25.6554 28.404C26.44 28.486 27.0333 28.8675 27.3895 29.5848C27.7234 30.2597 27.7766 30.9843 27.6929 31.7144C27.56 32.8852 27.3911 34.0601 27.2386 35.229C27.2082 35.4571 27.1826 35.6845 27.1557 35.9175H29.2517C29.2597 35.8718 29.2677 35.835 29.2729 35.8002C29.4058 34.7946 29.5459 33.7775 29.6724 32.7636C29.7609 32.051 29.8741 31.3373 29.9062 30.6172C29.9562 29.5284 29.6228 28.5385 28.9022 27.7127C27.9787 26.6519 26.8207 26.1972 25.4997 26.228ZM14.8207 26.2892C14.4376 26.2908 14.0474 26.3373 13.6519 26.4229C11.4735 26.9009 9.60491 28.7826 9.23023 30.9782C9.01688 32.2172 8.88638 33.4617 8.71946 34.7078C8.57375 35.7986 8.43125 36.8886 8.28794 37.9774C8.24791 38.2872 8.20908 38.599 8.16906 38.9085C8.20428 38.9181 8.21869 38.9265 8.2347 38.9265L10.1825 38.9297C10.2642 38.9317 10.2886 38.896 10.2982 38.8208C10.3801 38.1601 10.465 37.4997 10.5528 36.8397C10.6184 36.3442 10.6841 35.8498 10.7545 35.3254L10.7694 35.351C10.8334 35.3911 10.8754 35.4151 10.9127 35.4403C11.9358 36.1576 13.0798 36.3606 14.2951 36.1777C15.468 35.9995 16.4947 35.4747 17.3494 34.6469C18.6455 33.3764 19.3208 31.8569 19.1155 30.0256C18.9666 28.739 18.3365 27.6978 17.2341 26.9889C16.4747 26.4982 15.6641 26.2852 14.8207 26.2892ZM34.4211 26.5222C34.2698 26.5234 34.1186 26.527 33.9675 26.533C32.705 26.5826 31.4577 27.7067 31.2604 28.9608C31.1142 29.9011 31.0022 30.8438 30.8789 31.782C30.7344 32.8552 30.5915 33.9476 30.4486 35.0336C30.4085 35.3462 30.3705 35.6577 30.3285 35.9799H32.5245C32.5789 35.5521 32.6334 35.1276 32.6878 34.7062L33.3483 29.6893C33.3663 29.5528 33.3819 29.4139 33.4219 29.2858C33.53 28.9552 33.8522 28.7262 34.2053 28.7246C34.6416 28.7214 35.0759 28.723 35.5223 28.723L35.8089 26.5446L35.7997 26.5298C35.3325 26.5298 34.875 26.5182 34.4211 26.5222ZM14.5121 28.4244C15.5749 28.4196 16.516 29.0516 16.8506 30.08C16.9327 30.3334 16.9587 30.6032 16.9935 30.7877H17.0043C16.9339 32.0819 16.3791 32.9953 15.3539 33.6094C14.5793 34.0729 13.7435 34.2042 12.8789 33.8916C11.8057 33.5113 11.2281 32.4713 11.337 31.3982C11.4691 29.9419 12.4914 28.8243 13.9125 28.494C14.1092 28.4493 14.3103 28.4259 14.5121 28.4244ZM45.3915 34.9612V35.1089H45.7397V36.068H45.9211V35.1089L45.9227 35.1097H46.2697V34.9612H45.3915ZM46.4939 34.962V36.068H46.6756V35.1449H46.6816L47.0435 36.068H47.1596L47.5238 35.1449H47.5283V36.068H47.7128V34.962H47.4326L47.1071 35.8038L46.7761 34.962H46.4939Z" fill="white"/>
</g>
<defs>
<clipPath id="clip0_13400_1226">
<rect width="51.2375" height="51.2375" fill="white"/>
</clipPath>
</defs>
</svg>
