<svg width="43" height="52" viewBox="0 0 43 52" fill="none" xmlns="http://www.w3.org/2000/svg">
<path d="M0 29.1395C0 20.456 6.17514 14.185 16.3067 4.72852C14.8587 22.2894 30.5861 23.1559 27.4963 31.9375C25.2909 38.2084 18.042 36.2792 17.2712 34.927C17.2712 34.927 19.9712 35.7 20.3566 32.9978C20.7442 30.2957 15.3398 28.8499 11.8691 21.9998C6.07713 28.6561 9.7439 42.0667 21.2254 42.0667C31.8381 42.0667 35.8902 31.0687 32.1277 24.0247C32.1277 24.0247 41.1966 25.5685 41.9696 32.5144C42.7404 39.4626 33.8653 51.5233 21.7088 51.2337C9.55232 50.9441 0 41.971 0 29.1395Z" fill="#3DC8F9"/>
<path d="M35.3131 13.6045L21.4191 0C20.2607 13.2169 23.3482 18.6546 32.3214 21.1296C38.4007 22.807 39.6883 23.4464 42.3548 27.3047C41.6019 21.9427 40.6173 18.8128 35.3131 13.6045Z" fill="#EA0100"/>
<path fill-rule="evenodd" clip-rule="evenodd" d="M15.6676 40.8172C17.247 41.6058 19.1027 42.0647 21.2257 42.0647C31.8384 42.0647 35.8905 31.0666 32.128 24.0227C32.128 24.0227 41.1969 25.5665 41.9699 32.5124C42.3174 35.6379 40.7112 39.7969 37.7328 43.4058C30.0295 46.9033 21.493 45.2771 15.6676 40.8172Z" fill="#1652D8"/>
</svg>
