<svg width="50" height="52" viewBox="0 0 50 52" fill="none" xmlns="http://www.w3.org/2000/svg">
<path d="M49.4296 30.6924C49.1317 29.7877 48.3514 29.1576 47.3423 29.0064C46.8664 28.9352 46.3215 28.9656 45.6767 29.0989C44.5527 29.3314 43.7188 29.42 43.1102 29.4371C45.4073 25.548 47.2751 21.1131 48.3504 16.9384C50.0892 10.188 49.1601 7.11274 48.0743 5.72175C45.2008 2.03995 41.0085 0.0620464 35.9509 0.0015263C33.2528 -0.0315554 30.8843 0.502617 29.6487 0.886755C28.4983 0.683205 27.2614 0.569559 25.9635 0.548543C23.5305 0.509623 21.3809 1.04146 19.5441 2.13452C18.5272 1.78969 16.8952 1.30358 15.0104 0.993395C10.5777 0.26365 7.005 0.832267 4.39176 2.68348C1.22739 4.92487 -0.239521 8.81917 0.0317774 14.2582C0.117941 15.9851 1.08126 21.2392 2.59805 26.2221C3.46978 29.0862 4.39933 31.4646 5.36091 33.2919C6.72458 35.883 8.18373 37.4088 9.82181 37.9568C10.7399 38.2635 12.4081 38.4783 14.1626 37.013C14.385 37.2831 14.6817 37.5514 15.0754 37.8007C15.5755 38.1169 16.187 38.3754 16.7977 38.5285C18.9986 39.0802 21.0601 38.9422 22.8189 38.1689C22.8298 38.4826 22.8381 38.7823 22.8451 39.0411C22.8567 39.4608 22.8684 39.8724 22.8837 40.2573C22.9879 42.8599 23.1645 44.8835 23.6877 46.2994C23.7164 46.3773 23.7551 46.496 23.7958 46.6219C24.0568 47.4232 24.4933 48.7648 25.6037 49.8154C26.7535 50.9038 28.1443 51.2376 29.4182 51.2376C30.057 51.2376 30.6666 51.1535 31.2012 51.0387C33.1069 50.629 35.2713 50.0052 36.8369 47.7696C38.3173 45.6563 39.0368 42.4732 39.167 37.4578C39.1839 37.316 39.1995 37.1805 39.2144 37.0515L39.2455 36.7865L39.5942 36.8172L39.684 36.8233C41.625 36.912 43.9984 36.4992 45.456 35.8203C46.6078 35.2844 50.2986 33.3304 49.4296 30.6924" fill="black"/>
<path d="M46.1107 31.2054C40.3393 32.3993 39.9424 30.4399 39.9424 30.4399C46.036 21.3729 48.5834 9.86379 46.3853 7.04697C40.388 -0.63676 30.0066 2.99718 29.8333 3.09136L29.7776 3.10148C28.6373 2.86407 27.3614 2.72279 25.9271 2.69925C23.3158 2.65643 21.3348 3.38579 19.8316 4.52886C19.8316 4.52886 1.31224 -3.12159 2.17368 14.1506C2.35687 17.825 7.42577 41.9535 13.4716 34.6656C15.6814 32.0006 17.8166 29.7473 17.8166 29.7473C18.877 30.4537 20.1465 30.8141 21.4774 30.6847L21.5809 30.5967C21.5486 30.9275 21.5634 31.2512 21.6222 31.6343C20.0646 33.3793 20.5224 33.6856 17.4089 34.3284C14.2583 34.9795 16.1091 36.1385 17.3175 36.4417C18.7825 36.8089 22.1716 37.3293 24.4615 34.1147L24.3703 34.4815C24.9804 34.9717 25.4089 37.6696 25.3371 40.1155C25.2653 42.5612 25.2174 44.2404 25.6981 45.552C26.1792 46.8636 26.6583 49.8147 30.7514 48.9353C34.1714 48.2003 35.9438 46.2958 36.1904 43.1188C36.3653 40.8603 36.7614 41.1942 36.7862 39.1748L37.1039 38.219C37.4701 35.1573 37.1621 34.1696 39.269 34.629L39.7813 34.6742C41.3319 34.7448 43.3618 34.4239 44.5531 33.8687C47.1182 32.675 48.6397 30.6818 46.1103 31.2054H46.1107" fill="#336791"/>
<path d="M20.9163 15.7947C20.3962 15.7221 19.9252 15.7892 19.6869 15.9702C19.553 16.072 19.5115 16.1899 19.5002 16.2711C19.4703 16.4861 19.6205 16.7239 19.7129 16.8465C19.9741 17.1936 20.3556 17.4322 20.7333 17.4848C20.788 17.4926 20.8425 17.4961 20.8967 17.4961C21.5264 17.4961 22.0991 17.0043 22.1495 16.6414C22.2126 16.1868 21.5545 15.8838 20.9163 15.7949V15.7947ZM38.1459 15.8091C38.0962 15.4528 37.4639 15.3512 36.8639 15.4349C36.2646 15.5186 35.6836 15.7898 35.7321 16.1469C35.7709 16.4246 36.271 16.8986 36.8629 16.8986C36.913 16.8986 36.9635 16.8953 37.0143 16.8881C37.4094 16.8333 37.6993 16.5816 37.8371 16.4367C38.0467 16.2156 38.1682 15.9692 38.1459 15.8091" fill="white"/>
<path d="M48.0313 31.0694C47.8112 30.4021 47.1029 30.1875 45.9261 30.4311C42.432 31.1543 41.1807 30.6534 40.7699 30.35C43.4858 26.2011 45.72 21.1859 46.9253 16.5068C47.4963 14.2903 47.8116 12.2319 47.8374 10.554C47.866 8.71254 47.5531 7.3593 46.9081 6.53264C44.3072 3.20013 40.49 1.41255 35.8694 1.36351C32.6928 1.3277 30.0089 2.14288 29.4887 2.37212C28.393 2.0989 27.1985 1.93115 25.8981 1.90975C23.5135 1.87102 21.4521 2.44353 19.7456 3.61054C19.0042 3.33382 17.0885 2.67433 14.7456 2.29583C10.6951 1.64198 7.47637 2.13743 5.17945 3.76914C2.43871 5.7163 1.17342 9.19689 1.41852 14.114C1.501 15.7683 2.44104 20.8575 3.92445 25.7312C5.8771 32.1459 7.99975 35.7774 10.233 36.5244C10.4944 36.6118 10.7958 36.6729 11.1282 36.6729C11.9429 36.6729 12.9417 36.3047 13.9809 35.0519C15.2485 33.5271 16.5597 32.0394 17.9128 30.5905C18.7908 31.063 19.7553 31.3269 20.7417 31.3533C20.7436 31.3792 20.7461 31.4051 20.7485 31.4308C20.5787 31.6338 20.4124 31.8398 20.2497 32.0486C19.5663 32.9187 19.424 33.0999 17.2239 33.5541C16.5981 33.6837 14.9359 34.0271 14.9115 35.1955C14.8851 36.4721 16.8764 37.0082 17.1032 37.065C17.8938 37.2635 18.6555 37.3614 19.3819 37.3614C21.1484 37.3614 22.7031 36.7791 23.9455 35.6526C23.9072 40.2035 24.0964 44.6878 24.6414 46.0541C25.0877 47.1727 26.178 49.9062 29.6218 49.906C30.1271 49.906 30.6833 49.847 31.2952 49.7155C34.8894 48.9429 36.4502 47.35 37.054 43.838C37.3771 41.9611 37.9315 37.4793 38.1923 35.0752C38.7427 35.2475 39.4512 35.3263 40.2172 35.3261C41.8147 35.3261 43.6581 34.9857 44.8141 34.4477C46.1128 33.8428 48.4563 32.3588 48.0313 31.0694V31.0694ZM39.472 14.8243C39.4602 15.534 39.3627 16.1783 39.2595 16.8509C39.1483 17.5742 39.0334 18.322 39.0045 19.2298C38.976 20.1133 39.086 21.0318 39.1923 21.9202C39.4074 23.7144 39.628 25.5615 38.7739 27.3841C38.6321 27.132 38.5057 26.8715 38.3955 26.604C38.2894 26.3459 38.0588 25.9314 37.7396 25.3577C36.4978 23.1245 33.5898 17.8949 35.0784 15.7609C35.5219 15.1257 36.6472 14.4727 39.472 14.8243V14.8243ZM36.048 2.80062C40.1881 2.89228 43.4631 4.44537 45.7817 7.41651C47.5601 9.69546 45.6018 20.065 39.9327 29.011C39.8757 28.9383 39.8184 28.8658 39.7608 28.7936L39.689 28.7037C41.1539 26.2776 40.8675 23.8772 40.6125 21.7491C40.5077 20.8757 40.4087 20.0508 40.434 19.2759C40.46 18.4547 40.5682 17.7503 40.673 17.0692C40.8017 16.2299 40.9327 15.3614 40.8966 14.3376C40.9236 14.2302 40.9344 14.1033 40.9203 13.9527C40.8281 12.9709 39.7103 10.0327 37.432 7.37331C36.1857 5.91868 34.3683 4.29086 31.8869 3.19293C32.9542 2.97109 34.4138 2.76423 36.048 2.80062V2.80062ZM12.8812 34.1349C11.7362 35.5154 10.9456 35.2508 10.6856 35.164C8.99141 34.5973 7.02556 31.0066 5.29239 25.3126C3.79268 20.3857 2.91629 15.4315 2.84682 14.0422C2.62792 9.64856 3.69002 6.58654 6.00382 4.94102C9.76941 2.26333 15.9604 3.86605 18.4481 4.67889C18.4124 4.71431 18.3751 4.74739 18.3398 4.78339C14.2575 8.91745 14.3543 15.9806 14.3644 16.4124C14.364 16.579 14.378 16.8149 14.397 17.1393C14.4673 18.3273 14.5981 20.5383 14.2488 23.0422C13.9243 25.369 14.6396 27.6464 16.2109 29.2906C16.3722 29.459 16.5417 29.6193 16.7188 29.7709C16.0194 30.522 14.4993 32.1831 12.8812 34.1349V34.1349ZM17.2435 28.2983C15.9771 26.9731 15.4019 25.1299 15.6652 23.2407C16.0339 20.5957 15.8979 18.2921 15.8247 17.0544C15.8144 16.8812 15.8053 16.7294 15.8001 16.6097C16.3964 16.0795 19.1601 14.5947 21.131 15.0475C22.0303 15.254 22.5783 15.8681 22.8061 16.9244C23.9852 22.3932 22.9621 24.6726 22.1401 26.5043C21.9707 26.8817 21.8106 27.2384 21.674 27.6073L21.568 27.8926C21.2998 28.6138 21.0502 29.2844 20.8956 29.9211C19.5492 29.9172 18.2394 29.3404 17.2435 28.2981V28.2983ZM17.4502 35.6736C17.057 35.5752 16.7034 35.4041 16.496 35.2623C16.6693 35.1805 16.9777 35.0692 17.5125 34.9587C20.1007 34.4245 20.5005 34.0474 21.3734 32.936C21.5734 32.6811 21.8003 32.3923 22.1145 32.0405L22.1149 32.0401C22.5828 31.5147 22.7968 31.6038 23.1849 31.7653C23.4995 31.8957 23.8059 32.2911 23.9301 32.7262C23.9889 32.9317 24.0549 33.3217 23.8389 33.6253C22.0155 36.1854 19.3584 36.1525 17.4502 35.6736V35.6736ZM30.9955 48.3132C27.8292 48.9935 26.7081 47.3735 25.9693 45.5215C25.4925 44.3259 25.2581 38.9343 25.4244 32.9802C25.4265 32.901 25.4153 32.8245 25.3936 32.7525C25.3741 32.6103 25.3445 32.4697 25.3051 32.3318C25.0578 31.4654 24.4553 30.7407 23.7324 30.4403C23.4452 30.321 22.9181 30.1021 22.2847 30.2646C22.4197 29.7065 22.654 29.0761 22.908 28.3937L23.0145 28.1067C23.1345 27.783 23.2851 27.4477 23.4442 27.0928C24.3045 25.1764 25.4826 22.5514 24.2039 16.6214C23.725 14.4003 22.1255 13.3156 19.7009 13.5676C18.2474 13.7184 16.9175 14.3065 16.2542 14.6437C16.1116 14.7161 15.9811 14.7862 15.8593 14.8543C16.0444 12.6164 16.7438 8.43407 19.3602 5.78791C21.0076 4.12214 23.2014 3.29938 25.8744 3.34375C31.1413 3.43015 34.5187 6.14052 36.4248 8.39923C38.0674 10.3454 38.9568 12.306 39.3117 13.3635C36.6424 13.0912 34.8269 13.6195 33.9067 14.9389C31.9045 17.8089 35.002 23.3791 36.4906 26.0562C36.7637 26.5467 36.9992 26.9708 37.0734 27.151C37.5581 28.3291 38.1857 29.1156 38.6439 29.6897C38.7844 29.8656 38.9207 30.0363 39.0243 30.1854C38.2158 30.4191 36.7637 30.9591 36.896 33.6584C36.7893 35.0128 36.0303 41.354 35.6447 43.5944C35.1357 46.5542 34.0495 47.6566 30.9955 48.3134V48.3132ZM44.212 33.147C43.3853 33.5317 42.0018 33.8203 40.6876 33.8823C39.236 33.9505 38.497 33.7193 38.3231 33.577C38.2416 31.8949 38.8659 31.7192 39.5267 31.5332C39.6305 31.504 39.7318 31.4754 39.8296 31.4411C39.8904 31.4907 39.957 31.54 40.0299 31.5882C41.1966 32.3604 43.2776 32.4437 46.2155 31.8356L46.2477 31.8291C45.8514 32.2006 45.1733 32.6992 44.212 33.147Z" fill="white"/>
</svg>
