<svg width="32" height="52" viewBox="0 0 32 52" fill="none" xmlns="http://www.w3.org/2000/svg">
<g clip-path="url(#clip0_13400_1222)">
<path d="M10.9094 4.55462C10.3449 3.98753 9.55759 3.63731 8.68233 3.63731C7.8103 3.63731 7.02908 3.98753 6.4713 4.55462H6.45517C5.89255 5.1191 5.54233 5.90689 5.54233 6.77905C5.54233 7.6543 5.89255 8.43552 6.4553 8.99665L6.4713 9.0093C7.02908 9.57378 7.8103 9.92066 8.68233 9.92066C9.55759 9.92066 10.345 9.57366 10.9094 9.0093L10.9178 8.99677C11.4833 8.43564 11.8301 7.65443 11.8301 6.77905C11.8301 5.90702 11.4833 5.1191 10.9178 4.55474L10.9094 4.55462ZM8.68233 47.5594C9.51613 47.5601 10.3165 47.2316 10.9094 46.6453L10.9177 46.6287C11.4831 46.072 11.83 45.2841 11.83 44.4183C11.83 43.5429 11.4831 42.7583 10.9177 42.1911H10.9094C10.3449 41.6173 9.55759 41.2706 8.68233 41.2706C7.8103 41.2706 7.02908 41.6173 6.4713 42.1911H6.45517C5.89255 42.7583 5.54233 43.5429 5.54233 44.4183C5.54233 45.2842 5.89255 46.072 6.4553 46.6287L6.4713 46.6453C6.76158 46.9356 7.10631 47.1658 7.48572 47.3227C7.86513 47.4795 8.27177 47.56 8.68233 47.5594ZM25.7994 38.0414C26.5779 37.8372 27.2828 37.3376 27.7128 36.5823L27.7708 36.4722C28.1532 35.7556 28.2229 34.9289 28.0187 34.1964C27.8129 33.4119 27.3072 32.718 26.5535 32.2837L26.5099 32.2543C25.7757 31.852 24.939 31.7646 24.1704 31.9721C23.3892 32.1669 22.6877 32.6886 22.2599 33.4378C21.8267 34.1798 21.736 35.0357 21.9435 35.8236C22.1575 36.5983 22.6583 37.2987 23.407 37.7364H23.4119C24.1621 38.1675 25.0121 38.2456 25.7994 38.0414ZM11.9066 22.3789C11.0811 21.5555 9.94342 21.0398 8.68245 21.0398C7.42645 21.0398 6.29154 21.5555 5.46777 22.3789C4.64772 23.1995 4.14204 24.3342 4.14204 25.5919C4.14204 26.853 4.64772 27.9911 5.46777 28.8211C6.29154 29.6377 7.42645 30.15 8.68245 30.15C9.94342 30.15 11.0811 29.6377 11.9066 28.8211C12.7282 27.9911 13.234 26.853 13.234 25.5919C13.234 24.3343 12.7282 23.1995 11.9066 22.3789ZM10.094 17.0239C11.921 17.3249 13.5648 18.2003 14.8192 19.4646H14.8291C15.0305 19.6681 15.222 19.8812 15.4029 20.1031L18.5397 18.2883C18.118 17.014 18.0986 15.6817 18.4372 14.4334C18.8849 12.7602 19.9693 11.2624 21.5949 10.3224L21.6486 10.2901C23.2565 9.37888 25.0847 9.19081 26.7352 9.63842C27.5958 9.86827 28.4025 10.2658 29.109 10.8083C29.8156 11.3508 30.408 12.0275 30.8523 12.7995V12.8027C31.7863 14.4174 31.9762 16.2715 31.5302 17.938C31.0859 19.6101 29.9964 21.1179 28.3724 22.0513L27.9442 22.3047H27.9005C26.3982 23.0207 24.7461 23.1314 23.2289 22.7324C21.9829 22.4015 20.8398 21.7076 19.945 20.7189L16.8133 22.5283C17.1837 23.5072 17.3732 24.5453 17.3727 25.5919C17.3724 26.6437 17.1829 27.6869 16.8132 28.6716L19.945 30.4742C20.8398 29.4728 21.9829 28.7917 23.2289 28.4608C24.8999 28.0038 26.7529 28.1985 28.3725 29.1419L28.4759 29.1907V29.1972C30.0407 30.1435 31.0909 31.6091 31.5302 33.2624C31.7599 34.1199 31.8183 35.0143 31.7019 35.8945C31.5856 36.7746 31.2969 37.6232 30.8523 38.3916L30.796 38.505L30.7893 38.495C29.8509 40.0549 28.3725 41.1116 26.7401 41.5588C25.0653 41.9997 23.2128 41.8116 21.5949 40.8814V40.8682C19.9693 39.9281 18.8849 38.4269 18.4372 36.7577C18.0986 35.5127 18.118 34.1798 18.5397 32.9061L15.4029 31.0968C15.223 31.3176 15.0282 31.525 14.8291 31.7259L14.8192 31.7353C13.5649 32.9935 11.921 33.8689 10.0939 34.1605V37.7852C11.3958 38.0574 12.5627 38.7092 13.4774 39.6233L13.4818 39.6332C14.7075 40.8521 15.466 42.5508 15.466 44.4183C15.466 46.2796 14.7074 47.9677 13.4818 49.1933L13.4774 49.2126C12.2435 50.4382 10.5498 51.1967 8.68245 51.1967C6.825 51.1967 5.12908 50.4382 3.89863 49.2126H3.89417V49.1933C2.66682 47.9677 1.9067 46.2796 1.9067 44.4181C1.90548 43.5288 2.0805 42.6481 2.42163 41.8268C2.76276 41.0055 3.26324 40.2599 3.89417 39.6332V39.6233H3.89851C4.8116 38.7092 5.98014 38.0574 7.2787 37.7852V34.1605C5.45003 33.8689 3.81117 32.9935 2.55839 31.7353L2.54512 31.7259C0.979213 30.1534 0.000366211 27.9911 0.000366211 25.5919C0.000366211 23.1995 0.979213 21.0371 2.545 19.4646H2.55827C3.81105 18.2004 5.4499 17.3249 7.27857 17.0239V13.4154C5.9993 13.1364 4.82647 12.4975 3.89839 11.5739H3.89404V11.564C2.6667 10.3323 1.90657 8.6463 1.90657 6.77892C1.90657 4.92097 2.6667 3.21897 3.89404 1.99336L3.89839 1.98729C5.12908 0.758454 6.825 -0.000183105 8.68221 -0.000183105C10.5497 -0.000183105 12.2434 0.758454 13.4772 1.98729V1.99349H13.4817C14.7074 3.21897 15.4659 4.92097 15.4659 6.77892C15.4659 8.6463 14.7073 10.3323 13.4817 11.564L13.4773 11.5739C12.5626 12.4819 11.3957 13.1331 10.0938 13.4154L10.094 17.0239ZM27.7129 14.6181L27.6869 14.5794C27.2536 13.8497 26.5631 13.3632 25.7995 13.1525C25.0122 12.945 24.1623 13.033 23.4071 13.464H23.4121C22.6584 13.8918 22.1543 14.5922 21.9435 15.3768C21.8367 15.7757 21.8097 16.1918 21.864 16.6012C21.9183 17.0106 22.0529 17.4053 22.26 17.7626L22.2744 17.7825C22.4805 18.1347 22.7541 18.4428 23.0794 18.6891C23.4048 18.9354 23.7756 19.1151 24.1706 19.2178C24.5682 19.3289 24.984 19.3588 25.3934 19.306C25.8028 19.2531 26.1974 19.1185 26.5538 18.9102L26.5941 18.8908C27.3267 18.4531 27.8146 17.7626 28.0188 17.0041C28.2264 16.2227 28.1439 15.3668 27.7129 14.6181Z" fill="white"/>
</g>
<defs>
<clipPath id="clip0_13400_1222">
<rect width="31.7598" height="51.2375" fill="white"/>
</clipPath>
</defs>
</svg>
