<svg width="37" height="52" viewBox="0 0 37 52" fill="none" xmlns="http://www.w3.org/2000/svg">
<path d="M0.206543 17.6724L12.9815 25.6903L26.7739 17.0352V10.275L0.206543 1.94781V17.6724Z" fill="#FEE900"/>
<path d="M0.206543 1.94781V17.6724V17.8848V33.7082L26.7739 17.0352V10.275L0.206543 1.94781Z" fill="#FFC400"/>
<path opacity="0.75" d="M0.206543 17.871V33.6944L12.9815 25.6765L0.206543 17.6605V17.871Z" fill="url(#paint0_linear_13400_1202)"/>
<path d="M0.206543 17.6714V33.7072V49.2735L26.7739 41.1046V34.3464L0.206543 17.6714Z" fill="#FFC400"/>
<path d="M0.0889893 36.2718V39.1637L26.7737 41.5413V33.8961L0.0889893 36.2718Z" fill="#FFE082"/>
<path d="M0 12.2974V15.1912L26.6512 17.5669V9.92169L0 12.2974Z" fill="#FFE082"/>
<path d="M0.206543 1.94781L26.7739 10.275L0.206543 1.94781Z" fill="#FEE900"/>
<path d="M12.9814 25.6894L26.7738 17.0342L12.9814 25.6894Z" fill="url(#paint1_linear_13400_1202)"/>
<path d="M23.7393 37.7181C23.7393 38.5231 24.059 39.2951 24.6283 39.8644C25.1975 40.4336 25.9695 40.7534 26.7746 40.7534V34.6827C25.9695 34.6827 25.1975 35.0024 24.6283 35.5717C24.059 36.1409 23.7393 36.9131 23.7393 37.7181Z" fill="white"/>
<path d="M23.7393 13.7436C23.7393 14.5486 24.059 15.3208 24.6283 15.89C25.1975 16.4592 25.9695 16.779 26.7746 16.779V10.7083C25.9695 10.7083 25.1975 11.0281 24.6283 11.5973C24.059 12.1666 23.7393 12.9386 23.7393 13.7436Z" fill="white"/>
<path d="M36.3078 32.4812C35.9672 31.2625 35.4262 30.1091 34.7068 29.0681C33.9714 28.0164 33.0538 27.1047 31.9973 26.3761C30.8238 25.5762 29.52 24.9869 28.1443 24.6343C30.3866 23.7588 32.3206 22.2409 33.7039 20.271C34.9683 18.4029 35.6312 16.1928 35.604 13.9373C35.6561 11.8034 35.2418 9.68386 34.3901 7.72666C33.6096 6.01482 32.4044 4.53104 30.8889 3.41624C29.207 2.21886 27.3059 1.364 25.2941 0.900335C22.8504 0.322034 20.3453 0.0443301 17.8343 0.0734161H0.275757V2.0507L26.2809 10.1527C26.4241 10.1993 26.549 10.29 26.6375 10.4119C26.7261 10.5338 26.7737 10.6806 26.7737 10.8312V16.6373C26.7737 16.7641 26.7398 16.8886 26.6758 16.998C26.6117 17.1074 26.5197 17.1977 26.4091 17.2597L13.0854 25.6899L26.4091 34.1202C26.5197 34.1822 26.6117 34.2725 26.6758 34.3819C26.7398 34.4913 26.7737 34.6157 26.7737 34.7425V40.5486C26.7737 40.6992 26.7261 40.846 26.6375 40.9679C26.549 41.0898 26.4241 41.1806 26.2809 41.2272L0.275757 49.3291V51.3065H19.0659C21.5788 51.3398 24.084 51.02 26.508 50.3564C28.5461 49.8022 30.4499 48.8383 32.1029 47.5236C33.6373 46.2715 34.8447 44.6655 35.6215 42.8437C36.468 40.7862 36.8813 38.5762 36.8356 36.3519C36.8395 35.0435 36.6618 33.7408 36.3078 32.4812Z" fill="#FF6D00" stroke="#FF6D00" stroke-width="0.142694" stroke-miterlimit="10"/>
<defs>
<linearGradient id="paint0_linear_13400_1202" x1="0.206636" y1="25.6766" x2="12.9812" y2="25.6766" gradientUnits="userSpaceOnUse">
<stop stop-color="#FFC400"/>
<stop offset="0.13695" stop-color="#FECD00"/>
<stop offset="0.36528" stop-color="#FED400"/>
<stop offset="1" stop-color="#FED600"/>
</linearGradient>
<linearGradient id="paint1_linear_13400_1202" x1="0.206574" y1="21.3615" x2="26.7739" y2="21.3615" gradientUnits="userSpaceOnUse">
<stop stop-color="#FFFF00" stop-opacity="0.7"/>
<stop offset="0.13194" stop-color="#FFF600" stop-opacity="0.66022"/>
<stop offset="0.31385" stop-color="#FEEF00" stop-opacity="0.62592"/>
<stop offset="0.54652" stop-color="#FEEA00" stop-opacity="0.60587"/>
<stop offset="1" stop-color="#FEE900" stop-opacity="0.6"/>
</linearGradient>
</defs>
</svg>
