<svg width="52" height="52" viewBox="0 0 52 52" fill="none" xmlns="http://www.w3.org/2000/svg">
<g clip-path="url(#clip0_13400_1092)">
<path d="M14.4396 21.3759C14.4396 22.0064 14.5077 22.5177 14.627 22.8926C14.7634 23.2675 14.9338 23.6765 15.1724 24.1195C15.2576 24.2559 15.2916 24.3922 15.2916 24.5115C15.2916 24.6819 15.1894 24.8523 14.9679 25.0227L13.8943 25.7384C13.7409 25.8407 13.5875 25.8918 13.4512 25.8918C13.2808 25.8918 13.1104 25.8066 12.94 25.6532C12.7014 25.3976 12.4969 25.125 12.3265 24.8523C12.1561 24.5626 11.9857 24.2388 11.7982 23.8469C10.469 25.4147 8.79899 26.1985 6.78815 26.1985C5.3567 26.1985 4.21495 25.7896 3.37994 24.9716C2.54492 24.1536 2.1189 23.063 2.1189 21.6997C2.1189 20.2512 2.63013 19.0754 3.66963 18.1892C4.70914 17.3031 6.08946 16.86 7.84469 16.86C8.42409 16.86 9.02053 16.9112 9.65105 16.9964C10.2816 17.0816 10.9291 17.2179 11.6108 17.3713V16.1273C11.6108 14.8322 11.3381 13.929 10.8098 13.4007C10.2645 12.8724 9.34431 12.6168 8.03214 12.6168C7.43571 12.6168 6.82223 12.685 6.19171 12.8384C5.56119 12.9917 4.94771 13.1792 4.35128 13.4177C4.07862 13.537 3.87413 13.6052 3.75484 13.6393C3.63555 13.6734 3.55035 13.6904 3.48218 13.6904C3.24361 13.6904 3.12432 13.52 3.12432 13.1621V12.3271C3.12432 12.0545 3.1584 11.85 3.24361 11.7307C3.32881 11.6114 3.48218 11.4921 3.72076 11.3728C4.31719 11.0661 5.03292 10.8105 5.86793 10.606C6.70294 10.3844 7.58908 10.2822 8.52634 10.2822C10.5542 10.2822 12.0368 10.7423 12.9911 11.6625C13.9284 12.5827 14.4055 13.9801 14.4055 15.8546V21.3759H14.4396ZM7.52091 23.9662C8.08327 23.9662 8.66266 23.8639 9.27614 23.6594C9.88962 23.4549 10.4349 23.08 10.895 22.5688C11.1677 22.245 11.3722 21.8872 11.4744 21.4782C11.5767 21.0692 11.6449 20.575 11.6449 19.9956V19.2799C11.1507 19.1606 10.6224 19.0583 10.0771 18.9902C9.53176 18.922 9.00349 18.8879 8.47521 18.8879C7.33346 18.8879 6.49845 19.1095 5.93609 19.5696C5.37374 20.0297 5.10108 20.6772 5.10108 21.5293C5.10108 22.3302 5.30558 22.9267 5.7316 23.3356C6.14059 23.7617 6.73702 23.9662 7.52091 23.9662V23.9662ZM21.2049 25.8066C20.8981 25.8066 20.6937 25.7555 20.5573 25.6362C20.421 25.5339 20.3017 25.2954 20.1995 24.9716L16.1948 11.7988C16.0926 11.458 16.0414 11.2365 16.0414 11.1172C16.0414 10.8445 16.1778 10.6912 16.4504 10.6912H18.1205C18.4442 10.6912 18.6658 10.7423 18.7851 10.8616C18.9214 10.9638 19.0236 11.2024 19.1259 11.5262L21.9888 22.8074L24.6472 11.5262C24.7324 11.1854 24.8346 10.9638 24.971 10.8616C25.1073 10.7593 25.3459 10.6912 25.6526 10.6912H27.0159C27.3397 10.6912 27.5612 10.7423 27.6975 10.8616C27.8339 10.9638 27.9531 11.2024 28.0213 11.5262L30.7138 22.9437L33.6619 11.5262C33.7641 11.1854 33.8834 10.9638 34.0027 10.8616C34.1391 10.7593 34.3606 10.6912 34.6673 10.6912H36.2521C36.5248 10.6912 36.6782 10.8275 36.6782 11.1172C36.6782 11.2024 36.6611 11.2876 36.6441 11.3899C36.627 11.4921 36.593 11.6284 36.5248 11.8159L32.4179 24.9886C32.3157 25.3295 32.1964 25.551 32.06 25.6532C31.9237 25.7555 31.7022 25.8236 31.4125 25.8236H29.947C29.6232 25.8236 29.4016 25.7725 29.2653 25.6532C29.129 25.5339 29.0097 25.3124 28.9415 24.9716L26.3002 13.9801L23.6758 24.9545C23.5906 25.2954 23.4884 25.5169 23.3521 25.6362C23.2157 25.7555 22.9772 25.8066 22.6704 25.8066H21.2049ZM43.1027 26.2667C42.2165 26.2667 41.3304 26.1645 40.4783 25.96C39.6263 25.7555 38.9617 25.5339 38.5186 25.2783C38.2459 25.125 38.0585 24.9545 37.9903 24.8012C37.9222 24.6478 37.8881 24.4774 37.8881 24.324V23.4549C37.8881 23.0971 38.0244 22.9267 38.28 22.9267C38.3823 22.9267 38.4845 22.9437 38.5868 22.9778C38.689 23.0119 38.8424 23.08 39.0128 23.1482C39.5922 23.4038 40.2227 23.6083 40.8873 23.7446C41.569 23.881 42.2336 23.9491 42.9152 23.9491C43.9888 23.9491 44.8238 23.7617 45.4032 23.3868C45.9826 23.0119 46.2893 22.4666 46.2893 21.7679C46.2893 21.2907 46.136 20.8988 45.8292 20.575C45.5225 20.2512 44.9431 19.9615 44.1081 19.6889L41.6371 18.922C40.3931 18.5301 39.4729 17.9507 38.9106 17.1838C38.3482 16.434 38.0585 15.599 38.0585 14.7129C38.0585 13.9971 38.2119 13.3666 38.5186 12.8213C38.8253 12.276 39.2343 11.7988 39.7456 11.4239C40.2568 11.032 40.8362 10.7423 41.5178 10.5378C42.1995 10.3333 42.9152 10.2481 43.665 10.2481C44.0399 10.2481 44.4319 10.2651 44.8068 10.3163C45.1987 10.3674 45.5566 10.4356 45.9144 10.5037C46.2553 10.5889 46.579 10.6741 46.8858 10.7764C47.1925 10.8786 47.4311 10.9809 47.6015 11.0831C47.8401 11.2194 48.0105 11.3558 48.1127 11.5091C48.215 11.6455 48.2661 11.8329 48.2661 12.0715V12.8724C48.2661 13.2303 48.1298 13.4177 47.8742 13.4177C47.7378 13.4177 47.5163 13.3496 47.2266 13.2133C46.2552 12.7702 45.1646 12.5487 43.9547 12.5487C42.9834 12.5487 42.2165 12.702 41.6882 13.0258C41.16 13.3496 40.8873 13.8438 40.8873 14.5425C40.8873 15.0196 41.0577 15.4286 41.3985 15.7524C41.7394 16.0762 42.3699 16.3999 43.2731 16.6896L45.6929 17.4565C46.9198 17.8484 47.806 18.3937 48.3343 19.0924C48.8625 19.7911 49.1181 20.592 49.1181 21.4782C49.1181 22.2109 48.9648 22.8755 48.6751 23.4549C48.3683 24.0343 47.9594 24.5456 47.4311 24.9545C46.9028 25.3806 46.2723 25.6873 45.5395 25.9088C44.7727 26.1474 43.9717 26.2667 43.1027 26.2667V26.2667Z" fill="white"/>
<path fill-rule="evenodd" clip-rule="evenodd" d="M46.3227 34.5489C40.7162 38.6898 32.5705 40.8881 25.5667 40.8881C15.751 40.8881 6.90672 37.2584 0.226623 31.2258C-0.301649 30.7487 0.1755 30.1011 0.806019 30.476C8.03142 34.6681 16.9439 37.2073 26.1631 37.2073C32.3831 37.2073 39.2165 35.9121 45.5047 33.2537C46.442 32.8277 47.2429 33.8672 46.3227 34.5489V34.5489Z" fill="#FF9900"/>
<path fill-rule="evenodd" clip-rule="evenodd" d="M48.6588 31.8916C47.943 30.9714 43.9214 31.4485 42.098 31.67C41.5527 31.7382 41.4675 31.2611 41.9617 30.9032C45.1654 28.6538 50.431 29.3013 51.0445 30.0511C51.658 30.818 50.8741 36.0837 47.8749 38.6058C47.4148 38.9977 46.9717 38.7932 47.1762 38.282C47.8578 36.5949 49.3745 32.7947 48.6588 31.8916V31.8916Z" fill="#FF9900"/>
</g>
<defs>
<clipPath id="clip0_13400_1092">
<rect width="51.2375" height="51.2375" fill="white"/>
</clipPath>
</defs>
</svg>
