<svg width="52" height="52" viewBox="0 0 52 52" fill="none" xmlns="http://www.w3.org/2000/svg">
<g clip-path="url(#clip0_13400_1370)">
<path d="M47.6812 20.9725C48.3217 19.2113 48.4818 17.45 48.3217 15.6887C48.1616 13.9274 47.5211 12.1661 46.7205 10.5649C45.2795 8.16317 43.198 6.24176 40.7962 5.12094C38.2343 4.00012 35.5123 3.67989 32.7903 4.32036C31.5094 3.03942 30.0683 1.9186 28.4672 1.11801C26.866 0.317427 24.9446 -0.00280762 23.1833 -0.00280762C20.4613 -0.00280762 17.7393 0.797778 15.4977 2.39895C13.256 4.00012 11.6549 6.24176 10.8543 8.80364C8.93288 9.28399 7.33171 10.0846 5.73054 11.0453C4.28948 12.1661 3.16866 13.6072 2.20796 15.0482C0.766906 17.45 0.286555 20.172 0.606789 22.8939C0.927024 25.6159 2.04784 28.1778 3.80913 30.2593C3.16866 32.0206 3.00855 33.7819 3.16866 35.5432C3.32878 37.3045 3.96925 39.0658 4.76984 40.667C6.21089 43.0687 8.29241 44.9901 10.6942 46.1109C13.256 47.2318 15.978 47.552 18.7 46.9115C19.981 48.1925 21.422 49.3133 23.0232 50.1139C24.6244 50.9144 26.5458 51.2347 28.3071 51.2347C31.029 51.2347 33.751 50.4341 35.9927 48.8329C38.2343 47.2318 39.8355 44.9901 40.6361 42.4282C42.3974 42.108 44.1587 41.3074 45.5997 40.1866C47.0408 39.0658 48.3217 37.7848 49.1223 36.1837C50.5633 33.7819 51.0437 31.0599 50.7235 28.3379C50.4032 25.6159 49.4425 23.0541 47.6812 20.9725ZM28.4672 47.8722C25.9053 47.8722 23.9839 47.0716 22.2226 45.6306C22.2226 45.6306 22.3827 45.4705 22.5428 45.4705L32.7903 39.5461C33.1106 39.386 33.2707 39.2259 33.4308 38.9057C33.5909 38.5854 33.5909 38.4253 33.5909 38.1051V23.6945L37.9141 26.2564V38.1051C38.0742 43.7092 33.5909 47.8722 28.4672 47.8722ZM7.81206 39.0658C6.69124 37.1444 6.21089 34.9027 6.69124 32.6611C6.69124 32.6611 6.85136 32.8212 7.01148 32.8212L17.259 38.7455C17.5792 38.9057 17.7393 38.9057 18.0596 38.9057C18.3798 38.9057 18.7 38.9057 18.8601 38.7455L31.3493 31.5403V36.5039L20.9417 42.5884C18.7 43.8693 16.1382 44.1895 13.7364 43.5491C11.1745 42.9086 9.093 41.3074 7.81206 39.0658ZM5.09007 16.8095C6.21089 14.8881 7.97218 13.447 10.0537 12.6464V12.9667V24.8154C10.0537 25.1356 10.0537 25.4558 10.2138 25.6159C10.3739 25.9362 10.5341 26.0963 10.8543 26.2564L23.3434 33.4617L19.0203 36.0236L8.77276 30.0992C6.53112 28.8183 4.92995 26.7368 4.28948 24.335C3.64901 21.9332 3.80913 19.0511 5.09007 16.8095ZM40.476 24.9755L27.9868 17.7702L32.31 15.2083L42.5575 21.1327C44.1587 22.0934 45.4396 23.3743 46.2402 24.9755C47.0408 26.5766 47.5211 28.3379 47.361 30.2593C47.2009 32.0206 46.5604 33.7819 45.4396 35.223C44.3188 36.664 42.8777 37.7848 41.1164 38.4253V26.2564C41.1164 25.9362 41.1164 25.6159 40.9563 25.4558C40.9563 25.4558 40.7962 25.1356 40.476 24.9755ZM44.7991 18.5708C44.7991 18.5708 44.639 18.4107 44.4789 18.4107L34.2314 12.4863C33.9112 12.3262 33.751 12.3262 33.4308 12.3262C33.1106 12.3262 32.7903 12.3262 32.6302 12.4863L20.1411 19.6916V14.728L30.5487 8.64352C32.1499 7.68282 33.9112 7.36258 35.8326 7.36258C37.5939 7.36258 39.3551 8.00305 40.9563 9.12387C42.3974 10.2447 43.6783 11.6857 44.3188 13.2869C44.9592 14.8881 45.1194 16.8095 44.7991 18.5708ZM17.8994 27.5373L13.5763 24.9755V12.9667C13.5763 11.2054 14.0566 9.28399 15.0173 7.84293C15.978 6.24176 17.4191 5.12094 19.0203 4.32036C20.6214 3.51977 22.5428 3.19954 24.3041 3.51977C26.0654 3.67989 27.8267 4.48047 29.2678 5.60129C29.2678 5.60129 29.1076 5.76141 28.9475 5.76141L18.7 11.6857C18.3798 11.8459 18.2197 12.006 18.0596 12.3262C17.8994 12.6464 17.8994 12.8066 17.8994 13.1268V27.5373ZM20.1411 22.4136L25.7452 19.2113L31.3493 22.4136V28.8183L25.7452 32.0206L20.1411 28.8183V22.4136Z" fill="white"/>
</g>
<defs>
<clipPath id="clip0_13400_1370">
<rect width="51.2375" height="51.2375" fill="white"/>
</clipPath>
</defs>
</svg>
