<svg width="52" height="52" viewBox="0 0 52 52" fill="none" xmlns="http://www.w3.org/2000/svg">
<g clip-path="url(#clip0_13400_1121)">
<path d="M1.60095 25.6196C1.60095 27.8352 1.91198 29.9744 2.44077 32.0243H33.6244C37.1614 32.0243 40.0291 29.1566 40.0291 25.6196C40.0291 22.0826 37.1614 19.2149 33.6244 19.2149H2.44077C1.89045 21.3056 1.60825 23.4577 1.60095 25.6196Z" fill="#343741"/>
<path d="M44.7102 12.268C45.6057 11.4438 46.4389 10.5543 47.2028 9.60685C42.5058 3.75416 35.3049 -0.000183105 27.2194 -0.000183105C17.098 -0.000183105 8.38842 5.88812 4.23218 14.4104H39.2442C41.2704 14.4091 43.2217 13.6441 44.709 12.268" fill="#FEC514"/>
<path d="M39.2452 36.8282H4.23438C8.39102 45.3504 17.099 51.2387 27.2204 51.2387C35.3063 51.2387 42.5068 47.4828 47.2038 41.6317C46.4404 40.6838 45.6072 39.7942 44.7112 38.9706C43.2234 37.5945 41.2718 36.8295 39.2452 36.8282Z" fill="#00BFB3"/>
</g>
<defs>
<clipPath id="clip0_13400_1121">
<rect width="51.2375" height="51.2375" fill="white"/>
</clipPath>
</defs>
</svg>
