<svg width="51" height="52" viewBox="0 0 51 52" fill="none" xmlns="http://www.w3.org/2000/svg">
<g clip-path="url(#clip0_13400_1125)">
<path d="M32.273 50.4664C31.5974 50.4586 30.9218 50.455 30.2461 50.4557L28.5017 50.4573C28.5017 50.4573 23.514 50.4553 21.1292 50.4553C20.7555 50.4553 20.3796 50.4567 20.0047 50.4577C19.6297 50.4587 19.255 50.4603 18.8791 50.4603C18.6445 50.4604 18.4102 50.4597 18.1763 50.4583C16.7578 50.4498 15.4017 50.2794 14.1467 49.9504C9.14693 48.6424 5.3616 45.6764 2.89394 41.1365C1.71143 38.9603 1.0392 36.5255 0.897149 33.9024C0.834103 32.7358 0.893603 31.5401 1.07447 30.3495C1.09614 30.2077 1.12215 30.0658 1.14756 29.9228L1.20509 29.5977L1.30261 29.6939C1.35404 29.7449 1.37 29.7979 1.38142 29.8377C1.43068 29.9963 1.4754 30.1572 1.52131 30.3166C1.61647 30.649 1.71537 30.9928 1.83141 31.3228C2.68155 33.7481 3.97262 36.0197 5.7781 38.2715C5.84942 38.3603 5.90301 38.4588 5.93394 38.5544C6.54628 40.4393 7.61058 42.0672 9.0959 43.3977C10.5408 44.6911 12.2732 45.6599 14.2521 46.2821C12.9831 45.7393 11.8081 45.0452 10.7513 44.212C9.02833 42.853 7.78592 41.1899 7.06109 39.2686C6.98859 39.0755 6.92771 38.8426 7.02602 38.5849C7.05814 38.4969 7.08119 38.4058 7.10503 38.3144C7.12059 38.2514 7.13616 38.1883 7.15605 38.1259C7.54635 36.85 8.13918 35.8493 8.96804 35.0685C9.74075 34.3407 10.7243 33.8084 11.9759 33.4406C13.1445 33.0968 14.3642 32.9417 15.5432 32.7918L16.0491 32.7268C16.7087 32.6403 17.3786 32.5384 18.0248 32.4383L18.4143 32.3784C18.5591 32.3564 18.7032 32.3248 18.8525 32.2925L19.216 32.2165L19.1204 32.3788C19.113 32.393 19.107 32.4044 19.0964 32.4163C18.4859 33.0989 17.972 33.8621 17.5691 34.6845C17.532 34.7572 17.4687 34.8129 17.392 34.8406C17.3052 34.869 17.2185 34.8975 17.1321 34.9261C16.8567 35.0187 16.5728 35.1115 16.284 35.169C15.9731 35.2309 15.6547 35.276 15.3461 35.3188C15.0993 35.3538 14.853 35.3885 14.6071 35.4334C13.7812 35.5804 13.1415 35.8458 12.6586 36.251C12.7654 36.2271 12.8732 36.2081 12.9817 36.1941C13.1311 36.1726 13.2851 36.1496 13.426 36.1011C14.1871 35.8363 15.0228 35.7134 16.0566 35.7134L16.1961 35.7138C16.3809 35.7157 16.5665 35.7242 16.7536 35.7333L17.1171 35.7483L17.0896 35.8377C16.3488 38.2595 16.3699 40.6357 17.1491 42.9138C16.8232 41.3688 16.7637 39.9339 16.9658 38.5469C17.2742 36.427 18.2082 34.6002 19.7428 33.1171C20.777 32.117 22.0755 31.2773 23.7104 30.5515C25.1305 29.9202 26.6099 29.5414 28.003 29.2064L28.2665 29.142C29.26 28.903 30.2883 28.6562 31.2834 28.3638C32.7764 27.9264 34.074 27.2073 35.1401 26.2226C35.2996 26.075 35.4815 25.9075 35.6243 25.7227C36.6425 24.4031 37.8296 23.4669 39.2521 22.86C39.293 22.8427 39.3395 22.7992 39.3691 22.7497C39.835 21.99 40.3932 21.4307 41.0764 21.0382C41.2289 20.9507 41.3804 20.9068 41.5278 20.9068C41.715 20.9068 41.9018 20.9783 42.0842 21.1172C42.1532 21.1704 42.2162 21.2256 42.2716 21.2821C42.5109 21.5225 42.7024 21.8186 42.877 22.2115C42.8985 22.2584 42.918 22.2733 42.9704 22.2798C43.1444 22.3029 43.3227 22.3263 43.5008 22.3614C46.4072 22.9377 48.4302 25.1729 48.7815 28.1969C48.7909 28.2773 48.7968 28.3589 48.8039 28.4398C48.8189 28.6317 48.8349 28.8297 48.8918 29.008C48.9643 29.2334 49.0723 29.4559 49.1789 29.6684C49.2248 29.7628 49.2726 29.8594 49.3162 29.9557C49.3536 30.0386 49.393 30.1206 49.4322 30.2028C49.5248 30.397 49.6186 30.5956 49.6976 30.7989C49.8174 31.1032 49.8322 31.4389 49.7396 31.7525C49.6996 31.8916 49.6155 31.9121 49.5686 31.9121C49.5337 31.9121 49.4957 31.9003 49.4567 31.876C49.3767 31.8246 49.3018 31.7677 49.2277 31.7086C49.1928 31.6796 49.1562 31.6532 49.1203 31.6262C49.0804 31.5956 49.0411 31.5643 49.0023 31.5322C48.9084 31.4593 48.8219 31.3884 48.7239 31.3348C48.6913 31.3157 48.6542 31.3051 48.6164 31.3043C48.5788 31.3045 48.5421 31.3158 48.511 31.3368L48.6479 31.4591C48.8927 31.6752 49.1355 31.8935 49.3763 32.114C49.4267 32.1599 49.4602 32.2451 49.4557 32.314C49.4271 32.7677 49.2687 33.1443 48.9834 33.4341C48.6434 33.7779 48.2872 33.9449 47.8947 33.9449C47.8106 33.9449 47.725 33.9371 47.6378 33.9213C47.6222 34.0738 47.5893 34.1309 47.4624 34.1989C46.6596 34.6343 45.8768 34.8461 45.0706 34.8461L44.9445 34.8451C44.3954 34.8451 43.8605 35.001 43.2612 35.3355C43.0543 35.4498 42.8719 35.5284 42.7021 35.5733C42.1867 35.7102 41.6663 35.7618 41.1954 35.7837C41.3974 35.8117 41.6084 35.8251 41.8348 35.8251C41.9792 35.8251 42.1283 35.8192 42.2885 35.8087L42.3811 35.7993C42.4485 35.7919 42.5162 35.7877 42.584 35.7867C42.6725 35.7867 42.7456 35.7977 42.8069 35.8233C43.2267 35.9951 43.6377 36.2032 44.0231 36.4C44.0985 36.439 44.1531 36.4552 44.2029 36.4552C44.2315 36.4552 44.2581 36.4496 44.2869 36.439L44.3994 36.397C44.6098 36.3176 44.8269 36.2355 45.0348 36.1437C45.5275 35.9242 45.9535 35.8208 46.3733 35.8208C46.4856 35.8208 46.5977 35.8292 46.7096 35.8444C46.9971 35.8832 47.3334 35.9492 47.6362 36.1356C47.7857 36.2276 47.9847 36.3811 48.0032 36.6675C48.0042 36.6725 48.0137 36.6894 48.0371 36.7115C48.0742 36.745 48.112 36.7769 48.1512 36.809C48.19 36.8409 48.23 36.8744 48.2674 36.9099C48.5025 37.1252 48.6059 37.3983 48.577 37.7216C48.5675 37.8122 48.5474 38.024 48.3662 38.024C48.3116 38.024 48.2472 38.0039 48.1571 37.9586C48.1241 37.9406 48.0895 37.9259 48.0537 37.9145C48.1425 37.9685 48.2286 38.0228 48.313 38.0806C48.5135 38.2169 48.6114 38.4259 48.602 38.7012C48.5829 39.3011 47.9512 39.8689 47.3019 39.8689C47.225 39.8689 47.1484 39.8594 47.0765 39.8445C46.885 39.8019 46.647 39.7219 46.5037 39.4731C46.4969 39.4651 46.4885 39.4587 46.4791 39.454L46.3688 39.4591C46.2387 39.464 46.1048 39.4696 45.9803 39.4979L45.9438 39.5066C45.7324 39.5554 45.5151 39.6039 45.2917 39.6039C45.202 39.6039 45.1191 39.596 45.0381 39.5805C44.9386 39.562 44.8403 39.5375 44.7392 39.5125L44.6663 39.495C44.5513 39.8693 44.3645 40.2208 44.1119 40.5417C43.5467 41.2608 42.7929 41.7672 41.8094 42.0897C41.0965 42.3246 40.3294 42.442 39.5291 42.442C39.1086 42.442 38.6673 42.4105 38.2179 42.3466C36.4455 42.0931 35.2084 41.1294 34.5403 39.4829C34.4272 39.2071 34.3518 38.9142 34.2783 38.6302C34.2432 38.4919 34.2059 38.3541 34.1664 38.2169C33.9564 37.5027 33.692 36.8728 33.3572 36.2881C32.7488 35.2269 31.997 34.4708 31.058 33.9765C30.3072 33.581 29.4854 33.3807 28.6168 33.3807C28.2529 33.3807 27.8724 33.4152 27.4851 33.4845C27.4067 33.4985 27.3286 33.5156 27.2492 33.5326C27.5227 33.545 27.782 33.5602 28.045 33.5856C29.26 33.7085 30.3667 34.0819 31.3339 34.6948C32.6499 35.5298 33.4571 36.5675 33.8015 37.866C34.0004 38.6081 34.274 39.328 34.6182 40.0149C34.8201 40.4208 35.0772 40.8905 35.447 41.2874C35.9703 41.8468 36.6441 42.2292 37.5667 42.4885C37.8191 42.56 38.0701 42.6374 38.3194 42.7174C38.4573 42.7619 38.5534 42.8573 38.6129 43.0114C38.7573 43.3861 38.7934 43.7679 38.7193 44.1454C38.6109 44.6998 38.3475 45.2131 37.9131 45.7145C37.5703 46.1097 37.1447 46.3971 36.733 46.6755C36.5317 46.8097 36.3386 46.9558 36.1547 47.1129C36.0032 47.2429 35.9248 47.4128 35.9339 47.5917C35.9463 47.8866 35.9683 47.8976 36.0237 47.8976C36.0698 47.8976 36.1417 47.8801 36.2591 47.8421C36.3167 47.8232 36.3736 47.8001 36.4301 47.7751L36.7736 47.6273C36.9694 47.5426 37.1644 47.4579 37.3622 47.3757C37.7902 47.1978 38.2134 47.1058 38.6192 47.1058C38.8366 47.1058 39.0533 47.1316 39.2647 47.1825C40.025 47.3643 40.5236 47.8157 40.7476 48.5249C40.8071 48.7168 40.799 48.8808 40.72 49.0143C40.6682 49.1028 40.5486 49.1767 40.4497 49.1798C40.3577 49.1798 40.2724 49.0983 40.2058 49.0258C40.1694 48.9852 40.1599 48.9324 40.1534 48.8863C40.1503 48.8713 40.1479 48.8553 40.1443 48.8414C40.0768 48.589 39.9834 48.4239 39.8425 48.3133C40.0943 48.656 40.207 49.0218 40.1863 49.4281C40.1658 49.8316 39.8634 50.1129 39.451 50.1129C39.4345 50.1129 39.4181 50.1119 39.3996 50.1109C39.2432 50.1015 39.1431 50.017 39.1271 49.8781C39.1161 49.7819 39.1161 49.683 39.1157 49.5881C39.1158 49.5487 39.1155 49.5092 39.1147 49.4697C39.1137 49.4176 39.1141 49.3672 39.1147 49.3152C39.1147 49.2043 39.1151 49.0997 39.1017 48.9968C39.0708 48.7748 38.9388 48.6248 38.7093 48.5515C38.6935 48.5456 38.6771 48.5417 38.6604 48.5399C38.7298 48.5793 38.7893 48.6339 38.8322 48.7129C38.9173 48.8703 38.9892 49.0137 39.0292 49.1682C39.1313 49.5786 39.0308 49.8986 38.7388 50.0944C38.5873 50.1949 38.3934 50.2323 38.2226 50.2563C38.1531 50.2662 38.0851 50.2693 38.0165 50.2693C37.7612 50.2693 37.5112 50.2095 37.2708 50.1523L37.1479 50.1228C36.9193 50.071 36.7176 50.044 36.5231 50.0434C36.3571 50.0434 36.1843 50.0755 36.0172 50.1064L35.9404 50.1202C34.6741 50.3484 33.5355 50.4587 32.462 50.4587L32.273 50.4664Z" fill="#E65270"/>
<path opacity="0.2" d="M42.5782 35.6928C42.5782 35.6928 40.7118 37.9201 37.541 36.644C34.637 35.4738 35.6961 32.2535 35.6961 32.2535C35.6961 32.2535 36.2104 34.2509 37.7136 35.0076C39.8893 36.1036 42.5782 35.6928 42.5782 35.6928ZM33.3804 36.6466C33.7848 37.0574 33.7921 37.4778 33.9192 37.9901C34.1586 38.9537 34.4531 39.7904 35.0669 40.5832C35.6571 41.3449 36.3632 41.8836 37.2754 42.2343C38.0659 42.5371 39.0815 42.4476 38.9304 43.6242L38.6662 44.6149C36.6464 44.6149 34.755 43.6932 33.9842 41.6887C33.3085 39.9303 34.1042 37.8055 32.0564 34.8327C32.2199 35.033 33.1709 36.4321 33.3804 36.6466Z" fill="#430A1D"/>
<path opacity="0.2" d="M32.5804 35.7713C32.6114 35.8962 32.6388 36.0231 32.6673 36.1496C32.5919 36.0566 32.5531 35.9392 32.5804 35.7713Z" fill="#2B2B2B"/>
<path d="M9.05034 43.4551C1.4324 42.7025 0.535766 35.1191 0.535766 35.1191C0.535766 35.1191 0.122026 31.6042 1.08742 28.1564C1.70803 34.4293 6.7401 38.7722 6.7401 38.7722C6.7401 38.7722 7.84577 42.3465 9.05034 43.4551Z" fill="url(#paint0_linear_13400_1125)"/>
<path opacity="0.2" d="M7.15101 40.5669C7.15101 40.5669 5.55298 40.7186 3.42163 38.1312C5.47654 41.8603 8.14024 41.9364 8.14024 41.9364L7.15101 40.5669Z" fill="#2B2B2B"/>
<path d="M11.2686 44.9207C10.8694 37.908 14.9863 41.162 17.1118 37.4432C17.7089 34.1893 19.5014 32.131 19.5014 32.131C19.5014 32.131 6.75271 29.7408 6.55273 39.0371C6.99662 41.0499 8.9475 42.9962 10.1696 44.0493C9.93023 43.5107 6.88668 35.136 17.0227 35.8188C13.5239 35.5207 8.47308 39.1756 10.8803 44.6508C11.0072 44.7444 11.1368 44.8344 11.2688 44.9207" fill="url(#paint1_linear_13400_1125)"/>
<path opacity="0.2" d="M14.7142 34.8067C12.0791 35.7973 7.60376 35.7928 8.8771 42.517C8.67318 42.6699 7.65499 41.0906 7.90895 41.2439C6.73747 35.2325 12.0002 35.58 14.7142 34.8067Z" fill="white"/>
<path opacity="0.6" d="M18.0512 32.4004C20.6138 31.3867 18.5329 34.2608 18.169 34.7207C17.3274 35.7842 15.1996 35.4384 14.0651 35.7933C13.4128 35.9972 10.7985 36.3804 9.93186 38.8561C9.54649 39.9527 9.40208 41.7458 10.2223 43.9274C10.0189 44.0815 8.67094 42.605 8.92588 42.7569C6.763 33.0947 16.9664 36.563 18.0512 32.4004Z" fill="#8B4FBA"/>
<path d="M43.5289 28.4561C43.5988 28.2642 43.7178 28.0187 43.8681 27.8737C43.9032 27.8902 43.941 27.8922 43.9696 27.9101C44.2196 27.7482 44.6139 27.7697 44.9283 27.7697C45.1159 27.7697 45.3901 27.7179 45.5712 27.7882C45.8352 27.8906 45.805 28.1686 45.915 28.379C46.1218 28.7719 46.7602 28.777 46.7622 29.3322C46.7641 29.5937 46.8297 29.9481 46.7631 30.2038C46.7127 30.394 46.5007 30.3358 46.3173 30.3358C45.7637 30.3358 45.2102 30.3514 44.6548 30.3514L43.8873 29.7791C43.6824 29.8445 43.5224 29.4146 43.4938 29.2688C43.4485 29.0284 43.4424 28.6949 43.5289 28.4561Z" fill="#F9E0E7"/>
<path d="M46.0899 29.2157C46.1839 29.1773 46.3228 29.0268 46.3803 28.9383C46.4223 28.8749 46.4106 28.8343 46.5001 28.8368C46.7345 28.8433 46.7365 29.1598 46.7247 29.3231C46.7107 29.5319 46.6262 29.724 46.5956 29.9295C46.5196 29.9104 46.4776 29.815 46.3917 29.791C46.3242 29.7709 46.2268 29.7806 46.1553 29.7835C46.0519 29.7881 45.9075 29.858 45.8135 29.818L46.0899 29.2157Z" fill="white"/>
<path d="M15.7267 18.9372C15.7617 18.8968 15.7712 18.8848 15.7818 18.8734C16.7988 17.9237 17.3377 16.7251 17.6275 15.3849C17.818 14.5078 17.5757 13.7339 17.1803 12.9778C17.1732 12.9654 17.1606 12.9527 17.1472 12.9358C17.0684 13.1827 16.9963 13.4252 16.9123 13.6636C16.7059 14.2513 16.456 14.8201 16.0592 15.3071C15.9006 15.501 9.25538 19.1823 9.93982 27.335C9.94376 27.3854 9.95224 27.4335 9.95913 27.4898C10.0821 27.3755 10.1896 27.2569 10.3138 27.1594C10.7559 26.8136 11.2664 26.5932 11.7995 26.4442C12.7747 26.1723 13.7559 25.9223 14.739 25.682C15.8567 25.4081 16.9813 25.1541 18.0604 24.7414C18.6707 24.5083 19.237 24.2016 19.779 23.8316C20.5852 23.2799 21.2818 22.6195 21.8817 21.8549C22.2311 21.4096 22.394 21.0695 22.5514 20.5463C22.6509 20.8146 22.5989 21.5654 22.449 22.0442C22.2929 22.5387 22.0301 22.9704 21.6873 23.3668C21.7692 23.3408 21.8591 23.3274 21.9326 23.2852C22.8834 22.7434 23.7255 22.0763 24.3472 21.1614C24.7641 20.5486 25.0181 19.878 25.0536 19.1313C25.0541 19.1208 25.0591 19.1102 25.062 19.0938C25.26 20.01 25.2315 21.5694 24.1989 22.6776C24.5638 22.5492 24.8942 22.4195 25.2315 22.319C25.5108 22.2363 25.6954 22.0728 25.8493 21.8273C26.5271 20.7547 27.089 19.6301 27.3928 18.3899C27.6282 17.4324 27.6867 16.4707 27.4233 15.5085C27.1244 14.4209 26.4678 13.5836 25.5739 12.9183C24.9533 12.4561 24.2684 12.1131 23.5495 11.8323C23.5062 11.8152 23.4626 11.7998 23.4195 11.7807C23.4126 11.7783 23.409 11.7702 23.382 11.7403C23.6311 11.8087 23.8539 11.8668 24.075 11.9322C25.105 12.2382 26.0913 12.6369 26.9648 13.2759C27.7446 13.8454 28.3414 14.5563 28.6399 15.4909C28.9063 16.3277 28.8832 17.1735 28.6919 18.0191C28.4119 19.2526 27.837 20.3508 27.1378 21.3909C27.1163 21.424 27.0955 21.4555 27.0748 21.488C27.0718 21.4923 27.0724 21.501 27.0685 21.5195C27.0974 21.5085 27.1203 21.501 27.1414 21.49C28.6068 20.7407 29.9089 19.7824 30.9466 18.4949C31.9542 17.2454 32.6871 15.8539 33.0358 14.2773C33.4742 12.288 32.9938 10.5217 31.7053 8.9637C30.891 7.97762 29.8839 7.2319 28.7697 6.6239C27.3319 5.84134 25.8018 5.32949 24.1823 5.09405C23.2617 4.95948 22.34 4.93407 21.4197 5.11099C20.914 5.20694 20.5861 5.33993 20.0258 5.66383C20.0968 5.60334 20.1643 5.53931 20.2386 5.48493C20.742 5.10252 21.3222 4.90511 21.9316 4.78158C22.9393 4.57766 23.9554 4.58022 24.9716 4.69863C26.545 4.88265 28.0445 5.31845 29.4656 6.02122C29.6045 6.09116 29.742 6.16268 29.8955 6.24168C29.8955 6.11264 29.8874 6.00014 29.8975 5.88882C29.9099 5.71683 29.997 5.61832 30.1323 5.60236C30.2614 5.5864 30.3368 5.63486 30.3622 5.76194C30.3827 5.86932 30.3882 5.97965 30.4036 6.08761C30.4383 6.33349 30.5528 6.54194 30.7216 6.723C30.7388 6.7414 30.7581 6.75767 30.7791 6.77147C30.789 6.77896 30.8022 6.77836 30.8382 6.78526C30.8382 6.697 30.8386 6.61543 30.8382 6.53446C30.8357 6.37014 30.8286 6.20504 30.8325 6.04072C30.8335 6.00014 30.8627 5.93512 30.8901 5.92724C30.9287 5.9168 30.9984 5.9363 31.023 5.96665C31.0875 6.05176 31.157 6.14357 31.186 6.24444C31.2504 6.4586 31.28 6.68242 31.3463 6.8948C31.3912 7.03442 31.4593 7.16545 31.5479 7.28234C31.6433 7.40725 31.741 7.37967 31.7772 7.22678C31.8113 7.08374 31.8237 6.93519 31.8452 6.7894C31.8527 6.73896 31.8549 6.68695 31.8702 6.64006C31.8822 6.59947 31.9122 6.56598 31.9337 6.52855C31.9668 6.55908 32.0156 6.58154 32.0296 6.61957C32.0631 6.70429 32.0962 6.7959 32.1005 6.88554C32.1112 7.08335 32.0923 7.28273 32.1066 7.47975C32.1145 7.58457 32.1496 7.69647 32.2006 7.7875C32.2578 7.88896 32.3496 7.87714 32.3805 7.76366C32.426 7.60171 32.4485 7.43424 32.481 7.26875C32.504 7.15684 32.5275 7.04533 32.5545 6.9082C32.6871 7.02129 32.719 7.14679 32.7318 7.26835C32.7653 7.59166 32.7824 7.91654 32.8106 8.24044C32.8329 8.48337 32.9158 8.69674 33.0594 8.9042C33.3197 9.28149 33.55 9.68085 33.7837 10.0769C33.9031 10.2798 34.0142 10.2983 34.1265 10.0893C34.2534 9.85186 34.3479 9.5985 34.4555 9.35006C34.5024 9.2417 34.5414 9.13117 34.5909 9.02419C34.6139 8.97217 34.6527 8.92824 34.6884 8.87425C34.8157 8.96685 34.8462 9.08763 34.8218 9.20761C34.7853 9.38808 34.7187 9.56343 34.6718 9.74193C34.6208 9.93698 34.5674 10.1312 34.5369 10.3302C34.5253 10.4102 34.5613 10.5062 34.5974 10.5836C34.6494 10.6961 34.7313 10.7097 34.8188 10.6216C34.9087 10.5326 34.9776 10.4242 35.0647 10.3338C35.1141 10.2818 35.1817 10.2502 35.2416 10.2093C35.2751 10.2822 35.3431 10.3582 35.3372 10.4281C35.3242 10.5786 35.2897 10.7264 35.2347 10.8671C35.1232 11.1494 34.9743 11.4184 34.8787 11.7048C34.8097 11.9127 34.7967 12.1402 34.7743 12.3605C34.7678 12.4145 34.8133 12.51 34.8557 12.5254C34.9002 12.541 34.9882 12.497 35.0277 12.4535C35.2091 12.2545 35.3795 12.0441 35.558 11.8398C35.601 11.7886 35.6595 11.7527 35.7105 11.7088C35.7279 11.7178 35.7444 11.7247 35.7623 11.7344C35.745 11.8496 35.7499 11.9747 35.708 12.0821C35.636 12.2615 35.5483 12.4343 35.4459 12.5983C35.2846 12.8568 35.1002 13.0993 34.9353 13.3543C34.6293 13.8255 34.4263 14.3404 34.2999 14.8883C34.2081 15.2821 34.0784 15.6675 33.9645 16.0546C33.9515 16.1027 33.9336 16.1492 33.932 16.2028C34.0315 16.0444 34.1291 15.8824 34.2319 15.7244C34.4474 15.3924 34.6959 15.0876 35.0298 14.8678C35.1977 14.7576 35.3782 14.6589 35.5659 14.5898C36.5321 14.2344 37.5089 13.9042 38.4296 13.4406C38.6916 13.3072 38.9418 13.1468 39.1802 12.9728C39.4823 12.754 39.5932 12.4486 39.5033 12.0786L39.3116 11.298C39.1558 11.5468 39.0179 11.7866 38.8609 12.0116C38.7038 12.2366 38.509 12.4275 38.2196 12.556C38.2462 12.5065 38.2531 12.485 38.2666 12.4675C38.6725 11.9082 38.9058 11.2724 39.0872 10.6141C39.1058 10.5462 39.0849 10.4642 39.0729 10.3907C38.9899 9.91077 39.0299 9.43005 39.0512 8.94853C39.0569 8.85317 39.0569 8.75368 39.0429 8.65891C39.037 8.61478 39.0013 8.55981 38.9639 8.54326C38.9383 8.53184 38.8719 8.56691 38.8494 8.59725C38.7558 8.72826 38.652 8.85672 38.5894 9.00113C38.338 9.58549 38.0976 10.1748 37.8572 10.7625C37.5584 11.4968 37.2219 12.2096 36.708 12.8223C36.4755 13.0997 36.2117 13.3413 35.8869 13.5097C35.8233 13.5414 35.7573 13.5678 35.6894 13.5885C36.1918 13.0694 36.3041 12.4119 36.3268 11.7397C36.3567 10.8791 36.3392 10.0164 36.3483 9.15481C36.3571 8.22291 36.4342 7.29928 36.7122 6.40147C36.7226 6.366 36.7047 6.31399 36.6852 6.27853C36.6072 6.12564 36.5079 5.9826 36.4428 5.82479C36.3069 5.49341 36.1922 5.15355 36.0583 4.81999C35.9808 4.62416 35.9538 4.60958 35.744 4.62475C35.5184 4.64051 35.3831 4.51127 35.2637 4.35089C35.1717 4.22933 35.1342 4.23229 35.0712 4.37473C35.0026 4.52979 34.9487 4.68917 34.8748 4.84167C34.8492 4.89348 34.7837 4.92757 34.7372 4.96973C34.7012 4.91653 34.6419 4.86452 34.6354 4.80817C34.6163 4.62357 34.6214 4.43778 34.6078 4.25278C34.6013 4.16077 34.5893 4.06778 34.5584 3.98187C34.5434 3.94149 34.4815 3.89735 34.4362 3.894C34.4049 3.89144 34.3495 3.94582 34.3359 3.9868C34.29 4.11841 34.2634 4.25534 34.2215 4.38773C34.1885 4.49412 34.1405 4.50575 34.077 4.41867C33.6146 3.78899 32.9984 3.34255 32.3385 2.94575C32.1435 2.82872 31.9528 2.70637 31.7593 2.58836C31.7457 2.59289 31.7323 2.59782 31.7199 2.60136C31.7447 2.81572 31.7703 3.02968 31.7944 3.24364C31.7766 3.2531 31.7593 3.26118 31.7424 3.27004C31.6809 3.21823 31.6107 3.17508 31.5599 3.1142C31.4319 2.96269 31.316 2.80173 31.186 2.65081C30.9287 2.34898 30.6052 2.13305 30.2939 2.06153C30.3924 2.39883 30.4862 2.71839 30.5788 3.03875C30.5648 3.04623 30.5482 3.05214 30.5336 3.05864C30.5017 3.01865 30.4637 2.9818 30.4371 2.93826C30.3622 2.81572 30.2878 2.69396 30.2184 2.56787C29.9215 2.0306 29.4636 1.72069 28.8629 1.634C28.4532 1.57668 28.0415 1.53476 27.6286 1.5083C27.3268 1.48722 27.0364 1.44269 26.7599 1.31029C26.568 1.22282 26.36 1.16233 26.1563 1.09495C26.1222 1.08293 26.0767 1.09732 26.0373 1.09988C26.0402 1.14322 26.0308 1.19386 26.0483 1.22991C26.1443 1.41767 26.2487 1.6011 26.3452 1.78905C26.3807 1.85663 26.4035 1.93091 26.4315 2.00262L26.4039 2.03296C26.3427 2.01247 26.2786 1.99848 26.2211 1.9705C25.9551 1.84165 25.6858 1.72029 25.4285 1.57529C25.1664 1.42732 24.8782 1.41531 24.5947 1.39127C23.7081 1.3168 22.8314 1.3763 21.9741 1.63557C21.4528 1.7926 20.9709 2.02961 20.5471 2.39607C20.6005 2.39035 20.6561 2.39035 20.7081 2.3809C21.2253 2.27451 21.7432 2.17442 22.276 2.19196C22.6389 2.20358 22.9923 2.2615 23.3107 2.44532C23.3616 2.47448 23.3935 2.53536 23.4347 2.58087C23.3631 2.60589 23.2883 2.65377 23.2197 2.6449C23.0542 2.6252 22.8927 2.56393 22.7258 2.55033C22.195 2.50305 21.6841 2.6252 21.179 2.76489C19.9555 3.10061 18.8473 3.67196 17.818 4.40724C17.567 4.58574 17.3068 4.75104 17.0457 4.91713C16.538 5.24004 16.127 5.65733 15.8021 6.16268C15.7631 6.22274 15.7305 6.28673 15.7048 6.35359C15.6382 6.53859 15.6871 6.69305 15.8616 6.78506C15.9892 6.8499 16.1242 6.89905 16.2635 6.93145C18.0925 7.3773 19.4545 8.8847 19.6655 10.7497C19.7449 11.4489 19.8424 12.1501 19.8073 12.8594C19.7269 14.4873 19.1442 15.9059 18.057 17.1173C17.4108 17.8382 16.6469 18.4116 15.8102 18.8939C15.7937 18.9049 15.7757 18.9118 15.7267 18.9372Z" fill="url(#paint2_linear_13400_1125)"/>
<path opacity="0.2" d="M39.1626 8.1319C38.3853 14.1989 35.6931 12.8259 33.9317 16.2126C33.8352 16.0846 33.6129 17.1203 34.0568 15.1976C34.5011 13.2727 35.7748 14.142 36.9798 11.9407C38.5057 9.15856 38.2013 8.90914 39.1626 8.1319Z" fill="#8B4FBA"/>
<path opacity="0.3" d="M31.119 8.24347C30.83 9.9798 28.3749 9.90139 26.2741 9.16474C23.9912 8.36385 19.248 8.10694 18.8666 9.06229C18.676 9.28098 18.2938 8.38099 18.2938 8.38099C18.2938 8.38099 21.8961 4.45086 27.9265 8.5989C27.681 8.21707 30.0937 7.09938 30.0937 7.09938C30.0937 7.09938 30.8189 6.87853 31.119 8.24347Z" fill="white"/>
<path opacity="0.2" d="M18.6248 24.917C18.7556 25.2421 19.8222 25.023 19.9223 24.5157C18.3487 22.7333 22.4915 19.4578 18.6707 15.1829C21.1703 21.7787 15.8476 22.0471 18.6248 24.917Z" fill="#8B4FBA"/>
<path opacity="0.6" d="M18.6248 24.915C18.7556 25.2401 18.7321 25.1469 18.8316 24.6396C17.2582 22.8566 21.4492 20.2571 18.6707 15.1807C21.1703 21.7767 15.8476 22.0449 18.6248 24.915Z" fill="#8B4FBA"/>
<path d="M24.3582 23.616C31.92 15.6592 22.3608 16.9922 19.2454 11.5916C19.2509 11.4986 19.2572 11.4085 19.2572 11.3132C19.2572 10.5625 19.0754 9.85562 18.7585 9.22871C21.6744 13.5539 29.0666 9.74017 27.6311 18.5816C27.5015 19.0359 26.4728 23.5165 24.3582 23.616Z" fill="url(#paint3_linear_13400_1125)"/>
<path d="M24.358 23.6166C21.2451 25.1445 18.5235 25.1896 18.652 24.7363C24.8372 20.5392 19.8445 16.214 18.6803 12.14C18.7599 11.811 19.2572 11.6887 19.2572 11.3153C19.2572 11.2753 19.2521 11.2373 19.2513 11.1977C19.3411 11.6022 19.5541 11.7427 19.7584 11.9476C22.6335 14.8477 31.7724 15.8168 24.358 23.6166Z" fill="url(#paint4_linear_13400_1125)"/>
<path d="M23.3827 23.4991C28.1707 16.3477 19.2323 14.9893 19.2965 12.722C18.5849 17.3854 27.1531 19.3816 19.1023 24.9634C18.9738 25.4161 20.2694 25.0276 23.3827 23.4991Z" fill="#E65271"/>
<path d="M36.7624 11.0756C37.1429 11.7108 36.7207 12.4606 36.2778 13.1628C35.869 13.8116 34.8817 13.5992 34.212 15.1631L34.2694 13.9446C35.0111 12.6515 33.7561 10.8717 33.4064 9.66848C32.812 7.61928 32.1646 5.72829 32.9533 3.64915C33.0065 3.50966 33.0518 3.35658 33.1058 3.21315C33.4992 3.50355 33.7961 3.79297 34.1346 4.2343C34.358 4.52726 34.28 3.47853 34.574 3.699C34.7903 3.85858 34.5633 4.60016 34.7698 4.77177C35.0003 4.96662 35.1396 3.8379 35.3067 4.08791C35.697 4.67464 35.921 4.30227 36.0873 4.47821C36.2378 4.63779 36.5897 5.8668 36.7315 6.03328C36.8694 6.19534 37.0036 6.36049 37.134 6.52859C37.055 7.42325 36.881 8.42903 36.5932 9.23622C36.3217 9.99849 36.3093 10.3163 36.7626 11.0756" fill="url(#paint5_linear_13400_1125)"/>
<path d="M26.1189 1.73186C26.1364 1.73893 26.155 1.7428 26.1739 1.74329C26.3833 1.73994 25.609 0.766663 25.8315 0.766663C26.2074 0.766663 26.7372 1.15459 27.1046 1.18296C27.8809 1.24246 28.6851 1.22513 29.3723 1.53957C30.0305 1.8414 30.3235 2.77843 30.4709 2.81803C30.6198 2.85901 30.1125 1.73481 30.2581 1.78486C30.4794 1.85937 30.6848 1.97464 30.8637 2.12472C31.5135 3.05484 31.7249 7.66489 30.7707 7.54589C29.7691 7.42098 32.3512 7.89974 32.3617 7.86113C33.2254 4.60184 31.3017 2.59756 31.3886 2.71045C31.5025 2.86039 31.5941 2.97702 31.6914 3.01445C31.8963 3.09326 31.5634 2.22874 31.7509 2.34321C32.3473 2.7077 32.7701 2.96441 33.1174 3.22329C33.1281 3.23827 33.131 3.27452 33.148 3.26743C33.4045 3.16104 34.9838 2.78946 33.7818 8.46361C35.6072 4.7695 34.1782 3.31983 34.3181 3.47114C34.9663 4.17096 35.0989 5.87951 35.1824 6.89258C35.2608 7.8428 34.6631 10.009 33.8888 10.7254C33.343 11.2292 33.3539 10.6052 33.1496 10.1235C32.813 9.33227 32.1964 8.69452 31.6364 8.04278C31.2196 7.55791 30.7138 7.20348 30.2553 6.76964C29.7561 6.29679 29.4933 5.63599 29.0468 5.11724C28.6475 4.65346 28.1573 4.28385 27.7778 3.80017C27.3519 3.25836 27.0676 2.63854 26.5977 2.13969C26.4487 1.97971 26.2819 1.85992 26.1189 1.73186Z" fill="#E65271"/>
<path d="M29.6185 1.21547C30.7343 1.21193 31.435 1.74625 32.3577 2.25712C33.1223 2.68248 34.0625 2.68642 34.7089 3.27216C35.5675 4.05137 35.9389 4.82368 36.0999 5.96423C36.2843 7.26278 36.3067 8.91833 36.0609 10.2124C35.9348 10.8761 35.4635 12.2367 34.9662 12.722L34.3695 12.3421C33.1929 9.30272 29.6445 8.05559 28.302 5.06858C27.906 4.18928 27.7571 3.04677 27.7476 2.0861C27.7372 1.08052 28.8058 1.21863 29.6185 1.21547Z" fill="url(#paint6_linear_13400_1125)"/>
<path d="M18.5182 8.80977C17.8694 7.80162 16.8422 7.06044 15.6358 6.79111C15.3287 6.72255 14.7784 6.53164 15.3234 5.87635C15.9056 4.9677 16.7423 4.61878 17.1927 4.28483C19.0035 2.94037 18.2546 2.80286 19.3108 2.6811C19.7238 2.63302 19.6148 2.59697 19.8243 2.6811C20.0337 2.76483 19.6633 2.62199 19.5307 2.53452C18.3521 1.75432 18.4373 3.31077 18.9436 2.97426C20.4526 1.80791 23.9274 0.989097 24.9015 1.15578C25.0429 1.18001 26.0221 1.74565 26.1726 1.74329C26.382 1.73974 25.6084 0.766663 25.8308 0.766663C26.2055 0.766663 26.7363 1.1544 27.1037 1.18296C27.864 1.24148 30.1757 2.30164 30.1587 5.09261C30.1538 5.94531 30.2062 6.54307 30.0913 7.09945C29.2491 11.1821 20.716 5.45296 18.5182 8.80977Z" fill="#F6E8A0"/>
<path d="M28.7336 6.29463C28.3382 5.80071 25.7677 4.91057 25.7677 4.91057C25.7677 4.91057 21.4997 3.43963 17.5632 7.62865C19.5746 6.03161 23.1103 6.70148 25.667 6.99622C26.0049 7.03582 24.9367 6.69478 25.2166 6.59154C26.1659 6.24006 27.0456 7.22476 27.9922 7.03483C28.434 6.94677 28.699 6.70699 28.7334 6.29463" fill="white"/>
<path d="M25.4577 5.60192C23.8904 5.18897 22.3233 5.79342 22.0215 5.81174C22.1639 5.59837 22.3954 5.10602 23.5559 4.93619C23.8228 4.89679 24.3577 4.93954 24.6381 4.93915C25.1399 4.93816 25.4512 5.05913 25.8941 5.2725C26.1766 5.40845 26.8599 5.55345 27.0762 5.51937C27.0762 5.51937 29.4789 5.70043 28.6831 6.5151C27.8879 7.32938 26.7279 5.46499 24.1812 6.06117C24.1822 5.97842 24.764 5.56291 25.4579 5.60192" fill="#F6E8A0"/>
<path d="M23.083 2.2243C22.0928 1.56842 20.3602 2.13071 20.1358 2.12776C20.1308 2.1047 20.1448 2.07929 20.1848 2.05387C21.6944 0.887127 23.9296 0.991153 24.9036 1.15803C24.9111 1.15901 24.9214 1.16256 24.9328 1.1667C24.9371 1.16808 24.9442 1.17064 24.9501 1.1732C25.1611 1.25398 25.8509 1.6425 26.1019 1.728C27.5703 2.56021 29.89 4.31762 30.0945 7.1015C29.2603 6.73071 28.6604 6.36938 28.1996 6.01751C28.0441 5.8989 24.535 2.2308 15.2455 6.63812C15.2455 6.63812 14.9871 6.49626 15.1346 6.16448C17.2323 2.79348 21.0619 1.82533 27.1615 5.01783C26.2962 3.98663 25.8773 3.05296 23.0828 2.2241" fill="#F8D285"/>
<path d="M29.0204 21.1683C32.4608 17.6499 33.8628 15.0213 32.1974 12.1907C29.5002 7.60291 21.1943 12.3881 17.5819 7.75974C17.9647 8.19712 18.779 9.06342 19.5659 9.48918C22.2434 11.2387 27.2831 10.6758 28.889 12.0284C30.9558 13.7673 31.4832 17.2752 29.0204 21.1683Z" fill="url(#paint7_linear_13400_1125)"/>
<path d="M17.8123 13.814C17.8083 14.0501 18.3481 15.4111 18.2634 15.7245C17.5388 18.4001 14.3985 19.7126 14.3985 19.7126C14.3985 19.7126 10.8811 21.1282 10.3218 27.5979C9.68049 28.0593 9.76954 27.0766 9.78944 26.6398C10.1884 18.1552 17.2474 19.1034 17.8123 13.8142" fill="url(#paint8_linear_13400_1125)"/>
<path d="M29.7787 27.8361C29.7208 27.8091 29.6653 27.7746 29.6044 27.7573C29.2964 27.6712 28.9859 27.5922 28.6772 27.5043C28.5797 27.4763 28.4867 27.4318 28.3911 27.3953C28.3923 27.3743 28.393 27.3538 28.3931 27.3339C28.5046 27.3138 28.6138 27.2787 28.7251 27.2773C29.1684 27.2724 29.6117 27.2783 30.0556 27.2793C30.6825 27.2809 31.3112 27.2779 31.9154 27.0949C32.2104 27.0048 32.4984 26.8699 32.7687 26.7196C35.6243 25.13 37.642 22.8038 38.8562 19.7744C39.1045 19.155 39.295 18.5149 39.4419 17.8651C39.4514 17.8291 39.4549 17.7916 39.466 17.7292C39.4185 17.7581 39.388 17.7721 39.3596 17.7907C37.612 18.9877 35.7037 19.7995 33.6214 20.1937C32.8767 20.3342 32.1249 20.4045 31.3671 20.4266C31.3108 20.4281 31.2383 20.4496 31.2008 20.4886C30.068 21.6432 28.7306 22.497 27.2876 23.2073C26.1355 23.7735 24.9195 24.116 23.6688 24.3593C22.0658 24.6706 20.459 24.9667 18.856 25.275C16.8872 25.6533 14.9282 26.0737 13.025 26.7176C11.8173 27.1254 10.6478 27.6158 9.57818 28.318C8.77296 28.848 8.0562 29.4735 7.54927 30.3069C7.37137 30.6006 7.24488 30.9261 7.0914 31.2354C7.06342 31.291 7.03407 31.3489 6.99092 31.3915C5.92938 32.4298 5.51091 33.6927 5.67385 35.1581C5.79482 36.2423 6.18334 37.2339 6.73716 38.1672C6.80257 38.2765 6.85813 38.3906 6.90955 38.4871C6.93595 38.2507 6.95684 37.9857 6.99407 37.7233C7.22853 36.0533 8.08812 34.8098 9.55158 33.9791C10.4027 33.4943 11.3194 33.1739 12.2697 32.9639C13.3113 32.734 14.362 32.5405 15.4121 32.3502C16.6872 32.1197 17.9694 31.9272 19.2087 31.5365C19.4498 31.4608 19.6882 31.3734 19.925 31.2835C20.23 31.169 20.5149 31.0215 20.7803 30.8245C21.659 30.1774 22.6222 29.6815 23.6369 29.2848C23.6649 29.2741 23.6909 29.2621 23.7182 29.2517C23.7192 29.2477 23.7198 29.2422 23.7238 29.2318C23.7072 29.2302 23.6928 29.2282 23.6779 29.2282C22.5426 29.2276 21.405 29.2341 20.27 29.2276C19.2538 29.2211 18.2411 29.2526 17.2339 29.3852C15.8391 29.57 14.4889 29.9314 13.174 30.4318C11.6228 31.0236 10.1554 31.7808 8.73198 32.6305C8.69396 32.6536 8.65495 32.6755 8.60352 32.6845C8.63052 32.6628 8.65475 32.6392 8.68095 32.6191C10.239 31.438 11.8979 30.4292 13.7278 29.7219C15.0023 29.2308 16.3174 28.9079 17.6768 28.7638C18.8745 28.6373 20.0726 28.6494 21.2711 28.7362C22.3074 28.8119 23.3435 28.8874 24.381 28.9583C24.4711 28.9658 24.567 28.9524 24.6545 28.9268C25.6796 28.6149 26.7287 28.4315 27.7879 28.2809C28.4138 28.1925 29.0305 28.0425 29.6509 27.9192C29.6928 27.9101 29.7323 27.8881 29.7722 27.8717L29.7787 27.8361Z" fill="url(#paint9_linear_13400_1125)"/>
<path opacity="0.2" d="M10.6935 31.3319C14.7546 26.4809 25.29 29.0236 29.7795 27.837C26.9375 29.4699 24.6247 29.1881 24.6247 29.1881C24.6247 29.1881 14.9235 28.1163 10.6935 31.3317" fill="white"/>
<path d="M41.742 12.9241C41.6045 12.9478 41.503 12.9543 41.4102 12.9842C41.0447 13.0985 40.6635 13.1836 40.3199 13.3487C39.9937 13.5059 39.6912 13.7294 39.4089 13.9595C38.86 14.4051 38.3367 14.8795 37.7959 15.3307C37.3526 15.7003 36.8827 16.0307 36.3228 16.2021C36.1423 16.2571 35.955 16.2886 35.7666 16.3196C36.4958 15.9521 36.9042 15.2974 37.3276 14.6256C37.2915 14.6321 37.2785 14.6307 37.2691 14.635C36.1565 15.1794 35.0668 15.7608 34.0762 16.514C33.8122 16.7154 33.6033 16.9443 33.4548 17.2568C33.2164 17.7537 32.915 18.221 32.6417 18.6997C32.6297 18.7214 32.6161 18.7423 32.5832 18.7996C32.8225 18.7492 33.0324 18.7157 33.2389 18.6633C34.1107 18.4403 34.9214 18.063 35.7172 17.6532C36.9596 17.0099 38.1432 16.2662 39.2909 15.4678C39.3258 15.4438 39.3614 15.421 39.4067 15.4068C39.3963 15.4214 39.3884 15.4373 39.3758 15.4493C38.0138 16.8074 36.4863 17.9259 34.7005 18.6672C33.9282 18.9892 33.1279 19.2035 32.2951 19.29C32.2642 19.2946 32.2238 19.304 32.2063 19.3255C32.0209 19.5501 31.8398 19.7769 31.6345 20.0302C32.1428 19.9213 32.6212 19.8259 33.096 19.7154C34.4255 19.4065 35.7296 19.014 36.9741 18.4484C37.8938 18.0305 38.7706 17.5391 39.5082 16.8405C40.4819 15.9176 41.1986 14.8262 41.6171 13.5475C41.6782 13.3595 41.6971 13.1562 41.742 12.9241Z" fill="#E65271"/>
<path opacity="0.6" d="M18.7399 25.2712C19.1841 25.1203 19.6252 24.9602 20.0629 24.7909C25.7134 23.029 27.5811 21.5596 27.5811 21.5596L33.2578 17.357C33.2578 17.357 34.185 18.0672 35.3862 17.1385C34.568 18.1208 32.0572 18.8851 32.0572 18.8851C32.0572 18.8851 31.9417 19.6578 31.1231 20.2581C33.3563 19.4988 37.1101 19.7167 39.7141 17.3716C37.7449 22.9415 32.8535 18.6955 28.1266 22.1599C27.5813 22.4878 20.3718 24.3301 23.9546 24.2036C27.5374 24.0777 29.8975 26.5229 32.89 25.7212C30.0815 26.7402 27.5988 25.1079 23.686 24.8329C24.2948 24.955 25.1286 25.2904 25.484 25.7486C24.0655 24.7359 21.2899 24.6894 20.6301 24.9209C19.994 25.0027 19.363 25.1196 18.7399 25.2712Z" fill="#8B4FBA"/>
<path opacity="0.2" d="M32.2938 26.9895C28.1767 28.6247 13.6251 23.8876 7.09134 31.237C7.09134 31.237 6.60214 31.0181 9.20417 28.1016C19.4348 23.2106 27.0486 27.8357 32.2938 26.9895Z" fill="#2B2B2B"/>
<path opacity="0.7" d="M38.6615 20.4732C39.8797 19.7879 38.8901 21.4628 37.6725 22.452C32.8764 25.8007 30.7082 21.99 25.9524 23.8241C33.2283 19.8127 33.9415 24.8117 38.6615 20.4732Z" fill="url(#paint10_radial_13400_1125)"/>
<path opacity="0.2" d="M38.2887 21.4266C39.5073 20.7414 38.8901 21.4656 37.6725 22.4553C32.8764 25.8042 30.7082 21.9935 25.9524 23.8273C30.6338 21.2221 33.5697 25.764 38.2887 21.4266Z" fill="#8B4FBA"/>
<g opacity="0.7">
<path d="M14.6129 19.6266C12.3946 21.6569 14.1337 26.1028 14.1337 26.1028L12.5552 26.4413C12.5552 26.4413 10.9621 22.1427 14.6129 19.6266Z" fill="url(#paint11_radial_13400_1125)"/>
<path d="M18.4414 16.2229C20.1133 19.1983 15.6792 23.2914 18.06 24.7405C18.0226 24.9359 16.6986 25.5997 16.7604 25.4078C13.8219 20.8988 18.6682 19.8236 18.032 17.0045C14.6342 21.6406 14.5976 22.5583 16.2486 25.4933C16.2285 25.509 16.0472 25.746 15.8664 25.6111C13.2846 23.6758 12.5576 21.5007 18.4412 16.2229" fill="url(#paint12_radial_13400_1125)"/>
</g>
<path opacity="0.2" d="M23.9049 22.2703C24.0107 23.6638 24.984 21.4001 25.1313 19.8375C25.2584 13.9906 19.3299 15.4046 19.059 10.6741C18.4821 16.0559 24.8969 15.9375 23.9049 22.2703Z" fill="#8B4FBA"/>
<path opacity="0.3" d="M29.6532 19.9517C29.758 21.3453 32.556 17.7585 32.704 16.1966C31.7648 6.16434 21.4394 12.2658 18.7399 8.56915C20.9701 12.6187 35.4026 6.98551 29.6532 19.9517Z" fill="white"/>
<path d="M48.5458 39.4833C48.3943 39.6161 48.27 39.7371 48.1329 39.8419C48.0218 39.9259 47.9032 39.9992 47.7784 40.061C47.4766 40.2068 47.1728 40.2259 46.8678 40.064C46.3924 39.812 45.8821 39.7931 45.3618 39.85C45.2105 39.866 45.1116 39.9381 45.042 40.0795C44.5207 41.1521 43.6519 41.8409 42.5637 42.2767C42.4394 42.3267 42.3809 42.3846 42.3588 42.5202C42.3039 42.8614 42.2804 43.1973 42.3614 43.5378C42.4934 44.0822 42.8317 44.4725 43.288 44.7729C43.7654 45.0877 44.2983 45.2733 44.848 45.4113C45.5094 45.5746 46.1786 45.6851 46.8619 45.6831C47.2092 45.6825 47.553 45.6422 47.887 45.5411C48.6327 45.3157 49.0935 44.8174 49.2626 44.064C49.3719 43.5748 49.4754 43.0805 49.5254 42.583C49.6399 41.4429 49.3345 40.4198 48.5807 39.5421C48.5677 39.5251 48.5582 39.5042 48.5458 39.4831" fill="url(#paint13_linear_13400_1125)"/>
<path opacity="0.3" d="M46.3888 39.569C46.4451 39.9114 47.088 40.0044 47.3865 39.9943C47.9117 39.9768 48.2516 39.6704 48.593 39.2726C48.648 39.2076 48.6909 39.1436 48.7284 39.0782C49.3228 39.5524 49.6555 40.1947 49.5641 40.85C49.4022 42.0045 47.9801 42.7579 46.3891 42.5345C45.289 42.3794 44.3959 41.7972 44.004 41.0708C44.2948 40.6991 44.4089 40.2268 44.7921 39.9049C45.166 39.593 45.9039 39.5479 46.3888 39.569Z" fill="#F6E8A0"/>
<path d="M7.70278 28.7102C8.04678 28.8802 8.28714 28.9171 8.50071 28.8402C8.25522 27.5906 8.12677 26.3306 8.17031 25.0624C8.21917 23.659 8.46209 22.2923 9.07798 21.0129C9.1558 20.8503 9.24643 20.6929 9.35223 20.543C9.34572 20.568 9.34178 20.5934 9.33233 20.6165C9.00094 21.4487 8.84805 22.3173 8.79801 23.2092C8.7192 24.5986 8.88293 25.9661 9.18338 27.3202C9.19087 27.3531 9.20032 27.3853 9.21431 27.4331C9.41074 27.3011 9.60165 27.1752 9.78823 27.0428C9.81069 27.0263 9.81108 26.966 9.80616 26.9274C9.7112 26.105 9.7175 25.2835 9.80616 24.4611C9.93304 23.2865 10.2231 22.1544 10.6364 21.0519C11.2121 19.5124 11.9929 18.0828 12.9461 16.7468C12.9685 16.7159 12.9912 16.6848 13.0121 16.6532C13.0166 16.6463 13.016 16.6379 13.0225 16.6123C12.8842 16.6615 12.7542 16.7058 12.6237 16.7527C11.746 17.0707 10.8862 17.4295 10.0585 17.8633C9.9275 17.931 9.80512 18.0143 9.69405 18.1114C8.52967 19.143 7.84227 20.4476 7.53197 21.9605C7.48586 22.1855 7.45296 22.4143 7.39051 22.6403C7.4039 22.3894 7.411 22.1375 7.43287 21.8865C7.53689 20.6925 7.76031 19.5203 8.16262 18.3894C8.26507 18.1017 8.19375 17.8424 8.15021 17.5725C8.13682 17.4886 8.07732 17.4116 8.03831 17.3312C7.97368 17.3936 7.89448 17.446 7.84779 17.5201C7.5168 18.0464 7.30342 18.6242 7.12906 19.217C6.86171 20.1237 6.70212 21.0564 6.57071 21.993C6.44875 22.8678 6.37133 23.7475 6.37487 24.6315C6.3794 25.526 6.44777 26.412 6.74527 27.2657C6.88673 27.6715 7.07705 28.0518 7.3515 28.3843C7.44902 28.5033 7.57038 28.6048 7.67934 28.7147C7.68722 28.7128 7.69411 28.7118 7.70278 28.7102Z" fill="url(#paint14_linear_13400_1125)"/>
<path opacity="0.2" d="M11.7564 16.6441C11.7564 16.6441 9.53406 16.9566 8.59684 18.4851C7.65903 20.0125 7.38971 22.6398 7.38971 22.6398C7.38971 22.6398 6.90997 26.5579 8.5003 28.8396C7.49275 20.4724 11.7564 16.6441 11.7564 16.6441Z" fill="#2B2B2B"/>
<path d="M7.7028 28.7108L7.67936 28.7143C7.22109 28.5352 6.86271 28.2269 6.56975 27.8396C6.1434 27.2747 5.91958 26.6214 5.78108 25.9383C5.57618 24.9195 5.55845 23.8893 5.64553 22.8597C5.69616 22.2714 5.78147 21.6851 5.85299 21.0999C5.85555 21.0789 5.85595 21.0584 5.85811 21.0158C5.82206 21.0469 5.79645 21.0643 5.77596 21.0859C4.07667 22.8477 2.7986 24.8776 1.96167 27.1794C1.93999 27.2393 1.94728 27.3202 1.9658 27.3833C2.46564 28.9797 3.18791 30.4737 4.07371 31.8881C4.44746 32.4851 4.85942 33.0578 5.25464 33.641C5.28577 33.6871 5.32222 33.7285 5.37877 33.8026C5.39256 33.509 5.54958 33.2718 5.42861 32.9843C5.27415 32.6179 5.17485 32.2325 5.19534 31.8266C5.20381 31.6769 5.23928 31.5368 5.3437 31.3979C5.44713 31.6917 5.52712 31.9811 5.75744 32.2026C5.82501 32.0822 5.83861 31.9772 5.79546 31.8481C5.63568 31.3694 5.52417 30.88 5.5547 30.3707C5.56416 30.2148 5.59962 30.0614 5.64218 29.9043C5.78108 30.2865 6.01139 30.5998 6.27796 30.9001C6.29333 30.877 6.30791 30.862 6.31579 30.8441C6.67121 30.1092 7.12652 29.4419 7.66892 28.8331C7.69394 28.8036 7.69295 28.7518 7.7028 28.7108Z" fill="url(#paint15_linear_13400_1125)"/>
<path opacity="0.2" d="M5.98321 30.6705C5.98321 30.6705 3.48402 25.7796 4.65373 21.5796C4.79913 21.4647 4.41927 21.761 3.96751 22.2814C3.89796 22.3602 3.06024 27.9065 4.7611 30.3517C2.47489 27.6395 3.55751 22.7936 3.46078 22.9351C3.25666 23.2371 3.07324 23.5705 2.95188 23.9188C1.78217 29.3949 5.82284 32.6909 5.82284 32.6909L5.98321 30.6705Z" fill="#2B2B2B"/>
<path d="M44.228 48.2778C44.125 48.4347 44.0056 48.5927 43.9106 48.7665C43.867 48.8443 43.8402 48.9305 43.832 49.0194C43.8238 49.1083 43.8344 49.1979 43.8632 49.2825C43.9351 49.5023 44.082 49.5868 44.311 49.5549C44.4944 49.527 44.6778 49.4988 44.8626 49.4929C45.0593 49.4864 45.0727 49.513 45.0951 49.7033C45.1002 49.7537 45.1067 49.8057 45.1257 49.8518C45.1997 50.0402 45.3091 50.2025 45.5282 50.2317C45.7409 50.2597 45.8905 50.1407 46.0049 49.9771C46.3474 49.4925 46.0635 48.8372 45.4687 48.7582C45.2843 48.7336 45.0918 48.7637 44.9028 48.7686C44.8664 48.7702 44.8299 48.7765 44.7939 48.7797C44.7848 48.7692 44.7757 48.7572 44.7663 48.7466C44.8173 48.6871 44.8569 48.6083 44.9208 48.5706C45.0563 48.4929 45.2136 48.4617 45.3686 48.4818C46.3868 48.598 47.3575 48.4778 48.2212 47.8675C48.7006 47.528 49.0548 47.0827 49.3253 46.566C49.3273 46.5624 49.3302 46.5589 49.3322 46.5553C49.3663 46.4613 49.4358 46.3469 49.3428 46.2755C49.2893 46.2336 49.1659 46.2519 49.0844 46.2785C48.7041 46.4034 48.3347 46.5618 47.9493 46.6668C47.387 46.8207 46.8041 46.8258 46.2254 46.7943C45.4432 46.7523 44.6739 46.6278 43.9351 46.3504C43.1074 46.0395 42.3601 45.6008 41.7119 44.9965C41.6374 44.9264 41.562 44.858 41.478 44.8014C41.337 44.7075 41.24 44.7542 41.2351 44.925C41.2312 45.0459 41.243 45.1703 41.27 45.2895C41.5474 46.4974 42.2801 47.3471 43.3633 47.9084C43.6472 48.0574 43.9522 48.1618 44.228 48.2778Z" fill="#E65270"/>
<path d="M1.21548 25.7932C1.17154 30.1522 2.57353 33.935 5.49316 37.1468C5.45218 36.8509 5.39761 36.5549 5.37258 36.2596C5.33121 35.7552 5.30422 35.2495 5.27959 34.7426C5.27467 34.6397 5.24866 34.5582 5.19073 34.4758C4.09748 32.8989 3.09484 31.2673 2.29514 29.5184C1.88928 28.6312 1.54253 27.72 1.35654 26.7584C1.29645 26.4475 1.26296 26.132 1.21548 25.7932Z" fill="url(#paint16_linear_13400_1125)"/>
<path d="M36.8637 11.4586C37.3866 10.5542 37.9259 9.6842 38.1174 8.65891C38.1493 8.48751 38.1398 8.30507 38.1288 8.12815C38.0719 7.1395 38.1743 6.17431 38.4947 5.23256C38.5232 5.14922 38.5573 5.06115 38.5552 4.97623C38.5542 4.9057 38.5173 4.82433 38.4704 4.76877C38.4107 4.69824 38.3288 4.72346 38.2517 4.76739C38.0055 4.90669 37.8266 5.11178 37.683 5.35018C37.3912 5.82952 37.2351 6.3597 37.1274 6.90269C36.8299 8.38959 36.7849 9.89304 36.8433 11.4046C36.8442 11.4125 36.8492 11.4195 36.8637 11.4586Z" fill="url(#paint17_linear_13400_1125)"/>
<path opacity="0.4" d="M37.1727 5.69869C37.2677 5.49674 37.6586 5.05483 37.8156 4.92736L38.1688 4.70197C37.8136 5.60766 37.6865 6.52932 37.6865 7.49412C37.6865 8.30682 37.9365 9.06161 37.9765 9.87017C38.0081 10.5365 37.7175 10.8714 37.3721 11.4138C37.2162 11.6577 37.0033 12.1861 36.6644 12.1881C36.5074 11.8025 36.5324 11.3198 36.529 10.9075C36.5245 10.4141 36.4455 9.93282 36.465 9.43437C36.5015 8.4938 37.0098 6.04504 37.1727 5.69869Z" fill="#8B4FBA"/>
<path d="M49.3391 44.6587C49.3241 44.6705 49.319 44.6725 49.3174 44.6757C48.9332 45.4659 48.25 45.8109 47.4241 45.8802C46.0601 45.9963 44.7517 45.7407 43.5101 45.17C42.9868 44.929 42.5394 44.5791 42.2874 44.0414C42.178 43.809 42.1254 43.5501 42.0441 43.2947C41.7732 43.2932 41.4508 43.5611 41.4298 43.8499C41.4223 43.9439 41.4617 44.0489 41.5042 44.1368C41.6756 44.4912 41.9511 44.7596 42.2515 45.0025C43.0238 45.6259 43.9079 46.0191 44.8666 46.2512C46.1255 46.556 47.3843 46.5651 48.6296 46.1876C48.9248 46.0981 49.2035 45.9482 49.478 45.8022C49.69 45.6887 49.7979 45.4949 49.7658 45.2425C49.7323 44.9706 49.5915 44.7755 49.3391 44.6587Z" fill="#E65270"/>
<path opacity="0.4" d="M49.3391 44.6587C49.3241 44.6705 49.319 44.6725 49.3174 44.6757C48.9332 45.4659 48.25 45.8109 47.4241 45.8802C46.0601 45.9963 44.7517 45.7407 43.5101 45.17C42.9868 44.929 42.5394 44.5791 42.2874 44.0414C42.178 43.809 42.1254 43.5501 42.0441 43.2947C41.7732 43.2932 41.4508 43.5611 41.4298 43.8499C41.4223 43.9439 41.4617 44.0489 41.5042 44.1368C41.6756 44.4912 41.9511 44.7596 42.2515 45.0025C43.0238 45.6259 43.9079 46.0191 44.8666 46.2512C46.1255 46.556 47.3843 46.5651 48.6296 46.1876C48.9248 46.0981 49.2035 45.9482 49.478 45.8022C49.69 45.6887 49.7979 45.4949 49.7658 45.2425C49.7323 44.9706 49.5915 44.7755 49.3391 44.6587Z" fill="#2B2B2B"/>
<path d="M35.6431 32.1165C35.6324 32.5952 35.7362 33.0695 35.9459 33.5C36.3723 34.3751 37.074 34.9475 37.9537 35.3228C38.7211 35.6508 39.5263 35.7621 40.3566 35.7192C40.367 35.7188 40.3775 35.7143 40.4129 35.7034C39.8321 35.6138 39.2923 35.4694 38.77 35.2609C37.8653 34.8996 37.0681 34.3858 36.4483 33.6194C36.1178 33.2121 35.8626 32.7492 35.6945 32.2524C35.6801 32.2065 35.6608 32.1614 35.6431 32.1165ZM42.4194 25.1288C43.3124 24.5835 43.5053 23.3024 42.9326 22.5701C43.0676 23.4849 42.8826 24.334 42.4194 25.1288ZM43.8923 30.1556C44.3287 30.5135 44.8545 30.6126 45.4022 30.6028C45.6211 30.5975 45.8392 30.5614 46.0581 30.551C46.1784 30.5445 46.299 30.5537 46.4169 30.5786C46.6379 30.629 46.7362 30.5949 46.8117 30.3831C46.9827 29.8996 47.0633 29.3988 47.0058 28.8885C46.9778 28.6442 46.9274 28.3932 46.8292 28.1694C46.4484 27.2781 45.2939 26.9116 44.4386 27.3985C44.3283 27.4614 44.2237 27.5338 44.1261 27.615C44.0223 27.6995 43.9283 27.7974 43.8204 27.8983C43.8688 27.9539 43.9088 28.0073 43.9537 28.054C44.0572 28.1598 44.0962 28.2853 44.0647 28.4263C43.9667 28.868 44.1583 29.1825 44.5277 29.3844C44.7917 29.5283 45.0803 29.6319 45.3677 29.7272C45.5163 29.7783 45.6686 29.8143 45.8237 29.8453C45.8705 29.8437 45.891 29.8358 45.9281 29.8062C46.1586 29.6573 46.3235 29.4619 46.425 29.2059C46.4799 29.3568 46.4689 29.6078 46.4204 29.7942C46.3905 29.9093 46.41 30.191 46.4689 30.273C46.4643 30.2776 46.4601 30.2827 46.4565 30.2882C46.4292 30.2752 46.4025 30.261 46.3765 30.2456C46.0806 30.0643 45.7496 30.0066 45.4117 29.9647C44.995 29.9117 44.5891 29.8163 44.2335 29.5757C43.8064 29.2865 43.5768 28.8842 43.5518 28.3668C43.5508 28.3507 43.5485 28.3357 43.543 28.2933C43.1556 29.0495 43.274 29.6488 43.8923 30.1556Z" fill="#0D0D0D"/>
<path d="M44.4578 28.5279C44.4578 28.6964 44.5077 28.8611 44.6013 29.0011C44.6949 29.1411 44.828 29.2503 44.9836 29.3147C45.1392 29.3791 45.3105 29.396 45.4757 29.363C45.6409 29.3301 45.7926 29.2489 45.9117 29.1298C46.0307 29.0106 46.1118 28.8588 46.1445 28.6936C46.1773 28.5283 46.1603 28.3571 46.0958 28.2015C46.0312 28.046 45.9219 27.913 45.7818 27.8195C45.6417 27.7261 45.4769 27.6763 45.3085 27.6764C45.1967 27.6765 45.086 27.6985 44.9828 27.7414C44.8795 27.7842 44.7857 27.847 44.7067 27.9261C44.6277 28.0051 44.5651 28.099 44.5223 28.2023C44.4796 28.3056 44.4577 28.4162 44.4578 28.5279Z" fill="url(#paint18_linear_13400_1125)"/>
<path d="M45.0396 28.7387C45.0584 28.7387 45.0768 28.7334 45.0927 28.7233L45.2939 28.5976C45.3084 28.5886 45.3203 28.576 45.3285 28.5612C45.3368 28.5463 45.3412 28.5295 45.3412 28.5125V28.2609C45.3412 28.2439 45.3368 28.2271 45.3285 28.2122C45.3203 28.1973 45.3084 28.1848 45.2939 28.1758L45.0929 28.0501C45.0769 28.0401 45.0584 28.0347 45.0396 28.0347C45.0207 28.0347 45.0022 28.0401 44.9862 28.0501L44.7852 28.1758C44.7708 28.1848 44.7588 28.1973 44.7506 28.2122C44.7423 28.2271 44.7379 28.2439 44.7379 28.2609V28.5125C44.7379 28.5472 44.7556 28.5793 44.7852 28.5976L44.9862 28.7233C45.0021 28.7334 45.0205 28.7387 45.0394 28.7387M48.2655 42.8803C48.4167 42.9743 48.6515 42.9343 48.739 42.7684C49.1023 42.0777 49.0688 41.273 48.7134 40.5862C48.5097 40.1922 47.8987 40.5102 48.1022 40.9024C48.3442 41.3719 48.394 41.9486 48.1527 42.409C48.0668 42.5734 48.0977 42.7763 48.2655 42.8803Z" fill="white"/>
<path opacity="0.2" d="M11.2854 44.8671C11.0698 38.7096 14.8666 40.7123 16.5556 38.1129C16.693 37.9509 16.7743 37.7689 16.8364 37.628C14.9411 38.6722 9.62766 37.9747 11.2854 44.8671Z" fill="#430A1D"/>
<path opacity="0.2" d="M8.3941 32.8645C13.6082 28.376 23.9013 28.8658 24.6545 28.9292C20.337 32.0086 7.38438 29.1138 6.90956 38.487C6.06888 35.8249 7.1515 33.9347 8.3941 32.8645Z" fill="#2B2B2B"/>
<path opacity="0.2" d="M16.7289 37.8719C16.7289 37.8719 16.7279 39.2325 16.7289 40.1938C16.7289 41.1544 15.5212 40.6305 15.0551 39.3115C16.219 38.8552 16.7289 37.8719 16.7289 37.8719Z" fill="#430A1D"/>
<path opacity="0.2" d="M16.0829 38.3302C16.9561 36.7893 16.0588 35.456 15.9199 35.3991C16.4156 35.3731 17.3688 34.4424 17.5964 34.1327C17.951 33.6472 17.9727 32.9427 18.0022 32.3662C18.7064 32.3347 19.2017 31.9032 19.843 31.7503C19.2976 32.2606 18.559 32.8644 18.228 33.5522C17.9337 34.163 17.6848 34.8664 17.4872 35.5161C17.3259 36.0485 17.1749 36.5773 17.0754 37.1266C17.0016 37.5354 16.7602 38.0857 16.804 38.484C16.804 38.484 16.7141 42.0684 17.4328 43.8382C16.0718 43.375 15.3586 42.2642 15.1106 41.8345C14.8296 41.3481 14.3014 40.139 14.9557 39.3688C15.3779 39.2148 15.8405 38.7575 16.0829 38.3302Z" fill="#430A1D"/>
<path d="M3.3342 42.9837C6.07375 46.759 9.7385 49.1853 14.294 50.2393C15.8116 50.5908 17.3545 50.6871 18.9109 50.6812C22.7187 50.6647 26.5257 50.6741 30.3335 50.6737C32.8942 50.6728 35.456 50.6737 38.0165 50.6672C38.6258 50.6663 39.2336 50.6259 39.8164 50.4229C40.3882 50.2249 40.8291 49.8744 41.0754 49.3072C41.4273 48.488 41.127 47.4572 40.3667 46.902C39.8093 46.4952 39.169 46.3768 38.4952 46.4067C38.314 46.4158 38.1329 46.4437 37.9524 46.4623C37.9115 46.4666 37.8665 46.476 37.8275 46.4672C37.769 46.4546 37.714 46.4258 37.6581 46.4047C37.69 46.3576 37.7133 46.3007 37.755 46.2662C38.4513 45.674 38.9306 44.9442 39.1602 44.0584C39.2441 43.7361 39.2685 43.4087 39.238 43.0783C39.2359 43.0522 39.2342 43.027 39.2331 43.0024C39.2262 42.8314 39.2851 42.7784 39.4535 42.7705C39.9514 42.7475 40.4485 42.728 40.945 42.6889C41.1824 42.67 41.4164 42.6121 41.6842 42.595C41.6532 42.6359 41.6302 42.6964 41.5888 42.7153C41.1918 42.899 40.9329 43.2047 40.8027 43.6126C40.65 44.0929 40.543 44.5839 40.5651 45.0932C40.5986 45.9159 40.9189 46.6236 41.4399 47.248C41.9082 47.8077 42.4851 48.2291 43.1372 48.5489C43.2211 48.5899 43.2436 48.6259 43.2142 48.7203C43.1307 48.9898 43.1413 49.2617 43.2357 49.5306C43.2932 49.6946 43.3986 49.8136 43.549 49.8981C43.892 50.089 44.2874 50.116 44.6611 49.9595C44.6718 50.0129 44.6808 50.0734 44.6936 50.1254C44.8016 50.5352 45.066 50.6982 45.4654 50.9381H45.7449C45.7558 50.9381 45.7664 50.9086 45.7778 50.9066C46.4812 50.7882 46.7765 50.1453 46.695 49.5365C46.6741 49.3797 46.6286 49.2253 46.598 49.0838C46.917 48.9999 47.2454 48.9348 47.5587 48.8249C49.0058 48.3215 49.9609 47.3449 50.3652 45.8568C50.5268 45.2616 50.4267 44.7283 49.9649 44.2866C49.9359 44.2574 49.934 44.1875 49.9405 44.14C50.0303 43.5777 50.169 43.0193 50.2049 42.4535C50.2917 41.111 49.8699 39.9338 48.9368 38.9523C48.8817 38.8951 48.8783 38.8463 48.8927 38.7754C48.9542 38.4743 49.0247 38.1741 49.0618 37.8697C49.1376 37.2557 48.9037 36.747 48.4943 36.3036C48.4585 36.2642 48.4179 36.2216 48.4004 36.1727C48.2861 35.8313 48.0497 35.5988 47.7372 35.4418C47.1073 35.1246 46.4396 35.06 45.7512 35.1744C45.3005 35.2499 44.8887 35.4398 44.4818 35.6329C44.3024 35.7178 44.1375 35.7604 43.9716 35.6148C43.943 35.5903 43.8987 35.5844 43.8721 35.5614C43.826 35.518 43.7491 35.4574 43.7576 35.4209C43.769 35.365 43.8354 35.3015 43.893 35.2785C44.2104 35.1536 44.5372 35.086 44.8812 35.086C45.1391 35.086 45.3974 35.0785 45.6523 35.0485C46.4656 34.95 47.2113 34.6567 47.9116 34.2388C47.9586 34.2108 48.0101 34.1868 48.0631 34.1783C48.9682 34.0398 49.6956 33.3286 49.8534 32.428C49.8691 32.337 49.867 32.2325 49.9139 32.16C50.2978 31.5672 50.3288 30.9373 50.1073 30.2903C49.9669 29.8807 49.772 29.4885 49.6175 29.084C49.5346 28.8673 49.4507 28.6427 49.4296 28.4179C49.374 27.7766 49.2891 27.1412 49.1171 26.5219C48.7499 25.1994 48.095 24.0533 47.0439 23.1541C45.9827 22.2468 44.7388 21.7691 43.3606 21.6227C43.2392 21.6101 43.1754 21.5711 43.1212 21.4513C42.8204 20.769 42.3255 20.2896 41.6132 20.0406C41.4282 19.9762 41.2438 19.9618 41.0699 20.0402C40.822 20.1545 40.5694 20.2686 40.3476 20.4256C39.7658 20.8314 39.305 21.3587 38.9228 21.955C38.8926 22 38.8597 22.0589 38.8152 22.074C38.7553 22.0933 38.6662 22.1004 38.6201 22.0685C38.5853 22.0445 38.5774 21.9476 38.5908 21.891C38.6067 21.8246 38.6584 21.7655 38.6978 21.707C39.7104 20.2426 40.3547 18.6315 40.651 16.8757C40.6616 16.8207 40.7007 16.7614 40.7416 16.7198C40.9905 16.4663 41.2474 16.222 41.4942 15.9664C41.8887 15.5592 42.1306 15.0659 42.2595 14.5184C42.293 14.3751 42.3095 14.2276 42.319 14.0812C42.3219 14.0366 42.2786 13.9898 42.2565 13.9437C42.2092 13.9712 42.1472 13.9878 42.118 14.0272C42.0506 14.1192 42.0037 14.2246 41.9411 14.3196C41.9001 14.3826 41.8465 14.436 41.7982 14.4965C41.7833 14.461 41.7872 14.4411 41.7943 14.4226C42.0591 13.7478 42.2435 13.0525 42.3326 12.3318C42.3576 12.1309 42.3745 11.9279 42.3795 11.726C42.3834 11.579 42.2855 11.486 42.1876 11.5256C42.1351 11.5465 42.0896 11.591 42.0491 11.631C41.6552 12.0213 41.1908 12.3108 40.7152 12.5846C40.7046 12.5702 40.6965 12.5637 40.6961 12.5562C40.6831 12.4853 40.6701 12.4152 40.6597 12.3442C40.5326 11.512 40.3131 10.7029 40.0594 9.90003C39.8659 9.2873 39.7563 8.66098 39.8629 8.01515C39.9268 7.63037 40.0633 7.28204 40.3901 7.03714C40.4146 7.01862 40.4311 6.98907 40.4601 6.95617C40.4221 6.93647 40.3986 6.91755 40.3716 6.91204C39.9004 6.80821 39.4129 6.86909 39.1485 7.4105C39.1182 7.47098 39.0782 7.52536 39.0236 7.61638C38.9641 7.49738 38.9052 7.41936 38.8861 7.33464C38.7936 6.90863 38.7676 6.47084 38.8093 6.03688C38.8601 5.49803 39.0502 5.00469 39.2845 4.52377C39.345 4.39906 39.4027 4.2706 39.4415 4.1386C39.511 3.89922 39.3775 3.7221 39.1271 3.72624C39.0027 3.7286 38.8711 3.74811 38.7567 3.79165C38.1404 4.02354 37.6711 4.43097 37.3592 5.01435C37.3336 5.06163 37.3101 5.10872 37.2828 5.16566C37.0353 4.9253 36.8099 4.69084 36.6925 4.3699C36.6176 4.1646 36.5175 3.96601 36.4151 3.77411C36.3416 3.6362 36.286 3.63915 36.196 3.76466C36.1716 3.79815 36.1501 3.83558 36.1237 3.86809C36.0542 3.95163 36.0008 3.95202 35.9468 3.85765C35.8981 3.7747 35.8617 3.68329 35.8292 3.59364C35.6682 3.15882 35.4048 2.79808 35.0434 2.50964C35.019 2.49112 34.991 2.47654 34.9331 2.44108C34.9546 2.5786 34.9719 2.68499 34.9855 2.79197C35.0001 2.90152 35.0131 3.01086 35.0269 3.12631C34.9946 3.12237 34.9845 3.12336 34.9776 3.11942C34.9426 3.09696 34.9067 3.07332 34.872 3.04849C33.4106 2.03877 31.8125 1.33699 30.0857 0.927186C29.5594 0.802276 29.0076 0.75775 28.5322 0.459266C28.5217 0.45237 28.5081 0.448824 28.4967 0.443307C28.4027 0.406267 28.3338 0.426757 28.2609 0.499851C28.2144 0.545757 28.1314 0.566247 28.0648 0.565262C27.854 0.560336 27.643 0.51384 27.433 0.496305C27.2397 0.480347 27.0407 0.436214 26.8553 0.389915C26.5369 0.309334 26.2274 -0.000183105 25.9152 -0.000183105H25.6866C25.6137 -0.000183105 25.5272 0.209839 25.4679 0.283524C25.3643 0.412769 25.2374 0.564277 25.0749 0.574719C23.9987 0.641705 22.9346 0.797744 21.8865 1.05919C20.291 1.455 18.7925 2.06931 17.4496 3.0349C16.4685 3.74121 15.6266 4.57992 15.0298 5.64304C14.9077 5.85897 14.811 6.09086 14.7144 6.31881C14.6415 6.49534 14.6234 6.68133 14.6845 6.86554C14.7359 7.01725 14.85 7.10098 15.0042 7.07714C15.881 6.93923 16.6237 7.25958 17.308 7.75685C17.9889 8.25216 18.5076 8.88696 18.8034 9.68075C19.2394 10.8532 19.0035 11.9029 18.1818 12.8321C18.0988 12.926 18.0048 13.011 17.904 13.113C17.8657 12.9706 17.8338 12.8411 17.7968 12.7117C17.6104 12.0769 17.3456 11.4841 16.8936 10.9897C16.6312 10.7013 16.2074 10.5368 16.5973 10.552C16.9571 10.5644 16.4679 10.5579 16.4228 10.552C16.8716 10.8603 16.5262 11.0431 16.5928 11.5654C16.7343 12.6762 16.3938 13.6318 15.6205 14.434C15.5736 14.4831 15.5027 14.514 15.4361 14.5375C14.6214 14.8265 13.8012 15.1004 12.9911 15.4018C11.5446 15.9397 10.1481 16.5863 8.82433 17.3836C8.80647 17.3939 8.78769 17.4042 8.76799 17.4145C8.64248 17.3336 8.59106 17.2126 8.59658 17.0776C8.60347 16.8978 8.63244 16.7177 8.65391 16.5384C8.65588 16.5167 8.66297 16.497 8.66455 16.4759C8.7075 16.1585 8.58358 16.0549 8.29159 16.197C8.14521 16.2685 8.01064 16.3869 7.90524 16.5122C7.56834 16.9157 7.3595 17.3935 7.15893 17.8724C7.05293 18.1254 6.969 18.3872 6.86143 18.6396C6.82301 18.7316 6.76154 18.825 6.6851 18.8896C5.53904 19.8643 4.47139 20.913 3.56668 22.1203C2.79102 23.1551 2.12962 24.2552 1.59196 25.4318C1.57895 25.4628 1.5628 25.4929 1.54782 25.5233C1.54388 25.5298 1.5364 25.5337 1.51886 25.5489C1.34326 24.5267 1.30714 23.4855 1.41149 22.4537C1.32894 22.7616 1.23693 23.0682 1.16561 23.3785C0.871655 24.6302 0.780238 25.8966 0.867714 27.1792C0.872049 27.2442 0.855696 27.3142 0.836191 27.3772C0.454171 28.5757 0.190757 29.8007 0.0784557 31.053C-0.31046 35.4264 0.752655 39.4261 3.3342 42.9839M2.29512 29.5166C3.09502 31.2656 4.09745 32.8969 5.19071 34.4738C5.24804 34.557 5.27464 34.6383 5.27956 34.7408C5.30419 35.2477 5.33118 35.7531 5.37256 36.2578C5.39758 36.5548 5.45215 36.8507 5.49313 37.145C2.57351 33.9326 1.17152 30.1504 1.21545 25.7914C1.26451 26.1297 1.29643 26.4455 1.35652 26.7556C1.54231 27.7182 1.88926 28.6289 2.29512 29.5166ZM13.022 16.6119C13.0155 16.6375 13.0161 16.646 13.0116 16.6531C12.9903 16.6839 12.9683 16.7151 12.9456 16.7464C11.9924 18.0824 11.2116 19.5126 10.6357 21.0513C10.2224 22.154 9.93237 23.2873 9.80549 24.4609C9.71703 25.2831 9.71052 26.1049 9.80549 26.927C9.81061 26.9654 9.81002 27.0259 9.78776 27.0425C9.60118 27.1759 9.40928 27.3019 9.21384 27.4328C9.20084 27.3855 9.1902 27.354 9.18271 27.3199C8.88127 25.9658 8.71853 24.5992 8.79734 23.2087C8.84857 22.3181 9.00027 21.4489 9.33166 20.6161C9.34131 20.5921 9.34525 20.5668 9.35175 20.5426C9.24576 20.6941 9.15532 20.85 9.07731 21.0125C8.46162 22.2925 8.2183 23.6585 8.16964 25.0622C8.12629 26.3297 8.25455 27.5902 8.50004 28.8399C8.28667 28.9163 8.04768 28.8799 7.70211 28.7098C7.69187 28.7512 7.69285 28.8038 7.66862 28.832C7.12642 29.4416 6.67111 30.1089 6.31569 30.8426C6.30682 30.8611 6.29323 30.8757 6.27786 30.8987C6.01129 30.5967 5.78098 30.2844 5.64208 29.903C5.59952 30.059 5.56406 30.2129 5.5546 30.3693C5.52406 30.8796 5.63538 31.368 5.79536 31.847C5.83851 31.9758 5.82491 32.0808 5.75753 32.2012C5.52702 31.9804 5.44703 31.6903 5.3436 31.3964C5.23918 31.5355 5.20371 31.6764 5.19524 31.8253C5.17475 32.2312 5.27405 32.6165 5.42851 32.983C5.54948 33.2693 5.39364 33.5079 5.37866 33.8012C5.32212 33.7271 5.28508 33.6862 5.25454 33.6397C4.85932 33.0565 4.44736 32.4841 4.07361 31.8868C3.1884 30.4718 2.46554 28.9794 1.9657 27.3819C1.94718 27.3189 1.9397 27.2379 1.96176 27.1778C2.7985 24.8762 4.07558 22.8464 5.77605 21.0844C5.79635 21.0629 5.82196 21.0454 5.85801 21.0145C5.85604 21.0564 5.85545 21.0775 5.85289 21.0984C5.78137 21.6847 5.69606 22.2711 5.64543 22.8584C5.55795 23.889 5.57549 24.9182 5.78098 25.9368C5.91948 26.6201 6.14428 27.2728 6.56965 27.838C6.86261 28.225 7.22099 28.5339 7.67985 28.7128C7.56952 28.6029 7.44934 28.502 7.35142 28.3826C7.07697 28.05 6.88606 27.6694 6.74519 27.2639C6.44671 26.4108 6.37972 25.525 6.37479 24.6298C6.37026 23.7446 6.44769 22.8665 6.57122 21.9911C6.70263 21.0545 6.86202 20.1234 7.12957 19.2151C7.30433 18.6223 7.51632 18.0446 7.8483 17.5182C7.8948 17.4453 7.9742 17.3917 8.03862 17.3292C8.07724 17.4098 8.13614 17.4868 8.15112 17.5708C8.19505 17.8411 8.26559 18.1006 8.16314 18.3874C7.76023 19.5191 7.5374 20.6902 7.43338 21.8847C7.41131 22.1357 7.40481 22.3875 7.39082 22.6385C7.45347 22.4125 7.48578 22.1836 7.53268 21.9588C7.84318 20.4457 8.52959 19.1412 9.69516 18.1094C9.80593 18.0123 9.92813 17.9291 10.0591 17.8616C10.8865 17.4287 11.7463 17.0688 12.6242 16.751C12.7535 16.7051 12.8819 16.6598 13.022 16.6119ZM38.5571 4.97593C38.5591 5.06085 38.5246 5.14891 38.4956 5.23245C38.1747 6.1742 38.0722 7.13959 38.1303 8.12784C38.1408 8.30477 38.1508 8.4878 38.1193 8.65881C37.9274 9.68331 37.388 10.5541 36.8651 11.4583C36.8513 11.4192 36.8458 11.4123 36.8458 11.4062C36.7877 9.89629 36.8328 8.39126 37.1295 6.90435C37.2386 6.36097 37.3935 5.83119 37.6855 5.35184C37.8289 5.11384 38.0078 4.90894 38.2543 4.76906C38.3307 4.72572 38.4117 4.7001 38.4726 4.77044C38.5177 4.82442 38.5551 4.90599 38.5573 4.97593M39.181 12.9828C38.9427 13.1552 38.6924 13.3171 38.4304 13.4497C37.5087 13.9129 36.5319 14.2427 35.5667 14.5987C35.379 14.6677 35.1983 14.7666 35.0304 14.8765C34.6967 15.0954 34.4483 15.4026 34.2327 15.7344C34.1299 15.8912 34.0333 16.0531 33.9328 16.2127C33.9358 16.1591 33.9525 16.1122 33.9654 16.0638C34.0792 15.6756 34.2089 15.2909 34.3007 14.897C34.4282 14.3477 34.6301 13.8345 34.9361 13.3636C35.101 13.1093 35.2854 12.8658 35.4469 12.6075C35.5496 12.4437 35.6372 12.271 35.7088 12.0915C35.7507 11.9845 35.7458 11.8596 35.7632 11.7431C35.7458 11.7347 35.7293 11.7262 35.7113 11.7181C35.6601 11.7611 35.6018 11.7987 35.5588 11.8485C35.3815 12.0521 35.2109 12.2625 35.0285 12.4625C34.9891 12.507 34.901 12.5503 34.8565 12.5344C34.8141 12.5188 34.7686 12.4244 34.7751 12.3695C34.7976 12.149 34.8106 11.9216 34.8795 11.7136C34.9745 11.4273 35.1238 11.1588 35.2353 10.8755C35.2899 10.7376 35.3254 10.5845 35.3378 10.4365C35.3439 10.3666 35.2759 10.2907 35.2424 10.2182C35.1829 10.2586 35.1144 10.2911 35.0655 10.3427C34.9784 10.4341 34.9095 10.5411 34.8196 10.631C34.731 10.7184 34.6492 10.7039 34.5982 10.5926C34.5621 10.5145 34.5253 10.4186 34.5377 10.3396C34.5682 10.1412 34.6216 9.94633 34.6727 9.75049C34.7195 9.57239 34.7861 9.39645 34.8224 9.21696C34.8476 9.0956 34.8165 8.97502 34.6892 8.88361C34.6537 8.93562 34.6147 8.98015 34.5917 9.03255C34.5416 9.13954 34.5016 9.25144 34.4561 9.35842C34.3488 9.60549 34.2542 9.86082 34.1273 10.0976C34.015 10.3061 33.9049 10.2876 33.7845 10.0852C33.551 9.68922 33.3205 9.29045 33.0603 8.91257C32.9166 8.70511 32.8337 8.49174 32.8112 8.24881C32.7823 7.9259 32.7663 7.60003 32.7328 7.27672C32.7198 7.15614 32.6873 7.03084 32.5555 6.91677C32.5273 7.0533 32.5039 7.16521 32.4818 7.2777C32.4493 7.44261 32.4268 7.61067 32.3813 7.77203C32.3504 7.8859 32.2584 7.89753 32.2014 7.79606C32.1483 7.70174 32.1162 7.59702 32.1075 7.48911C32.0941 7.2911 32.112 7.09231 32.1016 6.89371C32.097 6.80387 32.0645 6.71344 32.0306 6.62774C32.0164 6.59149 31.9676 6.56686 31.9345 6.53711C31.913 6.57395 31.8831 6.60804 31.871 6.64843C31.8557 6.69571 31.8535 6.74733 31.846 6.79777C31.8245 6.94376 31.8125 7.09329 31.7781 7.23515C31.7416 7.38961 31.6441 7.41562 31.5487 7.29071C31.4602 7.174 31.3921 7.04317 31.3472 6.90376C31.2798 6.69098 31.2512 6.46796 31.1868 6.25301C31.1568 6.15253 31.0883 6.06052 31.0239 5.97521C30.9994 5.94408 30.9299 5.92399 30.8909 5.93581C30.8625 5.9431 30.8343 6.0087 30.8333 6.04968C30.8294 6.2136 30.8365 6.37851 30.8389 6.54302C30.8394 6.62439 30.8389 6.70596 30.8389 6.79383C30.803 6.78595 30.7884 6.78634 30.7799 6.78082C30.7589 6.76671 30.7395 6.75011 30.7224 6.73137C30.5536 6.55208 30.4407 6.34344 30.4046 6.09618C30.3891 5.98664 30.3835 5.8771 30.3633 5.76972C30.3376 5.64264 30.2622 5.59437 30.1331 5.61013C29.9978 5.62629 29.9123 5.7248 29.8983 5.8966C29.8882 6.0087 29.8963 6.12061 29.8963 6.24946C29.7419 6.17065 29.6053 6.09815 29.4664 6.02959C28.0453 5.32623 26.5458 4.89042 24.9724 4.7066C23.9562 4.588 22.9402 4.58504 21.9324 4.78935C21.3232 4.91308 20.7428 5.11148 20.2396 5.49271C20.1655 5.54788 20.0976 5.61171 20.0266 5.6718C20.587 5.34731 20.9148 5.21472 21.4206 5.11897C22.3418 4.94204 23.2635 4.96844 24.1832 5.10183C25.7915 5.33377 27.3452 5.85218 28.7706 6.63247C29.8847 7.24027 30.8919 7.9854 31.7061 8.97168C31.7676 9.04457 31.8251 9.12102 31.8831 9.19608C30.2163 8.39973 28.3334 9.89786 26.4499 9.23292C29.031 10.5636 30.5597 8.84972 32.0151 9.95874C32.3855 10.2407 32.4515 10.9679 31.6053 10.8459C30.7975 10.7305 32.8217 11.1304 33.1846 13.2342C33.1633 13.5876 33.114 13.9387 33.0372 14.2843C32.6899 15.8603 31.9556 17.2522 30.9478 18.5019C29.9103 19.7894 28.6066 20.7475 27.1426 21.4968C27.1173 21.5011 27.0927 21.5085 27.0693 21.5188C27.0732 21.5009 27.0726 21.4924 27.0758 21.4879C27.0963 21.4556 27.1171 21.4236 27.1382 21.392C27.8379 20.3517 28.4132 19.2535 28.6921 18.02C28.884 17.1754 28.9071 16.3286 28.6401 15.4918C28.3418 14.5578 27.7451 13.8465 26.9653 13.2765C26.0915 12.6378 25.1044 12.239 24.0752 11.9331C23.8553 11.8677 23.6313 11.8097 23.3825 11.7412C23.4104 11.7711 23.4134 11.7792 23.4205 11.7816C23.4625 11.7997 23.5064 11.816 23.5499 11.8332C24.2687 12.1141 24.9535 12.4569 25.5743 12.9203C26.468 13.5845 27.1256 14.4212 27.4235 15.5094C27.6866 16.471 27.628 17.4333 27.3936 18.3904C27.0902 19.631 26.5285 20.754 25.8505 21.8272C25.6951 22.0727 25.5107 22.2362 25.2319 22.3191C24.895 22.419 24.5646 22.5485 24.1995 22.6769C25.2323 21.5689 25.2609 20.0093 25.0628 19.0941C25.0599 19.1101 25.055 19.1207 25.0544 19.1316C25.0189 19.8775 24.765 20.5491 24.3481 21.162C23.7263 22.0766 22.8842 22.7435 21.9334 23.2859C21.8599 23.3277 21.7699 23.3411 21.6881 23.3677C22.0319 22.9713 22.2953 22.5394 22.4492 22.0447C22.5993 21.5659 22.6511 20.8151 22.5516 20.5458C22.3948 21.069 22.2313 21.4099 21.882 21.8552C21.2822 22.619 20.5856 23.2802 19.7782 23.8301C19.2374 24.2005 18.67 24.5068 18.0602 24.7397C16.9821 25.1531 15.8575 25.4064 14.7388 25.6805C13.7563 25.9208 12.774 26.1703 11.7989 26.4427C11.267 26.5917 10.7553 26.8112 10.3128 27.1579C10.234 26.982 10.0855 26.3602 10.0799 25.8663C10.0155 20.0453 14.6474 16.9338 16.0589 15.3054C16.4699 14.831 16.7057 14.2498 16.9122 13.6619C16.9961 13.4235 17.068 13.1816 17.1476 12.9343C17.1606 12.9517 17.174 12.9639 17.1801 12.9763C17.5743 13.7334 17.8169 14.5067 17.6279 15.3835C17.3379 16.7244 16.7983 17.9221 15.7815 18.8717C15.7706 18.8823 15.7616 18.8957 15.7265 18.9357C15.7765 18.9101 15.7941 18.9038 15.81 18.8928C16.6462 18.4109 17.4104 17.8381 18.0568 17.1163C19.1434 15.9046 19.7272 14.4866 19.8072 12.8583C19.8422 12.149 19.7447 11.4488 19.6657 10.7486C19.4543 8.88479 18.0933 7.37562 16.2634 6.93036C16.1259 6.89687 15.986 6.84938 15.8621 6.78378C15.6861 6.69039 15.638 6.5375 15.7044 6.3525C15.7285 6.28611 15.7641 6.22148 15.802 6.16139C16.1265 5.65683 16.5388 5.23934 17.0461 4.91604C17.3066 4.75054 17.5663 4.58563 17.8173 4.40615C18.8471 3.67048 19.9541 3.09952 21.1786 2.7638C21.684 2.62529 22.1948 2.50275 22.7262 2.54924C22.8921 2.56422 23.054 2.62569 23.2195 2.64519C23.2885 2.65426 23.363 2.60579 23.4359 2.58372C23.3949 2.53782 23.3624 2.47674 23.3119 2.44837C22.9922 2.26436 22.6387 2.20742 22.2774 2.1954C21.745 2.17747 21.2267 2.27834 20.7083 2.38375C20.6563 2.39439 20.6019 2.39439 20.5484 2.39892C20.9727 2.03187 21.454 1.79506 21.9748 1.63843C22.8326 1.37836 23.7083 1.31965 24.5955 1.39412C24.8794 1.41816 25.1679 1.42959 25.4293 1.57814C25.6862 1.72314 25.9565 1.84451 26.2219 1.97355C26.2794 2.00153 26.3435 2.01552 26.4049 2.03601C26.4144 2.02537 26.4229 2.01631 26.4325 2.00606C26.4044 1.93395 26.3813 1.86007 26.3458 1.7921C26.2505 1.60414 26.1461 1.42072 26.0491 1.23257C26.0314 1.1971 26.0401 1.14627 26.0375 1.10273C26.0775 1.10076 26.1226 1.08579 26.1571 1.0978C26.361 1.16578 26.5689 1.22587 26.7627 1.31669C27.0401 1.4487 27.3292 1.49362 27.6316 1.51411C28.0434 1.54267 28.4563 1.58168 28.8655 1.6402C29.4664 1.72649 29.9243 2.0364 30.221 2.57387C30.2911 2.69918 30.3646 2.82212 30.4401 2.94466C30.4671 2.98801 30.5041 3.02505 30.5366 3.06465C30.5504 3.05815 30.567 3.05263 30.5816 3.04455C30.4858 2.71918 30.3907 2.39364 30.2961 2.06793C30.607 2.13885 30.9315 2.35439 31.1878 2.65682C31.3182 2.80773 31.4337 2.96909 31.5627 3.12001C31.6141 3.1801 31.6837 3.22404 31.744 3.27605C31.7611 3.26659 31.7786 3.2591 31.7962 3.24906C31.7712 3.03509 31.7455 2.82153 31.7217 2.60677C31.7347 2.60198 31.7478 2.59764 31.7611 2.59377C31.955 2.71179 32.1465 2.83315 32.3403 2.95116C32.9992 3.34796 33.6164 3.7948 34.0792 4.42467C34.1429 4.51156 34.1904 4.49914 34.2238 4.39374C34.2648 4.26114 34.2922 4.12422 34.3377 3.9928C34.3507 3.95281 34.4067 3.89823 34.4388 3.9002C34.4831 3.90375 34.5452 3.94788 34.5596 3.98827C34.5907 4.07319 34.6037 4.16677 34.6096 4.25917C34.6222 4.44418 34.6175 4.63016 34.6372 4.81398C34.6431 4.87052 34.7036 4.92293 34.739 4.97554C34.7865 4.93357 34.8521 4.90067 34.876 4.84747C34.9495 4.69597 35.0044 4.53559 35.073 4.38113C35.136 4.23829 35.1735 4.23573 35.2649 4.35709C35.3849 4.51766 35.5198 4.6471 35.7462 4.63095C35.9562 4.61519 35.9826 4.63056 36.0607 4.826C36.194 5.15935 36.3075 5.49921 36.4444 5.8308C36.5095 5.98861 36.609 6.13263 36.6874 6.28453C36.7071 6.32059 36.7234 6.37201 36.714 6.40747C36.4356 7.3047 36.3591 8.22891 36.3495 9.16062C36.341 10.0228 36.3585 10.8849 36.329 11.7455C36.3065 12.4189 36.1936 13.0758 35.6912 13.5945C35.7593 13.5738 35.8255 13.5474 35.8892 13.5157C36.2126 13.3477 36.4779 13.1061 36.7094 12.8281C37.2227 12.2144 37.5596 11.5038 37.859 10.7685C38.0972 10.179 38.3413 9.59201 38.5914 9.00753C38.6538 8.86272 38.7576 8.73466 38.8506 8.60325C38.8731 8.57232 38.9397 8.53666 38.9651 8.54966C39.0025 8.56621 39.0386 8.62216 39.0441 8.66472C39.0571 8.75968 39.0571 8.85977 39.0526 8.95453C39.0311 9.43585 38.9911 9.91678 39.0743 10.3967C39.0861 10.47 39.1072 10.5526 39.0886 10.6201C38.9082 11.2782 38.6737 11.9142 38.2675 12.4735C38.2554 12.4908 38.247 12.5123 38.2214 12.562C38.5104 12.4329 38.7046 12.242 38.8623 12.0176C39.0197 11.7922 39.1576 11.5526 39.3125 11.3038C39.3785 11.5708 39.4415 11.8277 39.5045 12.0846C39.594 12.4573 39.4819 12.7633 39.181 12.9828ZM39.5081 16.8398C38.7687 17.5377 37.8935 18.03 36.9738 18.4479C35.7293 19.0137 34.4252 19.406 33.0957 19.7149C32.6209 19.8253 32.1425 19.9208 31.6342 20.0298C31.8385 19.7764 32.0196 19.5494 32.206 19.325C32.2235 19.3036 32.2631 19.2941 32.2948 19.2896C33.1276 19.2031 33.9289 18.9877 34.7 18.667C36.485 17.9262 38.0135 16.8065 39.3755 15.4489C39.3881 15.4365 39.3972 15.4205 39.4064 15.4063C39.3599 15.4205 39.3257 15.4434 39.2906 15.4674C38.1414 16.2651 36.9593 17.0089 35.7167 17.6527C34.9211 18.0625 34.1104 18.4398 33.2386 18.6629C33.0333 18.7153 32.8232 18.7503 32.5829 18.7992C32.6158 18.7422 32.6294 18.7214 32.6414 18.6993C32.9147 18.2205 33.2161 17.7532 33.4545 17.2563C33.603 16.9439 33.8119 16.7149 34.0759 16.5136C35.0655 15.7604 36.1562 15.179 37.2688 14.6346C37.2792 14.6303 37.2912 14.6316 37.3273 14.6251C36.9037 15.297 36.4955 15.9507 35.7663 16.3191C35.9547 16.2882 36.142 16.2567 36.3225 16.2017C36.8824 16.0303 37.3533 15.7003 37.7956 15.3305C38.3364 14.8791 38.8595 14.4037 39.4086 13.9588C39.6909 13.7289 39.9934 13.5071 40.3196 13.3481C40.663 13.1826 41.0435 13.0973 41.4099 12.9836C41.5037 12.9528 41.6042 12.9477 41.7417 12.9237C41.6968 13.1558 41.6777 13.3591 41.6168 13.5482C41.1983 14.8251 40.4818 15.9178 39.5081 16.8398ZM32.7687 26.7186C32.4982 26.8691 32.2103 27.0041 31.9154 27.0939C31.3111 27.2769 30.6822 27.2799 30.0555 27.2783C29.6122 27.2779 29.1683 27.2718 28.7256 27.2769C28.6139 27.2783 28.5036 27.3134 28.3937 27.3333C28.3937 27.3534 28.3925 27.3739 28.3917 27.3949C28.487 27.4314 28.58 27.4757 28.6774 27.5039C28.9863 27.5918 29.2968 27.6708 29.6047 27.7567C29.6652 27.7744 29.7202 27.8087 29.7791 27.8357L29.7726 27.8717C29.7326 27.8875 29.6932 27.9101 29.6506 27.9196C29.0308 28.0431 28.4141 28.1931 27.7882 28.2815C26.7296 28.432 25.6801 28.6155 24.6548 28.9274C24.5663 28.9543 24.4737 28.9654 24.3814 28.9603C23.345 28.8879 22.3086 28.8137 21.272 28.7378C20.0733 28.6503 18.8743 28.6389 17.6778 28.7654C16.3178 28.9088 15.0017 29.2317 13.7285 29.7235C11.8986 30.4308 10.2403 31.4395 8.68169 32.6205C8.65529 32.6406 8.62987 32.6646 8.60426 32.6861C8.65568 32.676 8.69489 32.655 8.73272 32.6321C10.1562 31.7824 11.6238 31.024 13.1747 30.4334C14.4898 29.9329 15.8398 29.5716 17.2349 29.3866C18.243 29.2532 19.2547 29.2227 20.2709 29.2292C21.4058 29.2351 22.5436 29.2292 23.6786 29.2288C23.6932 29.2288 23.7081 29.2308 23.7247 29.2321C23.7202 29.2422 23.7196 29.2471 23.7176 29.2493C23.6906 29.2591 23.6636 29.2712 23.6362 29.2818C22.621 29.6786 21.6584 30.1743 20.7797 30.8217C20.5143 31.0187 20.2288 31.1661 19.9246 31.2805C19.6884 31.3716 19.4496 31.456 19.2086 31.5335C17.9696 31.9248 16.687 32.1167 15.4115 32.3472C14.3604 32.5365 13.3107 32.731 12.269 32.9609C11.3198 33.1704 10.4032 33.4917 9.55094 33.9762C8.08847 34.8068 7.22808 36.0504 6.99383 37.7203C6.95679 37.9827 6.9359 38.2487 6.90931 38.4842C6.85848 38.3892 6.80292 38.2741 6.73751 38.1642C6.18309 37.2319 5.79516 36.2393 5.67419 35.1551C5.51126 33.6903 5.92914 32.4266 6.99028 31.3885C7.03382 31.346 7.06318 31.289 7.09175 31.2325C7.24483 30.9226 7.37112 30.5973 7.54883 30.3039C8.05596 29.4717 8.77173 28.8448 9.57813 28.315C10.6485 27.6128 11.8176 27.1219 13.0248 26.7146C14.9286 26.0708 16.8875 25.6505 18.8558 25.2721C20.4597 24.9641 22.0668 24.6682 23.6697 24.3569C24.9202 24.115 26.1364 23.7721 27.2874 23.2047C28.7315 22.4941 30.0679 21.6404 31.2002 20.4863C31.2376 20.4473 31.3095 20.4262 31.3665 20.4242C32.1238 20.4027 32.8766 20.3316 33.6204 20.1913C35.7037 19.7965 37.6114 18.9852 39.3588 17.7881C39.3879 17.7696 39.4179 17.7556 39.4651 17.7266C39.4547 17.7891 39.4504 17.8265 39.4413 17.8626C39.2943 18.5139 39.1034 19.1526 38.8556 19.7719C37.6419 22.8028 35.6231 25.1296 32.7687 26.7186ZM49.5253 42.5822C49.4749 43.08 49.3715 43.5732 49.2625 44.0632C49.0935 44.8164 48.6326 45.3148 47.8869 45.5402C47.553 45.6411 47.2102 45.6811 46.8618 45.6821C46.1786 45.6836 45.5093 45.5737 44.8479 45.4102C44.2972 45.2723 43.7653 45.0869 43.2879 44.7718C42.8322 44.4716 42.4933 44.0811 42.3613 43.5369C42.2804 43.1965 42.3038 42.8602 42.3588 42.5191C42.3808 42.3838 42.4393 42.3243 42.5637 42.2758C43.6518 41.8414 44.5207 41.1522 45.042 40.0784C45.1113 39.9366 45.2104 39.8647 45.3617 39.8491C45.8821 39.7916 46.3923 39.8107 46.8677 40.0631C47.1727 40.225 47.4771 40.2065 47.7784 40.0601C47.9033 39.9987 48.0221 39.9253 48.133 39.841C48.2697 39.7366 48.3943 39.6152 48.5458 39.4823C48.5582 39.5041 48.5676 39.5242 48.5806 39.5402C49.3344 40.4189 49.6388 41.4414 49.5253 42.5822ZM41.4777 44.8053C41.5616 44.8599 41.6365 44.9304 41.7116 44.9994C42.3598 45.6036 43.107 46.0424 43.9347 46.3533C44.6739 46.6307 45.4427 46.7552 46.2251 46.7972C46.8037 46.8283 47.3867 46.8232 47.949 46.6697C48.3344 46.5649 48.7036 46.4063 49.084 46.2816C49.165 46.255 49.2875 46.2363 49.3425 46.2784C49.4355 46.35 49.3659 46.4634 49.3319 46.5582C49.3299 46.5621 49.3269 46.5659 49.325 46.5688C49.0545 47.085 48.7002 47.5315 48.2209 47.8704C47.3571 48.4807 46.3864 48.6013 45.3682 48.4847C45.2014 48.4657 45.0569 48.4961 44.9204 48.5737C44.8564 48.6102 44.817 48.6892 44.7659 48.7496C44.7754 48.7601 44.7845 48.7721 44.7935 48.7825C44.8294 48.7786 44.866 48.7721 44.9025 48.7715C45.0914 48.7656 45.2839 48.7366 45.4683 48.7611C46.0631 48.8399 46.347 49.4964 46.0046 49.9802C45.8901 50.1438 45.7406 50.261 45.5278 50.2346C45.3087 50.2056 45.1998 50.0431 45.1253 49.8547C45.1089 49.8067 45.0987 49.7568 45.095 49.7062C45.0723 49.5159 45.0589 49.4895 44.8625 49.4958C44.6781 49.5013 44.4946 49.5298 44.3106 49.5578C44.0821 49.5897 43.9347 49.5058 43.8628 49.2853C43.8341 49.2009 43.8235 49.1113 43.8316 49.0224C43.8397 48.9336 43.8665 48.8474 43.9101 48.7695C44.0043 48.5966 44.1248 48.4391 44.2277 48.2807C43.9513 48.1653 43.6469 48.0609 43.3636 47.9139C42.2804 47.3524 41.5467 46.5028 41.2702 45.2947C41.2423 45.1753 41.2303 45.0528 41.2348 44.9302C41.2407 44.7569 41.3366 44.711 41.4777 44.8053ZM42.0429 43.2934C42.1237 43.5489 42.1779 43.8076 42.2859 44.0401C42.5377 44.578 42.9857 44.9269 43.509 45.1688C44.7506 45.7396 46.06 45.9949 47.4231 45.8791C48.2487 45.8091 48.9331 45.4642 49.3165 44.6745C49.3179 44.6715 49.3234 44.6694 49.338 44.6576C49.5904 44.7744 49.7312 44.9694 49.7653 45.2433C49.7962 45.4951 49.6889 45.6901 49.4769 45.8026C49.203 45.9484 48.9236 46.099 48.6287 46.188C47.3831 46.5653 46.1236 46.5564 44.865 46.2514C43.9063 46.0196 43.0215 45.6261 42.2504 45.0029C41.949 44.76 41.6745 44.4921 41.5031 44.1372C41.4606 44.0492 41.4212 43.9432 41.4282 43.8502C41.4507 43.5598 41.772 43.292 42.0429 43.2934ZM2.48367 36.951C1.47237 35.192 0.946128 33.3252 0.944946 33.0387C0.943341 32.1429 1.01039 31.2482 1.14551 30.3626C1.17644 30.1568 1.21742 29.9522 1.25308 29.7468C1.29091 29.7842 1.30352 29.8224 1.31495 29.8612C1.46449 30.3577 1.59432 30.8609 1.76533 31.3497C2.66394 33.9113 4.03046 36.2092 5.72404 38.3198C5.78551 38.3969 5.83831 38.4879 5.86885 38.5813C6.22633 39.6889 6.75711 40.7329 7.44146 41.6743C6.68214 41.351 5.81802 41.2344 4.78761 40.0493C6.05286 42.489 9.04992 43.4557 9.04992 43.4557C10.7173 44.9478 12.6581 45.9339 14.8078 46.5241C14.9818 46.5716 15.1567 46.6096 15.3323 46.6516C15.2942 46.6146 15.2513 46.5996 15.2081 46.5826C13.6084 46.0103 12.1343 45.2126 10.7996 44.1605C9.13878 42.8509 7.88278 41.2375 7.13194 39.2482C7.05195 39.0342 7.01412 38.8347 7.09647 38.6138C7.15243 38.4641 7.18139 38.3045 7.22789 38.1508C7.58075 36.9978 8.13319 35.9611 9.02135 35.1246C9.8711 34.3227 10.8922 33.8385 11.9999 33.5116C13.3264 33.1227 14.6971 32.9792 16.061 32.8004C16.8523 32.6973 17.6394 32.5724 18.4282 32.4518C18.64 32.4203 18.8495 32.3679 19.0748 32.3214C19.0579 32.3494 19.053 32.362 19.0439 32.372C18.4298 33.0593 17.9128 33.8275 17.5074 34.6551C17.4829 34.7067 17.4266 34.7575 17.372 34.7747C17.0075 34.8895 16.6462 35.0261 16.2724 35.1009C15.718 35.2115 15.1508 35.254 14.5964 35.363C11.624 35.9527 10.7078 37.5458 10.7212 37.5312C11.624 36.5725 13.0679 36.3022 13.4499 36.1692C14.3391 35.8599 15.2611 35.7757 16.1948 35.7848C16.4683 35.7887 16.7406 35.8047 17.0217 35.8157C16.1834 38.5519 16.2933 41.219 17.4289 43.8315C17.4299 43.7822 17.4185 43.7349 17.4071 43.688C16.9626 42.0008 16.7825 40.2938 17.0367 38.5563C17.343 36.4466 18.2602 34.6492 19.7922 33.1682C20.9402 32.0586 22.2904 31.2599 23.7389 30.616C25.1149 30.0043 26.5608 29.626 28.0193 29.2739C29.1169 29.0095 30.219 28.7502 31.3028 28.4307C32.7543 28.0055 34.0684 27.3067 35.1875 26.2741C35.3614 26.1141 35.5358 25.9506 35.6792 25.7638C36.6226 24.5431 37.7726 23.5873 39.1875 22.9646C39.277 22.6651 39.433 22.3493 39.6769 22.0195C40.0223 21.5565 40.4502 21.1752 40.9111 20.8328C41.0419 20.7363 41.2149 20.6809 41.378 20.649C41.5547 20.6124 41.6607 20.6979 41.7218 20.8693C41.7374 20.9177 41.7496 20.9666 41.7583 21.0159C41.8522 21.0484 41.9466 21.0992 42.0392 21.1713C42.1026 21.2202 42.1641 21.2732 42.2195 21.3287C42.4799 21.5908 42.6628 21.9024 42.8105 22.237C42.8423 22.3093 42.8854 22.3378 42.9603 22.3473C43.1356 22.3704 43.3117 22.3948 43.4851 22.4283C46.3005 22.9851 48.3495 25.1245 48.7073 28.2004C48.7388 28.4778 48.7373 28.7652 48.8204 29.0251C48.9268 29.3555 49.1021 29.6634 49.2481 29.9812C49.3766 30.2606 49.5171 30.5346 49.6284 30.8215C49.743 31.1151 49.757 31.4208 49.668 31.7292C49.637 31.8352 49.5754 31.8631 49.4926 31.8117C49.3772 31.7388 49.2726 31.6472 49.1616 31.5647C49.0273 31.4642 48.9018 31.3493 48.7564 31.2699C48.6384 31.2043 48.5034 31.2179 48.3974 31.3393C48.422 31.3578 48.4425 31.3724 48.4604 31.3893C48.7503 31.6478 49.0413 31.9035 49.3262 32.1669C49.36 32.1981 49.3847 32.2609 49.3817 32.3094C49.3561 32.7178 49.2207 33.0882 48.9307 33.3822C48.557 33.7604 48.1176 33.9624 47.5717 33.8345C47.5583 34.0378 47.5437 34.0729 47.4273 34.1359C46.6676 34.5471 45.8633 34.7897 44.9925 34.7731C44.3528 34.7621 43.7749 34.965 43.2247 35.2729C43.0539 35.3685 42.8704 35.4544 42.6819 35.5044C42.0871 35.6623 41.4761 35.7078 40.862 35.7237C40.8116 35.7249 40.7625 35.7277 40.7121 35.7302C40.7436 35.7657 40.7751 35.7767 40.8061 35.7838C41.2958 35.8997 41.7927 35.9148 42.293 35.8784C42.4549 35.8668 42.6374 35.8317 42.7784 35.8888C43.1912 36.0567 43.5915 36.2576 43.9889 36.4622C44.1004 36.5195 44.1989 36.5469 44.312 36.5051C44.5642 36.4105 44.8178 36.3171 45.0636 36.2076C45.5863 35.9751 46.1212 35.8352 46.6989 35.9148C47.0143 35.9578 47.3229 36.0271 47.5983 36.1956C47.7762 36.3055 47.9175 36.4456 47.9313 36.6736C47.934 36.7055 47.9628 36.7409 47.9886 36.765C48.0625 36.8333 48.1446 36.895 48.2191 36.963C48.439 37.1659 48.5324 37.4177 48.5048 37.7152C48.4813 37.965 48.4075 38.0066 48.1899 37.8961C48.0851 37.8431 47.9756 37.7995 47.8656 37.8836C48.0051 37.9725 48.1421 38.0525 48.2719 38.1425C48.4679 38.2765 48.5369 38.4694 48.5304 38.7019C48.5099 39.3485 47.7472 39.9208 47.0923 39.7764C46.876 39.7291 46.6835 39.6434 46.5651 39.4391C46.5496 39.4121 46.505 39.3836 46.4751 39.3855C46.3041 39.395 46.1297 39.394 45.9648 39.431C45.6624 39.4996 45.3635 39.5719 45.052 39.513C44.9086 39.4854 44.7671 39.446 44.6186 39.4121C44.5027 39.816 44.3118 40.1748 44.0565 40.5003C43.464 41.2529 42.6858 41.7297 41.7876 42.0242C40.6232 42.4064 39.4259 42.4486 38.2285 42.2766C36.4967 42.0291 35.2684 41.089 34.6067 39.458C34.4427 39.0547 34.3584 38.6193 34.2347 38.1979C34.0369 37.5201 33.7709 36.8684 33.4196 36.2527C32.8532 35.2639 32.11 34.4502 31.0918 33.9135C29.9481 33.3106 28.7327 33.1903 27.4736 33.4141C27.2346 33.4566 27.0001 33.5181 26.7353 33.5776C27.1956 33.6052 27.619 33.6144 28.0384 33.657C29.206 33.7744 30.3006 34.1253 31.2957 34.7552C32.4785 35.5054 33.3637 36.4889 33.7335 37.8846C33.9328 38.6312 34.2081 39.3555 34.555 40.0459C34.7855 40.5097 35.0405 40.9542 35.3959 41.3354C35.9878 41.9686 36.7303 42.3264 37.5491 42.5569C37.8011 42.6275 38.0509 42.7055 38.2994 42.7855C38.4223 42.8255 38.4994 42.9124 38.5476 43.0369C38.6848 43.3927 38.7242 43.756 38.6503 44.1303C38.5358 44.7194 38.2474 45.2191 37.8606 45.6659C37.5277 46.0509 37.1108 46.3326 36.6939 46.6142C36.4903 46.7498 36.295 46.8975 36.1091 47.0565C35.9491 47.1924 35.8518 47.3794 35.8617 47.5928C35.8792 47.9742 35.9017 48.0347 36.2815 47.908C36.341 47.8883 36.4001 47.8646 36.4584 47.839C36.7689 47.7056 37.0773 47.5697 37.3897 47.4393C37.9879 47.1891 38.6093 47.0965 39.2476 47.2499C39.9543 47.4188 40.4532 47.8341 40.6776 48.544C40.7235 48.6894 40.7347 48.8438 40.6571 48.9743C40.6191 49.0389 40.5225 49.1023 40.4512 49.1043C40.3866 49.1063 40.3108 49.0328 40.2578 48.9752C40.2256 48.9394 40.2268 48.8724 40.2117 48.8194C40.1388 48.5455 40.0194 48.3036 39.7504 48.1706C39.699 48.145 39.6415 48.1385 39.5865 48.1221C39.9449 48.4939 40.1382 48.9147 40.1127 49.4221C40.0932 49.8074 39.7908 50.0584 39.4031 50.0364C39.29 50.0299 39.2106 49.9769 39.1982 49.8669C39.183 49.7336 39.1885 49.5986 39.1862 49.4642C39.1822 49.3043 39.194 49.1411 39.1716 48.9843C39.1361 48.7268 38.9771 48.5595 38.7303 48.4799C38.6109 48.4419 38.4958 48.4624 38.3849 48.5189C38.5407 48.5509 38.6897 48.5977 38.7687 48.7439C38.8436 48.8838 38.9212 49.0296 38.9592 49.1823C39.04 49.5111 39.0012 49.8285 38.6987 50.0305C38.5634 50.1211 38.3788 50.1585 38.2119 50.1814C37.8531 50.2314 37.5097 50.13 37.1628 50.05C36.9549 50.0015 36.7394 49.9694 36.5274 49.969C36.327 49.9684 36.1247 50.011 35.9263 50.0464C34.7176 50.2643 33.503 50.1719 32.2724 50.1573C30.9413 50.141 29.6102 50.1489 28.2794 50.1479C25.8966 50.1479 23.5135 50.1469 21.1288 50.1469C20.1445 50.1469 19.1605 50.1568 18.1762 50.1505C16.8188 50.142 15.4767 49.9889 14.1641 49.6445C9.16439 48.3371 5.4224 45.6304 2.95631 41.0935C1.86936 39.0922 1.24855 36.9514 1.03006 34.7036C1.00405 34.4437 2.49765 37.2242 2.48367 36.951Z" fill="#0D0D0D"/>
<path d="M41.5748 25.1652C41.155 24.2715 41.1499 23.893 41.6138 23.0472C41.9636 22.4085 42.8939 22.9769 42.7678 22.2637C42.715 21.6439 42.0656 20.9632 41.9452 20.8152C41.7973 20.6399 41.7147 20.4673 41.4962 20.5118C41.2968 20.5528 41.1075 20.6491 40.9459 20.7687C40.3777 21.1909 39.8513 21.6618 39.424 22.2322C38.6528 23.2612 38.9708 23.8856 39.8732 24.7063C40.2558 25.0517 41.6198 25.2606 41.5748 25.1652Z" fill="#E65270"/>
<path opacity="0.2" d="M40.7383 21.7691C40.9607 21.5261 41.3077 21.2913 41.6684 21.0503C41.8603 20.9235 41.2885 22.4833 41.1227 22.8998C40.5769 24.2637 41.2915 25.1089 41.0951 25.0045C40.6616 24.7746 40.0434 23.9714 40.001 23.4751C39.9535 22.9382 40.3704 22.172 40.7383 21.7691Z" fill="#2B2B2B"/>
<path d="M41.4009 25.0811C40.9812 24.1874 40.9767 23.8095 41.4409 22.9631C41.7898 22.325 41.9518 21.6817 41.8262 20.9673C41.8139 20.887 41.7954 20.8077 41.7709 20.7301C41.6968 20.5156 41.5654 20.4106 41.3469 20.4557C41.1471 20.4967 40.9322 20.564 40.7722 20.683C40.2038 21.1055 39.677 21.5763 39.2502 22.1465C38.6584 22.9358 38.7228 23.4746 39.1718 24.073C39.3003 24.2438 39.3791 24.2388 39.5446 24.27C39.7585 24.3104 39.8021 24.0125 39.7341 23.8919C39.5777 23.6151 39.4746 23.3367 39.4551 23.1176C39.4071 22.5797 39.7081 21.9962 40.0757 21.5937C40.4168 21.2209 41.1065 20.6421 41.5764 20.5016C41.6903 20.937 41.448 21.8059 41.2951 22.2275C41.1079 22.7429 40.5417 23.6831 40.6843 24.2958C40.6843 24.2958 40.8833 24.8626 41.0951 25.0066C41.3059 25.1501 41.4009 25.0811 41.4009 25.0811Z" fill="#0D0D0D"/>
<path opacity="0.2" d="M15.9192 35.3986C15.8617 35.4016 15.8083 35.3956 15.7648 35.3721C15.8193 35.3685 15.8708 35.379 15.9192 35.3986Z" fill="#8B4FBA"/>
<path opacity="0.2" d="M41.7582 42.8919C42.2485 42.1472 42.7998 41.8952 43.4226 41.3088C44.015 40.7527 44.4697 40.0814 45.059 39.5351C45.5214 39.6316 46.0402 39.5536 46.5146 39.5774C46.8535 40.4142 48.499 39.618 48.6493 39.0782L48.8678 39.4056C49.3422 40.3397 47.6407 40.4022 46.672 40.3052C45.9927 40.2378 43.0583 41.009 43.1548 44.7933C42.8248 45.3006 42.0462 44.8051 42.045 45.4665C42.0446 46.1433 42.0557 47.3368 42.64 47.7677C42.4729 48.358 41.8913 47.7338 41.7312 47.4974C41.3718 46.968 40.8595 46.0308 40.7431 45.4035C40.5461 44.3319 41.2219 43.7062 41.7582 42.8919Z" fill="#430A1D"/>
</g>
<defs>
<linearGradient id="paint0_linear_13400_1125" x1="7.90446" y1="-9.35274" x2="-5.89794" y2="55.0538" gradientUnits="userSpaceOnUse">
<stop offset="0.3836" stop-color="#FAA100"/>
<stop offset="0.6584" stop-color="#BF73F2"/>
<stop offset="0.6649" stop-color="#C370E6"/>
<stop offset="0.6852" stop-color="#CC68C7"/>
<stop offset="0.7081" stop-color="#D461AB"/>
<stop offset="0.7341" stop-color="#DB5B95"/>
<stop offset="0.7643" stop-color="#E05784"/>
<stop offset="0.8017" stop-color="#E35479"/>
<stop offset="0.8543" stop-color="#E55272"/>
<stop offset="1" stop-color="#E65270"/>
</linearGradient>
<linearGradient id="paint1_linear_13400_1125" x1="22.5902" y1="-10.2404" x2="7.44493" y2="60.435" gradientUnits="userSpaceOnUse">
<stop offset="0.3836" stop-color="#FAA100"/>
<stop offset="0.6584" stop-color="#BF73F2"/>
<stop offset="0.6649" stop-color="#C370E6"/>
<stop offset="0.6852" stop-color="#CC68C7"/>
<stop offset="0.7081" stop-color="#D461AB"/>
<stop offset="0.7341" stop-color="#DB5B95"/>
<stop offset="0.7643" stop-color="#E05784"/>
<stop offset="0.8017" stop-color="#E35479"/>
<stop offset="0.8543" stop-color="#E55272"/>
<stop offset="1" stop-color="#E65270"/>
</linearGradient>
<linearGradient id="paint2_linear_13400_1125" x1="25.2473" y1="-1.60623" x2="24.5318" y2="31.6774" gradientUnits="userSpaceOnUse">
<stop stop-color="#FAA7B5"/>
<stop offset="0.3836" stop-color="#FAA100"/>
<stop offset="0.7317" stop-color="#BF73F2"/>
</linearGradient>
<linearGradient id="paint3_linear_13400_1125" x1="19.63" y1="-1.44122" x2="28.2181" y2="13.3542" gradientUnits="userSpaceOnUse">
<stop stop-color="#F6E8A0"/>
<stop offset="1" stop-color="#E65271"/>
</linearGradient>
<linearGradient id="paint4_linear_13400_1125" x1="20.1999" y1="9.04627" x2="27.5807" y2="21.7585" gradientUnits="userSpaceOnUse">
<stop stop-color="#F6E8A0"/>
<stop offset="1" stop-color="#E65271"/>
</linearGradient>
<linearGradient id="paint5_linear_13400_1125" x1="34.9327" y1="-2.07389" x2="33.9281" y2="15.4567" gradientUnits="userSpaceOnUse">
<stop stop-color="#F6E8A0"/>
<stop offset="1" stop-color="#E65271"/>
</linearGradient>
<linearGradient id="paint6_linear_13400_1125" x1="33.3109" y1="15.4843" x2="27.6326" y2="-9.67554" gradientUnits="userSpaceOnUse">
<stop stop-color="#E65271"/>
<stop offset="0.3836" stop-color="#FAA100"/>
</linearGradient>
<linearGradient id="paint7_linear_13400_1125" x1="14.2592" y1="5.37664" x2="33.643" y2="21.8877" gradientUnits="userSpaceOnUse">
<stop stop-color="#F6E8A0"/>
<stop offset="1" stop-color="#E65271"/>
</linearGradient>
<linearGradient id="paint8_linear_13400_1125" x1="21.3576" y1="15.4046" x2="12.6515" y2="17.7722" gradientUnits="userSpaceOnUse">
<stop stop-color="#FAA7B5"/>
<stop offset="0.3836" stop-color="#FAA100"/>
<stop offset="0.7317" stop-color="#BF73F2"/>
</linearGradient>
<linearGradient id="paint9_linear_13400_1125" x1="89.267" y1="14.1275" x2="4.79624" y2="59.4185" gradientUnits="userSpaceOnUse">
<stop stop-color="#FAA7B5"/>
<stop offset="0.3836" stop-color="#FAA100"/>
<stop offset="0.7317" stop-color="#BF73F2"/>
</linearGradient>
<radialGradient id="paint10_radial_13400_1125" cx="0" cy="0" r="1" gradientTransform="matrix(-3.4042 -3.82555 -0.277933 3.40413 -10.4395 54.2338)" gradientUnits="userSpaceOnUse">
<stop offset="0.0091" stop-color="white"/>
<stop offset="1" stop-color="white" stop-opacity="0"/>
</radialGradient>
<radialGradient id="paint11_radial_13400_1125" cx="0" cy="0" r="1" gradientUnits="userSpaceOnUse" gradientTransform="translate(9.15822 28.7716) rotate(180) scale(5.56076 5.56097)">
<stop offset="0.0091" stop-color="white"/>
<stop offset="1" stop-color="white" stop-opacity="0"/>
</radialGradient>
<radialGradient id="paint12_radial_13400_1125" cx="0" cy="0" r="1" gradientUnits="userSpaceOnUse" gradientTransform="translate(8.71593 30.0848) rotate(180) scale(5.56125 5.56107)">
<stop offset="0.0091" stop-color="white"/>
<stop offset="1" stop-color="white" stop-opacity="0"/>
</radialGradient>
<linearGradient id="paint13_linear_13400_1125" x1="48.9255" y1="37.9813" x2="44.6461" y2="47.6253" gradientUnits="userSpaceOnUse">
<stop offset="0.0041" stop-color="#FAA7B5"/>
<stop offset="0.3836" stop-color="#FAA100"/>
</linearGradient>
<linearGradient id="paint14_linear_13400_1125" x1="10.4545" y1="0.484384" x2="5.9964" y2="34.3614" gradientUnits="userSpaceOnUse">
<stop stop-color="#FAA7B5"/>
<stop offset="0.3836" stop-color="#FAA100"/>
<stop offset="0.7317" stop-color="#BF73F2"/>
</linearGradient>
<linearGradient id="paint15_linear_13400_1125" x1="5.57136" y1="-0.0119915" x2="1.12034" y2="33.8141" gradientUnits="userSpaceOnUse">
<stop stop-color="#FAA7B5"/>
<stop offset="0.3836" stop-color="#FAA100"/>
<stop offset="0.7317" stop-color="#BF73F2"/>
</linearGradient>
<linearGradient id="paint16_linear_13400_1125" x1="3.14468" y1="14.6131" x2="5.15888" y2="38.3275" gradientUnits="userSpaceOnUse">
<stop stop-color="#FAA7B5"/>
<stop offset="0.3836" stop-color="#FAA100"/>
<stop offset="0.7317" stop-color="#BF73F2"/>
</linearGradient>
<linearGradient id="paint17_linear_13400_1125" x1="37.7067" y1="-5.4787" x2="36.8053" y2="36.4637" gradientUnits="userSpaceOnUse">
<stop stop-color="#FAA7B5"/>
<stop offset="0.3836" stop-color="#FAA100"/>
<stop offset="0.7317" stop-color="#BF73F2"/>
</linearGradient>
<linearGradient id="paint18_linear_13400_1125" x1="46.4649" y1="26.6209" x2="44.2325" y2="30.3057" gradientUnits="userSpaceOnUse">
<stop stop-color="#FAA7B5"/>
<stop offset="0.3836" stop-color="#FAA100"/>
<stop offset="0.7317" stop-color="#BF73F2"/>
</linearGradient>
<clipPath id="clip0_13400_1125">
<rect width="50.4369" height="51.028" fill="white"/>
</clipPath>
</defs>
</svg>
