<svg width="56" height="52" viewBox="0 0 56 52" fill="none" xmlns="http://www.w3.org/2000/svg">
<path d="M55.0624 10.8563C55.0624 10.8563 36.708 -2.64975 22.5094 0.467022L21.4704 0.81333C19.3926 1.50595 17.661 2.54487 16.6221 3.93011L15.9295 4.96903L10.7349 13.9731L19.7389 15.7046C23.5483 18.1288 28.3966 19.1677 32.8986 18.1288L48.8288 21.2455L55.0624 10.8563Z" fill="#76B3E1"/>
<path opacity="0.3" d="M55.0624 10.8563C55.0624 10.8563 36.708 -2.64975 22.5094 0.467022L21.4704 0.81333C19.3926 1.50595 17.661 2.54487 16.6221 3.93011L15.9295 4.96903L10.7349 13.9731L19.7389 15.7046C23.5483 18.1288 28.3966 19.1677 32.8986 18.1288L48.8288 21.2455L55.0624 10.8563Z" fill="url(#paint0_linear_13400_1085)"/>
<path d="M16.6227 10.8579L15.2374 11.2042C9.35019 12.9357 7.61865 18.4767 10.7354 23.325C14.1985 27.827 21.471 30.2512 27.3582 28.5196L48.8294 21.2471C48.8294 21.2471 30.475 7.74111 16.6227 10.8579Z" fill="#518AC8"/>
<path opacity="0.3" d="M16.6227 10.8579L15.2374 11.2042C9.35019 12.9357 7.61865 18.4767 10.7354 23.325C14.1985 27.827 21.471 30.2512 27.3582 28.5196L48.8294 21.2471C48.8294 21.2471 30.475 7.74111 16.6227 10.8579Z" fill="url(#paint1_linear_13400_1085)"/>
<path d="M45.0202 26.4404C43.0814 24.0182 40.4636 22.2299 37.5022 21.3044C34.5408 20.379 31.3705 20.3586 28.3974 21.2458L6.92629 28.172L0.00012207 40.2928L38.7867 46.8726L45.7128 34.4055C47.0981 31.9814 46.7518 29.2109 45.0202 26.4404Z" fill="url(#paint2_linear_13400_1085)"/>
<path d="M38.0941 38.5628C36.1552 36.1405 33.5374 34.3522 30.576 33.4267C27.6146 32.5013 24.4443 32.4809 21.4712 33.3681L0.00012207 40.2943C0.00012207 40.2943 18.3545 54.1466 32.5531 50.6836L33.592 50.3372C39.4793 48.6057 41.5571 43.0648 38.0941 38.5628Z" fill="url(#paint3_linear_13400_1085)"/>
<defs>
<linearGradient id="paint0_linear_13400_1085" x1="8.13755" y1="-0.225596" x2="51.253" y2="20.7261" gradientUnits="userSpaceOnUse">
<stop offset="0.1" stop-color="#76B3E1"/>
<stop offset="0.3" stop-color="#DCF2FD"/>
<stop offset="1" stop-color="#76B3E1"/>
</linearGradient>
<linearGradient id="paint1_linear_13400_1085" x1="31.791" y1="10.0268" x2="24.2415" y2="35.1687" gradientUnits="userSpaceOnUse">
<stop stop-color="#76B3E1"/>
<stop offset="0.5" stop-color="#4377BB"/>
<stop offset="1" stop-color="#1F3B77"/>
</linearGradient>
<linearGradient id="paint2_linear_13400_1085" x1="4.98696" y1="20.9688" x2="48.5872" y2="50.6128" gradientUnits="userSpaceOnUse">
<stop stop-color="#315AA9"/>
<stop offset="0.5" stop-color="#518AC8"/>
<stop offset="1" stop-color="#315AA9"/>
</linearGradient>
<linearGradient id="paint3_linear_13400_1085" x1="24.6573" y1="24.5373" x2="7.06482" y2="89.0545" gradientUnits="userSpaceOnUse">
<stop stop-color="#4377BB"/>
<stop offset="0.5" stop-color="#1A336B"/>
<stop offset="1" stop-color="#1A336B"/>
</linearGradient>
</defs>
</svg>
