<svg width="52" height="52" viewBox="0 0 52 52" fill="none" xmlns="http://www.w3.org/2000/svg">
<path d="M50.8866 24.9904L48.7356 23.6589C48.7175 23.4499 48.697 23.241 48.6744 23.0325L50.5229 21.3082C50.6153 21.2224 50.6842 21.1142 50.7229 20.9941C50.7616 20.874 50.7689 20.746 50.7441 20.6223C50.7198 20.4986 50.6642 20.3831 50.5825 20.2869C50.5009 20.1908 50.3959 20.1172 50.2777 20.0731L47.9146 19.1895C47.8553 18.9855 47.7936 18.7821 47.7295 18.5795L49.2036 16.5322C49.2774 16.4299 49.3238 16.3104 49.3385 16.185C49.3531 16.0597 49.3355 15.9327 49.2872 15.8161C49.2389 15.6995 49.1616 15.5971 49.0627 15.5188C48.9637 15.4405 48.8464 15.3888 48.7218 15.3686L46.23 14.9633C46.1332 14.7744 46.0323 14.5882 45.9306 14.4037L46.9776 12.1055C47.0303 11.9908 47.0527 11.8645 47.0426 11.7387C47.0325 11.6129 46.9903 11.4918 46.9199 11.387C46.8502 11.2818 46.7546 11.1964 46.6423 11.1388C46.53 11.0813 46.4048 11.0535 46.2787 11.0583L43.7497 11.1464C43.6191 10.9828 43.4859 10.8213 43.3502 10.6618L43.9314 8.19848C43.9605 8.07563 43.9576 7.94737 43.9231 7.82594C43.8885 7.70451 43.8235 7.59395 43.7341 7.50479C43.6449 7.41553 43.5344 7.35055 43.4131 7.31601C43.2917 7.28147 43.1636 7.27853 43.0408 7.30745L40.578 7.88806C40.4181 7.75251 40.2563 7.61934 40.0925 7.48858L40.1809 4.95977C40.1857 4.83371 40.158 4.70853 40.1005 4.59622C40.043 4.48391 39.9577 4.38823 39.8527 4.31832C39.7479 4.24812 39.6268 4.20593 39.501 4.19577C39.3752 4.18561 39.2489 4.20781 39.1342 4.26028L36.8366 5.30782C36.6512 5.20553 36.4647 5.10546 36.277 5.00761L35.8707 2.51543C35.8503 2.39099 35.7985 2.2738 35.7202 2.17497C35.6419 2.07614 35.5397 1.99894 35.4232 1.95069C35.3067 1.90244 35.1798 1.88474 35.0545 1.89927C34.9293 1.91379 34.8098 1.96006 34.7074 2.03369L32.6588 3.50774C32.4572 3.44369 32.2545 3.38185 32.0499 3.32321L31.1663 0.959724C31.1224 0.84132 31.0488 0.736167 30.9526 0.654313C30.8564 0.572459 30.7408 0.51664 30.6169 0.492191C30.4933 0.467864 30.3655 0.47542 30.2456 0.514148C30.1257 0.552876 30.0177 0.621499 29.9316 0.713549L28.2074 2.56347C27.9989 2.5401 27.7901 2.51968 27.581 2.50222L26.2494 0.35069C26.1831 0.243479 26.0904 0.154997 25.9803 0.0936333C25.8701 0.0322701 25.7461 6.10352e-05 25.6201 6.10352e-05C25.494 6.10352e-05 25.37 0.0322701 25.2599 0.0936333C25.1497 0.154997 25.0571 0.243479 24.9907 0.35069L23.6592 2.50222C23.4499 2.51966 23.2408 2.54007 23.0321 2.56347L21.3075 0.713549C21.2215 0.621158 21.1134 0.552298 20.9933 0.513522C20.8732 0.474746 20.7452 0.467343 20.6214 0.492017C20.4977 0.516692 20.3823 0.572624 20.2863 0.65449C20.1902 0.736356 20.1168 0.841433 20.0728 0.959724L19.1894 3.32321C18.9846 3.38185 18.7821 3.44409 18.58 3.50774L16.5317 2.03369C16.4294 1.95972 16.3098 1.91325 16.1844 1.8987C16.059 1.88416 15.9319 1.90204 15.8154 1.95063C15.699 1.99899 15.5968 2.07623 15.5185 2.17505C15.4402 2.27388 15.3885 2.39103 15.3681 2.51543L14.9618 5.00761C14.7736 5.10508 14.5877 5.20535 14.4022 5.30782L12.1043 4.26008C11.9896 4.20758 11.8634 4.18538 11.7377 4.19557C11.612 4.20577 11.491 4.24803 11.3862 4.31832C11.2811 4.38818 11.1957 4.48384 11.1382 4.59615C11.0807 4.70847 11.0529 4.83367 11.0576 4.95977L11.1457 7.48858C10.982 7.61958 10.8202 7.75275 10.6601 7.88806L8.19736 7.30765C8.07451 7.27886 7.94635 7.28185 7.82497 7.31635C7.7036 7.35084 7.59302 7.41569 7.50367 7.50479C7.41428 7.59395 7.34922 7.70451 7.31467 7.82594C7.28013 7.94737 7.27725 8.07563 7.30632 8.19848L7.88654 10.6618C7.75184 10.8214 7.61875 10.9829 7.48805 11.1464L4.95905 11.0583C4.83311 11.0543 4.70822 11.0824 4.59607 11.1398C4.48391 11.1973 4.38817 11.2822 4.3178 11.3868C4.24762 11.4916 4.20542 11.6127 4.19523 11.7384C4.18504 11.8642 4.20718 11.9905 4.25956 12.1053L5.3071 14.4037C5.20523 14.5882 5.10456 14.7744 5.00689 14.9633L2.51531 15.3686C2.3908 15.3889 2.27354 15.4407 2.17466 15.519C2.07577 15.5973 1.99854 15.6996 1.95028 15.8162C1.90202 15.9328 1.88435 16.0597 1.89892 16.185C1.9135 16.3103 1.95985 16.4298 2.03357 16.5322L3.50762 18.5797C3.44357 18.7818 3.38133 18.9848 3.32249 19.1895L0.959205 20.0731C0.841182 20.1175 0.736425 20.1912 0.654847 20.2873C0.57327 20.3835 0.517572 20.4988 0.493023 20.6225C0.468475 20.7461 0.475889 20.874 0.514563 20.994C0.553237 21.114 0.621892 21.2222 0.714031 21.3082L2.56275 23.0323C2.53973 23.2404 2.51932 23.45 2.5017 23.6589L0.350372 24.9904C0.243178 25.0568 0.15473 25.1495 0.0934286 25.2596C0.0321273 25.3698 8.29411e-06 25.4938 0.000122373 25.6199C0.000122373 25.8769 0.132817 26.1149 0.350572 26.2489L2.5017 27.5805C2.51932 27.79 2.53973 27.9992 2.56275 28.2071L0.713831 29.9318C0.621528 30.0177 0.552727 30.1258 0.513961 30.2459C0.475195 30.3659 0.467751 30.4938 0.492336 30.6175C0.51692 30.7412 0.572717 30.8566 0.654428 30.9527C0.736139 31.0487 0.841052 31.1223 0.959205 31.1665L3.32249 32.0501C3.38133 32.2546 3.44357 32.4578 3.50762 32.6599L2.03357 34.7076C1.95971 34.8099 1.91326 34.9295 1.89865 35.0548C1.88404 35.1802 1.90175 35.3072 1.95009 35.4238C1.99844 35.5404 2.07581 35.6427 2.17485 35.7209C2.27389 35.7992 2.3913 35.8508 2.51591 35.8708L5.00709 36.2761C5.10456 36.465 5.20443 36.6512 5.3073 36.8365L4.25956 39.1341C4.20709 39.2489 4.18489 39.3752 4.19509 39.501C4.20528 39.6268 4.24753 39.7478 4.3178 39.8526C4.38766 39.9577 4.48331 40.043 4.59558 40.1005C4.70785 40.158 4.833 40.1858 4.95905 40.1811L7.48685 40.0926C7.61875 40.2569 7.75144 40.418 7.88654 40.5782L7.30632 43.0419C7.27727 43.1646 7.28016 43.2926 7.31471 43.4138C7.34926 43.535 7.41432 43.6453 7.50367 43.7342C7.59276 43.8237 7.70335 43.8887 7.82481 43.9232C7.94628 43.9576 8.07456 43.9603 8.19736 43.9309L10.6601 43.3509C10.8202 43.487 10.9823 43.6191 11.1459 43.7492L11.0578 46.2788C11.0533 46.4049 11.081 46.53 11.1385 46.6423C11.1959 46.7545 11.2812 46.8503 11.386 46.9203C11.4909 46.9903 11.612 47.0324 11.7377 47.0424C11.8635 47.0525 11.9897 47.0302 12.1043 46.9777L14.4022 45.9308C14.5872 46.0336 14.7737 46.1336 14.9618 46.2308L15.3681 48.7216C15.3881 48.8462 15.4398 48.9635 15.5181 49.0625C15.5964 49.1615 15.6987 49.2388 15.8154 49.287C15.932 49.3353 16.0589 49.353 16.1843 49.3385C16.3096 49.3241 16.4292 49.2779 16.5317 49.2043L18.579 47.7293C18.7811 47.7933 18.9842 47.8559 19.1888 47.9148L20.0724 50.2773C20.1164 50.3955 20.19 50.5005 20.2862 50.5822C20.3823 50.6639 20.4978 50.7195 20.6216 50.7438C20.7453 50.7688 20.8732 50.7615 20.9933 50.7227C21.1133 50.684 21.2214 50.615 21.3071 50.5224L23.0317 48.6735C23.2399 48.6975 23.4492 48.7176 23.6588 48.7362L24.9903 50.8873C25.0567 50.9944 25.1494 51.0827 25.2594 51.144C25.3695 51.2053 25.4934 51.2375 25.6194 51.2376C25.7454 51.2375 25.8694 51.2053 25.9795 51.144C26.0896 51.0828 26.1823 50.9944 26.2488 50.8873L27.5804 48.7362C27.7899 48.7176 27.9991 48.6975 28.207 48.6735L29.9312 50.5224C30.017 50.6149 30.125 50.6838 30.245 50.7226C30.365 50.7614 30.4929 50.7687 30.6165 50.7438C30.7403 50.7194 30.8557 50.6637 30.9519 50.5821C31.048 50.5004 31.1216 50.3955 31.1657 50.2773L32.0493 47.9148C32.2539 47.8559 32.4572 47.7933 32.6594 47.7293L34.707 49.2043C34.8095 49.2779 34.929 49.3242 35.0543 49.3387C35.1797 49.3531 35.3066 49.3354 35.4231 49.287C35.5397 49.2386 35.6419 49.1613 35.7201 49.0624C35.7984 48.9634 35.8501 48.8461 35.8703 48.7216L36.2766 46.2308C36.4645 46.1333 36.6504 46.032 36.836 45.9306L39.1338 46.9777C39.2485 47.0304 39.3747 47.0528 39.5005 47.0428C39.6263 47.0328 39.7475 46.9908 39.8524 46.9207C39.9574 46.8507 40.0426 46.7549 40.1001 46.6425C40.1575 46.5301 40.1852 46.4049 40.1805 46.2788L40.0925 43.7494C40.2562 43.6192 40.4179 43.4863 40.5774 43.3509L43.0404 43.9309C43.2905 43.9898 43.5527 43.9169 43.7335 43.7342C43.8228 43.6453 43.8879 43.535 43.9224 43.4138C43.957 43.2926 43.9599 43.1646 43.9308 43.0419L43.3508 40.5782C43.4859 40.418 43.619 40.2569 43.7491 40.0926L46.2781 40.1811C46.4041 40.1858 46.5293 40.1582 46.6416 40.1007C46.7538 40.0432 46.8495 39.9579 46.9193 39.8528C46.9897 39.748 47.032 39.6268 47.0421 39.5009C47.0523 39.3751 47.0299 39.2487 46.9772 39.1339L45.93 36.8367C46.0323 36.6512 46.1328 36.465 46.2296 36.2763L48.7214 35.8708C48.846 35.8508 48.9634 35.7991 49.0622 35.7208C49.1611 35.6424 49.2383 35.54 49.2862 35.4233C49.3345 35.3068 49.3523 35.1799 49.3377 35.0546C49.3232 34.9294 49.2769 34.8099 49.2032 34.7076L47.7291 32.6601C47.7928 32.4578 47.855 32.2546 47.9142 32.0501L50.2771 31.1665C50.3954 31.1225 50.5004 31.0488 50.5821 30.9526C50.6638 30.8565 50.7194 30.7409 50.7437 30.6171C50.7686 30.4934 50.7613 30.3655 50.7225 30.2455C50.6838 30.1255 50.6148 30.0175 50.5223 29.9318L48.674 28.2071C48.6964 27.999 48.717 27.7896 48.735 27.5807L50.8862 26.2489C50.9934 26.1827 51.0819 26.0901 51.1432 25.98C51.2046 25.8699 51.2367 25.7459 51.2366 25.6199C51.2366 25.3635 51.1045 25.1251 50.8866 24.9904V24.9904ZM36.4899 42.8344C35.6685 42.6572 35.1461 41.8477 35.3225 41.0237C35.4982 40.2007 36.3072 39.6769 37.1284 39.854C37.9497 40.03 38.4729 40.8409 38.2968 41.6633C38.1207 42.4859 37.3109 43.0103 36.4899 42.8344ZM35.759 37.891C35.5808 37.8528 35.3967 37.8501 35.2174 37.8831C35.0382 37.916 34.8671 37.984 34.7142 38.0831C34.5612 38.1822 34.4292 38.3106 34.3259 38.4607C34.2225 38.6109 34.1498 38.7799 34.1118 38.9582L33.3481 42.5221C30.9914 43.5917 28.3745 44.1859 25.6184 44.1859C22.7992 44.1859 20.1253 43.5623 17.7267 42.4471L16.9634 38.8834C16.8029 38.1334 16.0656 37.6557 15.3166 37.8166L12.1704 38.4923C11.5857 37.8904 11.0422 37.2499 10.5436 36.5749H25.8525C26.0257 36.5749 26.1411 36.5435 26.1411 36.3858V30.9705C26.1411 30.813 26.0257 30.7816 25.8523 30.7816H21.3753V27.3491H26.2178C26.6597 27.3491 28.5813 27.4752 29.1955 29.9314C29.388 30.6867 29.8104 33.1437 30.0994 33.9302C30.3872 34.8125 31.559 36.5747 32.8079 36.5747H40.4363C40.523 36.5747 40.6154 36.5649 40.7129 36.5473C40.1836 37.2661 39.6038 37.9463 38.9779 38.5827L35.7592 37.891H35.759ZM14.5859 42.7599C13.7643 42.9372 12.9555 42.4135 12.7788 41.5905C12.6031 40.7661 13.1255 39.9569 13.9469 39.7798C14.7684 39.6041 15.5776 40.1278 15.7537 40.9506C15.9295 41.7732 15.4067 42.5838 14.5857 42.7599H14.5859ZM8.77837 19.2111C9.11922 19.9801 8.77237 20.8813 8.00442 21.2216C7.23647 21.5628 6.33764 21.2156 5.99699 20.446C5.65615 19.6765 6.0028 18.7768 6.77094 18.4356C6.95364 18.3545 7.15053 18.3103 7.35033 18.3054C7.55014 18.3006 7.74895 18.3351 7.93539 18.4071C8.12183 18.4791 8.29224 18.5872 8.43689 18.7251C8.58154 18.863 8.69758 19.0281 8.77837 19.2109V19.2111ZM6.9935 23.4421L10.271 21.9857C10.6075 21.836 10.8708 21.5589 11.003 21.2152C11.1353 20.8715 11.1257 20.4894 10.9763 20.1528L10.3015 18.6265H12.9561V30.5926H7.60013C7.12536 28.9213 6.88516 27.1921 6.88643 25.4546C6.88643 24.7745 6.92305 24.1024 6.9935 23.4419V23.4421ZM21.3761 22.2799V18.7528H27.6978C28.0245 18.7528 30.0035 19.1303 30.0035 20.6101C30.0035 21.8388 28.4856 22.2793 27.2373 22.2793H21.3761V22.2799ZM44.3509 25.4546C44.3509 25.9225 44.3337 26.3856 44.2995 26.8452H42.3775C42.1852 26.8452 42.1077 26.9717 42.1077 27.16V28.0426C42.1077 30.1201 40.9363 30.572 39.9097 30.6871C38.9322 30.7972 37.8483 30.2778 37.7148 29.6796C37.138 26.4361 36.1771 25.7434 34.6596 24.5463C36.5429 23.3505 38.5023 21.5862 38.5023 19.2245C38.5023 16.6747 36.7543 15.0686 35.5626 14.281C33.8911 13.179 32.0401 12.9581 31.5408 12.9581H11.6642C14.3595 9.94993 18.0125 7.81901 22.1441 7.04366L24.487 9.50141C24.6127 9.63334 24.7631 9.73918 24.9298 9.81287C25.0964 9.88656 25.276 9.92665 25.4582 9.93085C25.6403 9.93505 25.8216 9.90328 25.9914 9.83735C26.1613 9.77142 26.3165 9.67264 26.4482 9.54664L29.0696 7.03926C34.5625 8.06199 39.2132 11.4812 41.8934 16.1724L40.0987 20.2259C39.7889 20.9274 40.1051 21.7477 40.8046 22.0586L44.2598 23.5933C44.3195 24.2067 44.3509 24.8263 44.3509 25.4546ZM24.488 4.95277C25.095 4.37136 26.0579 4.39437 26.6391 5.0022C27.2191 5.61184 27.1971 6.57573 26.5887 7.15674C25.9816 7.73836 25.0187 7.71574 24.4375 7.10671C24.159 6.81416 24.0079 6.4231 24.0174 6.01931C24.0268 5.61551 24.1961 5.23196 24.488 4.95277V4.95277ZM42.2972 19.285C42.378 19.1022 42.494 18.9371 42.6386 18.7992C42.7832 18.6613 42.9536 18.5533 43.14 18.4813C43.3265 18.4093 43.5252 18.3748 43.725 18.3797C43.9248 18.3847 44.1216 18.4289 44.3043 18.51C45.0724 18.8507 45.4191 19.7515 45.0782 20.5205C44.9975 20.7033 44.8815 20.8685 44.7369 21.0065C44.5923 21.1445 44.4218 21.2526 44.2354 21.3246C44.0489 21.3967 43.8501 21.4312 43.6502 21.4263C43.4504 21.4214 43.2535 21.3771 43.0708 21.296C42.3036 20.9552 41.957 20.0551 42.2972 19.285V19.285Z" fill="white"/>
</svg>
