<svg width="46" height="52" viewBox="0 0 46 52" fill="none" xmlns="http://www.w3.org/2000/svg">
<path d="M45.4678 15.0247C45.4674 14.1655 45.2836 13.4061 44.912 12.7545C44.5469 12.1136 44.0002 11.5765 43.2669 11.1519C37.2135 7.66149 31.1544 4.18179 25.103 0.687859C23.4716 -0.253986 21.8898 -0.219649 20.2705 0.735716C17.8611 2.15667 5.79802 9.06786 2.20339 11.1499C0.723018 12.0069 0.00266862 13.3184 0.0023128 15.0231C0 22.0425 0.0023128 29.0617 0 36.0812C0 36.9217 0.176307 37.6662 0.531589 38.3081C0.896834 38.9683 1.4512 39.5202 2.20143 39.9545C5.79624 42.0365 17.8609 48.9472 20.2698 50.3685C21.8898 51.3244 23.4716 51.3585 25.1035 50.4163C31.1551 46.9222 37.2146 43.4427 43.2688 39.9523C44.0191 39.5182 44.5734 38.966 44.9387 38.3063C45.2934 37.6644 45.4701 36.9199 45.4701 36.0793C45.4701 36.0793 45.4701 22.0443 45.4678 15.0247Z" fill="#A179DC"/>
<path d="M22.8048 25.4817L0.531738 38.306C0.896983 38.9662 1.45134 39.5181 2.20158 39.9524C5.79639 42.0344 17.861 48.9451 20.2699 50.3664C21.8899 51.3223 23.4717 51.3564 25.1037 50.4142C31.1552 46.9201 37.2148 43.4406 43.269 39.9502C44.0192 39.5161 44.5736 38.9639 44.9388 38.3042L22.8048 25.4817Z" fill="#280068"/>
<path d="M45.4675 15.0232C45.4671 14.1639 45.2834 13.4046 44.9117 12.7529L22.8043 25.4822L44.9384 38.3048C45.2931 37.6629 45.4694 36.9183 45.4698 36.0777C45.4698 36.0777 45.4698 22.0428 45.4675 15.0232Z" fill="#390091"/>
<path d="M35.9174 20.6873V23.0843H38.3145V20.6873H39.513V23.0843H41.9101V24.2829H39.513V26.6799H41.9101V27.8785H39.513V30.2756H38.3145V27.8785H35.9174V30.2756H34.7189V27.8785H32.3218V26.6799H34.7189V24.2829H32.3218V23.0843H34.7189V20.6873H35.9174ZM38.3145 24.2829H35.9174V26.6799H38.3145V24.2829Z" fill="white"/>
<path d="M22.8527 8.64844C29.105 8.64844 34.5638 12.044 37.4877 17.0912L37.4592 17.0427L30.1029 21.2784C28.6536 18.8244 25.9965 17.1683 22.9487 17.1342L22.8527 17.1337C18.2047 17.1337 14.4365 20.9016 14.4365 25.5496C14.4365 27.0696 14.8418 28.4944 15.5465 29.725C16.9972 32.2576 19.7243 33.9657 22.8527 33.9657C26.0003 33.9657 28.743 32.2359 30.1863 29.6762L30.1512 29.7376L37.4964 33.9929C34.6046 38.9973 29.2206 42.3825 23.0409 42.4499L22.8527 42.4509C16.5806 42.4509 11.1062 39.0344 8.18974 33.9605C6.76594 31.4835 5.95129 28.6119 5.95129 25.5496C5.95129 16.2155 13.5181 8.64844 22.8527 8.64844Z" fill="white"/>
</svg>
