<svg width="51" height="52" viewBox="0 0 51 52" fill="none" xmlns="http://www.w3.org/2000/svg">
<path d="M25.0375 0.000393712C22.9475 0.0102941 20.9526 0.188006 19.1962 0.498879C14.0233 1.41269 13.0847 3.32544 13.0847 6.85345V11.5121H25.3082V13.065H8.49687C4.94461 13.065 1.8339 15.2 0.860693 19.2631C-0.262013 23.9188 -0.311515 26.8245 0.860693 31.6861C1.72945 35.3052 3.80458 37.8833 7.35734 37.8833H11.5606V32.2985C11.5606 28.2636 15.0509 24.7049 19.1967 24.7049H31.4064C34.8052 24.7049 37.5179 21.906 37.5179 18.4934V6.85395C37.5179 3.54078 34.723 1.05231 31.4064 0.499374C29.3055 0.14989 27.127 -0.00901167 25.0375 0.000393712ZM18.427 3.7472C19.6893 3.7472 20.7209 4.79516 20.7209 6.08419C20.7209 7.36778 19.6898 8.40584 18.427 8.40584C17.1597 8.40584 16.1335 7.36778 16.1335 6.08419C16.1331 4.79516 17.1597 3.7472 18.427 3.7472Z" fill="url(#paint0_linear_13400_1060)"/>
<path d="M39.041 13.0654V18.4938C39.041 22.7015 35.4729 26.2434 31.4048 26.2434H19.1951C15.8508 26.2434 13.0836 29.1061 13.0836 32.4554V44.0958C13.0836 47.408 15.9636 49.3569 19.1951 50.3068C23.0642 51.4439 26.7749 51.6498 31.4048 50.3068C34.4819 49.4153 37.5163 47.6223 37.5163 44.0958V39.4366H25.3072V37.8833H43.6288C47.1811 37.8833 48.5058 35.4057 49.7413 31.6861C51.0175 27.8571 50.9626 24.1747 49.7413 19.2631C48.8632 15.7262 47.1865 13.0649 43.6288 13.0649L39.041 13.0654ZM32.1736 42.5424C33.4413 42.5424 34.4675 43.5805 34.4675 44.865C34.4675 46.1531 33.4408 47.201 32.1736 47.201C30.9113 47.201 29.8801 46.1531 29.8801 44.865C29.8801 43.5805 30.9113 42.5424 32.1736 42.5424Z" fill="url(#paint1_linear_13400_1060)"/>
<defs>
<linearGradient id="paint0_linear_13400_1060" x1="-1.22538" y1="1.45706" x2="26.9679" y2="25.5001" gradientUnits="userSpaceOnUse">
<stop stop-color="#5A9FD4"/>
<stop offset="1" stop-color="#306998"/>
</linearGradient>
<linearGradient id="paint1_linear_13400_1060" x1="37.5742" y1="40.4462" x2="27.4636" y2="26.2677" gradientUnits="userSpaceOnUse">
<stop stop-color="#FFD43B"/>
<stop offset="1" stop-color="#FFE873"/>
</linearGradient>
</defs>
</svg>
