<svg width="49" height="52" viewBox="0 0 49 52" fill="none" xmlns="http://www.w3.org/2000/svg">
<path d="M48.4438 8.54225L46.6946 35.9891L29.9699 0L48.4438 8.54225ZM36.8594 44.0322L24.2221 51.2375L11.5841 44.0322L12.2982 39.8331H36.1465L36.8594 44.0322ZM1.73087 35.9895L0 8.54265L18.4735 0L1.73087 35.9895Z" fill="url(#paint0_radial_13400_1233)"/>
<path fill-rule="evenodd" clip-rule="evenodd" d="M36.0866 22.2133L36.085 22.2257C35.3458 26.5355 32.4855 29.2601 27.5043 30.3996C28.7364 31.2627 30.1747 31.4964 31.8403 31.1054C28.7304 32.2582 25.9868 32.301 23.6022 31.2435C24.0218 32.7285 25.0053 33.7997 26.5684 34.4734C22.694 33.6412 20.1533 30.9585 18.952 26.4267C18.3384 27.2361 18.3848 28.5859 19.0881 30.4985C16.9906 27.9587 16.5991 25.2887 17.9233 22.4955C19.3104 19.4249 21.8312 18.1948 25.4856 18.8052C30.4465 24.2483 33.6448 25.8379 35.0658 23.5674C35.6879 21.6256 35.0486 19.2363 33.1444 16.409C31.7766 14.4776 30.1662 13.1226 28.3265 12.3664C27.9498 11.2977 27.2797 10.5487 26.339 10.1568C25.6842 9.8514 25.0781 9.79176 24.5477 10.0075C24.4616 10.0429 24.3758 10.0791 24.2903 10.116C23.4457 10.4775 22.0431 11.0783 20.4812 10.4851C19.3256 10.0461 18.5144 10.3275 18.0474 11.3293C17.5876 12.3562 17.2796 12.9139 17.1235 13.0025C16.8857 13.1874 16.3802 13.3808 15.6112 13.5789C14.8424 13.7775 14.36 14.0836 14.1641 14.4972C13.8031 15.3738 13.6723 16.0814 13.7719 16.62C13.5985 17.2876 13.3195 17.7388 12.9364 17.9625C12.8523 18.0112 12.7676 18.0589 12.6823 18.1054C12.2804 18.3272 12.079 18.4381 11.9785 18.9116L11.9705 18.9501C11.856 19.4829 11.8184 19.6594 12.3668 21.4367C12.009 24.073 12.4437 26.6125 13.671 29.0446C13.6694 29.0414 15.387 33.3314 20.1121 35.5674C25.1171 37.6369 29.5733 36.9033 33.4807 33.3666C31.1658 33.8334 29.4617 33.8654 28.3769 33.4699C32.5028 33.1689 35.2027 31.1574 36.4909 27.4375C34.7752 28.7624 33.447 29.5346 32.5144 29.7424C34.1115 28.7248 35.2043 27.5508 35.8008 26.2302C36.3964 24.9092 36.4919 23.5704 36.0874 22.2137L36.0866 22.2133ZM29.7896 16.7412C29.4125 17.228 28.9117 18.3604 29.9229 18.9977C30.934 19.635 30.4833 18.8376 30.1318 18.3588C29.7804 17.8805 29.7896 16.7412 29.7896 16.7412Z" fill="url(#paint1_radial_13400_1233)"/>
<defs>
<radialGradient id="paint0_radial_13400_1233" cx="0" cy="0" r="1" gradientUnits="userSpaceOnUse" gradientTransform="translate(24.2706 23.4239) rotate(90) scale(27.7864 26.2717)">
<stop stop-color="#AA1BB6"/>
<stop offset="1" stop-color="#452070"/>
</radialGradient>
<radialGradient id="paint1_radial_13400_1233" cx="0" cy="0" r="1" gradientUnits="userSpaceOnUse" gradientTransform="translate(24.1942 24.88) rotate(26.565) scale(19.2316 17.1619)">
<stop offset="0.271" stop-color="#B1219B"/>
<stop offset="1" stop-color="#5306A1"/>
</radialGradient>
</defs>
</svg>
