<svg width="52" height="52" viewBox="0 0 52 52" fill="none" xmlns="http://www.w3.org/2000/svg">
<g clip-path="url(#clip0_13400_1367)">
<path d="M10.6743 -0.000183105C4.79163 -0.000183105 0.00012207 4.79132 0.00012207 10.674C0.00012207 15.8258 3.67521 20.1414 8.53997 21.1337V36.2928C8.53997 41.0042 12.4148 44.8326 17.079 44.8326H17.1571C17.6783 48.4445 20.7997 51.2373 24.5517 51.2373C28.6659 51.2373 32.0236 47.8797 32.0236 43.7654C32.0236 39.6512 28.6659 36.2928 24.5517 36.2928C20.8001 36.2928 17.6787 39.0856 17.1571 42.6975H17.079C13.5817 42.6975 10.6743 39.8346 10.6743 36.2928V25.5301C11.365 26.2352 12.1896 26.7952 13.0998 27.177C14.0099 27.5589 14.9872 27.755 15.9742 27.7537H17.1571C17.6787 31.3656 20.7997 34.1584 24.5517 34.1584C28.3036 34.1584 31.4243 31.3656 31.9451 27.7537H36.3711C36.8927 31.3656 40.0138 34.1584 43.7657 34.1584C47.88 34.1584 51.2376 30.8 51.2376 26.6857C51.2376 22.5715 47.88 19.2139 43.7657 19.2139C40.0138 19.2139 36.8923 22.0067 36.3711 25.6186H31.9455C31.4247 22.0067 28.3036 19.2139 24.5517 19.2139C20.7997 19.2139 17.6783 22.0067 17.1571 25.6186H15.9742C13.3991 25.6186 11.2536 23.7816 10.7752 21.3466C16.6115 21.2922 21.3493 16.5231 21.3493 10.674C21.3493 4.79132 16.557 -0.000183105 10.6743 -0.000183105ZM10.6743 2.13498C11.7964 2.13266 12.9079 2.35194 13.945 2.78023C14.982 3.20853 15.9244 3.83741 16.7178 4.63078C17.5113 5.42416 18.1402 6.36641 18.5686 7.40347C18.997 8.44053 19.2164 9.55197 19.2142 10.674C19.2163 11.7961 18.9968 12.9075 18.5684 13.9446C18.14 14.9816 17.511 15.9239 16.7176 16.7173C15.9242 17.5107 14.9819 18.1397 13.9449 18.5681C12.9078 18.9965 11.7964 19.216 10.6743 19.2139C9.55228 19.2161 8.44083 18.9967 7.40378 18.5683C6.36672 18.1399 5.42446 17.511 4.63109 16.7175C3.83771 15.9241 3.20883 14.9817 2.78054 13.9446C2.35224 12.9075 2.13296 11.7961 2.13528 10.674C2.13307 9.55204 2.35243 8.44066 2.78077 7.40366C3.20911 6.36665 3.83801 5.42443 4.63137 4.63107C5.42474 3.8377 6.36696 3.20881 7.40396 2.78046C8.44097 2.35212 9.55235 2.13276 10.6743 2.13498ZM8.58681 5.15359C7.47359 5.15919 6.40481 6.05345 6.40481 7.27154V14.0937C6.40481 15.7121 8.28979 16.7609 9.66519 15.9083L15.1228 12.5238C16.4265 11.7152 16.4333 9.72093 15.1356 8.90313L9.6776 5.46462C9.3516 5.25792 8.97279 5.14991 8.58681 5.15359ZM8.53997 7.27154L13.998 10.7093L8.53997 14.0937V7.27154ZM24.5517 21.349C25.2531 21.3468 25.9481 21.4833 26.5966 21.7507C27.2451 22.0182 27.8343 22.4112 28.3303 22.9072C28.8263 23.4032 29.2193 23.9924 29.4867 24.6409C29.7541 25.2893 29.8906 25.9843 29.8884 26.6857C29.8906 27.3872 29.754 28.0822 29.4866 28.7307C29.2192 29.3792 28.8262 29.9684 28.3302 30.4645C27.8342 30.9605 27.245 31.3536 26.5966 31.6211C25.9481 31.8887 25.2532 32.0253 24.5517 32.0232C23.8502 32.0254 23.1551 31.8887 22.5066 31.6213C21.8581 31.3538 21.2688 30.9607 20.7728 30.4646C20.2767 29.9686 19.8837 29.3793 19.6162 28.7308C19.3487 28.0823 19.2121 27.3873 19.2142 26.6857C19.2121 25.9843 19.3488 25.2893 19.6163 24.6409C19.8838 23.9924 20.2769 23.4032 20.773 22.9072C21.269 22.4113 21.8582 22.0183 22.5067 21.7508C23.1552 21.4834 23.8502 21.3469 24.5517 21.349ZM43.7657 21.349C44.4672 21.3468 45.1622 21.4833 45.8106 21.7507C46.4591 22.0182 47.0483 22.4112 47.5443 22.9072C48.0403 23.4032 48.4333 23.9924 48.7007 24.6409C48.9681 25.2893 49.1047 25.9843 49.1025 26.6857C49.1046 27.3872 48.9681 28.0822 48.7006 28.7307C48.4332 29.3792 48.0402 29.9684 47.5442 30.4645C47.0483 30.9605 46.4591 31.3536 45.8106 31.6211C45.1622 31.8887 44.4672 32.0253 43.7657 32.0232C43.0642 32.0254 42.3692 31.8887 41.7207 31.6213C41.0721 31.3538 40.4829 30.9607 39.9868 30.4646C39.4908 29.9686 39.0977 29.3793 38.8302 28.7308C38.5627 28.0823 38.4261 27.3873 38.4282 26.6857C38.4262 25.9843 38.5628 25.2893 38.8304 24.6409C39.0979 23.9924 39.491 23.4032 39.987 22.9072C40.4831 22.4113 41.0723 22.0183 41.7208 21.7508C42.3693 21.4834 43.0643 21.3469 43.7657 21.349ZM26.7261 24.1315C26.4429 24.1314 26.1712 24.2437 25.9707 24.4437L23.4489 26.9631L22.6111 26.1289C22.4106 25.9291 22.1389 25.8171 21.8558 25.8176C21.5727 25.818 21.3014 25.9309 21.1016 26.1313C21.0026 26.2307 20.9242 26.3485 20.8708 26.4782C20.8174 26.6078 20.7901 26.7467 20.7904 26.887C20.7907 27.0272 20.8186 27.1659 20.8726 27.2954C20.9265 27.4248 21.0054 27.5423 21.1048 27.6412L22.6955 29.2264C22.8957 29.4259 23.1668 29.5378 23.4494 29.5377C23.7319 29.5377 24.003 29.4256 24.203 29.226L27.4794 25.954C27.5786 25.8549 27.6573 25.7373 27.7111 25.6078C27.7648 25.4783 27.7925 25.3394 27.7926 25.1992C27.7926 25.059 27.7651 24.9202 27.7115 24.7906C27.6579 24.661 27.5793 24.5433 27.4802 24.4441C27.2801 24.2444 27.0089 24.1317 26.7261 24.1315ZM45.9401 24.1315C45.6569 24.1314 45.3853 24.2437 45.1848 24.4437L42.6629 26.9631L41.8251 26.1289C41.6246 25.9291 41.3529 25.8171 41.0699 25.8176C40.7868 25.818 40.5155 25.9309 40.3156 26.1313C40.2167 26.2307 40.1383 26.3485 40.0849 26.4782C40.0315 26.6078 40.0042 26.7467 40.0045 26.887C40.0048 27.0272 40.0327 27.1659 40.0866 27.2954C40.1406 27.4248 40.2195 27.5423 40.3188 27.6412L41.9096 29.2264C42.1098 29.4259 42.3808 29.5378 42.6634 29.5377C42.946 29.5377 43.217 29.4256 43.4171 29.226L46.6935 25.954C46.7927 25.8549 46.8714 25.7373 46.9251 25.6078C46.9789 25.4783 47.0066 25.3394 47.0066 25.1992C47.0067 25.059 46.9792 24.9202 46.9256 24.7906C46.872 24.661 46.7934 24.5433 46.6943 24.4441C46.4941 24.2444 46.2229 24.1317 45.9401 24.1315ZM24.5517 38.4279C25.2532 38.4259 25.9481 38.5625 26.5966 38.83C27.245 39.0976 27.8342 39.4907 28.3302 39.9867C28.8262 40.4828 29.2192 41.072 29.4866 41.7205C29.754 42.369 29.8906 43.064 29.8884 43.7654C29.8906 44.4669 29.7541 45.1619 29.4867 45.8103C29.2193 46.4588 28.8263 47.048 28.3303 47.544C27.8343 48.04 27.2451 48.433 26.5966 48.7004C25.9481 48.9678 25.2531 49.1044 24.5517 49.1021C23.8502 49.1043 23.1552 48.9678 22.5067 48.7003C21.8582 48.4329 21.269 48.0399 20.773 47.5439C20.2769 47.048 19.8838 46.4588 19.6163 45.8103C19.3488 45.1619 19.2121 44.4669 19.2142 43.7654C19.2121 43.0639 19.3487 42.3689 19.6162 41.7204C19.8837 41.0718 20.2767 40.4826 20.7728 39.9865C21.2688 39.4905 21.8581 39.0974 22.5066 38.8299C23.1551 38.5624 23.8502 38.4258 24.5517 38.4279ZM22.4165 42.1643C21.5387 42.1643 20.8154 42.8876 20.8154 43.7654C20.8154 44.6441 21.5391 45.3666 22.4165 45.3666C23.294 45.3666 24.0177 44.6441 24.0177 43.7654C24.0177 42.8876 23.2944 42.1643 22.4165 42.1643ZM26.686 42.1643C25.8082 42.1643 25.0849 42.8876 25.0849 43.7654C25.0849 44.6441 25.8086 45.3666 26.686 45.3666C27.5635 45.3666 28.2872 44.6441 28.2872 43.7654C28.2872 42.8876 27.5639 42.1643 26.686 42.1643ZM22.4165 43.2315C22.7167 43.2315 22.9505 43.4656 22.9505 43.7654C22.9505 44.0669 22.7171 44.2986 22.4165 44.2986C22.1163 44.2986 21.8825 44.0665 21.8825 43.7654C21.8825 43.4652 22.1167 43.2315 22.4165 43.2315ZM26.686 43.2315C26.9863 43.2315 27.22 43.4656 27.22 43.7654C27.22 44.0669 26.9867 44.2986 26.686 44.2986C26.3858 44.2986 26.1529 44.0665 26.1529 43.7654C26.1529 43.4652 26.3862 43.2315 26.686 43.2315Z" fill="#2088FF"/>
<path d="M43.7645 36.2921C40.0086 36.2921 36.8843 39.0913 36.3683 42.7091C36.333 42.7061 36.2976 42.7046 36.2622 42.7047L35.1814 42.7408C34.8986 42.7501 34.631 42.8713 34.4375 43.0778C34.244 43.2843 34.1404 43.5591 34.1495 43.842C34.1588 44.1249 34.28 44.3925 34.4866 44.586C34.6932 44.7795 34.9682 44.8831 35.2511 44.8739L36.3319 44.8391L36.3707 44.8367C36.8939 48.4461 40.0142 51.2366 43.7645 51.2366C47.8787 51.2366 51.2364 47.8789 51.2364 43.7647C51.2364 39.6505 47.8787 36.2921 43.7645 36.2921ZM43.7645 38.4272C44.466 38.4252 45.1609 38.5618 45.8094 38.8293C46.4579 39.0968 47.047 39.4899 47.543 39.986C48.039 40.482 48.432 41.0713 48.6994 41.7198C48.9668 42.3683 49.1034 43.0632 49.1012 43.7647C49.1034 44.4662 48.9669 45.1611 48.6995 45.8096C48.4321 46.4581 48.0391 47.0473 47.5431 47.5433C47.0471 48.0393 46.4579 48.4323 45.8094 48.6997C45.1609 48.9671 44.466 49.1036 43.7645 49.1014C43.063 49.1036 42.3681 48.967 41.7196 48.6996C41.0711 48.4322 40.4818 48.0392 39.9858 47.5432C39.4897 47.0472 39.0966 46.4581 38.8291 45.8096C38.5616 45.1611 38.4249 44.4662 38.427 43.7647C38.4249 43.0632 38.5615 42.3682 38.829 41.7196C39.0965 41.0711 39.4896 40.4819 39.9856 39.9858C40.4817 39.4898 41.0709 39.0967 41.7194 38.8292C42.368 38.5617 43.063 38.4251 43.7645 38.4272Z" fill="#79B8FF"/>
</g>
<defs>
<clipPath id="clip0_13400_1367">
<rect width="51.2375" height="51.2375" fill="white"/>
</clipPath>
</defs>
</svg>
