<svg width="33" height="52" viewBox="0 0 33 52" fill="none" xmlns="http://www.w3.org/2000/svg">
<path fill-rule="evenodd" clip-rule="evenodd" d="M0.0472412 19.0674C0.494171 19.6834 4.26288 20.8454 9.88453 22.0558C15.5062 23.1332 21.3525 27.3875 25.8991 26.0757C28.9745 25.1867 32.3107 17.2652 32.3107 16.0886V15.9678C32.3107 15.1465 31.6947 14.4869 30.6487 13.9385C26.3605 11.7474 25.5488 10.9405 23.9592 11.3778C15.7067 13.6559 1.13678 12.4915 0.0472412 19.0674Z" fill="#380D09"/>
<path fill-rule="evenodd" clip-rule="evenodd" d="M0.0472412 35.1522C0.494171 35.7779 4.26288 36.9302 9.88453 38.143C16.1657 39.2881 21.6279 43.0206 26.1769 41.7063C29.2523 40.8173 32.3107 33.3524 32.3107 32.1735V32.0575C32.3107 31.2385 31.6947 30.5766 30.6487 30.0306C27.3776 28.2912 23.0557 26.3754 21.4685 26.8127C13.2015 29.086 2.15144 29.5861 0.0472412 35.1522Z" fill="#380D09"/>
<path fill-rule="evenodd" clip-rule="evenodd" d="M0.00186725 22.5242V22.6402C-0.000622415 22.6016 -0.000622415 22.5628 0.00186725 22.5242Z" fill="#555555"/>
<path fill-rule="evenodd" clip-rule="evenodd" d="M26.1659 3.10924C18.5657 5.30524 6.50827 6.54456 0.012085 6.54456V18.9499C0.0141508 18.9926 0.030292 19.0333 0.057986 19.0658C4.49105 19.0658 18.1768 17.6163 26.4341 15.3455C27.8742 14.9789 29.2862 14.5099 30.6594 13.9419C31.6692 13.4877 32.3215 13.0093 32.3215 12.5117V6.10352e-05C32.3118 1.17899 29.2413 2.22263 26.1659 3.10924Z" fill="#DE3423"/>
<path fill-rule="evenodd" clip-rule="evenodd" d="M26.1659 19.1976C21.6169 20.5094 15.4783 21.4854 9.88561 22.0556C6.1314 22.4397 2.62361 22.6402 0.012085 22.6402V35.0359C0.0141508 35.0785 0.030292 35.1193 0.057986 35.1518C4.49105 35.1518 18.1768 33.7023 26.4341 31.4338C27.8739 31.0662 29.2858 30.5972 30.6594 30.0302C31.6692 29.5736 32.3215 29.0977 32.3215 28.6001V16.0884C32.3118 17.265 29.2413 18.3086 26.1659 19.1976Z" fill="#DE3423"/>
<path fill-rule="evenodd" clip-rule="evenodd" d="M26.1657 35.2959C21.6167 36.6077 15.4781 37.5813 9.88539 38.1538C6.12634 38.5379 2.61372 38.7384 0.00219727 38.7384V51.2404C4.38936 51.2404 18.1451 49.803 26.4242 47.5224C29.4754 46.6817 32.3116 45.725 32.3116 44.6862V32.1746C32.3116 33.3632 29.2411 34.3972 26.1657 35.2959Z" fill="#DE3423"/>
</svg>
