<svg width="52" height="52" viewBox="0 0 52 52" fill="none" xmlns="http://www.w3.org/2000/svg">
<g clip-path="url(#clip0_13400_1119)">
<path d="M40.5454 5.19853C36.7816 1.85315 31.4892 6.10352e-05 25.6268 6.10352e-05C19.7665 6.10352e-05 14.472 1.85315 10.7103 5.19853C6.92936 8.56526 4.84998 13.3303 4.84998 18.5865C4.84998 23.6526 9.9353 47.5506 10.1424 48.5711C10.5032 50.1402 11.8823 51.2183 13.4323 51.2183C13.6223 51.2183 13.7909 51.1991 13.9809 51.1799C14.3033 51.1244 14.6043 51.0305 14.9075 50.8789C15.5501 51.1628 16.2695 51.276 16.9676 51.1436C17.4971 51.0475 17.9903 50.8212 18.4044 50.4818C18.889 50.8661 19.4699 51.1098 20.0836 51.1862C20.6974 51.2627 21.3203 51.1689 21.8843 50.9152C22.3753 50.6889 22.7916 50.3494 23.114 49.9523C23.4295 50.3478 23.829 50.6683 24.2835 50.8905C24.738 51.1128 25.2362 51.2313 25.7421 51.2376C26.3632 51.2304 26.9707 51.054 27.4991 50.7273C27.8278 50.5234 28.1219 50.2683 28.3701 49.9716C28.8996 50.6142 29.6745 51.0668 30.505 51.1799C31.3376 51.3123 32.2065 51.1052 32.8876 50.6334C32.9644 50.5949 33.0199 50.5373 33.0776 50.4818C33.4747 50.802 33.9465 51.0305 34.4375 51.1244C34.7976 51.1998 35.157 51.2183 35.5156 51.1799C35.838 51.1436 36.139 51.0668 36.4422 50.9344C36.7069 51.0475 36.9716 51.1244 37.2556 51.1799C38.1077 51.319 38.9807 51.1259 39.6948 50.6406C40.4089 50.1553 40.9097 49.4146 41.0941 48.5711C41.3012 47.5506 46.3865 23.6718 46.3865 18.5865C46.4057 13.3303 44.3263 8.58448 40.5454 5.19853ZM40.1483 48.364C39.8836 49.5553 38.75 50.3494 37.5395 50.2171C38.0263 49.7328 38.3559 49.1131 38.4853 48.4387L38.6347 47.5314L39.2218 43.9213C39.4097 42.7108 39.5997 41.5003 39.7513 40.2898C39.7601 40.2105 39.7401 40.1307 39.6951 40.0649C39.65 39.9991 39.5828 39.9516 39.5057 39.9311C39.4207 39.914 39.3324 39.9299 39.2587 39.9755C39.185 40.0211 39.1313 40.093 39.1086 40.1767C38.8439 41.3679 38.5984 42.5784 38.3529 43.7697L37.6526 47.3627L37.4819 48.2508C37.4263 48.4963 37.3303 48.7419 37.2171 48.9489C37.0959 49.1711 36.9361 49.3699 36.7453 49.536C36.5637 49.7105 36.3526 49.8514 36.1219 49.9523C35.891 50.0493 35.6496 50.1188 35.4025 50.1594C34.8223 50.2222 34.2389 50.0745 33.7586 49.7431C33.9849 49.4037 34.1728 49.0258 34.2688 48.6095C34.3051 48.5156 34.3051 48.4024 34.3243 48.3063C34.3243 48.2508 34.3436 48.1932 34.3436 48.1548L34.3628 48.0224L34.5336 46.4362L34.7406 44.3184C34.873 42.8987 35.0054 41.4811 35.0993 40.0635C35.1064 39.9809 35.0806 39.8988 35.0274 39.8352C34.9742 39.7716 34.8979 39.7317 34.8154 39.7241C34.7286 39.7156 34.6418 39.7397 34.5719 39.7918C34.502 39.844 34.4541 39.9203 34.4375 40.0059C34.2304 41.4064 34.0404 42.8239 33.8525 44.2223L33.4554 47.399C33.417 47.7406 33.3786 48.1377 33.3039 48.3832C33.1589 48.9592 32.8012 49.4588 32.3026 49.7816C31.812 50.1053 31.2178 50.2333 30.6374 50.1402C30.2733 50.0889 29.9265 49.9528 29.6246 49.7429C29.3228 49.5331 29.0744 49.2552 28.8996 48.9319C28.9551 48.7803 28.9935 48.6287 29.0298 48.4963C29.1067 48.1932 29.1067 47.873 29.1067 47.6253L29.1259 46.0562C29.1451 45.0165 29.1622 43.9576 29.1622 42.9179C29.1814 41.8719 29.1814 40.8256 29.1622 39.7796C29.1622 39.6109 29.0298 39.4593 28.8611 39.4593C28.8186 39.4549 28.7756 39.4593 28.7348 39.4723C28.6941 39.4854 28.6565 39.5067 28.6244 39.535C28.5923 39.5633 28.5664 39.5979 28.5484 39.6367C28.5303 39.6755 28.5205 39.7176 28.5196 39.7604C28.4641 40.8001 28.3872 41.859 28.3509 42.8987C28.2933 43.9405 28.2548 44.9973 28.1993 46.0391L28.1225 47.6082C28.1225 47.7406 28.1225 47.873 28.1054 47.9861C28.1054 48.0993 28.0862 48.1932 28.067 48.3063C28.0093 48.5156 27.9538 48.7226 27.8407 48.9127C27.638 49.2978 27.3331 49.6197 26.9595 49.843C26.5859 50.0663 26.1581 50.1825 25.7228 50.1786C25.5049 50.184 25.2876 50.1523 25.0802 50.0847C24.871 50.0271 24.6832 49.9331 24.4931 49.8392C24.1202 49.6146 23.8137 49.2948 23.605 48.9127C23.4992 48.7232 23.4229 48.5188 23.3787 48.3063C23.3211 48.0993 23.3211 47.89 23.3019 47.6082L23.2272 46.0391C23.1887 44.9973 23.1311 43.9405 23.0756 42.8987L22.9048 39.7604C22.898 39.6795 22.8615 39.604 22.8024 39.5485C22.7432 39.4929 22.6657 39.4612 22.5846 39.4593C22.5423 39.4591 22.5004 39.4671 22.4613 39.4831C22.4222 39.4991 22.3867 39.5226 22.3567 39.5524C22.3268 39.5821 22.303 39.6175 22.2868 39.6565C22.2705 39.6955 22.2622 39.7373 22.2622 39.7796V42.9179C22.2622 43.9576 22.2814 45.0165 22.3006 46.0562L22.3198 47.6253C22.3198 47.873 22.3369 48.1932 22.3945 48.4963C22.433 48.6479 22.4693 48.7995 22.5269 48.9489C22.2664 49.39 21.8766 49.7403 21.4104 49.9523C20.9211 50.1698 20.3726 50.2151 19.8543 50.081C19.336 49.9468 18.8784 49.6411 18.556 49.2137C18.3875 49.0066 18.2593 48.7698 18.1781 48.5156C18.1378 48.3855 18.1064 48.2528 18.0842 48.1185C18.065 48.0608 18.065 47.9669 18.0458 47.89L18.0073 47.6445L17.5163 43.8081C17.3455 42.5208 17.1769 41.2356 16.9676 39.9696C16.9484 39.7988 16.799 39.6856 16.6282 39.6856C16.4382 39.7049 16.3058 39.8564 16.325 40.0443C16.419 41.3295 16.5343 42.6168 16.6474 43.9021L17.0253 47.7577L17.0445 48.0053C17.0445 48.08 17.0637 48.1548 17.0808 48.2701C17.1 48.4579 17.1576 48.6479 17.2132 48.8166C17.3092 49.139 17.4779 49.4421 17.6679 49.726C17.3209 49.9682 16.9163 50.1147 16.4947 50.1511C16.0732 50.1874 15.6495 50.1123 15.2661 49.9331C14.9248 49.7693 14.6259 49.5287 14.393 49.2302C14.16 48.9317 13.9993 48.5834 13.9233 48.2124L13.7546 47.3243L13.0544 43.7505C12.8089 42.5592 12.5634 41.3679 12.2986 40.1767C12.2602 40.0059 12.1086 39.8927 11.94 39.9311C11.7692 39.9504 11.6368 40.1212 11.656 40.309C11.8247 41.5195 11.9955 42.7108 12.1855 43.9213L12.7704 47.5122L12.922 48.4195C12.9797 48.7803 13.112 49.1197 13.2636 49.4229C13.413 49.7068 13.603 49.9716 13.8486 50.1979C13.8101 50.1979 13.7909 50.2171 13.7546 50.2171C13.1526 50.3139 12.5364 50.1783 12.0306 49.8378C11.5248 49.4973 11.1673 48.9773 11.0305 48.3832C10.975 48.1377 5.75731 23.5778 5.75731 18.6035C5.75731 13.6122 7.72354 9.13101 11.2781 5.93721C14.8498 2.74127 19.9181 0.984248 25.5328 0.984248C31.1476 0.984248 36.2159 2.74127 39.7897 5.93721C43.3614 9.11393 45.3105 13.6122 45.3105 18.6035C45.4237 23.5778 40.2038 48.1377 40.1483 48.364ZM30.505 23.9173C30.0956 23.4681 29.5519 23.1633 28.9551 23.0484H28.8804C28.7507 23.0406 28.623 23.0834 28.5243 23.1678C28.4255 23.2523 28.3634 23.3717 28.3509 23.501C28.3431 23.6307 28.3859 23.7583 28.4704 23.8571C28.5548 23.9558 28.6742 24.018 28.8035 24.0304C29.0696 24.0459 29.3285 24.1234 29.5593 24.2567C27.1571 25.8798 24.4798 27.0524 21.658 27.7174C18.7224 28.414 15.6814 28.5488 12.6957 28.1145C12.5879 28.0969 12.4774 28.123 12.3888 28.1868C12.3001 28.2507 12.2404 28.3472 12.2228 28.455C12.2053 28.5629 12.2313 28.6733 12.2952 28.762C12.359 28.8507 12.4555 28.9103 12.5634 28.9279C13.016 29.0026 13.4899 29.0603 13.9425 29.0987C13.9425 29.1158 13.9425 29.135 13.9617 29.1542C14.3588 30.3455 15.3793 31.9338 16.7029 31.9338C16.8435 31.9318 16.9834 31.9125 17.1192 31.8762C17.6102 31.763 18.4236 31.2528 18.4236 29.2118C18.4236 29.1734 18.4044 29.1542 18.4044 29.1158C19.5623 29.0175 20.7121 28.8406 21.8459 28.5863C21.959 28.5692 22.0722 28.5308 22.1682 28.5116C22.433 29.5705 22.8301 30.8941 24.1537 30.8941C24.7002 30.8941 25.2873 30.591 25.7421 30.0807C26.1199 29.6452 26.7241 28.6632 26.5341 27.0172C27.8339 26.4334 29.0804 25.7377 30.2595 24.9378C30.3817 25.1273 30.4651 25.3392 30.505 25.5612C30.5434 25.732 30.695 25.8451 30.8658 25.8259C30.9097 25.8236 30.9526 25.8123 30.9919 25.7927C31.0312 25.7731 31.066 25.7456 31.0943 25.712C31.1225 25.6783 31.1435 25.6392 31.156 25.5971C31.1685 25.555 31.1722 25.5108 31.1668 25.4672C31.1273 24.8907 30.8941 24.3445 30.505 23.9173ZM17.4608 29.2311C17.4608 30.1747 17.2324 30.8557 16.8929 30.9326C16.1542 31.1204 15.3985 30.0231 15.0398 29.1926C15.8532 29.2311 16.6474 29.2311 17.4608 29.1926C17.4779 29.2118 17.4608 29.2311 17.4608 29.2311ZM25.0418 29.4574C24.7963 29.7413 24.4739 29.9292 24.2092 29.9292C23.7566 29.9292 23.4919 29.5321 23.1695 28.2853C24.0021 28.0398 24.8326 27.7558 25.6268 27.4335C25.6652 28.2469 25.4581 28.9663 25.0418 29.4574ZM18.8976 26.223C17.0099 26.2226 15.1648 25.6624 13.5954 24.6135C12.026 23.5645 10.803 22.0737 10.0808 20.3296C9.35859 18.5856 9.16975 16.6666 9.53812 14.8152C9.90648 12.9638 10.8155 11.2632 12.1503 9.92845C13.4851 8.59367 15.1857 7.68463 17.037 7.31626C18.8884 6.94789 20.8074 7.13673 22.5515 7.85892C24.2956 8.5811 25.7863 9.80419 26.8353 11.3736C27.8843 12.9429 28.4444 14.7881 28.4448 16.6757C28.4426 19.2071 27.436 21.6342 25.646 23.4242C23.8561 25.2141 21.429 26.2207 18.8976 26.223ZM18.8976 8.12974C16.6263 8.13087 14.4484 9.03364 12.8423 10.6397C11.2363 12.2457 10.3335 14.4237 10.3324 16.6949C10.3335 18.9662 11.2363 21.1442 12.8423 22.7502C14.4484 24.3562 16.6263 25.259 18.8976 25.2601C21.1687 25.259 23.3464 24.3562 24.9521 22.7501C26.5578 21.144 27.4601 18.966 27.4607 16.6949C27.4561 14.4251 26.5526 12.2494 24.9477 10.6442C23.3429 9.03892 21.1675 8.13482 18.8976 8.12974ZM20.7678 10.7578C19.1986 11.0802 18.8976 14.5024 19.8241 15.446C20.4475 16.0716 21.6943 16.2594 21.6943 16.6949C21.6943 17.1305 20.4475 17.3183 19.8241 17.9417C18.8784 18.8875 19.1986 22.3097 20.7678 22.6321C22.6208 23.01 25.4581 20.7598 25.4581 16.6949C25.4581 12.6301 22.6208 10.3799 20.7678 10.7578Z" fill="white"/>
</g>
<defs>
<clipPath id="clip0_13400_1119">
<rect width="51.2375" height="51.2375" fill="white"/>
</clipPath>
</defs>
</svg>
