<svg width="20" height="20" viewBox="0 0 20 20" fill="none" xmlns="http://www.w3.org/2000/svg">
<path d="M9.48619 2.98743C5.62202 2.98743 2.4895 6.11995 2.4895 9.98412C2.4895 13.2656 4.74843 16.0188 7.79599 16.7749V12.1221H6.35318V9.98412H7.79599V9.06305C7.79599 6.68168 8.87348 5.5777 11.2119 5.5777C11.6552 5.5777 12.4198 5.66466 12.7327 5.75162V7.6897C12.5677 7.67221 12.2809 7.66372 11.9245 7.66372C10.7771 7.66372 10.3338 8.09851 10.3338 9.22798V9.98412H12.6192L12.2264 12.1221H10.3338V16.9293C13.7982 16.511 16.4829 13.5609 16.4829 9.98412C16.4829 6.11995 13.3504 2.98743 9.48619 2.98743Z" fill="#9C9C9C"/>
</svg>
