<svg width="20" height="20" viewBox="0 0 20 20" fill="none" xmlns="http://www.w3.org/2000/svg">
<path fill-rule="evenodd" clip-rule="evenodd" d="M15.3794 16.9285H4.5366C3.68017 16.9285 2.98706 16.2354 2.98706 15.379V4.53618C2.98706 3.67975 3.68017 2.98663 4.5366 2.98663H15.3794C16.2359 2.98663 16.929 3.67975 16.929 4.53618V15.379C16.929 16.2354 16.2359 16.9285 15.3794 16.9285ZM12.9237 14.9926H14.993V10.7423C14.993 8.94381 13.9733 8.07344 12.5492 8.07344C11.1252 8.07344 10.5256 9.18381 10.5256 9.18381V8.27958H8.53196V14.9916H10.5256V11.4683C10.5256 10.5242 10.9598 9.96257 11.7914 9.96257C12.5562 9.96257 12.9237 10.5023 12.9237 11.4683V14.9926ZM4.92299 6.16141C4.92247 6.32357 4.95389 6.48425 5.01547 6.63427C5.07704 6.78429 5.16756 6.92071 5.28186 7.03575C5.39615 7.15078 5.53199 7.24218 5.68161 7.30472C5.83123 7.36726 5.9917 7.39972 6.15387 7.40024C6.83304 7.40024 7.38275 6.84555 7.38275 6.16141C7.38275 5.47726 6.83304 4.92257 6.15387 4.92257C5.82653 4.92388 5.51312 5.05511 5.2825 5.28741C5.05188 5.51971 4.92293 5.83407 4.92399 6.16141H4.92299ZM7.2025 14.9926H5.12316V8.27958H7.2025V14.9926Z" fill="#9C9C9C"/>
</svg>
