<svg width="37" height="32" viewBox="0 0 37 32" fill="none" xmlns="http://www.w3.org/2000/svg">
<path d="M26.509 0.0186198C26.282 0.111473 26.2407 0.431301 26.411 0.77692C26.4729 0.895566 26.6173 1.14317 26.736 1.32888C27.0506 1.81894 27.8347 3.17562 28.1855 3.83075C28.3506 4.14025 28.5569 4.51166 28.6498 4.65612C29.5215 6.01797 29.8104 6.54414 29.8104 6.78141C29.8104 6.98774 29.4132 7.8647 29.2636 7.9885C29.1553 8.08136 29.0521 8.00913 28.8974 7.72542C28.8252 7.59647 28.6498 7.28178 28.5002 7.02902C28.3506 6.77108 28.1288 6.37905 28.0049 6.15206C27.5613 5.32672 27.0661 4.52199 26.7927 4.19186C26.6276 3.99068 26.478 3.74306 26.4264 3.58314C26.282 3.1292 25.4566 1.48364 25.1317 0.993577C24.7706 0.457091 24.5849 0.26107 24.3476 0.194009C24.1515 0.137266 23.8472 0.235277 23.7956 0.369398C23.7543 0.482885 23.8627 0.787238 24.0845 1.17413C24.1876 1.35983 24.4456 1.8241 24.6519 2.20582C24.8583 2.58755 25.1781 3.14467 25.3638 3.44386C25.5495 3.74306 25.9312 4.46009 26.2149 5.04301C26.6225 5.88898 26.8082 6.21397 27.1538 6.67309C27.8708 7.61709 28.4176 8.623 28.4176 8.98927C28.4176 9.38645 27.9121 10.2789 27.747 10.1757C27.6696 10.1293 26.8701 8.89641 26.5606 8.34959C26.4213 8.09683 26.1892 7.62224 26.0499 7.29211C25.8899 6.91036 25.6372 6.45128 25.3586 6.03344C24.9357 5.40409 24.688 4.97592 23.9813 3.70179C23.8008 3.37681 23.481 2.83001 23.2694 2.48954C23.0579 2.14908 22.7691 1.65387 22.6246 1.38046C22.2945 0.756287 22.0985 0.472566 21.9385 0.364239C21.7683 0.255911 21.335 0.26107 21.1596 0.374557C21.0461 0.451934 21.0306 0.488042 21.0564 0.663434C21.0823 0.864615 21.2318 1.10706 21.6548 1.64871C21.758 1.78283 21.9798 2.15424 22.1449 2.47407C22.5318 3.21689 23.0476 4.1351 23.3623 4.63032C23.4964 4.84183 23.7698 5.31639 23.9762 5.6878C24.1825 6.05407 24.5591 6.68342 24.817 7.08059C25.0749 7.47781 25.4721 8.1484 25.6991 8.57657C26.1324 9.39163 26.4523 9.9797 26.8856 10.7431C27.2157 11.3261 27.226 11.4963 26.9578 11.9399C26.7153 12.3423 26.6018 12.4403 26.4368 12.399C26.3284 12.3732 26.2459 12.2391 25.9777 11.682C25.7971 11.3106 25.4979 10.7792 25.3174 10.511C25.1317 10.2428 24.8376 9.76304 24.6519 9.45353C24.4714 9.13884 24.2031 8.67457 24.0587 8.42182C23.9091 8.16388 23.7492 7.85437 23.7028 7.72542C23.615 7.48814 23.3674 7.11673 22.8413 6.43062C22.671 6.21397 22.4647 5.84774 22.3512 5.58465C22.2429 5.32672 21.954 4.81602 21.7116 4.44976C21.4433 4.04739 20.9378 3.13952 20.4529 2.18003C20.0041 1.29793 19.5759 0.524154 19.5037 0.457091C19.3954 0.359081 19.3335 0.343606 19.1272 0.359081C18.7764 0.395189 18.6165 0.513836 18.6165 0.73565C18.6165 0.957468 18.7764 1.27729 19.2664 2.03044C19.4728 2.33995 20.0247 3.35617 20.489 4.27953C20.9584 5.20806 21.4124 6.0644 21.5001 6.1882C21.9179 6.76079 22.181 7.17863 22.4853 7.72542C22.6659 8.05041 22.9599 8.54048 23.1353 8.81385C23.3159 9.08727 23.6821 9.70114 23.9452 10.1809C24.5126 11.1971 24.6571 11.4395 25.111 12.1359C25.7455 13.1058 25.9416 13.4668 25.9416 13.6629C25.9416 13.8847 25.73 14.3231 25.5031 14.5656C25.3328 14.7462 25.3277 14.7462 25.1729 14.6636C24.9769 14.5656 24.7551 14.2716 24.5178 13.797C24.2495 13.2708 23.4087 11.8213 22.996 11.1661C22.7897 10.8515 22.4492 10.2479 22.2274 9.83009C22.0108 9.4174 21.7219 8.95313 21.5929 8.79838C21.2576 8.40634 21.0049 7.9627 20.8862 7.56552C20.8295 7.37981 20.7108 7.12188 20.6231 6.99807C20.2362 6.44095 20.0815 6.17272 19.8494 5.68265C19.7152 5.39376 19.4625 4.96563 19.2871 4.72832C19.1117 4.49618 18.8331 4.02163 18.6681 3.68116C18.503 3.33554 18.209 2.83001 18.0232 2.55145C17.8324 2.26773 17.4919 1.70029 17.2598 1.28761C16.909 0.658273 16.8058 0.513836 16.6563 0.441615C16.4912 0.353923 16.192 0.348764 12.6945 0.348764H8.91331L8.78951 0.477728C8.68637 0.575738 8.66056 0.653115 8.66056 0.854297C8.66056 0.988419 8.68637 1.1277 8.72246 1.16381C8.76889 1.21023 9.65614 1.22571 12.3902 1.22571C15.6606 1.22571 16.0114 1.23603 16.1404 1.31341C16.3003 1.40626 16.7594 2.17487 16.7594 2.3451C16.7594 2.40701 16.7233 2.46891 16.6769 2.48438C16.6304 2.49986 14.6444 2.51533 12.256 2.51533C9.34663 2.51533 7.8455 2.53597 7.71655 2.57208C7.4999 2.62882 7.37095 2.84032 7.37095 3.12404C7.37095 3.43355 7.12334 3.41807 12.2922 3.44386C16.2539 3.4645 17.0689 3.47998 17.1876 3.54188C17.2701 3.58314 17.4455 3.7998 17.6054 4.05772C17.9717 4.64579 18.0129 4.72832 17.9768 4.82117C17.9459 4.8934 17.8633 4.89855 17.3887 4.87278C17.0844 4.85212 14.469 4.83665 11.5803 4.83665C7.12848 4.8315 6.30828 4.84183 6.25153 4.90373C6.14838 5.00173 6.05553 5.72908 6.12258 5.85288C6.17415 5.94059 6.43723 5.94574 12.3334 5.94574C19.3077 5.94574 18.6165 5.89931 19.0498 6.40486C19.2768 6.67309 19.4367 6.97745 19.3748 7.03417C19.3593 7.04964 16.192 7.06512 12.3334 7.0703C4.20876 7.08059 5.10119 7.0084 5.10119 7.67385C5.10119 8.00398 5.11667 8.08136 5.19405 8.11745C5.24047 8.14326 8.55738 8.16906 12.5604 8.16906C16.5634 8.17421 19.8906 8.19483 19.9474 8.21031C20.1073 8.26192 20.3807 8.59205 20.618 9.02536C20.943 9.60829 20.9584 9.58763 20.1537 9.54639C19.7771 9.52058 15.9805 9.5051 11.7196 9.5051H3.97663L3.83735 9.63405C3.76513 9.70114 3.55364 10.0364 3.36793 10.3717C3.18223 10.7122 2.88819 11.1971 2.71796 11.4602C2.54773 11.7181 2.35171 12.0379 2.28465 12.172C2.21758 12.3113 2.13505 12.4196 2.1041 12.4196C2.07315 12.4196 1.92355 12.6931 1.76364 13.0232C1.60372 13.3585 1.32 13.8743 1.12914 14.1736C0.618448 14.9731 0.0510127 16.0873 0.0149032 16.3556C-0.0160478 16.5619 -0.00573082 16.598 0.112915 16.6754C0.303779 16.7992 0.60813 16.7012 0.907325 16.4278C1.17557 16.1802 1.26326 16.0512 1.68626 15.2775C1.85133 14.968 2.12473 14.4985 2.28465 14.2303C2.73344 13.4926 3.00683 13.0026 3.38341 12.2546C4.14171 10.7328 4.40994 10.4697 5.26628 10.3717C5.58093 10.3408 5.72021 10.3975 5.72021 10.5523C5.72021 10.5987 5.53451 11.0423 5.30237 11.5375C4.69883 12.853 4.59565 13.049 4.39965 13.3276C3.98696 13.9156 3.75998 14.2819 3.47626 14.8184C3.31119 15.1279 3.04295 15.5818 2.88303 15.8243C2.72312 16.0667 2.50646 16.4123 2.40329 16.598C2.30012 16.7837 2.166 16.9901 2.10925 17.052C1.9545 17.2171 1.43865 18.2591 1.40254 18.4758C1.38191 18.6099 1.40254 18.6769 1.48508 18.7595C1.59856 18.8729 1.92355 18.9091 1.98029 18.8162C2.00093 18.7853 2.03188 18.7749 2.05251 18.7853C2.18147 18.8678 2.9243 17.8309 3.33182 17.0107C3.52269 16.629 3.8322 16.0925 4.02305 15.8243C4.50279 15.1433 4.60598 14.9628 5.47775 13.245C6.37533 11.4653 6.73645 10.8309 6.95825 10.6451C7.14396 10.4904 7.36062 10.4233 7.94354 10.3511C8.60899 10.2685 8.63476 10.3614 8.14472 11.1558C7.81974 11.6923 7.75784 11.7955 7.23681 12.7962C6.97373 13.3069 6.62294 13.9208 6.45789 14.1632C6.29281 14.4108 5.92654 15.066 5.63769 15.6179C4.62145 17.573 4.48217 17.8155 4.22423 18.0889C4.04371 18.2849 3.84767 18.6047 3.533 19.2289C3.29055 19.7035 3.03263 20.1832 2.96041 20.2864C2.71796 20.6475 2.84692 20.9828 3.22349 20.9828C3.38341 20.9828 3.45562 20.9364 3.72903 20.6578C3.90443 20.4824 4.15204 20.1729 4.28614 19.9769C4.58536 19.5229 5.323 18.1611 5.72021 17.3357C5.89044 16.9901 6.19481 16.4536 6.40628 16.1492C6.61779 15.8397 6.9015 15.3807 7.04596 15.1279C7.65465 14.0446 7.94354 13.5391 8.38715 12.8065C8.64509 12.3784 9.02683 11.7078 9.2383 11.3106C9.69742 10.4388 9.76965 10.3821 10.4454 10.3821C10.9251 10.3821 11.0335 10.4388 11.0335 10.6916C11.0335 10.9134 10.595 11.7903 10.2442 12.2597C9.9605 12.6415 9.37758 13.6783 9.00617 14.4573C8.74308 15.0041 8.48 15.4374 8.23758 15.7211C7.91774 16.0873 7.64432 16.5258 7.31419 17.2171C7.13881 17.573 6.8396 18.0734 6.6436 18.3416C6.44756 18.6098 6.17933 19.0277 6.05034 19.2753C5.52418 20.2554 4.82263 21.5347 4.70916 21.7153C4.64207 21.8236 4.58536 21.9216 4.58536 21.9319C4.58536 21.9474 4.4667 22.1383 4.32742 22.3549C4.04371 22.7882 4.04886 22.7779 4.12109 22.9637C4.21394 23.2061 4.68335 23.397 4.87421 23.2628C5.00319 23.17 5.225 22.8089 5.62736 22.0093C5.86982 21.5399 6.30828 20.7868 6.60746 20.3328C6.90668 19.884 7.30386 19.2443 7.48442 18.9194C7.66498 18.5944 7.92288 18.1611 8.05187 17.9651C8.24787 17.6607 8.67089 16.9385 9.46014 15.5664C9.55299 15.4116 9.69227 15.1743 9.7748 15.0402C10.4093 14.0188 10.6466 13.5958 10.8787 13.0851C11.4822 11.7645 12.1529 10.6348 12.4108 10.5162C12.5913 10.4285 13.1278 10.3821 13.3754 10.4285C13.5457 10.4594 13.5612 10.4801 13.5612 10.6348C13.5612 10.8257 12.6893 12.5951 12.1941 13.3998C11.5493 14.4521 11.2398 14.9989 10.8942 15.6695C10.6982 16.0512 10.2236 16.8663 9.84184 17.475C9.46014 18.0837 9.05778 18.7801 8.94945 19.0225C8.84112 19.265 8.70699 19.559 8.65023 19.6725C8.59866 19.7912 8.4181 20.0439 8.25305 20.2296C7.92807 20.5959 7.60823 21.1272 7.14396 22.0557C6.98406 22.3756 6.65389 22.9275 6.41147 23.2835C5.86982 24.083 5.51389 24.7898 5.51389 25.0735C5.51389 25.2127 5.5706 25.3675 5.69441 25.579C5.79759 25.7441 5.97815 26.0742 6.10196 26.3167C6.22576 26.5591 6.42694 26.8996 6.55075 27.0801C6.66937 27.2607 6.83445 27.498 6.91183 27.6115C6.98921 27.7249 7.12848 28.0035 7.21619 28.2253C7.38642 28.6638 7.62885 29.061 8.13954 29.7522C8.3201 29.9895 8.52643 30.3145 8.6038 30.4744C8.87207 31.0264 9.13516 31.4803 9.25896 31.6093C9.3621 31.7125 9.43434 31.7383 9.63037 31.7331C9.9347 31.7279 10.1978 31.599 10.2391 31.4288C10.2649 31.3256 10.1875 31.1708 9.8367 30.6395C9.59424 30.2784 9.17125 29.5872 8.89269 29.1074C8.61413 28.6225 8.26853 28.0344 8.11892 27.792C7.96931 27.5496 7.76298 27.1885 7.6598 26.9924C7.5618 26.7913 7.34514 26.4095 7.19039 26.1413C6.75707 25.3933 6.72612 25.2282 6.93763 24.635C7.18524 23.9438 7.31419 23.9128 7.64432 24.4751C7.77331 24.6969 8.04154 25.1096 8.24272 25.3933C8.4439 25.677 8.72761 26.1413 8.87207 26.425C9.43948 27.5289 9.82637 28.2047 10.2649 28.8495C10.5125 29.2158 10.8013 29.7058 10.9045 29.9328C11.5958 31.4545 11.8588 31.8672 12.1271 31.8672C12.4417 31.8672 12.7925 31.3101 12.71 30.9387C12.6893 30.8562 12.5294 30.624 12.3541 30.428C11.9362 29.9637 11.5906 29.3757 10.8684 27.9158C10.3061 26.7861 9.8986 26.0897 9.59424 25.7544C9.36729 25.5068 9.25378 25.3211 9.0423 24.8259C8.77403 24.1862 8.52643 23.7787 8.20144 23.4176C7.74236 22.9018 7.74236 22.9275 8.11892 22.2982C8.43876 21.7566 8.50581 21.6895 8.67089 21.7153C8.76374 21.7256 8.86174 21.8752 9.15578 22.4375C9.57362 23.2474 9.70257 23.4485 10.0946 23.9334C10.27 24.1501 10.5434 24.6247 10.8323 25.1973C11.4926 26.523 11.9517 27.3535 12.2612 27.7765C12.4108 27.9777 12.5759 28.2459 12.6326 28.3698C12.7822 28.7102 13.2465 29.5098 13.6127 30.0617C13.7933 30.33 14.0564 30.7788 14.2008 31.0625C14.4794 31.6093 14.6083 31.7383 14.8198 31.6815C15.1912 31.5887 15.2635 31.1192 15.0004 30.5105C14.7631 29.9689 14.0099 28.6689 13.6024 28.0963C13.3961 27.8023 13.1278 27.3329 12.9628 26.9666C12.5965 26.1619 12.5036 26.0123 12.0652 25.5635C11.864 25.3624 11.7041 25.1715 11.7041 25.1405C11.6989 24.9651 11.3275 24.1449 11.0747 23.7426C10.9097 23.4846 10.7239 23.1132 10.6518 22.912C10.4712 22.3704 10.497 22.4168 9.47043 21.0498C9.20735 20.699 9.2022 20.5288 9.44467 20.1265C9.8986 19.3888 10.0895 19.2341 10.2494 19.4868C10.3268 19.6158 10.8684 20.699 11.4358 21.8597C11.6989 22.4014 11.9878 22.9018 12.2251 23.2267C12.4314 23.5104 12.6584 23.8458 12.7255 23.9747C12.7925 24.1037 12.9576 24.4132 13.0969 24.6711C13.231 24.9239 13.5508 25.4552 13.8036 25.8421C14.0821 26.2651 14.5206 27.0595 14.9023 27.8281C15.4904 29.0042 15.7535 29.4376 16.2384 30.0102C16.4035 30.2062 16.7594 30.8923 16.8574 31.2121C16.9554 31.5113 17.0328 31.5577 17.4094 31.5577C17.6725 31.5577 17.7602 31.5371 17.8427 31.4545C18.0697 31.2276 17.9252 30.7788 17.3991 30.0824C16.8987 29.4221 16.8007 29.2519 16.584 28.6793C16.3983 28.1737 16.3364 28.0757 15.8412 27.5186C15.6245 27.2761 15.4749 27.044 15.3666 26.7758C15.2737 26.5591 14.892 25.7802 14.5154 25.0374C13.8758 23.7787 13.8139 23.6755 13.556 23.464C13.2207 23.1906 13.2207 23.1855 13.0917 22.7212C12.9369 22.1641 12.7255 21.772 12.3541 21.3439C12.1426 21.1066 11.8898 20.7249 11.6886 20.338C11.5029 19.9975 11.214 19.4559 11.0386 19.1309C10.8632 18.8059 10.7033 18.4809 10.693 18.4035C10.6518 18.2075 10.7549 17.8825 10.9613 17.5266C11.1676 17.1706 11.2759 17.1397 11.4203 17.3821C11.6525 17.7948 11.9981 18.3003 12.2303 18.5789C12.4779 18.8781 12.6326 19.136 12.7048 19.3682C12.7564 19.5281 13.2 20.2967 13.5199 20.7661C13.9171 21.3542 14.0718 21.6379 14.9075 23.3041C15.7071 24.8981 15.867 25.1767 16.2384 25.6203C16.3622 25.7647 16.5995 26.1464 16.7697 26.4663C16.94 26.7809 17.1979 27.2297 17.3475 27.4567C17.4971 27.6837 17.7808 28.1582 17.9717 28.509C18.1625 28.865 18.4205 29.3086 18.5391 29.4943C18.6629 29.6852 18.8331 29.9792 18.9157 30.1443C19.4264 31.1399 19.5347 31.3256 19.6636 31.4236C19.8081 31.5319 19.8339 31.5319 23.7698 31.5319C27.1022 31.5319 27.747 31.5216 27.8192 31.4597C27.8863 31.403 27.9018 31.3204 27.8915 31.1295C27.876 30.8355 27.7573 30.7117 27.4066 30.6188C27.2827 30.5879 25.8951 30.5518 23.8472 30.5312C20.6799 30.5002 20.4787 30.495 20.3807 30.4074C20.2672 30.3042 19.7514 29.4376 19.7514 29.3499C19.7514 29.3138 21.2163 29.2931 24.3579 29.2931C28.6136 29.288 28.9644 29.2828 29.0263 29.2003C29.0986 29.1022 29.1089 28.4729 29.0418 28.3646C29.0005 28.3027 28.2577 28.2924 24.1464 28.3027C19.8597 28.313 19.2768 28.3079 19.1426 28.2356C19.0498 28.1892 18.9002 28.0087 18.7609 27.7817C18.6371 27.5754 18.503 27.3535 18.4617 27.2916C18.4205 27.2297 18.3998 27.1627 18.4153 27.1472C18.4308 27.1317 20.9842 27.1111 24.0896 27.1059C27.1951 27.0956 29.8001 27.0698 29.8775 27.044C30.0941 26.9873 30.187 26.7603 30.1612 26.3631C30.1509 26.1877 30.1148 26.0123 30.0787 25.9762C30.0322 25.9298 28.6549 25.9143 23.9813 25.9298C19.3954 25.9401 17.8994 25.9298 17.755 25.8833C17.4867 25.7957 17.3217 25.6254 17.1463 25.2643C16.8884 24.7279 16.1249 24.7794 24.1774 24.8155L31.2084 24.8517L31.3322 24.7227C31.4457 24.6143 31.4611 24.5524 31.4611 24.212C31.4611 23.8612 31.4508 23.8148 31.3477 23.7581C31.2548 23.7065 29.7898 23.6858 24.0845 23.6807C20.1537 23.6703 16.8213 23.6549 16.6769 23.6394C16.5325 23.6188 16.3467 23.562 16.2539 23.5104C16.063 23.3918 15.6245 22.6748 15.6245 22.4736C15.6245 22.2879 15.7329 22.2775 16.8626 22.3292C17.3578 22.3498 21.0564 22.3704 25.0749 22.3704L32.3897 22.3756L32.5806 22.2002C32.6889 22.1022 32.9468 21.7256 33.1531 21.3593C33.3646 20.9983 33.7515 20.3483 34.0249 19.9253C34.2932 19.4971 34.5975 18.9864 34.6955 18.7904C34.7987 18.5892 34.9431 18.3365 35.0205 18.223C35.2991 17.8155 36.2121 15.9274 36.2173 15.7417C36.2276 15.4064 35.8046 15.1382 35.5828 15.3394C35.526 15.3909 35.3971 15.6076 35.2939 15.8191C35.1907 16.0358 35.0669 16.2679 35.0102 16.3401C34.8503 16.5413 34.4531 17.2429 33.7464 18.5738C33.3853 19.2598 33.0035 19.9098 32.8849 20.0439C32.5651 20.405 32.4258 20.6062 32.2091 21.0292C31.9461 21.5296 31.8171 21.6121 31.3219 21.5915C31.1155 21.5811 30.9195 21.5451 30.8834 21.509C30.7183 21.3439 30.8679 20.9002 31.4096 19.9511C31.6004 19.6261 31.8584 19.1257 31.9822 18.842C32.1111 18.5583 32.3794 18.094 32.5754 17.8103C32.9932 17.2119 33.0396 17.1345 33.5039 16.3143C33.6948 15.9739 34.0249 15.4064 34.2364 15.0505C34.4479 14.6997 34.7007 14.2561 34.7936 14.0652C34.8864 13.8795 34.9999 13.6938 35.0463 13.6577C35.2269 13.5081 35.0566 13.0954 34.7265 12.8994L34.515 12.7756L34.3809 12.8942C34.2622 13.0026 33.8547 13.6886 33.2666 14.7668C33.1428 14.9938 32.8488 15.4632 32.6115 15.8036C32.1988 16.4123 31.7036 17.3718 31.1516 18.6305C30.9659 19.0483 30.8215 19.2856 30.5997 19.5436C30.4346 19.7344 30.1251 20.1987 29.9033 20.5804C29.6866 20.957 29.4545 21.3078 29.3823 21.3645C29.2172 21.4883 28.4537 21.5915 28.2113 21.5192C27.9637 21.4471 27.9172 21.349 28.0204 21.0808C28.1236 20.8074 28.495 20.1884 28.8045 19.7705C29.0831 19.394 29.5422 18.6253 29.9394 17.8619C30.1045 17.5472 30.3418 17.1345 30.4759 16.9437C30.9917 16.1802 31.2393 15.7572 31.848 14.5914C32.1937 13.9208 32.7044 13.0129 32.9829 12.5744C33.6948 11.4447 33.6999 11.4344 33.6587 11.259C33.638 11.1765 33.4936 10.9804 33.3389 10.8257C33.0758 10.5626 33.0551 10.5523 32.9468 10.6245C32.8746 10.6709 32.5908 11.1713 32.2349 11.8625C31.9099 12.497 31.5592 13.1728 31.456 13.3534C31.3528 13.5339 31.162 13.895 31.033 14.1529C30.904 14.4108 30.7441 14.6894 30.6771 14.7719C30.4862 15.0041 29.8104 16.0873 29.8104 16.1544C29.8104 16.2163 29.0367 17.5524 28.7891 17.9289C28.624 18.1765 28.3557 18.646 28.201 18.971C27.8863 19.6158 27.4943 20.2193 26.9732 20.8848C26.5812 21.38 26.3852 21.4935 25.8178 21.5347C25.5082 21.5605 25.436 21.5502 25.3741 21.4728C25.3071 21.3903 25.3174 21.3439 25.4928 21.0395C25.5959 20.8538 25.8951 20.2812 26.153 19.7705C26.5761 18.94 27.0816 18.0992 27.3344 17.8103C27.3859 17.7536 27.6026 17.3821 27.8089 16.9849C28.1958 16.2628 28.3454 16.01 29.1398 14.7668C29.5731 14.091 29.9549 13.3791 30.0632 13.0335C30.0941 12.9303 30.2231 12.7292 30.3521 12.5847C30.7028 12.1669 30.7338 12.1153 31.4508 10.7173C32.1111 9.42773 32.2246 9.13369 32.1627 8.90156C32.1318 8.76743 31.8532 8.44762 31.7758 8.44762C31.6726 8.44762 31.5127 8.67976 31.1723 9.33487C30.9711 9.71662 30.708 10.1345 30.5481 10.3202C30.3727 10.5213 30.1354 10.903 29.9033 11.357C29.7021 11.7542 29.2327 12.5899 28.8561 13.2141C28.4795 13.8434 28.0359 14.6069 27.8708 14.9215C27.4117 15.7933 27.1899 16.1338 26.9217 16.4175C26.6792 16.6651 26.4264 17.1036 26.2717 17.542C26.086 18.0631 25.2555 19.5539 24.6364 20.4772C24.4869 20.6939 24.3063 20.9828 24.2238 21.1117C24.0432 21.4161 23.8627 21.4935 23.1921 21.5296C22.7433 21.5605 22.6556 21.5502 22.5937 21.4832C22.4699 21.3284 22.5318 21.2149 23.4293 20.0078C23.5686 19.8221 23.8162 19.4043 23.9865 19.069C24.1567 18.7388 24.3527 18.3777 24.425 18.2694C24.7448 17.8 25.8384 15.8913 26.1634 15.231C26.3594 14.8338 26.7205 14.1942 26.9629 13.8124C27.5562 12.8736 27.9791 12.1566 28.3712 11.4137C28.5517 11.0785 28.8819 10.542 29.1089 10.2273C29.3358 9.90747 29.6454 9.38645 29.8104 9.03051C29.9755 8.6849 30.2076 8.26192 30.3263 8.0865C30.8266 7.34886 31.0485 6.93617 31.0485 6.74532C31.0485 6.53895 30.904 6.2862 30.6152 5.97154C30.3366 5.67232 30.0735 5.26996 29.8672 4.81088C29.6195 4.27953 29.1759 3.51608 28.7529 2.90222C28.5775 2.6443 28.2938 2.14908 28.1184 1.79315C27.7934 1.12254 27.2776 0.292021 27.0867 0.126948C26.9784 0.0289368 26.6431 -0.0329652 26.509 0.0186198ZM20.2517 10.4543C21.1854 10.4852 21.3144 10.5007 21.4382 10.5935C21.5775 10.6967 21.7116 10.9185 22.4544 12.2907C22.6865 12.7137 23.0579 13.343 23.2746 13.6835C23.4964 14.024 23.8524 14.6481 24.0638 15.0711C24.3837 15.6902 24.4507 15.8707 24.4301 16.0048C24.4095 16.139 24.1361 16.7786 23.7389 17.6194C23.6924 17.7123 23.4964 17.9651 23.3004 18.1817C23.0167 18.4964 22.8671 18.7234 22.5937 19.2753C22.2481 19.9769 21.5671 21.0653 21.335 21.282C21.1287 21.478 20.7676 21.4986 17.9098 21.4728C14.7579 21.4419 14.892 21.4625 14.7476 20.9312C14.629 20.4927 14.1389 19.6674 13.6385 19.0741C13.4889 18.8936 13.2207 18.4293 12.9163 17.8051C12.581 17.1242 12.3489 16.7167 12.1477 16.4742C11.9878 16.2782 11.8588 16.0771 11.8588 16.0203C11.8588 15.8862 11.9878 15.6489 12.2251 15.3445C12.514 14.9783 12.7667 14.5037 13.0556 13.7918C13.3806 12.9768 13.4115 12.9252 13.8345 12.4764C14.0976 12.1978 14.2421 11.9915 14.3659 11.7026C14.5567 11.2745 14.8869 10.6245 14.9694 10.5213C14.9952 10.4904 15.0932 10.4388 15.1809 10.413C15.346 10.3614 18.3224 10.3872 20.2517 10.4543Z" fill="white"/>
</svg>
