<svg width="206" height="32" viewBox="0 0 206 32" fill="none" xmlns="http://www.w3.org/2000/svg">
<g clip-path="url(#clip0_13400_1504)">
<path d="M29.9742 30.0068V20.0127L22.8472 17.6343V17.631C20.3289 16.7915 20.3289 13.2231 22.8472 12.3821L29.9742 10.0037V0.00292568L29.9774 -0.000366211H19.9866L17.6098 7.1348C16.772 9.65638 13.2069 9.65803 12.3675 7.13644L9.99075 -0.000366211H-0.00012207L0.00481576 0.00457162V10.0037L7.13175 12.3821C9.65004 13.2215 9.65004 16.7899 7.13175 17.631L0.00481576 20.0094V30.0052L-0.00012207 30.0101H0.00481576V30.0134L0.00810765 30.0101H9.99075L12.3675 22.8766C13.2069 20.3534 16.7704 20.3534 17.6098 22.8766L19.9866 30.0101H29.9676L29.9742 30.0167V30.0101H29.9774L29.9742 30.0068ZM8.24441 21.6784C11.3915 17.7939 11.3898 12.206 8.23947 8.32482L8.31848 8.24581C12.1996 11.4011 17.7843 11.3994 21.6638 8.24252L21.7444 8.32317C18.5875 12.206 18.5859 17.7989 21.7379 21.6849C21.7806 21.736 21.7099 21.8067 21.6572 21.7639C17.781 18.6136 12.2029 18.612 8.32506 21.759C8.27239 21.8018 8.20326 21.731 8.24605 21.6784H8.24441Z" fill="white"/>
</g>
<g clip-path="url(#clip1_13400_1504)">
<path d="M60.1668 15.4356C61.1082 14.1369 61.579 12.6194 61.579 10.8796C61.579 9.1415 61.2119 7.78195 60.4795 6.58206C59.7454 5.38217 58.7183 4.45221 57.3966 3.79054C56.0766 3.13052 54.5343 2.79968 52.7732 2.79968H42.7938V28.5126H46.6091V18.9612H52.5526L57.6896 28.5126H61.946L56.4041 18.153C57.9694 17.6395 59.2236 16.7342 60.1651 15.4356H60.1668ZM52.4802 15.5821H46.6108V6.1788H52.5164C54.0817 6.1788 55.3359 6.60181 56.2774 7.44618C57.2189 8.29055 57.6896 9.43613 57.6896 10.8813C57.6896 12.3264 57.2189 13.4407 56.2774 14.2966C55.3359 15.1541 54.0702 15.5821 52.4802 15.5821Z" fill="white"/>
<path d="M76.8852 10.6041C75.552 9.88323 73.9801 9.52112 72.1712 9.52112C70.3607 9.52112 68.8069 9.92602 67.4375 10.7342C66.068 11.5407 65.0031 12.6616 64.246 14.0952C63.4872 15.5272 63.1086 17.211 63.1086 19.1449C63.1086 21.0806 63.4938 22.7282 64.2641 24.1601C65.0344 25.5921 66.1355 26.713 67.5659 27.5212C68.9962 28.3293 70.6652 28.7342 72.5745 28.7342C74.0904 28.7342 75.4285 28.4462 76.5906 27.8701C77.7526 27.294 78.7072 26.5171 79.4529 25.5378C80.1985 24.5585 80.6939 23.4442 80.9391 22.1949H77.3444C77.0498 23.2977 76.4572 24.1601 75.5651 24.7856C74.6714 25.4094 73.6015 25.7221 72.3539 25.7221C71.2775 25.7221 70.331 25.4884 69.5114 25.0243C68.6917 24.5601 68.0563 23.9034 67.6037 23.059C67.1511 22.2146 66.8993 21.2419 66.8515 20.1391V19.8823H81.1597C81.1827 19.6371 81.2025 19.3918 81.214 19.1466C81.2255 18.903 81.2338 18.6693 81.2338 18.4487C81.1827 16.5888 80.7795 14.9972 80.0224 13.6738C79.2636 12.3521 78.2184 11.33 76.8852 10.6074V10.6041ZM66.998 17.1254C67.0951 16.1707 67.3947 15.3494 67.8967 14.6647C68.3987 13.98 69.0275 13.4467 69.7862 13.0665C70.5434 12.6863 71.3515 12.497 72.2074 12.497C73.674 12.497 74.8854 12.8953 75.84 13.6903C76.793 14.4869 77.3428 15.6309 77.4909 17.1254H66.998Z" fill="white"/>
<path d="M95.2132 18.1519C94.0396 17.8342 92.7426 17.5889 91.3254 17.4178C90.4202 17.296 89.6186 17.1725 88.9207 17.0507C88.2245 16.9289 87.6863 16.7084 87.3077 16.3907C86.9275 16.0714 86.7382 15.5941 86.7382 14.9571C86.7382 14.1736 87.1102 13.5498 87.8574 13.084C88.6031 12.6182 89.5873 12.3861 90.8103 12.3861C92.0332 12.3861 93.0668 12.6742 93.8372 13.2486C94.6075 13.8247 95.042 14.5653 95.1391 15.4723H98.6993C98.5758 13.5119 97.7808 12.0322 96.3143 11.0266C94.8461 10.0225 92.9994 9.52052 90.7724 9.52052C89.3306 9.49748 88.0336 9.72297 86.8847 10.2003C85.7342 10.6793 84.8355 11.3459 84.187 12.2034C83.5401 13.0609 83.2159 14.0897 83.2159 15.2879C83.2159 16.2672 83.4117 17.0705 83.8018 17.6943C84.1936 18.3181 84.7384 18.8135 85.4363 19.1822C86.1325 19.5493 86.939 19.8422 87.8574 20.0628C88.7742 20.2833 89.7585 20.4545 90.8103 20.578C91.7633 20.6751 92.5945 20.7919 93.3055 20.9269C94.0133 21.0619 94.5647 21.3005 94.9564 21.6429C95.3465 21.9853 95.5424 22.512 95.5424 23.2214C95.5424 23.7365 95.3596 24.2023 94.9926 24.6171C94.6256 25.0335 94.1301 25.3463 93.5063 25.5537C92.8825 25.7627 92.1418 25.8664 91.2859 25.8664C89.7947 25.8664 88.6195 25.5306 87.7653 24.8558C86.9077 24.1826 86.4567 23.3316 86.4074 22.3029H82.8126C82.885 24.3603 83.6981 25.9454 85.2519 27.0597C86.804 28.174 88.8154 28.732 91.2876 28.732C92.7541 28.732 94.0758 28.4983 95.2494 28.0341C96.4246 27.5683 97.3545 26.9 98.0392 26.0326C98.7223 25.1636 99.0663 24.1398 99.0663 22.9646C99.0663 21.5458 98.7174 20.4677 98.0211 19.732C97.3233 18.9979 96.3884 18.4712 95.2148 18.1535L95.2132 18.1519Z" fill="white"/>
<path d="M105.187 9.74304H101.593V28.5134H105.187V9.74304Z" fill="white"/>
<path d="M103.428 2.4679C102.817 2.4679 102.291 2.67693 101.851 3.09171C101.41 3.50813 101.189 4.03483 101.189 4.67181C101.189 5.30715 101.41 5.84043 101.851 6.26838C102.291 6.69797 102.817 6.91194 103.428 6.91194C104.039 6.91194 104.595 6.69797 105.024 6.26838C105.452 5.84043 105.666 5.30879 105.666 4.67181C105.666 4.03483 105.452 3.50813 105.024 3.09171C104.595 2.67528 104.063 2.4679 103.428 2.4679Z" fill="white"/>
<path d="M130.736 24.7832C130.494 24.6367 130.259 24.4277 130.03 24.1659C130.452 23.6179 130.837 23.0302 131.176 22.3949C132.228 20.4247 132.754 18.1764 132.754 15.6548C132.754 13.1315 132.228 10.8865 131.176 8.91464C130.124 6.9428 128.676 5.39397 126.829 4.26814C124.982 3.14067 122.836 2.57776 120.39 2.57776C117.944 2.57776 115.791 3.14067 113.931 4.26814C112.073 5.39397 110.618 6.9428 109.566 8.91464C108.515 10.8865 107.988 13.1332 107.988 15.6548C107.988 18.1764 108.515 20.4247 109.566 22.3949C110.618 24.3668 112.073 25.9156 113.931 27.0414C115.79 28.1689 117.942 28.7318 120.39 28.7318C122.836 28.7318 124.982 28.1689 126.829 27.0414C127.11 26.8702 127.379 26.6859 127.64 26.495L127.802 26.7106C128.266 27.3229 128.786 27.7755 129.36 28.0701C129.936 28.3648 130.736 28.5112 131.765 28.5112H134.186V25.0943H132.058C131.52 25.0943 131.079 24.9906 130.736 24.7832ZM124.829 24.1034C123.558 24.9363 122.077 25.351 120.39 25.351C118.703 25.351 117.223 24.9363 115.951 24.1034C114.679 23.2706 113.681 22.12 112.96 20.6502C112.239 19.182 111.879 17.5163 111.879 15.6548C111.879 13.7949 112.239 12.0979 112.96 10.6412C113.681 9.18458 114.679 8.039 115.951 7.20615C117.223 6.37495 118.703 5.95853 120.39 5.95853C122.077 5.95853 123.558 6.37495 124.829 7.20615C126.101 8.039 127.091 9.18458 127.802 10.6412C128.511 12.0979 128.865 13.7702 128.865 15.6548C128.865 17.541 128.511 19.182 127.802 20.6502C127.742 20.7737 127.678 20.8905 127.616 21.009L126.811 19.9523C126.543 19.5606 126.243 19.2314 125.912 18.9615C125.581 18.6915 125.203 18.4891 124.775 18.3541C124.347 18.2208 123.827 18.1533 123.216 18.1533H120.5V21.5324H122.739C123.178 21.5324 123.563 21.6312 123.894 21.8271C124.223 22.0213 124.548 22.3406 124.865 22.7817L125.489 23.6162C125.277 23.789 125.06 23.9536 124.829 24.1034Z" fill="white"/>
<path d="M149.075 19.1074C149.075 20.4537 148.874 21.6108 148.471 22.5787C148.066 23.5448 147.485 24.2871 146.728 24.8007C145.969 25.3142 145.064 25.5726 144.012 25.5726C142.521 25.5726 141.383 25.0887 140.6 24.1209C139.818 23.1531 139.426 21.7277 139.426 19.8414V9.74029H135.868V20.1723C135.868 21.7639 136.057 23.1054 136.436 24.195C136.816 25.2846 137.347 26.1652 138.032 26.8384C138.717 27.5132 139.505 27.9955 140.399 28.2901C141.291 28.5847 142.239 28.7312 143.242 28.7312C144.978 28.7312 146.349 28.3757 147.352 27.6646C148.053 27.1692 148.637 26.6375 149.109 26.0697L149.552 28.5106H152.671V9.73865H149.075V19.1074Z" fill="white"/>
<path d="M171.95 25.0769C171.752 24.9189 171.655 24.5947 171.655 24.1042V16.3172C171.655 14.1133 170.977 12.4295 169.619 11.2658C168.261 10.1038 166.36 9.52112 163.914 9.52112C162.373 9.52112 161.016 9.75978 159.842 10.2388C158.668 10.7161 157.732 11.3958 157.036 12.2764C156.338 13.1587 155.916 14.2121 155.77 15.435H159.292C159.463 14.5297 159.939 13.8137 160.723 13.287C161.504 12.7603 162.52 12.497 163.768 12.497C165.114 12.497 166.164 12.8163 166.923 13.4533C167.682 14.0903 168.06 14.9708 168.06 16.0967V17.2735H163.034C160.491 17.2735 158.552 17.787 157.218 18.8158C155.887 19.8445 155.22 21.3127 155.22 23.2236C155.22 24.3741 155.507 25.36 156.083 26.1797C156.657 27.001 157.47 27.6314 158.522 28.0709C159.574 28.512 160.783 28.7326 162.155 28.7326C163.94 28.7326 165.366 28.3359 166.429 27.5393C167.211 26.955 167.863 26.2785 168.388 25.5164C168.393 26.3986 168.613 27.1047 169.053 27.6314C169.542 28.219 170.46 28.5137 171.805 28.5137H173.712V25.3172H172.832C172.44 25.3172 172.147 25.2382 171.951 25.0786L171.95 25.0769ZM168.06 20.8337C168.06 21.8147 167.84 22.6837 167.4 23.4425C166.961 24.2013 166.335 24.7955 165.529 25.2234C164.722 25.653 163.731 25.867 162.558 25.867C161.384 25.867 160.502 25.597 159.842 25.0588C159.182 24.5206 158.851 23.8342 158.851 23.0014C158.851 21.9974 159.195 21.2567 159.88 20.7794C160.563 20.3004 161.542 20.0617 162.815 20.0617H168.062L168.06 20.8337Z" fill="white"/>
<path d="M188.976 10.3474C187.839 9.79599 186.56 9.52112 185.143 9.52112C183.357 9.52112 181.95 9.88323 180.923 10.6041C180.187 11.1226 179.573 11.674 179.076 12.2616L178.648 9.74003H175.531V28.512H179.125V19.0709C179.125 17.7492 179.333 16.6102 179.749 15.6556C180.166 14.7009 180.77 13.9652 181.565 13.4516C182.36 12.9381 183.295 12.6797 184.371 12.6797C185.936 12.6797 187.116 13.1587 187.911 14.1133C188.706 15.0679 189.103 16.4769 189.103 18.3368V28.512H192.699V18.08C192.699 15.9749 192.362 14.296 191.691 13.0484C191.017 11.7991 190.114 10.8988 188.975 10.349L188.976 10.3474Z" fill="white"/>
<path d="M202.544 25.3133C201.786 25.3133 201.254 25.1536 200.948 24.836C200.643 24.5183 200.49 23.9801 200.49 23.2197V12.9358H205.186V9.73939H200.49V4.48718H196.894V9.73939H193.592V12.9358H196.894V23.4781C196.894 25.1668 197.286 26.4293 198.069 27.2621C198.851 28.0933 200.135 28.5097 201.921 28.5097H205.407V25.3149H202.544V25.3133Z" fill="white"/>
</g>
<defs>
<clipPath id="clip0_13400_1504">
<rect width="31.2729" height="31.2729" fill="white"/>
</clipPath>
<clipPath id="clip1_13400_1504">
<rect width="162.948" height="26.3351" fill="white" transform="translate(42.7939 2.46759)"/>
</clipPath>
</defs>
</svg>
