<svg width="207" height="32" viewBox="0 0 207 32" fill="none" xmlns="http://www.w3.org/2000/svg">
<path d="M5.55651 24.7804C4.79342 24.7847 4.03861 24.6222 3.34489 24.3043C2.67672 24.0014 2.07668 23.5665 1.58084 23.0259C1.08231 22.4812 0.688474 21.8493 0.41909 21.1618C0.137922 20.4436 -0.00426189 19.6786 9.72775e-05 18.9074C-0.00355247 18.1404 0.134458 17.3793 0.407186 16.6624C0.667466 15.9829 1.05716 15.3603 1.55465 14.8293C2.05108 14.3055 2.64667 13.8855 3.3068 13.5938C4.0093 13.2842 4.76984 13.1284 5.53746 13.1367C6.48706 13.1193 7.42352 13.3604 8.24663 13.8342C9.02323 14.2915 9.64256 14.9739 10.0226 15.7911L10.1821 16.1268L8.57039 16.6624L8.44184 16.4243C8.16675 15.9019 7.74794 15.4691 7.23486 15.1769C6.70625 14.8715 6.10504 14.7144 5.49461 14.7222C4.98086 14.7193 4.47253 14.8273 4.00433 15.0388C3.54721 15.2489 3.13681 15.5484 2.79735 15.9197C2.44401 16.3121 2.16491 16.7654 1.97365 17.2576C1.76965 17.7892 1.66788 18.3546 1.67369 18.924C1.66844 20.0473 2.07593 21.1334 2.81877 21.976C3.16447 22.3533 3.58213 22.6576 4.04718 22.8711C4.50723 23.0938 5.01205 23.2086 5.52318 23.2068C5.85969 23.2063 6.19427 23.1558 6.5159 23.0568C6.84015 22.9618 7.15186 22.8284 7.44435 22.6592C7.70928 22.5089 7.95005 22.3195 8.15854 22.0974C8.3325 21.9231 8.46441 21.7114 8.54421 21.4784L8.63705 21.1856L10.2797 21.6618L10.1583 21.995C10.0007 22.4101 9.76921 22.7933 9.47504 23.1258C9.16898 23.4764 8.80992 23.7768 8.41089 24.0162C7.99225 24.268 7.54137 24.4618 7.07059 24.5923C6.57669 24.723 6.06737 24.7862 5.55651 24.7804Z" fill="white"/>
<path d="M20.9761 24.5736V18.3268C20.9761 15.8985 20.2262 14.7201 18.6788 14.7201C18.285 14.7205 17.8948 14.7957 17.529 14.9415C17.1401 15.0966 16.7784 15.3128 16.4577 15.5819C16.1182 15.8652 15.8208 16.1955 15.5745 16.5627C15.3378 16.9118 15.1533 17.2936 15.0269 17.6959V24.5641H13.3605V9.0423H15.0269V15.0463L15.3412 14.7225C15.635 14.417 15.9643 14.1477 16.322 13.9202C17.1107 13.4076 18.031 13.1348 18.9716 13.1346C19.5484 13.1196 20.1202 13.2446 20.6381 13.4989C21.1084 13.7429 21.5096 14.1015 21.8046 14.5416C22.1233 15.0251 22.347 15.5647 22.464 16.1318C22.6042 16.7955 22.672 17.4724 22.6664 18.1506V24.5783L20.9761 24.5736Z" fill="white"/>
<path d="M29.5214 24.7817C28.5246 24.7887 27.562 24.4188 26.8265 23.7461C26.4767 23.4248 26.1977 23.034 26.0076 22.5987C25.8114 22.1482 25.7117 21.6616 25.7147 21.1703C25.7098 20.6703 25.8362 20.1777 26.0814 19.7419C26.3324 19.3095 26.6733 18.936 27.0812 18.6468C27.534 18.3321 28.0372 18.097 28.5691 17.9517C29.1818 17.7848 29.8149 17.7047 30.4498 17.7136C31.0452 17.7144 31.6395 17.767 32.2258 17.8707C32.5543 17.9302 32.8686 18.0016 33.1661 18.085L33.4042 18.1492V17.5636C33.4042 16.6375 33.1661 15.9281 32.6424 15.3972C32.1187 14.8663 31.4521 14.6092 30.5593 14.6092C30.0402 14.619 29.5272 14.7231 29.0452 14.9163C28.4471 15.1477 27.8789 15.4498 27.3526 15.8162L27.0574 16.0186L26.3432 14.7497L26.5813 14.5807C27.9859 13.6284 29.3476 13.138 30.6284 13.138C31.9877 13.138 33.0781 13.5451 33.8708 14.345C34.6636 15.1449 35.0611 16.2495 35.0611 17.6446V23.0034H35.4944L35.5087 23.3414V24.5317L35.2444 24.5841C35.1659 24.5984 35.0849 24.6103 35.0064 24.6198C34.9278 24.6293 34.8445 24.6198 34.7826 24.6198C34.6137 24.6247 34.4458 24.5925 34.2907 24.5255C34.1357 24.4584 33.9972 24.3582 33.8851 24.2318C33.7329 24.0601 33.6243 23.8544 33.5685 23.6319L33.497 23.3557L33.2756 23.5343C32.921 23.8216 32.5304 24.0617 32.1139 24.2484C31.297 24.607 30.4135 24.7888 29.5214 24.7817ZM30.5593 19.0682C30.1004 19.0634 29.6427 19.1178 29.1976 19.2301C28.8364 19.3219 28.4918 19.4697 28.1763 19.6681C27.9228 19.8272 27.7106 20.0442 27.5574 20.3013C27.4153 20.5454 27.3428 20.8237 27.3479 21.106C27.3448 21.404 27.4049 21.6993 27.524 21.9726C27.6318 22.2353 27.794 22.4723 28.0001 22.6677C28.2223 22.8736 28.4816 23.0352 28.7643 23.1438C29.0682 23.26 29.3912 23.3182 29.7166 23.3152C30.4157 23.3226 31.1082 23.1797 31.7473 22.8962C32.2952 22.6648 32.7729 22.2938 33.1328 21.8202C33.2852 21.646 33.377 21.4272 33.3947 21.1965V19.5443L33.2709 19.5014C32.9011 19.3787 32.5233 19.2817 32.1401 19.211C31.619 19.1191 31.0909 19.0729 30.5617 19.0729L30.5593 19.0682Z" fill="white"/>
<path d="M39.0432 24.5718V13.3257H40.6763V15.0802L40.993 14.7374C41.1804 14.5352 41.3842 14.3489 41.6024 14.1803C42.2077 13.6923 42.9408 13.389 43.714 13.3066C43.8592 13.2924 43.9949 13.2852 44.1116 13.2852H44.7044V14.8898H44.3854C43.5534 14.8968 42.7457 15.1705 42.0809 15.6706C41.4305 16.1667 40.9552 16.8572 40.7239 17.6418V24.5718H39.0432Z" fill="white"/>
<path d="M51.5977 29.1201C51.0181 29.1265 50.4398 29.0658 49.8741 28.9392C49.3922 28.8307 48.9281 28.6543 48.4958 28.4154C48.0988 28.1921 47.737 27.9113 47.4221 27.5822C47.1133 27.2578 46.8425 26.8991 46.615 26.5133L46.4579 26.2467L47.6935 25.4087L47.872 25.711C48.2267 26.3463 48.7734 26.853 49.4337 27.1584C50.1115 27.4736 50.8502 27.6362 51.5977 27.6346C52.0817 27.6372 52.5633 27.5666 53.0261 27.4251C53.4449 27.2992 53.8359 27.0948 54.1783 26.8228C54.5028 26.5562 54.7646 26.2213 54.9449 25.842C55.1405 25.4068 55.2365 24.9334 55.2258 24.4564V23.1233L54.9211 23.4018C54.6349 23.6604 54.3221 23.8878 53.9879 24.0803C53.2973 24.4843 52.5176 24.7114 51.718 24.7413C50.9185 24.7712 50.124 24.603 49.4052 24.2517C48.7685 23.9328 48.202 23.4901 47.7387 22.9495C47.2689 22.4044 46.8975 21.7817 46.6412 21.1092C46.3772 20.4258 46.2424 19.6993 46.2437 18.9667C46.2421 18.2204 46.3694 17.4795 46.6198 16.7765C46.8576 16.0946 47.2183 15.462 47.684 14.9101C48.1458 14.3698 48.7128 13.9291 49.3504 13.615C50.0183 13.2932 50.7516 13.1302 51.493 13.1389C52.4195 13.1205 53.3283 13.3945 54.0903 13.9221C54.4149 14.1512 54.7206 14.4059 55.0044 14.6839L55.3139 14.9886V13.3269H56.9065V24.4588C56.9212 25.1647 56.7703 25.8642 56.4661 26.5014C56.1828 27.0723 55.7763 27.5732 55.2758 27.9679C54.7718 28.3633 54.1975 28.6598 53.5832 28.8416C52.9384 29.0302 52.2695 29.124 51.5977 29.1201ZM51.6596 14.7077C51.1187 14.6987 50.5842 14.8256 50.1051 15.0767C49.6537 15.3201 49.2561 15.6521 48.9362 16.0528C48.6102 16.4638 48.3603 16.9298 48.1982 17.4288C48.0285 17.9304 47.9408 18.4562 47.9387 18.9857C47.9361 19.5373 48.0387 20.0843 48.241 20.5974C48.4367 21.0931 48.7188 21.5501 49.0742 21.9472C49.4232 22.3328 49.8447 22.6458 50.3146 22.8685C50.7855 23.0917 51.3004 23.2064 51.8215 23.2042C52.2297 23.2003 52.6335 23.1196 53.0118 22.9661C53.3987 22.8127 53.7618 22.6051 54.0903 22.3496C54.3944 22.1136 54.6581 21.8298 54.8711 21.5092C55.0473 21.2567 55.1697 20.9707 55.2306 20.6688V17.2955C55.0918 16.9237 54.8958 16.5759 54.6497 16.2646C54.4053 15.9508 54.1166 15.6741 53.7927 15.4433C53.4726 15.2158 53.1225 15.0339 52.7523 14.9029C52.402 14.7755 52.0324 14.7094 51.6596 14.7077Z" fill="white"/>
<path d="M65.7753 24.7799C65.0122 24.7842 64.2574 24.6217 63.5637 24.3037C62.8955 24.0008 62.2954 23.566 61.7996 23.0253C60.7761 21.8992 60.215 20.4285 60.2284 18.9068C60.2209 17.4019 60.7821 15.9496 61.7996 14.8407C62.292 14.3124 62.8854 13.8882 63.5446 13.5932C64.2363 13.2887 64.9838 13.1314 65.7396 13.1314C66.4953 13.1314 67.2428 13.2887 67.9345 13.5932C68.5949 13.8941 69.1901 14.3211 69.6867 14.8502C70.1789 15.3862 70.5664 16.0095 70.8294 16.6881C71.1029 17.3924 71.2418 18.1418 71.2388 18.8973V19.1616C71.2461 19.2759 71.2283 19.3905 71.1865 19.4972L71.0984 19.6853H61.9615L62.0043 19.9019C62.0692 20.253 62.178 20.5945 62.3281 20.9185C62.5415 21.3857 62.8329 21.8132 63.1899 22.1826C63.5314 22.5307 63.9352 22.8117 64.3802 23.011C64.8298 23.2107 65.3167 23.3121 65.8086 23.3086C66.1421 23.3085 66.4739 23.2612 66.7942 23.1682C67.1139 23.0774 67.421 22.9471 67.7084 22.7801C67.9819 22.6233 68.2313 22.4277 68.4487 22.1992C68.6549 21.9825 68.8238 21.7331 68.9487 21.4612L69.0653 21.2065L70.5818 21.6231L70.4651 21.9636C70.2995 22.3873 70.0574 22.7771 69.7509 23.1134C69.432 23.4595 69.0648 23.7578 68.6606 23.999C68.2376 24.2504 67.7828 24.4442 67.3084 24.5751C66.8092 24.7134 66.2933 24.7823 65.7753 24.7799ZM65.7348 14.6288C65.2441 14.6269 64.7581 14.7249 64.3064 14.9169C63.8622 15.1083 63.4583 15.3821 63.1161 15.7239C62.7649 16.0824 62.4846 16.504 62.29 16.9666C62.1518 17.2973 62.0504 17.6422 61.9877 17.995L61.9496 18.2117H69.5676L69.5295 17.995C69.4659 17.6397 69.3587 17.2935 69.2105 16.9642C69.0035 16.5041 68.7157 16.0848 68.3606 15.7263C68.0193 15.3828 67.6152 15.108 67.1703 14.9169C66.7165 14.7238 66.228 14.6258 65.7348 14.6288Z" fill="white"/>
<path d="M78.7731 25.2684H82.2226V15.8673H91.9094V12.6058H82.2226V6.80182H93.6306V3.48322H78.7731V25.2684Z" fill="white"/>
<path d="M115.389 14.432C115.39 15.4211 115.291 16.4079 115.092 17.3768C114.925 18.2426 114.602 19.071 114.139 19.8217C113.715 20.5024 113.123 21.0631 112.42 21.4501C111.706 21.8619 110.754 22.069 109.607 22.069C108.459 22.069 107.54 21.8643 106.831 21.4644C106.127 21.0736 105.528 20.5181 105.086 19.8455C104.614 19.1068 104.288 18.2852 104.124 17.4244C103.925 16.4394 103.825 15.4369 103.826 14.432V3.48102H100.374V14.432C100.372 15.7429 100.516 17.0499 100.803 18.3291C101.08 19.5921 101.593 20.7914 102.315 21.8643C103.059 22.9455 104.056 23.8289 105.219 24.4378C106.409 25.0805 107.904 25.4067 109.64 25.4067C111.306 25.4067 112.763 25.0972 113.939 24.4878C115.09 23.8994 116.081 23.0409 116.827 21.9857C117.568 20.9179 118.097 19.7178 118.386 18.4505C118.696 17.1335 118.85 15.7848 118.846 14.432V3.48102H115.394L115.389 14.432Z" fill="white"/>
<path d="M125.788 6.80182H138.491L125.592 22.7188V25.2684H143.254V21.9498H130.511L143.309 6.0305V3.48322H125.788V6.80182Z" fill="white"/>
<path d="M153.517 21.9498V15.784H163.538V12.5225H153.517V6.80182H164.98V3.48322H150.066V25.2684H165.23V21.9498H153.517Z" fill="white"/>
<path d="M187.924 0.00012207L176.012 15.8861H184.818L175.888 31.8673L195.876 11.9628H187.853L196.659 0.00012207H187.924Z" fill="#72B5F3"/>
<path d="M197.776 6.38023L202.302 0.00012207H197.681L192.981 6.36833L197.776 6.38023Z" fill="#72B5F3"/>
<path d="M201.791 6.38023L206.152 0.00012207H203.295L198.762 6.36833L201.791 6.38023Z" fill="#72B5F3"/>
</svg>
