<svg width="1233" height="308" viewBox="0 0 1233 308" fill="none" xmlns="http://www.w3.org/2000/svg">
<path d="M82.3854 204.414C104.596 204.414 126.473 194.171 126.473 175.358C126.473 159.993 113.838 153.842 89.8991 149.722L65.6304 145.63C32.1469 140.174 10.2702 124.448 10.2702 97.7831C10.2702 71.1186 37.937 46.4854 73.5086 46.4854C110.417 46.4854 138.11 64.6034 144.595 102.905H117.262C111.111 73.1498 89.9029 68.7266 73.5086 68.7266C56.0588 68.7266 36.2398 78.302 36.2398 96.0593C36.2398 109.39 44.7863 115.544 69.7233 121.027C74.5109 122.056 91.2659 125.12 97.0825 126.148C124.776 130.936 153.836 140.512 153.836 176.387C153.836 209.563 120.326 226.986 78.6304 226.986C36.2398 226.986 6.48483 203.048 0 166.812H27.3593C34.873 195.2 59.1418 204.414 82.3854 204.414Z" fill="url(#paint0_linear_13400_1857)"/>
<path d="M73.5088 47.5586C91.7929 47.5586 107.698 52.0462 119.813 61.1885C131.646 70.117 139.957 83.5548 143.314 101.831H118.127C114.915 87.2201 108.027 78.6377 99.7754 73.7344C91.4111 68.7642 81.7812 67.6533 73.5088 67.6533C64.6094 67.6533 55.0829 70.0909 47.748 74.833C40.3959 79.5863 35.166 86.7214 35.166 96.0596C35.166 99.5066 35.7192 102.555 36.9932 105.27C38.2699 107.99 40.2424 110.313 42.9912 112.349C48.443 116.386 57.0131 119.331 69.4932 122.075L69.498 122.076C74.309 123.11 91.0838 126.177 96.8955 127.205L96.8994 127.206C110.724 129.596 124.71 133.158 135.23 140.49C145.672 147.768 152.763 158.804 152.763 176.387C152.763 192.548 144.627 204.879 131.3 213.218C117.933 221.581 99.3493 225.912 78.6309 225.912C37.1868 225.912 8.13387 202.837 1.29395 167.885H26.5391C30.4534 181.912 38.4641 191.3 48.4277 197.183C58.5519 203.16 70.6351 205.487 82.3857 205.487C93.6361 205.487 104.859 202.897 113.308 197.863C121.773 192.82 127.547 185.251 127.547 175.358C127.547 171.365 126.724 167.914 125.062 164.928C123.402 161.943 120.938 159.483 117.745 157.421C111.398 153.321 102.066 150.727 90.0811 148.664H90.0771L65.8086 144.571L65.8027 144.57L64.252 144.309C48.3197 141.529 35.2365 136.371 26.0762 128.831C16.6565 121.078 11.3438 110.778 11.3438 97.7832C11.3438 71.8844 38.341 47.5586 73.5088 47.5586Z" stroke="url(#paint1_linear_13400_1857)" stroke-opacity="0.1" stroke-width="2.14683"/>
<path d="M205.186 51.273V79.3006H217.487C220.244 64.6034 233.574 46.4854 264.666 46.4854C312.178 46.4854 341.929 85.1172 341.929 134.353V139.475C341.929 188.35 312.174 226.982 264.666 226.982C233.574 226.982 219.883 208.864 217.487 194.167H205.186V307.644H177.853V51.273H205.186ZM259.21 203.048C292.693 203.048 313.902 178.779 313.902 139.475V134.353C313.902 95.0266 292.693 70.0859 259.21 70.0859C225.001 70.0859 205.186 95.0228 205.186 134.353V139.475C205.186 178.779 225.005 203.048 259.21 203.048Z" fill="url(#paint2_linear_13400_1857)"/>
<path d="M264.666 47.5586C288.106 47.5586 307.122 57.0783 320.295 72.6494C333.481 88.2368 340.856 109.945 340.856 134.354V139.475C340.856 163.701 333.482 185.319 320.295 200.862C307.121 216.389 288.105 225.909 264.666 225.909C234.086 225.909 220.855 208.158 218.547 193.994L218.4 193.094H204.113V306.57H178.927V52.3467H204.113V80.374H218.379L218.543 79.498C219.88 72.3705 223.785 64.3959 231.142 58.2031C238.488 52.0201 249.339 47.5586 264.666 47.5586ZM259.21 69.0127C241.823 69.0127 227.999 75.3621 218.543 86.7861C209.108 98.1843 204.113 114.521 204.113 134.354V139.475C204.113 159.294 209.109 175.462 218.55 186.691C228.01 197.946 241.834 204.121 259.21 204.121C276.228 204.121 290.211 197.944 299.925 186.702C309.623 175.478 314.975 159.312 314.975 139.475V134.354C314.975 114.506 309.623 98.1691 299.929 86.7764C290.22 75.3649 276.238 69.0127 259.21 69.0127Z" stroke="url(#paint3_linear_13400_1857)" stroke-opacity="0.1" stroke-width="2.14683"/>
<path d="M447.61 92.2963C441.459 73.1456 442.154 71.4484 442.154 61.5124H429.853C429.853 71.4484 430.521 73.4797 424.37 92.2963L383.009 222.194H352.251L408.306 51.2688H463.667L519.752 222.194H488.968L447.61 92.2963Z" fill="url(#paint4_linear_13400_1857)"/>
<path d="M462.889 52.342L518.27 221.12H489.752L448.633 91.9709L448.632 91.968L447.559 88.5803C445.235 81.1309 444.147 76.7627 443.638 73.2932C443.058 69.3336 443.228 66.5393 443.228 61.512V60.4387H428.78V61.512C428.78 66.5366 428.943 69.4166 428.356 73.4182C427.768 77.4236 426.423 82.5624 423.35 91.9631L423.348 91.9709L382.224 221.12H353.733L409.084 52.342H462.889Z" stroke="url(#paint5_linear_13400_1857)" stroke-opacity="0.1" stroke-width="2.14683"/>
<path d="M588.892 198.249V75.1966H549.258V51.2582H616.252V86.4653H628.553C633.675 67.679 660.005 41.3487 694.878 48.1942V78.9515C653.516 66.316 616.248 93.6487 616.248 138.097V198.245H694.18V222.184H536.949V198.245H588.892V198.249Z" fill="url(#paint6_linear_13400_1857)"/>
<path d="M651.173 58.5979C662.362 50.7966 677.057 46.0521 693.805 49.0842V77.5168C673.326 71.683 653.864 75.4723 639.41 86.2571C624.63 97.2854 615.175 115.562 615.175 138.097V199.319H693.106V221.11H538.022V199.319H588.892V198.249H589.966V74.1233H550.332V52.3313H615.179V87.5383H629.373L629.589 86.7473C632.073 77.6351 639.762 66.5536 651.173 58.5979Z" stroke="url(#paint7_linear_13400_1857)" stroke-opacity="0.1" stroke-width="2.14683"/>
<path d="M752.046 51.2674C760.592 51.2674 762.984 48.8754 762.984 40.329V0H790.317V51.2674H875.098V75.2058H790.317V195.528H875.098V222.193H787.257C773.926 222.193 762.988 211.254 762.988 197.924V75.2058H711.022V51.2674H752.046Z" fill="url(#paint8_linear_13400_1857)"/>
<path d="M789.244 1.07324V52.3408H874.025V74.1328H789.244V196.602H874.025V221.119H787.256C774.519 221.119 764.061 210.661 764.061 197.924V74.1328H712.095V52.3408H752.045C756.336 52.3408 759.48 51.7612 761.479 49.7617C763.478 47.7623 764.057 44.6198 764.057 40.3291V1.07324H789.244Z" stroke="url(#paint9_linear_13400_1857)" stroke-opacity="0.1" stroke-width="2.14683"/>
<path d="M986.263 92.2963C980.113 73.1456 980.807 71.4484 980.807 61.5124H968.506C968.506 71.4484 969.174 73.4797 963.023 92.2963L921.662 222.194H890.904L946.959 51.2688H1002.32L1058.41 222.194H1027.62L986.263 92.2963Z" fill="url(#paint10_linear_13400_1857)"/>
<path d="M1001.54 52.342L1056.92 221.12H1028.41L987.286 91.9709L987.285 91.968L986.212 88.5803C983.888 81.1309 982.8 76.7627 982.291 73.2932C981.711 69.3336 981.881 66.5393 981.881 61.512V60.4387H967.433V61.512C967.433 66.5366 967.596 69.4166 967.009 73.4182C966.421 77.4236 965.076 82.5624 962.003 91.9631L962 91.9709L920.877 221.12H892.386L947.737 52.342H1001.54Z" stroke="url(#paint11_linear_13400_1857)" stroke-opacity="0.1" stroke-width="2.14683"/>
<path d="M1102.97 51.273V76.5745H1115.27C1124.18 52.3058 1146.39 46.4854 1163.81 46.4854C1210.29 46.4854 1232.86 76.5745 1232.86 125.811V222.198H1205.53V125.811C1205.53 86.484 1184.32 70.0896 1154.23 70.0896C1119.03 70.0896 1102.97 90.9376 1102.97 130.238V222.198H1075.63V51.273H1102.97Z" fill="url(#paint12_linear_13400_1857)"/>
<path d="M1163.81 47.5586C1186.8 47.5587 1203.74 54.991 1214.94 68.374C1226.18 81.7888 1231.79 101.337 1231.79 125.811V221.125H1206.6V125.811C1206.6 105.96 1201.25 91.7174 1191.92 82.4414C1182.6 73.1679 1169.46 69.0166 1154.23 69.0166C1136.41 69.0167 1123.25 74.3022 1114.57 84.7402C1105.93 95.1393 1101.89 110.469 1101.89 130.237V221.125H1076.71V52.3467H1101.89V77.6475H1116.02L1116.28 76.9443C1124.95 53.3038 1146.57 47.5586 1163.81 47.5586Z" stroke="url(#paint13_linear_13400_1857)" stroke-opacity="0.1" stroke-width="2.14683"/>
<defs>
<linearGradient id="paint0_linear_13400_1857" x1="77.0423" y1="4.77902" x2="77.0423" y2="289.035" gradientUnits="userSpaceOnUse">
<stop/>
<stop offset="1" stop-color="#232424"/>
</linearGradient>
<linearGradient id="paint1_linear_13400_1857" x1="0" y1="136.736" x2="153.836" y2="136.736" gradientUnits="userSpaceOnUse">
<stop stop-color="white"/>
<stop offset="1" stop-color="#999999"/>
</linearGradient>
<linearGradient id="paint2_linear_13400_1857" x1="260.024" y1="-13.8577" x2="260.024" y2="397.419" gradientUnits="userSpaceOnUse">
<stop/>
<stop offset="1" stop-color="#232424"/>
</linearGradient>
<linearGradient id="paint3_linear_13400_1857" x1="177.853" y1="177.065" x2="341.929" y2="177.065" gradientUnits="userSpaceOnUse">
<stop stop-color="white"/>
<stop offset="1" stop-color="#999999"/>
</linearGradient>
<linearGradient id="paint4_linear_13400_1857" x1="436.137" y1="11.7749" x2="436.137" y2="280.951" gradientUnits="userSpaceOnUse">
<stop/>
<stop offset="1" stop-color="#232424"/>
</linearGradient>
<linearGradient id="paint5_linear_13400_1857" x1="352.251" y1="136.731" x2="519.752" y2="136.731" gradientUnits="userSpaceOnUse">
<stop stop-color="white"/>
<stop offset="1" stop-color="#999999"/>
</linearGradient>
<linearGradient id="paint6_linear_13400_1857" x1="616.041" y1="6.62713" x2="616.041" y2="282.375" gradientUnits="userSpaceOnUse">
<stop/>
<stop offset="1" stop-color="#232424"/>
</linearGradient>
<linearGradient id="paint7_linear_13400_1857" x1="536.949" y1="134.634" x2="694.878" y2="134.634" gradientUnits="userSpaceOnUse">
<stop stop-color="white"/>
<stop offset="1" stop-color="#999999"/>
</linearGradient>
<linearGradient id="paint8_linear_13400_1857" x1="793.193" y1="-51.3397" x2="793.193" y2="298.573" gradientUnits="userSpaceOnUse">
<stop/>
<stop offset="1" stop-color="#232424"/>
</linearGradient>
<linearGradient id="paint9_linear_13400_1857" x1="711.022" y1="111.096" x2="875.098" y2="111.096" gradientUnits="userSpaceOnUse">
<stop stop-color="white"/>
<stop offset="1" stop-color="#999999"/>
</linearGradient>
<linearGradient id="paint10_linear_13400_1857" x1="974.79" y1="11.7749" x2="974.79" y2="280.951" gradientUnits="userSpaceOnUse">
<stop/>
<stop offset="1" stop-color="#232424"/>
</linearGradient>
<linearGradient id="paint11_linear_13400_1857" x1="890.904" y1="136.731" x2="1058.41" y2="136.731" gradientUnits="userSpaceOnUse">
<stop stop-color="white"/>
<stop offset="1" stop-color="#999999"/>
</linearGradient>
<linearGradient id="paint12_linear_13400_1857" x1="1154.38" y1="5.88524" x2="1154.38" y2="282.601" gradientUnits="userSpaceOnUse">
<stop/>
<stop offset="1" stop-color="#232424"/>
</linearGradient>
<linearGradient id="paint13_linear_13400_1857" x1="1075.63" y1="134.342" x2="1232.86" y2="134.342" gradientUnits="userSpaceOnUse">
<stop stop-color="white"/>
<stop offset="1" stop-color="#999999"/>
</linearGradient>
</defs>
</svg>
