<svg width="13" height="15" viewBox="0 0 13 15" fill="none" xmlns="http://www.w3.org/2000/svg">
<path d="M6.58103 12.5192C8.35526 12.5192 10.1028 11.7071 10.1028 10.2158C10.1028 8.99781 9.09346 8.51024 7.18123 8.18368L5.24262 7.85924C2.56793 7.42675 0.820392 6.18013 0.820392 4.06641C0.820392 1.9527 3.03044 0 5.87194 0C8.8202 0 11.0324 1.43623 11.5504 4.47242H9.36702C8.8757 2.11371 7.18154 1.76308 5.87194 1.76308C4.47803 1.76308 2.89487 2.52213 2.89487 3.92977C2.89487 4.98647 3.57757 5.47435 5.56956 5.90895C5.95201 5.99051 7.29042 6.2334 7.75505 6.31496C9.96723 6.69448 12.2886 7.45353 12.2886 10.2974C12.2886 12.9273 9.61178 14.3084 6.28108 14.3084C2.89488 14.3084 0.518014 12.4108 0 9.53835H2.18549C2.78569 11.7887 4.7243 12.5192 6.58103 12.5192Z" fill="white"/>
</svg>
