<svg width="14" height="21" viewBox="0 0 14 21" fill="none" xmlns="http://www.w3.org/2000/svg">
<path d="M2.18337 0.379524V2.60129H3.16602C3.3862 1.43623 4.45104 0 6.93466 0C10.73 0 13.1066 3.06238 13.1066 6.96536V7.37137C13.1066 11.2458 10.7297 14.3081 6.93466 14.3081C4.45104 14.3081 3.35739 12.8719 3.16602 11.7068H2.18337V20.7022H0V0.379524H2.18337ZM6.49884 12.4108C9.17353 12.4108 10.8677 10.487 10.8677 7.37137V6.96536C10.8677 3.84791 9.17353 1.87083 6.49884 1.87083C3.76622 1.87083 2.18337 3.84761 2.18337 6.96536V7.37137C2.18337 10.487 3.76653 12.4108 6.49884 12.4108Z" fill="white"/>
</svg>
