<svg width="18" height="18" viewBox="0 0 18 18" fill="none" xmlns="http://www.w3.org/2000/svg">
<path d="M9.36089 5.76729C9.48219 5.56829 9.4676 5.31499 9.32427 5.13123L5.32179 0H13.0366C13.2939 0 13.537 0.117873 13.6963 0.319877L17.1232 4.66455C17.4132 5.03225 17.4439 5.54155 17.2002 5.94143L13.7266 11.6404C13.574 11.8906 13.3022 12.0433 13.0091 12.0433H10.857L14.6818 5.76823C14.8033 5.56877 14.7884 5.3148 14.6442 5.131L12.3772 2.24061H9.90336L11.8049 4.66502C12.0932 5.03263 12.1231 5.54056 11.88 5.93949L8.00379 12.2988C7.88289 12.4972 7.89696 12.7496 8.03917 12.9333L11.9036 17.9249H4.19063C3.9323 17.9249 3.68832 17.8061 3.52906 17.6027L0.23822 13.3997C-0.0495845 13.0321 -0.0792775 12.5246 0.163699 12.1259L3.55346 6.5646C3.70598 6.31437 3.97786 6.16168 4.27092 6.16168H6.42307L2.68369 12.2966C2.56212 12.4961 2.57708 12.75 2.72124 12.9338L4.87846 15.6843H7.35235L5.5606 13.3998C5.27229 13.0322 5.24236 12.5243 5.48551 12.1253L9.36089 5.76729Z" fill="white"/>
</svg>
