<svg width="57" height="21" viewBox="0 0 57 21" fill="none" xmlns="http://www.w3.org/2000/svg">
<path d="M44.8024 0V15.869H48.262V11.8743L52.0678 15.8685H56.7392V15.6815L51.7216 10.5929L56.4556 6.22772V6.0615H51.8927L48.262 9.59867V0.000443011L44.8024 0ZM37.8774 5.69981C37.0217 5.69981 36.2344 5.83308 35.5158 6.09963C34.7955 6.36646 34.1758 6.73525 33.651 7.19757C33.1342 7.65614 32.7169 8.21583 32.425 8.84204C32.1327 9.47501 31.9867 10.1544 31.987 10.8801C31.9867 11.6842 32.1327 12.4138 32.425 13.0689C32.7088 13.7112 33.1233 14.2872 33.6421 14.7604C34.1585 15.2316 34.7711 15.5968 35.4861 15.8512C36.2012 16.1062 36.9792 16.2339 37.8202 16.2342C38.6734 16.2339 39.4675 16.1062 40.2027 15.8512C40.9356 15.5971 41.5629 15.2364 42.0848 14.7692C42.6068 14.3058 43.0271 13.7392 43.3193 13.1053C43.6189 12.4612 43.7696 11.7533 43.7696 10.9719C43.7696 10.1962 43.6225 9.48299 43.3317 8.84071C43.0394 8.20639 42.6177 7.6402 42.0937 7.17851C41.565 6.71457 40.9405 6.35213 40.22 6.0912C39.4999 5.82998 38.719 5.69951 37.8774 5.69981ZM16.4523 5.79156C15.7372 5.79156 15.0775 5.92897 14.4731 6.20379C13.8797 6.4701 13.3462 6.85349 12.9045 7.33099C12.4648 7.81059 12.1186 8.3682 11.8642 9.01535C11.6082 9.65807 11.4806 10.3559 11.4812 11.1088C11.4812 11.8482 11.5991 12.5202 11.8345 13.1296C12.0716 13.7338 12.4009 14.2533 12.8265 14.6859C13.2609 15.1226 13.7785 15.4677 14.3486 15.701C14.9358 15.9433 15.5794 16.0644 16.2794 16.0644C16.5959 16.0644 16.8902 16.0418 17.1571 15.9966C17.4197 15.9523 17.6765 15.8786 17.9226 15.7768C18.1735 15.6687 18.4138 15.5377 18.6406 15.3854C18.901 15.2043 19.1466 15.0029 19.3751 14.783V17.3539H19.3733V17.6034H16.1336L13.6992 20.3445V20.8152H22.8365V6.06106H19.3747V7.09296C18.5874 6.22728 17.6105 5.79112 16.4523 5.79112V5.79156ZM5.09211 6.04954L3.46093 7.90899V6.08721H0V15.8982H3.46137V9.2782H6.71132L6.98126 9.27288V15.896H10.4426V9.75958C10.4426 9.23654 10.3924 8.77082 10.2919 8.36244C10.1901 7.95281 9.99386 7.57269 9.7188 7.25253C9.53651 7.04024 9.33087 6.84917 9.10578 6.68295C8.9059 6.53672 8.69193 6.41081 8.46705 6.30707C8.35419 6.25692 8.23845 6.21355 8.12042 6.17719C7.93684 6.12106 7.74945 6.07825 7.55971 6.04909L5.09211 6.04954ZM24.2753 6.0615V15.8721H27.7451L27.7486 9.30657H30.2663L33.0154 6.19847V6.0615H29.2415L27.7402 7.75163V6.0615H24.2753ZM17.3113 8.7002C17.6056 8.7002 17.8875 8.75782 18.1632 8.87351C18.4315 8.98281 18.6752 9.14467 18.88 9.34957C19.0861 9.55568 19.2452 9.78927 19.3698 10.0561C19.4909 10.3232 19.5515 10.617 19.5515 10.9373C19.5503 11.2367 19.4872 11.5327 19.3662 11.8065C19.2497 12.0709 19.0887 12.3133 18.8902 12.5233C18.6912 12.7276 18.4558 12.8854 18.1836 13.0015C17.9085 13.1164 17.613 13.1746 17.3149 13.1726C17.0097 13.1763 16.7069 13.1181 16.4248 13.0015C16.1588 12.8917 15.9178 12.729 15.7165 12.5233C15.5166 12.3158 15.3574 12.0727 15.2471 11.8065C15.1305 11.5244 15.0723 11.2217 15.076 10.9165C15.0754 10.6097 15.1354 10.323 15.2559 10.0561C15.3725 9.79405 15.5389 9.55711 15.7457 9.35843C15.9521 9.16021 16.1911 8.99916 16.4523 8.88238C16.722 8.76013 17.0152 8.69812 17.3113 8.70064V8.7002ZM37.8792 8.7002C38.1777 8.69824 38.4735 8.75721 38.7484 8.87351C39.0148 8.98067 39.2556 9.1429 39.455 9.34957C39.654 9.55568 39.8096 9.79459 39.9328 10.0681C40.0534 10.3408 40.1134 10.6306 40.1128 10.9373C40.1157 11.2422 40.0543 11.5442 39.9328 11.8238C39.8158 12.0885 39.6541 12.3311 39.455 12.541C39.2541 12.7463 39.0138 12.9089 38.7484 13.0188C38.4732 13.1345 38.1855 13.1917 37.8792 13.1917C37.5802 13.1934 37.2839 13.1346 37.0082 13.0188C36.7422 12.9099 36.5017 12.747 36.3017 12.5406C36.1026 12.3367 35.9453 12.0973 35.8238 11.8238C35.7033 11.5508 35.6433 11.2483 35.6439 10.9165C35.6433 10.6097 35.7033 10.323 35.8238 10.0561C35.9411 9.79479 36.1028 9.55575 36.3017 9.34957C36.5011 9.14567 36.7347 8.9861 37.0082 8.87351C37.2839 8.75772 37.5802 8.69892 37.8792 8.70064V8.7002Z" fill="white"/>
</svg>
