<svg width="36" height="24" viewBox="0 0 36 24" fill="none" xmlns="http://www.w3.org/2000/svg">
<path d="M15.6355 0.312228H18.0933V4.55533H11.4484V23.4331L11.2723 23.4812C11.0321 23.5452 7.86977 23.5452 7.18927 23.4732L6.64487 23.4251V4.55533H0V0.312228L2.10554 0.28821C3.25839 0.272198 6.22056 0.272198 8.68637 0.28821C11.1522 0.304222 14.2745 0.312228 15.6355 0.312228V0.312228ZM34.3932 21.4317C33.4165 22.4644 32.3677 23.0409 30.6225 23.5132C29.8619 23.7214 29.7338 23.7294 28.0206 23.7214C26.3073 23.7134 26.1712 23.7133 25.3386 23.4972C23.185 22.9448 21.4477 21.864 20.2629 20.3349C19.9266 19.9026 19.3742 19.0059 19.3742 18.8938C19.3742 18.8618 19.4543 18.7897 19.5583 18.7417C19.6624 18.6937 19.8786 18.5576 20.0547 18.4535C20.2308 18.3494 20.5511 18.1573 20.7672 18.0452C20.9834 17.9331 21.6079 17.5649 22.1522 17.2366C22.6966 16.9084 23.193 16.6442 23.2491 16.6442C23.3051 16.6442 23.4092 16.7563 23.4892 16.8924C23.9696 17.701 25.0904 18.7337 25.883 19.086C26.3713 19.2941 27.4521 19.5263 27.9725 19.5263C28.4529 19.5263 29.3335 19.3181 29.8059 19.102C30.3102 18.8698 30.5664 18.6376 30.8706 18.1733C31.0788 17.8451 31.1028 17.757 31.0948 17.1325C31.0948 16.5561 31.0628 16.396 30.9027 16.1318C30.4543 15.3953 29.8459 15.011 27.3801 13.9222C24.8342 12.7934 23.6894 12.1209 22.7607 11.2162C22.0722 10.5437 21.9361 10.3596 21.5038 9.51896C20.9434 8.43817 20.8713 8.08592 20.8633 6.47674C20.8553 5.34791 20.8793 4.97964 20.9994 4.59536C21.1675 4.01894 21.7119 2.90613 21.9601 2.62592C22.4725 2.02548 22.6566 1.84135 23.0169 1.54513C24.1057 0.648473 25.8029 0.056041 27.4281 0C27.6123 0 28.2207 0.0320229 28.7891 0.0720522C30.4223 0.208152 31.5351 0.608444 32.6079 1.46507C33.4165 2.10554 34.6414 3.61064 34.5213 3.81079C34.4413 3.93088 31.2469 6.06043 31.0388 6.12448C30.9107 6.16451 30.8226 6.11647 30.6465 5.90832C29.5577 4.60337 29.1174 4.32316 28.0606 4.25911C27.308 4.21108 26.9077 4.29914 26.4034 4.63539C25.875 4.98765 25.6188 5.52404 25.6188 6.26859C25.6268 7.35738 26.0431 7.86976 27.5802 8.63031C28.573 9.11867 29.4216 9.51896 29.4856 9.51896C29.5817 9.51896 31.6392 10.5437 32.1756 10.8639C34.6734 12.329 35.6902 13.8341 35.9544 16.428C36.1465 18.3814 35.5941 20.1668 34.3932 21.4317V21.4317Z" fill="white"/>
</svg>
