<svg width="37" height="40" viewBox="0 0 37 40" fill="none" xmlns="http://www.w3.org/2000/svg">
<path d="M10.3276 29.8755H26.5889C27.9641 29.8755 29.0829 28.7567 29.0829 27.3815V12.4526C29.0829 11.0773 27.9641 9.95851 26.5889 9.95851H10.3276C8.9524 9.95851 7.83357 11.0773 7.83357 12.4526V27.3814C7.83357 28.7567 8.9524 29.8755 10.3276 29.8755ZM26.5889 28.8779H10.3276C9.50249 28.8779 8.83119 28.2066 8.83119 27.3815V16.002H28.0853V27.3814C28.0853 28.2066 27.414 28.8779 26.5889 28.8779ZM10.3276 10.9561H26.5889C27.414 10.9561 28.0853 11.6274 28.0853 12.4526V15.0044H8.83119V12.4526C8.83119 11.6274 9.50249 10.9561 10.3276 10.9561Z" fill="url(#paint0_linear_13400_767)"/>
<path d="M19.2133 22.5191C19.2136 22.3816 19.1571 22.25 19.0572 22.1556L15.7796 19.057C15.5794 18.8677 15.2637 18.8766 15.0745 19.0768C14.8852 19.277 14.8941 19.5927 15.0943 19.7819L17.9867 22.5165L15.0958 25.2259C14.8948 25.4143 14.8846 25.73 15.073 25.931C15.1712 26.0358 15.3039 26.0887 15.437 26.0887C15.5593 26.0887 15.6818 26.044 15.778 25.9539L19.0556 22.882C19.1559 22.788 19.213 22.6566 19.2133 22.5191Z" fill="url(#paint1_linear_13400_767)"/>
<path d="M25.1342 25.1433H18.9372C18.6617 25.1433 18.4384 25.3666 18.4384 25.6421C18.4384 25.9176 18.6617 26.1409 18.9372 26.1409H25.1342C25.4097 26.1409 25.6331 25.9176 25.6331 25.6421C25.6331 25.3666 25.4097 25.1433 25.1342 25.1433Z" fill="url(#paint2_linear_13400_767)"/>
<defs>
<linearGradient id="paint0_linear_13400_767" x1="18.4582" y1="31.8672" x2="18.4582" y2="7.96681" gradientUnits="userSpaceOnUse">
<stop stop-color="#6CFF80"/>
<stop offset="0.5" stop-color="#95D3FF"/>
<stop offset="1" stop-color="#9A28F8"/>
</linearGradient>
<linearGradient id="paint1_linear_13400_767" x1="17.0757" y1="26.8055" x2="17.0757" y2="18.2038" gradientUnits="userSpaceOnUse">
<stop stop-color="#6CFF80"/>
<stop offset="0.5" stop-color="#95D3FF"/>
<stop offset="1" stop-color="#9A28F8"/>
</linearGradient>
<linearGradient id="paint2_linear_13400_767" x1="22.0357" y1="26.2407" x2="22.0357" y2="25.0435" gradientUnits="userSpaceOnUse">
<stop stop-color="#6CFF80"/>
<stop offset="0.5" stop-color="#95D3FF"/>
<stop offset="1" stop-color="#9A28F8"/>
</linearGradient>
</defs>
</svg>
