<svg width="52" height="52" viewBox="0 0 52 52" fill="none" xmlns="http://www.w3.org/2000/svg">
<path d="M47.3647 39.6287C44.5669 39.5579 42.3985 39.842 40.5799 40.6229C40.0552 40.8357 39.2158 40.8359 39.1458 41.5105C39.4256 41.7945 39.4606 42.2561 39.7055 42.6464C40.1256 43.3563 40.8595 44.3149 41.5241 44.8122C42.2584 45.3801 42.9931 45.9479 43.7622 46.445C45.1263 47.2971 46.6653 47.794 47.9943 48.6461C48.764 49.1427 49.5328 49.7822 50.3023 50.3146C50.6871 50.5982 50.9317 51.0602 51.4216 51.2375V51.1312C51.1766 50.8114 51.1066 50.3501 50.862 49.995C50.5126 49.64 50.1624 49.3205 49.8127 48.9654C48.7985 47.5811 47.5395 46.374 46.1756 45.3801C45.0566 44.599 42.6082 43.534 42.1537 42.2204C42.1537 42.2204 42.1185 42.1851 42.0837 42.1496C42.853 42.0785 43.7622 41.7945 44.4969 41.5815C45.686 41.2617 46.7701 41.333 47.9943 41.0134C48.5537 40.8714 49.1133 40.6939 49.6728 40.5164V40.197C49.0436 39.5579 48.5889 38.706 47.9243 38.1025C46.1407 36.54 44.1819 35.0138 42.1537 33.7358C41.0694 33.0257 39.6703 32.5642 38.5162 31.9608C38.0969 31.7476 37.3972 31.6412 37.1525 31.2862C36.5227 30.5053 36.173 29.4759 35.7185 28.5528C34.7045 26.6 33.725 24.4346 32.8505 22.3758C32.2214 20.9911 31.8366 19.6064 31.0671 18.3287C27.4649 12.2935 23.5478 8.63697 17.5325 5.05122C16.2384 4.30582 14.6996 3.98628 13.0559 3.59594C12.1818 3.56023 11.3072 3.48942 10.433 3.45372C9.87334 3.20518 9.31371 2.5308 8.82403 2.21126C6.83093 0.9331 1.68949 -1.83564 0.220644 1.82092C-0.723739 4.1283 1.61973 6.40018 2.42381 7.57204C3.01882 8.38844 3.78792 9.31135 4.20764 10.2345C4.45248 10.8376 4.52224 11.4771 4.76708 12.116C5.32691 13.6776 5.85117 15.4175 6.58589 16.8732C6.97064 17.6186 7.39016 18.3995 7.87984 19.0741C8.15966 19.4644 8.64914 19.6421 8.75427 20.281C8.26479 20.9911 8.22962 22.0562 7.9496 22.9437C6.69062 26.9553 7.1805 31.9253 8.96394 34.8717C9.52337 35.759 10.8525 37.7121 12.6361 36.9663C14.2101 36.3274 13.8603 34.3039 14.3146 32.5289C14.42 32.1024 14.35 31.8188 14.5597 31.5347V31.6059C15.0494 32.5997 15.5388 33.5585 15.9935 34.5524C17.0778 36.2917 18.9662 38.1025 20.54 39.3096C21.3796 39.9483 22.044 41.0489 23.0933 41.4395V41.3328H23.0232C22.8133 41.0132 22.4985 40.8714 22.2189 40.6227C21.5895 39.984 20.8897 39.2029 20.4003 38.4928C18.9316 36.5045 17.6373 34.3037 16.4832 32.0316C15.9238 30.9314 15.4339 29.7242 14.9794 28.6238C14.7693 28.1973 14.7693 27.5586 14.4198 27.3458C13.8951 28.1267 13.1258 28.8013 12.7411 29.7597C12.0769 31.2862 12.0067 33.1677 11.7619 35.1201C11.622 35.156 11.6918 35.1201 11.6218 35.1915C10.5029 34.907 10.1182 33.7358 9.69826 32.7417C8.64894 30.2213 8.47405 26.1742 9.38366 23.2632C9.6285 22.5176 10.6778 20.1747 10.2581 19.4646C10.0482 18.79 9.34848 18.3995 8.96394 17.8671C8.50943 17.1925 8.01955 16.3408 7.70496 15.595C6.86551 13.607 6.44578 11.4059 5.53657 9.41786C5.11685 8.49475 4.38273 7.53653 3.78792 6.68442C3.12355 5.726 2.38903 5.05122 1.86437 3.91527C1.68969 3.52493 1.44464 2.88585 1.72446 2.45979C1.79442 2.17576 1.93412 2.06945 2.21414 1.99844C2.66885 1.60769 3.963 2.10475 4.4173 2.31778C5.71146 2.84994 6.79555 3.34741 7.87984 4.0928C8.36932 4.44784 8.89398 5.12243 9.52337 5.29995H10.2579C11.3772 5.54828 12.6359 5.37096 13.6853 5.6903C15.539 6.29367 17.2175 7.18128 18.7216 8.1399C23.3032 11.0864 27.0799 15.2755 29.6332 20.281C30.053 21.0972 30.2277 21.8432 30.6124 22.6949C31.3471 24.4346 32.2563 26.2097 32.9904 27.9137C33.725 29.582 34.4243 31.2862 35.4736 32.6709C35.9983 33.4161 38.0965 33.8068 39.0409 34.1974C39.7404 34.5167 40.8247 34.8009 41.4541 35.1913C42.6431 35.9365 43.8322 36.789 44.9514 37.6052C45.5111 38.0312 47.2595 38.9189 47.3647 39.6287V39.6287Z" fill="#00546B"/>
</svg>
