<svg width="60" height="12" viewBox="0 0 60 12" fill="none" xmlns="http://www.w3.org/2000/svg">
<g clip-path="url(#clip0_13400_1076)">
<path d="M39.317 0.00421143H49.6188V1.90564H45.5322V11.9088H43.4887V1.90564H39.317V0.00421143Z" fill="white"/>
<path d="M22.3748 0.00421143V1.90564H14.1173V4.96446H20.758V6.86589H14.1173V10.0074H22.3748V11.9088H12.074V1.90564H12.0731V0.00421143H22.3748Z" fill="white"/>
<path d="M27.5177 0.00860596H24.8436L34.4215 11.9132H37.1034L32.3138 5.965L37.0957 0.0176884L34.4215 0.0218209L30.975 4.30228L27.5177 0.00860596Z" fill="white"/>
<path d="M30.2617 8.5137L28.9225 6.84869L24.8359 11.9239H27.5177L30.2617 8.5137Z" fill="white"/>
<path fill-rule="evenodd" clip-rule="evenodd" d="M12.1452 11.9094L2.55438 -0.000183105H0.000244141V11.9044H2.04355V2.54442L9.57826 11.9094H12.1452Z" fill="white"/>
<path d="M50.078 11.8366C49.9283 11.8366 49.801 11.7848 49.6944 11.6811C49.5879 11.5774 49.5352 11.4519 49.5365 11.3032C49.5352 11.1586 49.5879 11.0344 49.6944 10.9307C49.801 10.8271 49.9283 10.7752 50.078 10.7752C50.2219 10.7752 50.3479 10.8271 50.4544 10.9307C50.5625 11.0344 50.6164 11.1586 50.6179 11.3032C50.6164 11.4014 50.5915 11.4914 50.5417 11.5719C50.4905 11.6538 50.4255 11.7179 50.3437 11.7643C50.2634 11.8121 50.1748 11.8366 50.078 11.8366Z" fill="white"/>
<path d="M53.5647 6.82233H54.4702V10.3108C54.4689 10.6314 54.3995 10.9056 54.264 11.1362C54.1269 11.3667 53.9372 11.5427 53.6935 11.6669C53.4513 11.7896 53.1674 11.8524 52.8448 11.8524C52.5499 11.8524 52.2855 11.7992 52.0501 11.6955C51.8148 11.5918 51.6279 11.4363 51.4908 11.2317C51.3523 11.027 51.2844 10.7719 51.2844 10.4663H52.1914C52.1927 10.6 52.2232 10.716 52.2813 10.8128C52.3394 10.9097 52.4197 10.9833 52.5222 11.0352C52.626 11.087 52.7451 11.113 52.8793 11.113C53.0248 11.113 53.1494 11.0829 53.2504 11.0215C53.3514 10.9615 53.429 10.8715 53.4831 10.7514C53.5356 10.6327 53.5634 10.4854 53.5647 10.3108V6.82233Z" fill="white"/>
<path d="M58.1972 8.18533C58.1752 7.97387 58.0782 7.80879 57.9093 7.69147C57.739 7.57278 57.5189 7.51411 57.2488 7.51411C57.0593 7.51411 56.8959 7.54277 56.7602 7.5987C56.6245 7.656 56.5193 7.73239 56.4473 7.82925C56.3754 7.92612 56.3393 8.03663 56.3365 8.16079C56.3365 8.26447 56.3614 8.3545 56.4099 8.42954C56.4584 8.50593 56.5234 8.57006 56.6079 8.62191C56.6909 8.67511 56.7837 8.71876 56.8848 8.75423C56.9872 8.7897 57.0897 8.81972 57.1921 8.84428L57.6642 8.96024C57.8539 9.00389 58.0381 9.06257 58.2139 9.1376C58.3897 9.21127 58.5489 9.3054 58.6887 9.41863C58.8286 9.53187 58.9394 9.66829 59.021 9.82792C59.1027 9.98753 59.1443 10.1744 59.1443 10.39C59.1443 10.6806 59.0695 10.9357 58.9185 11.1567C58.7677 11.3763 58.5503 11.5483 58.2651 11.6724C57.9812 11.7952 57.6379 11.8579 57.2337 11.8579C56.8432 11.8579 56.5027 11.7979 56.2161 11.6779C55.9282 11.5592 55.7038 11.3845 55.5418 11.1553C55.3798 10.9262 55.2926 10.6465 55.2802 10.3177H56.1774C56.1898 10.4896 56.2452 10.6328 56.3393 10.7488C56.4348 10.8634 56.5594 10.948 56.7118 11.0053C56.8655 11.0612 57.037 11.0899 57.2268 11.0899C57.4248 11.0899 57.5992 11.0598 57.7501 11.0012C57.8996 10.9425 58.0173 10.8607 58.1018 10.7543C58.1876 10.6492 58.2306 10.5251 58.2319 10.3832C58.2306 10.2536 58.1917 10.1458 58.1169 10.0612C58.0408 9.97662 57.9356 9.90568 57.8012 9.84838C57.6657 9.79108 57.5078 9.73924 57.3278 9.69422L56.7547 9.5496C56.3407 9.44455 56.0125 9.28494 55.773 9.07075C55.5322 8.85656 55.413 8.57279 55.413 8.21672C55.413 7.92477 55.4933 7.66829 55.6554 7.44863C55.8159 7.22899 56.0361 7.05845 56.3144 6.93703C56.5941 6.81426 56.9097 6.75421 57.2613 6.75421C57.6186 6.75421 57.9314 6.81426 58.2014 6.93703C58.4713 7.05845 58.6833 7.22763 58.8369 7.44317C58.9906 7.65873 59.0709 7.90566 59.0751 8.18533H58.1972Z" fill="white"/>
</g>
<defs>
<clipPath id="clip0_13400_1076">
<rect width="59.1433" height="12.0088" fill="white"/>
</clipPath>
</defs>
</svg>
