<svg width="24" height="24" viewBox="0 0 24 24" fill="none" xmlns="http://www.w3.org/2000/svg">
<path d="M13.2977 3.31592C16.5578 1.66192 19.3852 1.55572 20.8632 3.0337L20.868 3.0376C22.624 4.79276 22.1013 8.28061 19.8339 11.9546C22.1013 15.627 22.6231 19.1166 20.868 20.8716C20.1749 21.5647 19.1837 21.9087 17.993 21.9087C16.6338 21.9087 15.0083 21.4612 13.2626 20.5689C13.0301 20.4502 12.9379 20.1627 13.0565 19.9302C13.1752 19.698 13.4618 19.6057 13.6942 19.7241C16.588 21.2002 19.0185 21.3794 20.1971 20.2007C21.5412 18.8552 21.0527 15.9597 19.245 12.8521C18.436 14.0243 17.4612 15.1983 16.327 16.3325C15.5727 17.0868 14.7755 17.7915 13.9637 18.4253C13.8759 18.4917 13.7743 18.5248 13.6727 18.5249C13.531 18.5249 13.3904 18.4637 13.2977 18.3423C13.1367 18.1366 13.1751 17.8375 13.3817 17.6763C14.1618 17.0666 14.9279 16.3879 15.6561 15.6597C16.8467 14.4672 17.8674 13.2026 18.6883 11.9526C17.8693 10.7008 16.8496 9.43812 15.6561 8.24463C14.9927 7.58029 14.2945 6.95719 13.5829 6.39014C13.3763 6.22704 13.3437 5.92698 13.5077 5.72315C13.6708 5.51689 13.97 5.48405 14.1737 5.64795C14.9111 6.23625 15.6377 6.88355 16.3251 7.57374C17.4592 8.70788 18.4369 9.88488 19.243 11.0542C21.0507 7.94664 21.5404 5.05112 20.1952 3.70557C19.0202 2.53339 16.6046 2.70507 13.7274 4.16358C13.4921 4.28182 13.2083 4.18701 13.0897 3.9546C12.9711 3.71923 13.0651 3.43453 13.2977 3.31592ZM3.0321 3.02881C4.50739 1.55107 7.33502 1.65904 10.5966 3.31202C10.8309 3.43057 10.9239 3.71533 10.8055 3.94971C10.6869 4.18415 10.4013 4.27731 10.1669 4.1587C7.2888 2.70022 4.87228 2.52861 3.70007 3.70069C2.35559 5.04588 2.84362 7.94149 4.65124 11.0493C5.46023 9.87715 6.43507 8.703 7.56921 7.56885C8.25675 6.88039 8.98396 6.23148 9.72155 5.64307C9.92542 5.47913 10.2236 5.51541 10.3876 5.71924C10.5513 5.9231 10.5152 6.22132 10.3114 6.38526C9.59997 6.95218 8.90334 7.57558 8.23913 8.23975C7.04847 9.43224 6.02789 10.6977 5.2069 11.9478C6.02598 13.1995 7.04569 14.4613 8.23913 15.6548C8.96743 16.3831 9.73335 17.0617 10.5135 17.6714C10.7202 17.8326 10.7578 18.1308 10.5966 18.3374C10.502 18.4579 10.3652 18.52 10.2225 18.52C10.1206 18.52 10.0186 18.489 9.93054 18.4204C9.11888 17.7866 8.32525 17.0819 7.56823 16.3276C6.43398 15.1934 5.45545 14.0166 4.64929 12.8472C2.84145 15.9549 2.35265 18.8513 3.69812 20.1968C4.8769 21.3725 7.30649 21.1943 10.2001 19.7192L10.2059 19.7153C10.4385 19.5949 10.726 19.6888 10.8446 19.9214C10.9631 20.154 10.8701 20.4415 10.6376 20.5601C8.88904 21.4515 7.26647 21.8999 5.9071 21.8999C4.71367 21.8999 3.72521 21.5559 3.0321 20.8628C1.27608 19.1076 1.79882 15.6198 4.06628 11.9458C1.79882 8.27345 1.27707 4.78384 3.0321 3.02881ZM11.9462 7.56788C12.1592 7.56796 12.3476 7.70803 12.4042 7.91456C13.0399 10.2087 13.4803 10.7477 15.3426 11.5112C15.5206 11.5854 15.6366 11.7589 15.6366 11.9507C15.6364 12.1432 15.5204 12.316 15.3426 12.3892C13.4803 13.1527 13.0426 13.6898 12.4042 15.9858C12.3476 16.1896 12.1592 16.3324 11.9462 16.3325C11.7331 16.3325 11.5447 16.1924 11.4882 15.9858C10.8524 13.6916 10.4112 13.1527 8.5487 12.3892C8.37106 12.315 8.25495 12.1422 8.25476 11.9507C8.25476 11.758 8.37091 11.5845 8.5487 11.5112C10.4113 10.7476 10.8497 10.2107 11.4882 7.91456C11.5447 7.71081 11.7331 7.56788 11.9462 7.56788Z" fill="url(#paint0_linear_13400_753)"/>
<defs>
<linearGradient id="paint0_linear_13400_753" x1="11.9501" y1="23.9004" x2="11.9501" y2="0.000124787" gradientUnits="userSpaceOnUse">
<stop stop-color="#6CFF80"/>
<stop offset="0.5" stop-color="#95D3FF"/>
<stop offset="1" stop-color="#9A28F8"/>
</linearGradient>
</defs>
</svg>
