<svg width="57" height="41" viewBox="0 0 57 41" fill="none" xmlns="http://www.w3.org/2000/svg">
<path d="M55.4883 15.1809C55.3363 15.0602 53.9174 13.9889 50.9252 13.9889C50.1351 13.9923 49.3467 14.0601 48.5675 14.1915C47.9884 10.2221 44.7066 8.28675 44.5595 8.19993L43.756 7.73657L43.2275 8.49914C42.5657 9.52351 42.0826 10.6527 41.799 11.8388C41.2633 14.1047 41.5891 16.233 42.7401 18.0525C41.3502 18.827 39.1205 19.0177 38.6693 19.0346H1.75423C0.79002 19.0359 0.00760896 19.8151 0.0023542 20.7792C-0.0407035 24.0132 0.507204 27.2278 1.6191 30.2649C2.89075 33.5998 4.78262 36.0563 7.24397 37.5597C10.0021 39.2488 14.4832 40.214 19.5626 40.214C21.8573 40.2212 24.1477 40.0136 26.4037 39.5939C29.5398 39.018 32.5575 37.9219 35.332 36.3507C37.6182 35.0268 39.6757 33.3426 41.4251 31.3629C44.3497 28.0521 46.092 24.3649 47.3877 21.0881H47.9041C51.1062 21.0881 53.0754 19.8067 54.1612 18.7329C54.8828 18.0481 55.4462 17.2138 55.8118 16.2885L56.041 15.6177L55.4883 15.1809Z" fill="#2496ED"/>
<path d="M5.17581 17.953H10.1226C10.3612 17.953 10.5545 17.7596 10.5545 17.5211V13.1148C10.5558 12.8762 10.3635 12.6818 10.125 12.6804C10.1242 12.6804 10.1234 12.6804 10.1226 12.6804H5.17581C4.93723 12.6804 4.7439 12.8738 4.7439 13.1123V13.1148V17.521C4.7439 17.7596 4.93723 17.953 5.17581 17.953V17.953Z" fill="#2496ED"/>
<path d="M11.992 17.953H16.9388C17.1774 17.953 17.3707 17.7596 17.3707 17.5211V13.1148C17.3721 12.8762 17.1797 12.6818 16.9412 12.6804C16.9404 12.6804 16.9395 12.6804 16.9387 12.6804H11.992C11.752 12.6804 11.5576 12.8748 11.5576 13.1148V17.521C11.559 17.76 11.7531 17.953 11.992 17.953" fill="#2496ED"/>
<path d="M18.9132 17.953H23.86C24.0985 17.953 24.2919 17.7596 24.2919 17.5211V13.1148C24.2932 12.8762 24.1009 12.6818 23.8623 12.6804C23.8615 12.6804 23.8607 12.6804 23.8599 12.6804H18.9131C18.6745 12.6804 18.4812 12.8738 18.4812 13.1123V13.1148V17.521C18.4813 17.7596 18.6747 17.953 18.9132 17.953V17.953Z" fill="#2496ED"/>
<path d="M25.7521 17.953H30.6989C30.9378 17.953 31.1319 17.7601 31.1332 17.5211V13.1148C31.1332 12.8748 30.9388 12.6804 30.6989 12.6804H25.7521C25.5135 12.6804 25.3202 12.8738 25.3202 13.1123V13.1148V17.521C25.3202 17.7596 25.5136 17.953 25.7521 17.953V17.953Z" fill="#2496ED"/>
<path d="M11.992 11.6138H16.9387C17.1776 11.6125 17.3706 11.4184 17.3706 11.1795V6.77322C17.3706 6.53464 17.1772 6.34131 16.9387 6.34131H11.992C11.7531 6.34131 11.559 6.53424 11.5576 6.77322V11.1795C11.559 11.4188 11.7526 11.6125 11.992 11.6138Z" fill="#2496ED"/>
<path d="M18.9131 11.6138H23.8599C24.0988 11.6125 24.2918 11.4184 24.2918 11.1795V6.77322C24.2918 6.53464 24.0984 6.34131 23.8599 6.34131H18.9131C18.6745 6.34131 18.4812 6.53472 18.4812 6.77322V11.1795C18.4812 11.4184 18.6742 11.6125 18.9131 11.6138Z" fill="#2496ED"/>
<path d="M25.7521 11.6138H30.6989C30.9382 11.6125 31.1319 11.4188 31.1332 11.1795V6.77322C31.1319 6.53424 30.9378 6.34131 30.6989 6.34131H25.7521C25.5135 6.34131 25.3202 6.53472 25.3202 6.77322V11.1795C25.3202 11.4184 25.5132 11.6125 25.7521 11.6138Z" fill="#2496ED"/>
<path d="M25.7521 5.27257H30.6989C30.9378 5.27257 31.1319 5.07956 31.1332 4.84066V0.431911C31.1319 0.192936 30.9378 0 30.6989 0H25.7521C25.5135 0 25.3202 0.193328 25.3202 0.431911V4.84058C25.3202 5.07917 25.5136 5.27257 25.7521 5.27257Z" fill="#2496ED"/>
<path d="M32.6504 17.953H37.5972C37.8362 17.953 38.0302 17.7601 38.0315 17.5211V13.1148C38.0315 12.8748 37.8371 12.6804 37.5972 12.6804H32.6504C32.4119 12.6804 32.2185 12.8738 32.2185 13.1123V13.1148V17.521C32.2185 17.7596 32.4119 17.953 32.6504 17.953" fill="#2496ED"/>
</svg>
