<svg width="52" height="49" viewBox="0 0 52 49" fill="none" xmlns="http://www.w3.org/2000/svg">
<path d="M17.082 0.00207448H32.2435L16.5042 46.6632C16.4238 46.9015 16.3066 47.1258 16.1571 47.3281C16.0078 47.5305 15.8279 47.7079 15.6235 47.8546C15.4192 48.0012 15.1938 48.1152 14.9542 48.1921C14.7147 48.269 14.4649 48.3087 14.2138 48.3087H2.41428C2.03125 48.3087 1.65335 48.2177 1.3126 48.0422C0.971484 47.8672 0.677029 47.6134 0.453673 47.3018C0.230171 46.9902 0.0839563 46.6299 0.0270924 46.2507C-0.0299131 45.8715 0.00467449 45.484 0.127012 45.1209L14.7909 1.64626C14.8709 1.40799 14.9881 1.18382 15.138 0.981414C15.2873 0.779013 15.4679 0.601592 15.6716 0.454915C15.8759 0.308238 16.1014 0.194227 16.3409 0.117366C16.5805 0.0405051 16.8303 0.000793457 17.0813 0.000793457V0.00143397L17.082 0.00207448Z" fill="url(#paint0_linear_13400_1096)"/>
<path d="M45.0313 48.3096H31.4172C31.2654 48.3096 31.1136 48.2955 30.9638 48.2667C30.8145 48.2385 30.6678 48.1962 30.5263 48.1405C30.3847 48.0848 30.2489 48.0156 30.1202 47.9349C29.9916 47.8536 29.8709 47.7606 29.7596 47.6569L14.3105 33.2288C14.1471 33.0762 14.0333 32.878 13.9838 32.66C13.9344 32.442 13.9518 32.2141 14.0337 32.0061C14.1156 31.798 14.2583 31.6195 14.4431 31.4936C14.6282 31.3681 14.8466 31.3008 15.0701 31.3008H39.1123L45.03 48.3102L45.0313 48.3096Z" fill="#0078D4"/>
<path d="M32.2969 0.00302076L21.6837 31.3042L39.0249 31.3003L44.9733 48.3097H31.4105C31.2702 48.3084 31.1299 48.2956 30.9916 48.2706C30.8532 48.2457 30.7174 48.2092 30.5855 48.1605C30.3209 48.0641 30.0748 47.923 29.8579 47.7435L19.4291 38.0103L16.5096 46.6201C16.4341 46.8353 16.3303 47.0396 16.2009 47.2273C15.9416 47.6048 15.5869 47.9069 15.1729 48.1028C14.9668 48.2003 14.7486 48.2699 14.5241 48.3097H2.42033C2.03346 48.311 1.65172 48.2188 1.30776 48.0407C0.963756 47.8628 0.66764 47.6047 0.444445 47.2882C0.221251 46.9717 0.07754 46.6061 0.0254604 46.2223C-0.0264306 45.8384 0.0146465 45.4476 0.145236 45.0828L14.7854 1.67988C14.8616 1.43712 14.9763 1.20846 15.1249 1.00222C15.2728 0.795973 15.4534 0.614068 15.6584 0.464189C15.8634 0.314309 16.0914 0.197736 16.3329 0.119594C16.5743 0.0414514 16.8273 0.00173973 17.0816 0.00302076H32.2976H32.2969Z" fill="url(#paint1_linear_13400_1096)"/>
<path d="M51.1104 45.1219C51.2328 45.4852 51.2672 45.8725 51.2109 46.2517C51.154 46.6308 51.008 46.991 50.785 47.3028C50.5616 47.6142 50.2672 47.868 49.9263 48.0431C49.5854 48.2181 49.2076 48.3095 48.8244 48.3097H31.9264C32.3094 48.3097 32.6873 48.2181 33.0287 48.0432C33.3695 47.8684 33.6641 47.6141 33.8877 47.3028C34.1112 46.9915 34.2572 46.6309 34.3142 46.2517C34.3712 45.8726 34.3367 45.485 34.2143 45.1219L19.5498 1.6459C19.3884 1.16698 19.0808 0.750756 18.6704 0.455832C18.4667 0.309155 18.2412 0.195785 18.0023 0.118923C17.7634 0.0420619 17.5136 0.00299072 17.2632 0.00299072H34.1605C34.4116 0.00299072 34.6608 0.0420619 34.9003 0.118923C35.1392 0.195785 35.3647 0.309796 35.569 0.455832C35.7727 0.602509 35.9527 0.779931 36.1019 0.981692C36.2511 1.18345 36.3677 1.40763 36.4484 1.6459L51.1129 45.1219H51.1104Z" fill="url(#paint2_linear_13400_1096)"/>
<defs>
<linearGradient id="paint0_linear_13400_1096" x1="22.6154" y1="3.58252" x2="6.85884" y2="50.1284" gradientUnits="userSpaceOnUse">
<stop stop-color="#114A8B"/>
<stop offset="1" stop-color="#0669BC"/>
</linearGradient>
<linearGradient id="paint1_linear_13400_1096" x1="27.5271" y1="25.2712" x2="23.8826" y2="26.5074" gradientUnits="userSpaceOnUse">
<stop stop-opacity="0.3"/>
<stop offset="0.1" stop-opacity="0.2"/>
<stop offset="0.3" stop-opacity="0.1"/>
<stop offset="0.6" stop-opacity="0.1"/>
<stop offset="1" stop-opacity="0"/>
</linearGradient>
<linearGradient id="paint2_linear_13400_1096" x1="25.5162" y1="2.22556" x2="42.81" y2="48.2975" gradientUnits="userSpaceOnUse">
<stop stop-color="#3CCBF4"/>
<stop offset="1" stop-color="#2892DF"/>
</linearGradient>
</defs>
</svg>
