<svg width="56" height="54" viewBox="0 0 56 54" fill="none" xmlns="http://www.w3.org/2000/svg">
<path d="M49.6939 12.7207C49.3908 11.7509 48.6634 10.9629 47.7542 10.478L29.2668 1.62826C28.7819 1.3858 28.2364 1.32518 27.7515 1.32518C27.2666 1.32518 26.721 1.32518 26.2361 1.44641L7.74875 10.3567C6.83953 10.781 6.17278 11.569 5.93032 12.5995L1.38424 32.5416C1.2024 33.572 1.44486 34.6025 2.051 35.4511L14.8406 51.2714C15.568 51.9988 16.5984 52.4837 17.6289 52.5443H37.9953C39.0864 52.6655 40.1168 52.1806 40.7836 51.2714L53.5732 35.4511C54.1793 34.6025 54.4218 33.572 54.3006 32.5416L49.6939 12.7207Z" fill="white" stroke="white" stroke-width="2.65028" stroke-miterlimit="10"/>
<path d="M49.6939 12.7207C49.3908 11.7509 48.6634 10.9629 47.7542 10.478L29.2668 1.62826C28.7819 1.3858 28.2364 1.32518 27.7515 1.32518C27.2666 1.32518 26.721 1.32518 26.2361 1.44641L7.74875 10.3567C6.83953 10.781 6.17278 11.569 5.93032 12.5995L1.38424 32.5416C1.2024 33.572 1.44486 34.6025 2.051 35.4511L14.8406 51.2714C15.568 51.9988 16.5984 52.4837 17.6289 52.5443H37.9953C39.0864 52.6655 40.1168 52.1806 40.7836 51.2714L53.5732 35.4511C54.1793 34.6025 54.4218 33.572 54.3006 32.5416L49.6939 12.7207Z" fill="#326DE6"/>
<path d="M46.8451 31.7526C46.7845 31.7526 46.7239 31.7526 46.7239 31.692C46.7239 31.6314 46.6026 31.6314 46.4814 31.6314C46.239 31.5708 45.9965 31.5708 45.754 31.5708C45.6328 31.5708 45.5116 31.5708 45.3904 31.5102H45.3297C44.663 31.4495 43.9356 31.3283 43.2688 31.1465C43.087 31.0859 42.9052 30.904 42.8446 30.7222L42.3596 30.6009C42.6021 28.8431 42.4809 27.0247 42.1172 25.2669C41.6929 23.5091 40.9655 21.8119 39.9957 20.2965L40.3594 19.9328V19.8722C40.3594 19.6904 40.42 19.4479 40.5412 19.3267C41.0867 18.8418 41.6323 18.4781 42.2384 18.1144C42.3596 18.0538 42.4809 17.9932 42.6021 17.9325C42.8446 17.8113 43.0264 17.6901 43.2688 17.5689C43.3295 17.5082 43.3901 17.5082 43.4507 17.4476C43.5113 17.387 43.4507 17.387 43.4507 17.3264C43.9962 16.9021 44.1175 16.1747 43.6932 15.6292C43.5113 15.3867 43.1476 15.2049 42.8446 15.2049C42.5415 15.2049 42.2384 15.3261 41.9959 15.508L41.9353 15.5686C41.8747 15.6292 41.8141 15.6898 41.7535 15.6898C41.5716 15.8717 41.3898 16.0535 41.2686 16.2353C41.208 16.3566 41.0867 16.4172 41.0261 16.4778C40.6018 16.9627 40.0563 17.4476 39.5108 17.8113C39.3895 17.8719 39.2683 17.9325 39.1471 17.9325C39.0865 17.9325 38.9652 17.9325 38.9046 17.8719H38.844L38.3591 18.175C37.8742 17.6901 37.3286 17.2052 36.8437 16.7203C34.601 14.9624 31.8127 13.8714 28.9639 13.5683L28.9033 13.0834V13.144C28.7214 13.0228 28.6608 12.8409 28.6002 12.6591C28.6002 11.9923 28.6002 11.3256 28.7214 10.5982V10.5376C28.7214 10.4164 28.782 10.2951 28.782 10.1739C28.8426 9.93145 28.8426 9.68899 28.9033 9.44653V9.08284C28.9639 8.4767 28.479 7.87056 27.8728 7.80994C27.5091 7.74933 27.1454 7.93117 26.8424 8.23424C26.5999 8.4767 26.4787 8.77977 26.4787 9.08284V9.38592C26.4787 9.62837 26.5393 9.87083 26.5999 10.1133C26.6605 10.2345 26.6605 10.3557 26.6605 10.477V10.5376C26.7817 11.2043 26.7817 11.8711 26.7817 12.5985C26.7211 12.7803 26.6605 12.9622 26.4787 13.0834V13.2046L26.4181 13.6895C25.7513 13.7501 25.0845 13.8714 24.3572 13.9926C21.5083 14.5988 18.9019 16.1141 16.9016 18.2356L16.5379 17.9932H16.4773C16.4167 17.9932 16.3561 18.0538 16.2349 18.0538C16.1136 18.0538 15.9924 17.9932 15.8712 17.9325C15.3256 17.5082 14.7801 17.0233 14.3558 16.5384C14.2952 16.4172 14.174 16.3566 14.1134 16.296C13.9315 16.1141 13.8103 15.9323 13.6284 15.7504C13.5678 15.6898 13.5072 15.6898 13.4466 15.6292C13.386 15.5686 13.386 15.5686 13.386 15.5686C13.1435 15.3867 12.8404 15.2655 12.5374 15.2655C12.1737 15.2655 11.8706 15.3867 11.6888 15.6898C11.3251 16.2353 11.4463 16.9627 11.9312 17.387C11.9918 17.387 11.9918 17.4476 11.9918 17.4476C11.9918 17.4476 12.1131 17.5689 12.1737 17.5689C12.3555 17.6901 12.598 17.8113 12.8404 17.9325C12.9617 17.9932 13.0829 18.0538 13.2041 18.1144C13.8103 18.4781 14.4164 18.8418 14.9013 19.3267C15.0226 19.4479 15.1438 19.6904 15.0832 19.8722V19.8116L15.4469 20.1753C15.3863 20.2965 15.3256 20.3571 15.265 20.4783C13.386 23.4484 12.598 26.9641 13.1435 30.4191L12.6586 30.5403C12.6586 30.6009 12.598 30.6009 12.598 30.6009C12.5374 30.7828 12.3555 30.904 12.1737 31.0252C11.5069 31.2071 10.8402 31.3283 10.1128 31.3889C9.99157 31.3889 9.87035 31.3889 9.74912 31.4495C9.50666 31.4495 9.2642 31.5102 9.02174 31.5102C8.96113 31.5102 8.90052 31.5708 8.77929 31.5708C8.71867 31.5708 8.71867 31.5708 8.65806 31.6314C7.9913 31.7526 7.567 32.3588 7.68823 33.0255C7.80946 33.571 8.35499 33.9347 8.90052 33.8741C9.02174 33.8741 9.08236 33.8741 9.20359 33.8135C9.2642 33.8135 9.2642 33.8135 9.2642 33.7529C9.2642 33.6923 9.44605 33.7529 9.50666 33.7529C9.74912 33.6923 9.99157 33.571 10.1734 33.5104C10.2946 33.4498 10.4159 33.3892 10.5371 33.3892H10.5977C11.2645 33.1467 11.8706 32.9649 12.598 32.8437H12.6586C12.8404 32.8437 13.0223 32.9043 13.1435 33.0255C13.2041 33.0255 13.2041 33.0861 13.2041 33.0861L13.7497 33.0255C14.6589 35.8138 16.3561 38.299 18.72 40.1174C19.2656 40.5417 19.7505 40.9054 20.3566 41.2085L20.0536 41.6327C20.0536 41.6934 20.1142 41.6934 20.1142 41.6934C20.2354 41.8752 20.2354 42.1177 20.1748 42.2995C19.9323 42.9056 19.5686 43.5118 19.205 44.0573V44.1179C19.1443 44.2392 19.0837 44.2998 18.9625 44.421C18.8413 44.5422 18.72 44.7847 18.5382 45.0272C18.4776 45.0878 18.4776 45.1484 18.417 45.209C18.417 45.209 18.417 45.2696 18.3564 45.2696C18.0533 45.8758 18.2957 46.6031 18.8413 46.9062C18.9625 46.9668 19.1443 47.0274 19.2656 47.0274C19.7505 47.0274 20.1748 46.7244 20.4172 46.3001C20.4172 46.3001 20.4172 46.2394 20.4779 46.2394C20.4779 46.1788 20.5385 46.1182 20.5991 46.0576C20.6597 45.8151 20.7809 45.6333 20.8415 45.3908L20.9628 45.0272C21.1446 44.3604 21.4477 43.7543 21.7508 43.1481C21.872 42.9663 22.0538 42.845 22.2357 42.7844C22.2963 42.7844 22.2963 42.7844 22.2963 42.7238L22.5387 42.2389C24.2359 42.9057 25.9938 43.2087 27.8122 43.2087C28.9033 43.2087 29.9943 43.0875 31.0854 42.7844C31.7521 42.6632 32.4189 42.4207 33.025 42.2389L33.2675 42.6632C33.3281 42.6632 33.3281 42.6632 33.3281 42.7238C33.5099 42.7844 33.6918 42.9057 33.813 43.0875C34.1161 43.6936 34.4192 44.2998 34.601 44.9665V45.0272L34.7222 45.3908C34.7828 45.6333 34.8435 45.8758 34.9647 46.0576C35.0253 46.1182 35.0253 46.1788 35.0859 46.2394C35.0859 46.2394 35.0859 46.3001 35.1465 46.3001C35.389 46.7244 35.8133 47.0274 36.2982 47.0274C36.48 47.0274 36.6013 46.9668 36.7831 46.9062C37.0256 46.785 37.268 46.5425 37.3286 46.2394C37.3893 45.9364 37.3893 45.6333 37.268 45.3302C37.268 45.2696 37.2074 45.2696 37.2074 45.2696C37.2074 45.209 37.1468 45.1484 37.0862 45.0878C36.965 44.8453 36.8437 44.6635 36.6619 44.4816C36.6013 44.3604 36.5407 44.2998 36.4194 44.1785V44.0573C35.9951 43.5118 35.6921 42.9056 35.4496 42.2995C35.389 42.1177 35.389 41.8752 35.5102 41.6934C35.5102 41.6327 35.5708 41.6327 35.5708 41.6327L35.389 41.1478C38.4803 39.2688 40.8443 36.3593 41.9353 32.9043L42.4203 32.9649C42.4809 32.9649 42.4809 32.9043 42.4809 32.9043C42.6021 32.7831 42.7839 32.7224 42.9658 32.7224H43.0264C43.6932 32.8437 44.3599 33.0255 44.9661 33.268H45.0267C45.1479 33.3286 45.2691 33.3892 45.3904 33.3892C45.6328 33.5104 45.8147 33.6317 46.0571 33.6923C46.1177 33.6923 46.1783 33.7529 46.2996 33.7529C46.3602 33.7529 46.3602 33.7529 46.4208 33.8135C46.542 33.8741 46.6026 33.8741 46.7239 33.8741C47.2694 33.8741 47.7543 33.5104 47.9362 33.0255C47.8755 32.3588 47.3906 31.8738 46.8451 31.7526ZM29.3276 29.8736L27.691 30.6616L26.0544 29.8736L25.6301 28.1158L26.7817 26.661H28.6002L29.7519 28.1158L29.3276 29.8736ZM39.2077 25.9336C39.5108 27.2065 39.5714 28.4794 39.4501 29.7523L33.6918 28.1158C33.1463 27.9945 32.8432 27.449 32.9644 26.9035C33.025 26.7216 33.0856 26.6004 33.2069 26.4792L37.7529 22.3574C38.4197 23.4484 38.9046 24.6607 39.2077 25.9336ZM35.9345 20.1147L30.9641 23.6303C30.5398 23.8727 29.9337 23.8121 29.6306 23.3878C29.5094 23.2666 29.4488 23.1454 29.4488 22.9635L29.0851 16.8415C31.7521 17.1446 34.1161 18.2962 35.9345 20.1147ZM24.9633 17.0233L26.1756 16.7809L25.8725 22.8423C25.8725 23.3878 25.3876 23.8121 24.8421 23.8121C24.6602 23.8121 24.539 23.7515 24.3572 23.6909L19.3262 20.1147C20.9022 18.5993 22.8418 17.5082 24.9633 17.0233ZM17.5684 22.3574L22.0538 26.3579C22.4781 26.7216 22.5387 27.3278 22.1751 27.7521C22.0538 27.9339 21.9326 27.9945 21.6901 28.0551L15.8106 29.7523C15.6287 27.2065 16.2349 24.6001 17.5684 22.3574ZM16.5379 32.6012L22.5387 31.5708C23.0237 31.5708 23.5086 31.8738 23.5692 32.3588C23.6298 32.5406 23.6298 32.7831 23.5086 32.9649L21.2052 38.5414C19.0837 37.1473 17.3865 35.0258 16.5379 32.6012ZM30.2974 40.1174C29.4488 40.2992 28.6002 40.4205 27.691 40.4205C26.4181 40.4205 25.0845 40.178 23.8723 39.8143L26.8424 34.4196C27.1454 34.056 27.6303 33.9347 28.0546 34.1772C28.2365 34.2984 28.3577 34.4196 28.5396 34.6015L31.4491 39.8749C31.0854 39.9355 30.7217 39.9962 30.2974 40.1174ZM37.6923 34.8439C36.7831 36.2987 35.5102 37.5716 34.0555 38.4808L31.6915 32.7831C31.5703 32.2981 31.8127 31.8132 32.237 31.6314C32.4189 31.5708 32.6007 31.5102 32.7826 31.5102L38.844 32.5406C38.5409 33.3892 38.1772 34.1772 37.6923 34.8439Z" fill="white"/>
</svg>
