<svg width="212" height="127" viewBox="0 0 212 127" fill="none" xmlns="http://www.w3.org/2000/svg">
<path d="M211.12 124.481V122.49H0V124.481V126.473H211.12V124.481Z" fill="url(#paint0_linear_13400_1788)"/>
<g clip-path="url(#clip0_13400_1788)">
<path d="M54.4912 72.3074V65.3059L49.4983 63.6397V63.6374C47.7341 63.0493 47.7341 60.5494 49.4983 59.9602L54.4912 58.2939V51.2878L54.4935 51.2855H47.4942L45.8292 56.2841C45.2423 58.0506 42.7447 58.0518 42.1566 56.2853L40.4915 51.2855H33.4923L33.4957 51.2889V58.2939L38.4886 59.9602C40.2528 60.5482 40.2528 63.0481 38.4886 63.6374L33.4957 65.3036V72.3063L33.4923 72.3097H33.4957V72.3121L33.498 72.3097H40.4915L42.1566 67.3123C42.7447 65.5446 45.2411 65.5446 45.8292 67.3123L47.4942 72.3097H54.4866L54.4912 72.3144V72.3097H54.4935L54.4912 72.3074ZM39.2681 66.4728C41.4728 63.7515 41.4716 59.8368 39.2646 57.1178L39.32 57.0624C42.039 59.2729 45.9514 59.2718 48.6692 57.0601L48.7257 57.1166C46.5141 59.8368 46.513 63.755 48.7211 66.4774C48.7511 66.5132 48.7015 66.5627 48.6646 66.5328C45.9491 64.3257 42.0413 64.3246 39.3246 66.5293C39.2877 66.5593 39.2393 66.5097 39.2692 66.4728H39.2681Z" fill="#7C7C7C"/>
</g>
<g clip-path="url(#clip1_13400_1788)">
<path d="M75.6438 62.1006C76.3034 61.1908 76.6332 60.1277 76.6332 58.9089C76.6332 57.6912 76.3761 56.7387 75.8629 55.8981C75.3487 55.0575 74.6291 54.406 73.7032 53.9425C72.7784 53.4801 71.698 53.2483 70.4642 53.2483H63.473V71.2619H66.1458V64.5705H70.3096L73.9084 71.2619H76.8903L73.0079 64.0044C74.1045 63.6446 74.9831 63.0104 75.6427 62.1006H75.6438ZM70.2589 62.2032H66.147V55.6156H70.2843C71.3809 55.6156 72.2595 55.912 72.9191 56.5035C73.5787 57.0951 73.9084 57.8976 73.9084 58.91C73.9084 59.9224 73.5787 60.7031 72.9191 61.3027C72.2595 61.9034 71.3728 62.2032 70.2589 62.2032Z" fill="white"/>
<path d="M87.356 58.7158C86.422 58.2108 85.3208 57.9571 84.0536 57.9571C82.7852 57.9571 81.6967 58.2407 80.7373 58.8069C79.7779 59.3719 79.0319 60.1572 78.5015 61.1615C77.9699 62.1647 77.7047 63.3443 77.7047 64.6992C77.7047 66.0552 77.9745 67.2095 78.5141 68.2127C79.0538 69.2159 79.8252 70.0011 80.8272 70.5673C81.8293 71.1334 82.9985 71.4171 84.3361 71.4171C85.3981 71.4171 86.3355 71.2153 87.1496 70.8117C87.9637 70.4082 88.6325 69.8639 89.1549 69.1778C89.6772 68.4917 90.0243 67.7111 90.1961 66.8359H87.6777C87.4713 67.6084 87.0562 68.2127 86.4313 68.6508C85.8051 69.0879 85.0556 69.307 84.1816 69.307C83.4275 69.307 82.7644 69.1432 82.1902 68.818C81.6159 68.4929 81.1709 68.0328 80.8538 67.4413C80.5367 66.8497 80.3602 66.1682 80.3268 65.3957V65.2158H90.3506C90.3668 65.044 90.3806 64.8722 90.3887 64.7004C90.3967 64.5297 90.4025 64.366 90.4025 64.2114C90.3668 62.9085 90.0842 61.7934 89.5538 60.8663C89.0222 59.9404 88.29 59.2243 87.356 58.7181V58.7158ZM80.4294 63.2844C80.4975 62.6156 80.7073 62.0402 81.059 61.5605C81.4107 61.0808 81.8512 60.7072 82.3828 60.4408C82.9132 60.1745 83.4793 60.0419 84.0789 60.0419C85.1064 60.0419 85.955 60.3209 86.6238 60.8779C87.2915 61.436 87.6766 62.2374 87.7804 63.2844H80.4294Z" fill="white"/>
<path d="M100.196 64.005C99.3742 63.7825 98.4656 63.6107 97.4728 63.4907C96.8386 63.4054 96.277 63.3189 95.7881 63.2336C95.3003 63.1483 94.9233 62.9938 94.6581 62.7712C94.3917 62.5475 94.2591 62.2131 94.2591 61.7669C94.2591 61.218 94.5197 60.781 95.0432 60.4546C95.5656 60.1283 96.2551 59.9657 97.1119 59.9657C97.9686 59.9657 98.6927 60.1675 99.2324 60.57C99.772 60.9735 100.076 61.4924 100.144 62.1278H102.639C102.552 60.7545 101.995 59.7178 100.968 59.0133C99.9392 58.3099 98.6455 57.9582 97.0853 57.9582C96.0752 57.9421 95.1666 58.1 94.3617 58.4344C93.5557 58.77 92.9261 59.237 92.4718 59.8377C92.0187 60.4385 91.7915 61.1592 91.7915 61.9986C91.7915 62.6847 91.9287 63.2474 92.202 63.6845C92.4764 64.1215 92.8581 64.4686 93.347 64.7268C93.8348 64.984 94.3998 65.1892 95.0432 65.3437C95.6855 65.4983 96.375 65.6182 97.1119 65.7047C97.7795 65.7727 98.3618 65.8546 98.8599 65.9491C99.3558 66.0437 99.7421 66.2109 100.016 66.4507C100.29 66.6906 100.427 67.0595 100.427 67.5565C100.427 67.9174 100.299 68.2438 100.042 68.5344C99.7847 68.8261 99.4376 69.0452 99.0006 69.1905C98.5636 69.3369 98.0447 69.4095 97.4451 69.4095C96.4004 69.4095 95.5771 69.1743 94.9786 68.7015C94.3779 68.2299 94.0619 67.6338 94.0273 66.9131H91.509C91.5597 68.3545 92.1294 69.4649 93.2179 70.2455C94.3052 71.0262 95.7143 71.4171 97.4462 71.4171C98.4737 71.4171 99.3996 71.2533 100.222 70.9282C101.045 70.6018 101.697 70.1337 102.176 69.526C102.655 68.9172 102.896 68.2 102.896 67.3766C102.896 66.3827 102.651 65.6274 102.164 65.112C101.675 64.5977 101.02 64.2287 100.198 64.0062L100.196 64.005Z" fill="white"/>
<path d="M107.183 58.1109H104.665V71.2607H107.183V58.1109Z" fill="white"/>
<path d="M105.951 53.0154C105.523 53.0154 105.154 53.1619 104.846 53.4525C104.537 53.7442 104.383 54.1132 104.383 54.5594C104.383 55.0045 104.537 55.3781 104.846 55.6779C105.154 55.9789 105.523 56.1288 105.951 56.1288C106.379 56.1288 106.769 55.9789 107.069 55.6779C107.369 55.3781 107.519 55.0057 107.519 54.5594C107.519 54.1132 107.369 53.7442 107.069 53.4525C106.769 53.1607 106.396 53.0154 105.951 53.0154Z" fill="white"/>
<path d="M125.081 68.6509C124.912 68.5483 124.747 68.4018 124.586 68.2185C124.882 67.8345 125.151 67.4228 125.389 66.9777C126.126 65.5975 126.495 64.0224 126.495 62.2558C126.495 60.4882 126.126 58.9153 125.389 57.5339C124.652 56.1525 123.637 55.0675 122.344 54.2788C121.05 53.4889 119.546 53.0945 117.833 53.0945C116.119 53.0945 114.611 53.4889 113.308 54.2788C112.006 55.0675 110.987 56.1525 110.25 57.5339C109.513 58.9153 109.144 60.4893 109.144 62.2558C109.144 64.0224 109.513 65.5975 110.25 66.9777C110.987 68.3591 112.006 69.4442 113.308 70.2329C114.61 71.0228 116.118 71.4171 117.833 71.4171C119.546 71.4171 121.05 71.0228 122.344 70.2329C122.541 70.113 122.729 69.9838 122.912 69.8501L123.025 70.0011C123.35 70.4301 123.715 70.7472 124.117 70.9536C124.521 71.16 125.081 71.2626 125.802 71.2626H127.498V68.8688H126.007C125.63 68.8688 125.321 68.7962 125.081 68.6509ZM120.943 68.1747C120.052 68.7581 119.015 69.0487 117.833 69.0487C116.651 69.0487 115.614 68.7581 114.723 68.1747C113.832 67.5912 113.133 66.7852 112.628 65.7555C112.123 64.7269 111.87 63.56 111.87 62.2558C111.87 60.9528 112.123 59.764 112.628 58.7435C113.133 57.723 113.832 56.9205 114.723 56.337C115.614 55.7547 116.651 55.463 117.833 55.463C119.015 55.463 120.052 55.7547 120.943 56.337C121.834 56.9205 122.527 57.723 123.025 58.7435C123.522 59.764 123.77 60.9355 123.77 62.2558C123.77 63.5773 123.522 64.7269 123.025 65.7555C122.984 65.8419 122.939 65.9238 122.895 66.0068L122.331 65.2666C122.143 64.9921 121.933 64.7615 121.701 64.5724C121.47 64.3833 121.204 64.2415 120.905 64.1469C120.605 64.0535 120.24 64.0062 119.813 64.0062H117.91V66.3735H119.478C119.786 66.3735 120.056 66.4427 120.288 66.5799C120.518 66.716 120.745 66.9397 120.968 67.2487L121.405 67.8333C121.256 67.9544 121.104 68.0697 120.943 68.1747Z" fill="white"/>
<path d="M137.93 64.6743C137.93 65.6175 137.79 66.4281 137.507 67.1061C137.223 67.783 136.816 68.3031 136.286 68.6628C135.754 69.0226 135.12 69.2036 134.383 69.2036C133.339 69.2036 132.542 68.8646 131.993 68.1866C131.445 67.5086 131.171 66.51 131.171 65.1886V58.112H128.678V65.4203C128.678 66.5354 128.811 67.4751 129.076 68.2385C129.342 69.0018 129.715 69.6187 130.194 70.0903C130.674 70.5631 131.226 70.901 131.852 71.1074C132.477 71.3138 133.142 71.4164 133.844 71.4164C135.06 71.4164 136.021 71.1673 136.723 70.6692C137.214 70.3221 137.624 69.9497 137.955 69.5519L138.265 71.2619H140.45V58.1109H137.93V64.6743Z" fill="white"/>
<path d="M153.955 68.8549C153.817 68.7442 153.749 68.5171 153.749 68.1735V62.7182C153.749 61.1742 153.274 59.9946 152.322 59.1794C151.371 58.3653 150.039 57.9571 148.326 57.9571C147.246 57.9571 146.295 58.1243 145.473 58.4598C144.651 58.7942 143.995 59.2705 143.507 59.8874C143.018 60.5054 142.723 61.2434 142.62 62.1001H145.088C145.208 61.4659 145.541 60.9643 146.09 60.5954C146.638 60.2264 147.349 60.0419 148.223 60.0419C149.166 60.0419 149.902 60.2656 150.434 60.7118C150.965 61.1581 151.23 61.775 151.23 62.5637V63.3881H147.709C145.927 63.3881 144.569 63.7479 143.635 64.4686C142.702 65.1893 142.235 66.2178 142.235 67.5566C142.235 68.3626 142.436 69.0533 142.839 69.6275C143.242 70.2029 143.811 70.6445 144.548 70.9524C145.285 71.2614 146.133 71.416 147.093 71.416C148.344 71.416 149.343 71.1381 150.088 70.58C150.635 70.1706 151.092 69.6967 151.46 69.1628C151.463 69.7809 151.618 70.2755 151.926 70.6445C152.268 71.0562 152.912 71.2626 153.854 71.2626H155.19V69.0233H154.573C154.299 69.0233 154.093 68.9679 153.956 68.8561L153.955 68.8549ZM151.23 65.8823C151.23 66.5695 151.076 67.1783 150.768 67.7099C150.46 68.2415 150.022 68.6578 149.457 68.9576C148.892 69.2585 148.198 69.4084 147.376 69.4084C146.553 69.4084 145.935 69.2193 145.473 68.8423C145.011 68.4652 144.779 67.9844 144.779 67.4009C144.779 66.6975 145.02 66.1786 145.499 65.8442C145.978 65.5087 146.664 65.3415 147.555 65.3415H151.231L151.23 65.8823Z" fill="white"/>
<path d="M165.882 58.5359C165.085 58.1497 164.189 57.9571 163.196 57.9571C161.945 57.9571 160.959 58.2108 160.24 58.7158C159.724 59.079 159.294 59.4653 158.946 59.877L158.646 58.1104H156.462V71.2614H158.981V64.6473C158.981 63.7214 159.126 62.9234 159.418 62.2547C159.709 61.5859 160.133 61.0704 160.69 60.7107C161.247 60.3509 161.901 60.1699 162.656 60.1699C163.752 60.1699 164.579 60.5054 165.136 61.1742C165.693 61.843 165.971 62.83 165.971 64.133V71.2614H168.49V63.9532C168.49 62.4784 168.254 61.3022 167.783 60.4282C167.312 59.553 166.679 58.9222 165.881 58.5371L165.882 58.5359Z" fill="white"/>
<path d="M175.387 69.0227C174.855 69.0227 174.483 68.9109 174.268 68.6883C174.055 68.4658 173.948 68.0887 173.948 67.556V60.3515H177.238V58.1122H173.948V54.4327H171.428V58.1122H169.115V60.3515H171.428V67.737C171.428 68.9201 171.703 69.8045 172.252 70.388C172.799 70.9703 173.699 71.262 174.95 71.262H177.392V69.0239H175.387V69.0227Z" fill="white"/>
</g>
<defs>
<linearGradient id="paint0_linear_13400_1788" x1="211.12" y1="123.983" x2="5.94468e-10" y2="123.983" gradientUnits="userSpaceOnUse">
<stop stop-color="#9349DF"/>
<stop offset="1" stop-color="#208622"/>
</linearGradient>
<clipPath id="clip0_13400_1788">
<rect width="21.9087" height="21.9087" fill="white" transform="translate(33.4919 51.2861)"/>
</clipPath>
<clipPath id="clip1_13400_1788">
<rect width="114.156" height="18.4494" fill="white" transform="translate(63.4725 53.0154)"/>
</clipPath>
</defs>
</svg>
