<svg width="193" height="125" viewBox="0 0 193 125" fill="none" xmlns="http://www.w3.org/2000/svg">
<path d="M83.708 57.7161C86.419 57.7162 90.1748 59.8766 90.1748 64.3469C90.1748 68.842 86.419 70.9533 83.708 70.9534C80.9968 70.9534 77.2413 68.8421 77.2412 64.3469C77.2412 59.8764 80.9968 57.7161 83.708 57.7161ZM97.5117 57.7161C99.6255 57.7161 100.87 58.659 101.417 59.6028V57.8645H104.152V70.7795H101.417V68.6936C101.317 69.7364 99.6007 70.9533 97.5117 70.9534C94.7758 70.9534 91.4182 68.8174 91.418 64.3225C91.418 59.9016 94.7758 57.7161 97.5117 57.7161ZM137.977 65.2903C137.977 67.6746 139.121 68.594 140.539 68.594C142.703 68.5937 144.269 66.3341 144.493 64.968V57.8645H147.23V70.7795H144.493V67.8987C144.244 68.8924 142.752 70.9531 140.116 70.9534C137.579 70.9534 135.241 69.4627 135.241 65.4143V57.8645H137.977V65.2903ZM161.606 70.7795H158.871V68.6936C158.771 69.7364 157.055 70.9533 154.966 70.9534C152.23 70.9534 148.872 68.8174 148.872 64.3225C148.872 59.9016 152.23 57.7161 154.966 57.7161C157.08 57.7161 158.324 58.659 158.871 59.6028V53.3948H161.606V70.7795ZM68.7354 68.4182H77.3164V70.7776H65.9248V53.3928H68.7354V68.4182ZM113.28 57.7385C116.141 57.7387 118.628 59.3785 118.628 63.4016V70.7776H115.892V63.55C115.892 61.0417 114.698 60.0979 113.031 60.0979C110.743 60.0979 109.4 62.4078 109.226 63.426V70.7776H106.489V57.8625H109.226V60.6194C109.35 59.7501 110.669 57.7385 113.28 57.7385ZM127.159 53.3928C130.367 53.3929 132.481 54.9321 132.481 57.9123C132.481 59.2783 131.835 60.5697 130.293 61.1907C132.681 62.1343 133.75 63.7988 133.75 65.6614C133.75 68.8402 131.462 70.7775 127.333 70.7776H120.916V53.3928H127.159ZM97.9092 60.0754C96.1186 60.0755 94.1534 61.5409 94.1534 64.3225C94.1535 67.1284 96.1187 68.5939 97.9092 68.594C99.6752 68.594 101.541 67.3521 101.541 64.3225C101.541 61.2676 99.6753 60.0754 97.9092 60.0754ZM155.363 60.0754C153.573 60.0755 151.607 61.5409 151.607 64.3225C151.608 67.1284 153.573 68.5939 155.363 68.594C157.129 68.594 158.995 67.3521 158.995 64.3225C158.995 61.2676 157.129 60.0754 155.363 60.0754ZM83.708 60.0998C81.9669 60.0998 79.9766 61.4908 79.9766 64.3469C79.9766 67.1783 81.9669 68.5686 83.708 68.5686C85.4491 68.5685 87.4385 67.1782 87.4385 64.3469C87.4385 61.4909 85.4491 60.0999 83.708 60.0998ZM123.701 68.3938H127.606C129.944 68.3938 131.014 67.2508 131.014 65.5373C131.014 63.9978 129.945 62.6311 127.606 62.6311H123.701V68.3938ZM123.701 60.2473H127.159C128.85 60.2472 129.745 59.5268 129.745 58.012C129.745 56.5964 128.85 55.7767 127.159 55.7766H123.701V60.2473Z" fill="white"/>
<path d="M54.5313 62.0031C54.5313 57.1645 50.5636 53.2279 45.6864 53.2279V57.6325C48.1155 57.6325 50.0917 59.5931 50.0917 62.0031V66.2118H45.5475C44.0637 66.2118 42.8565 65.0141 42.8565 63.542V46.3076H38.4169V63.542C38.4169 67.4428 41.6157 70.6164 45.5475 70.6164H54.5313V62.0031ZM54.5313 78.1748H43.9996C36.6083 78.1748 30.595 72.2088 30.595 64.8757V46.3076H35.0346V64.8757C35.0346 69.7801 39.0562 73.7703 43.9996 73.7703H54.5313V78.1748Z" fill="white"/>
</svg>
