<svg width="192" height="125" viewBox="0 0 192 125" fill="none" xmlns="http://www.w3.org/2000/svg">
<g clip-path="url(#clip0_13400_1803)">
<path d="M47.2945 49.2954C47.4516 49.3133 47.6086 49.3304 47.7657 49.3469C52.0314 49.8023 55.0711 53.7747 54.3925 58.0163C54.1604 59.4677 53.5645 60.7381 52.6048 61.8273C52.4762 61.9738 52.364 62.0981 52.2683 62.2003C52.2616 62.2075 52.2579 62.2169 52.258 62.2267C52.2582 62.2364 52.2621 62.2457 52.269 62.2524C53.9825 63.9873 54.7675 66.3657 54.3932 68.7681C53.8019 72.5653 50.4167 75.3304 46.5803 75.1388C44.4615 75.033 42.5145 74.0694 41.1498 72.4465C40.2235 71.3449 39.6615 70.0661 39.4637 68.6101C39.4362 68.4109 39.4108 68.2108 39.3875 68.0098V67.9494C39.3976 67.932 39.3976 67.9089 39.3875 67.88V67.196C39.4269 66.8022 39.455 66.5527 39.472 66.4474C39.7009 65.0216 40.2833 63.7611 41.2192 62.6659C41.2709 62.6055 41.3991 62.466 41.6038 62.2476C41.6105 62.2405 41.6143 62.2312 41.6144 62.2215C41.6146 62.2118 41.611 62.2025 41.6045 62.1954C41.3531 61.9248 41.2148 61.7744 41.1896 61.7442C40.083 60.4242 39.4823 58.8979 39.3875 57.1654V56.5301C39.534 54.1959 40.4951 52.3219 42.2706 50.908C43.5096 49.9213 44.9578 49.3838 46.6153 49.2954H47.2945ZM49.6805 54.8062C49.6805 54.7095 49.6614 54.6136 49.6244 54.5242C49.5873 54.4348 49.533 54.3536 49.4646 54.2851C49.3962 54.2167 49.3149 54.1624 49.2255 54.1254C49.1361 54.0884 49.0403 54.0693 48.9435 54.0693H44.8283C44.7315 54.0693 44.6357 54.0884 44.5462 54.1254C44.4568 54.1624 44.3756 54.2167 44.3072 54.2851C44.2387 54.3536 44.1845 54.4348 44.1474 54.5242C44.1104 54.6136 44.0913 54.7095 44.0913 54.8062V58.9215C44.0913 59.0183 44.1104 59.1141 44.1474 59.2035C44.1845 59.2929 44.2387 59.3742 44.3072 59.4426C44.3756 59.511 44.4568 59.5653 44.5462 59.6023C44.6357 59.6394 44.7315 59.6584 44.8283 59.6584H48.9435C49.0403 59.6584 49.1361 59.6394 49.2255 59.6023C49.3149 59.5653 49.3962 59.511 49.4646 59.4426C49.533 59.3742 49.5873 59.2929 49.6244 59.2035C49.6614 59.1141 49.6805 59.0183 49.6805 58.9215V54.8062ZM49.6791 65.3533C49.6791 65.1586 49.6017 64.9719 49.464 64.8342C49.3264 64.6965 49.1396 64.6191 48.9449 64.6191H44.8255C44.7291 64.6191 44.6336 64.6381 44.5446 64.675C44.4555 64.7119 44.3745 64.766 44.3064 64.8342C44.2382 64.9024 44.1841 64.9833 44.1472 65.0724C44.1103 65.1614 44.0913 65.2569 44.0913 65.3533V69.4727C44.0913 69.5691 44.1103 69.6646 44.1472 69.7537C44.1841 69.8427 44.2382 69.9237 44.3064 69.9919C44.3745 70.06 44.4555 70.1141 44.5446 70.151C44.6336 70.1879 44.7291 70.2069 44.8255 70.2069H48.9449C49.1396 70.2069 49.3264 70.1295 49.464 69.9919C49.6017 69.8542 49.6791 69.6674 49.6791 69.4727V65.3533Z" fill="white"/>
<path d="M64.0657 62.7038C64.0575 62.7038 64.0497 62.707 64.0439 62.7128C64.0381 62.7186 64.0348 62.7265 64.0348 62.7347C64.0353 64.431 64.0353 67.1251 64.0348 70.8168C64.0348 71.242 63.7381 71.6266 63.3006 71.6657C62.9318 71.6987 62.5774 71.5249 62.4387 71.1685C62.4035 71.0774 62.3858 70.9256 62.3858 70.7131C62.3886 59.6443 62.3879 54.022 62.3838 53.8462C62.3774 53.5371 62.4092 53.3212 62.4792 53.1985C62.6061 52.9778 62.8061 52.8366 63.0795 52.7748C63.09 52.7725 63.1008 52.7713 63.1118 52.7713C67.7701 52.7732 71.0094 52.7725 72.8299 52.7693C73.0918 52.7688 73.2754 52.7965 73.3807 52.8524C74.1403 53.2535 73.8848 54.364 73.0236 54.362C72.122 54.3597 69.1386 54.359 64.0733 54.3599C64.0631 54.3599 64.0533 54.364 64.0461 54.3712C64.0389 54.3784 64.0348 54.3882 64.0348 54.3984V61.1166C64.0348 61.1235 64.0376 61.1301 64.0425 61.135C64.0474 61.1399 64.054 61.1427 64.0609 61.1427C66.7651 61.1372 69.3632 61.1372 71.8553 61.1427C72.0472 61.1431 72.2175 61.2194 72.3663 61.3714C72.6635 61.6749 72.7028 62.0051 72.4844 62.3617C72.3453 62.5884 72.1296 62.7019 71.8375 62.7024C69.4053 62.7051 66.8147 62.7056 64.0657 62.7038Z" fill="white"/>
<path d="M83.4744 70.0776C85.7239 70.0804 88.5617 70.0804 91.9879 70.0776C92.4199 70.0776 92.6328 70.1436 92.869 70.4732C93.1225 70.8269 92.9515 71.3928 92.5442 71.5899C92.4357 71.6426 92.2489 71.6689 91.9838 71.6689C89.6189 71.6675 86.4349 71.6671 82.4318 71.6675C82.4213 71.6676 82.4112 71.6664 82.4016 71.6641C82.1356 71.6078 81.9426 71.4766 81.8226 71.2706C81.7558 71.1557 81.7231 70.9338 81.7244 70.6051C81.7263 70.1426 81.7265 64.5503 81.7251 53.8281C81.7251 53.5552 81.7489 53.3652 81.7965 53.258C81.8803 53.0694 82.0154 52.9353 82.2018 52.8556C82.6028 52.683 82.9531 52.7693 83.2526 53.1145C83.3684 53.2477 83.4263 53.394 83.4263 53.5534C83.4291 62.3132 83.4291 67.805 83.4263 70.0289C83.4263 70.0418 83.4314 70.0542 83.4404 70.0633C83.4494 70.0725 83.4616 70.0776 83.4744 70.0776Z" fill="white"/>
<path d="M101.844 61.1124C101.844 61.1197 101.847 61.1267 101.852 61.1319C101.857 61.137 101.863 61.1399 101.871 61.1399C103.476 61.1381 106.003 61.1376 109.449 61.1385C109.708 61.1385 109.883 61.1619 109.974 61.2086C110.622 61.541 110.636 62.4325 109.913 62.6948C109.846 62.7191 109.731 62.7308 109.567 62.7298C109.289 62.7289 106.721 62.7287 101.864 62.7292C101.859 62.7292 101.854 62.7313 101.85 62.7352C101.846 62.7391 101.844 62.7443 101.844 62.7498V70.0387C101.844 70.0489 101.848 70.0587 101.855 70.0659C101.862 70.0731 101.872 70.0772 101.882 70.0772C107.164 70.0795 110.099 70.0788 110.686 70.0751C110.946 70.0733 111.129 70.1044 111.236 70.1685C111.967 70.6074 111.728 71.665 110.865 71.665C105.923 71.6664 102.592 71.6666 100.873 71.6657C100.845 71.6657 100.817 71.6618 100.79 71.654C100.444 71.5551 100.232 71.3331 100.152 70.9879C100.147 70.9646 100.144 70.9408 100.144 70.9171C100.145 60.5932 100.144 54.8516 100.142 53.6923C100.141 53.1928 100.373 52.8867 100.837 52.7741C100.848 52.7714 100.86 52.77 100.871 52.77C104.419 52.7723 107.718 52.772 110.769 52.7693C111.098 52.7693 111.275 52.8435 111.482 53.066C111.594 53.1864 111.656 53.34 111.67 53.5268C111.695 53.8874 111.503 54.1635 111.171 54.3091C111.078 54.3498 110.917 54.3665 110.69 54.3592C110.683 54.3592 107.746 54.3592 101.877 54.3592C101.868 54.3592 101.86 54.3628 101.854 54.3691C101.847 54.3754 101.844 54.3839 101.844 54.3929V61.1124Z" fill="white"/>
<path d="M121.243 61.114C121.243 61.1176 121.243 61.1211 121.245 61.1245C121.246 61.1278 121.248 61.1308 121.251 61.1334C121.253 61.1359 121.256 61.138 121.259 61.1393C121.263 61.1407 121.266 61.1414 121.27 61.1414C122.875 61.1396 125.401 61.1394 128.848 61.1407C129.107 61.1407 129.282 61.1641 129.373 61.2108C130.021 61.5432 130.035 62.4347 129.312 62.697C129.245 62.7213 129.13 62.733 128.966 62.732C128.688 62.7311 126.12 62.7307 121.263 62.7307C121.261 62.7307 121.258 62.7312 121.255 62.7322C121.253 62.7333 121.251 62.7348 121.249 62.7367C121.247 62.7386 121.245 62.7409 121.244 62.7434C121.243 62.7459 121.243 62.7486 121.243 62.7513L121.242 70.0402C121.242 70.0504 121.246 70.0602 121.253 70.0674C121.26 70.0746 121.27 70.0787 121.28 70.0787C126.563 70.0814 129.498 70.081 130.085 70.0773C130.345 70.0755 130.528 70.1066 130.635 70.1707C131.366 70.6096 131.127 71.6672 130.264 71.6672C125.321 71.6686 121.99 71.6686 120.272 71.6672C120.243 71.6672 120.215 71.6633 120.188 71.6556C119.843 71.5567 119.63 71.3346 119.55 70.9894C119.545 70.9661 119.542 70.9423 119.542 70.9186C119.544 60.5947 119.544 54.8531 119.542 53.6938C119.541 53.1943 119.772 52.8882 120.237 52.7756C120.248 52.7729 120.26 52.7715 120.271 52.7715C123.818 52.7738 127.118 52.7738 130.168 52.7715C130.498 52.7715 130.674 52.8457 130.881 53.0682C130.993 53.1886 131.056 53.3422 131.069 53.529C131.095 53.8896 130.902 54.1657 130.571 54.3113C130.477 54.352 130.317 54.3687 130.089 54.3614C130.083 54.3614 127.145 54.3612 121.277 54.3607C121.268 54.3607 121.26 54.3643 121.253 54.3706C121.247 54.3769 121.243 54.3854 121.243 54.3944L121.243 61.114Z" fill="white"/>
<path d="M144.551 52.7744C148.684 52.7753 150.754 52.7757 150.762 52.7757C151.074 52.778 151.279 52.8082 151.377 52.8664C151.906 53.1796 151.946 53.9206 151.39 54.2173C151.249 54.2924 151.024 54.3249 150.714 54.3148C150.59 54.3103 148.833 54.3093 145.443 54.3121C145.428 54.3121 145.415 54.3179 145.404 54.3282C145.394 54.3385 145.388 54.3525 145.388 54.367C145.385 65.1547 145.385 70.5896 145.386 70.6715C145.391 70.9261 145.365 71.1063 145.309 71.212C145.15 71.5121 144.894 71.6701 144.547 71.6701C144.202 71.6701 143.946 71.5121 143.787 71.212C143.73 71.1063 143.705 70.9261 143.71 70.6715C143.711 70.5896 143.712 65.1547 143.713 54.367C143.713 54.3525 143.707 54.3385 143.697 54.3282C143.687 54.3179 143.673 54.3121 143.658 54.3121C140.268 54.308 138.511 54.3082 138.387 54.3128C138.077 54.3229 137.852 54.2903 137.711 54.2153C137.156 53.9186 137.195 53.1775 137.725 52.8643C137.823 52.8062 138.028 52.776 138.34 52.7737C138.348 52.7737 140.418 52.7739 144.551 52.7744Z" fill="white"/>
</g>
<defs>
<clipPath id="clip0_13400_1803">
<rect width="112.428" height="25.8921" fill="white" transform="translate(39.3876 49.2946)"/>
</clipPath>
</defs>
</svg>
