<svg width="28" height="24" viewBox="0 0 28 24" fill="none" xmlns="http://www.w3.org/2000/svg">
<path d="M19.8817 0.0139648C19.7115 0.0836047 19.6806 0.323476 19.8082 0.58269C19.8547 0.671675 19.963 0.857381 20.052 0.996661C20.288 1.3642 20.876 2.38172 21.1391 2.87306C21.2629 3.10519 21.4177 3.38374 21.4873 3.49209C22.1412 4.51348 22.3578 4.9081 22.3578 5.08606C22.3578 5.24081 22.0599 5.89853 21.9477 5.99138C21.8665 6.06102 21.7891 6.00684 21.673 5.79407C21.6189 5.69735 21.4873 5.46133 21.3751 5.27177C21.2629 5.07831 21.0966 4.78429 21.0037 4.61405C20.671 3.99504 20.2996 3.39149 20.0945 3.14389C19.9707 2.99301 19.8585 2.8073 19.8198 2.68736C19.7115 2.3469 19.0925 1.11273 18.8487 0.745183C18.5779 0.342818 18.4386 0.195802 18.2607 0.145507C18.1137 0.102949 17.8854 0.176458 17.8467 0.277049C17.8157 0.362164 17.897 0.590428 18.0634 0.880594C18.1407 1.01987 18.3342 1.36807 18.4889 1.65437C18.6437 1.94067 18.8836 2.3585 19.0228 2.5829C19.1621 2.8073 19.4484 3.34507 19.6612 3.78226C19.9669 4.41674 20.1061 4.66047 20.3653 5.00481C20.9031 5.71282 21.3132 6.46725 21.3132 6.74195C21.3132 7.03983 20.9341 7.70916 20.8103 7.63177C20.7522 7.59695 20.1526 6.67231 19.9204 6.26219C19.816 6.07262 19.6419 5.71668 19.5374 5.46908C19.4175 5.18277 19.2279 4.83846 19.019 4.52508C18.7017 4.05307 18.516 3.73194 17.986 2.77634C17.8506 2.5326 17.6107 2.1225 17.4521 1.86716C17.2934 1.61181 17.0768 1.2404 16.9685 1.03535C16.7209 0.567215 16.5738 0.354425 16.4539 0.27318C16.3262 0.191933 16.0013 0.195802 15.8697 0.280917C15.7846 0.33895 15.773 0.366032 15.7923 0.497575C15.8117 0.648462 15.9239 0.830297 16.2411 1.23653C16.3185 1.33712 16.4849 1.61568 16.6087 1.85555C16.8988 2.41267 17.2857 3.10133 17.5217 3.47274C17.6223 3.63137 17.8274 3.98729 17.9821 4.26585C18.1369 4.54055 18.4193 5.01256 18.6127 5.31045C18.8062 5.60836 19.1041 6.1113 19.2743 6.43243C19.5993 7.04372 19.8392 7.48477 20.1642 8.05736C20.4118 8.49455 20.4195 8.62222 20.2183 8.95493C20.0365 9.2567 19.9514 9.33023 19.8276 9.29927C19.7463 9.27991 19.6844 9.17934 19.4832 8.7615C19.3478 8.48294 19.1234 8.08443 18.988 7.88326C18.8487 7.68209 18.6282 7.32228 18.4889 7.09015C18.3535 6.85413 18.1523 6.50593 18.044 6.31636C17.9318 6.12291 17.8119 5.89078 17.7771 5.79407C17.7113 5.61611 17.5256 5.33755 17.131 4.82297C17.0033 4.66047 16.8485 4.3858 16.7634 4.18849C16.6822 3.99504 16.4655 3.61202 16.2837 3.33732C16.0825 3.03555 15.7033 2.35464 15.3397 1.63503C15.0031 0.973447 14.682 0.393116 14.6278 0.342818C14.5466 0.269311 14.5001 0.257704 14.3454 0.269311C14.0823 0.296392 13.9623 0.385377 13.9623 0.551738C13.9623 0.718101 14.0823 0.95797 14.4498 1.52283C14.6046 1.75496 15.0185 2.51713 15.3667 3.20965C15.7188 3.90604 16.0593 4.5483 16.1251 4.64115C16.4384 5.07059 16.6358 5.38397 16.864 5.79407C16.9994 6.0378 17.2199 6.40536 17.3515 6.61039C17.4869 6.81545 17.7616 7.27586 17.9589 7.63566C18.3845 8.39781 18.4928 8.57966 18.8333 9.10196C19.3091 9.82931 19.4562 10.1001 19.4562 10.2472C19.4562 10.4135 19.2975 10.7423 19.1273 10.9242C18.9996 11.0596 18.9958 11.0596 18.8797 10.9977C18.7327 10.9242 18.5663 10.7037 18.3884 10.3477C18.1872 9.9531 17.5565 8.86596 17.247 8.3746C17.0923 8.13861 16.8369 7.68595 16.6706 7.37257C16.5081 7.06305 16.2914 6.71485 16.1947 6.59878C15.9432 6.30476 15.7537 5.97202 15.6647 5.67414C15.6221 5.53486 15.5331 5.34141 15.4673 5.24855C15.1772 4.83071 15.0611 4.62954 14.887 4.26199C14.7864 4.04532 14.5969 3.72423 14.4653 3.54624C14.3338 3.37214 14.1248 3.01622 14.0011 2.76087C13.8772 2.50165 13.6567 2.1225 13.5174 1.91358C13.3743 1.70079 13.1189 1.27522 12.9448 0.965709C12.6818 0.493705 12.6044 0.385377 12.4922 0.331212C12.3684 0.265442 12.144 0.261573 9.52089 0.261573H6.68499L6.59213 0.358296C6.51477 0.431803 6.49542 0.489837 6.49542 0.640723C6.49542 0.741315 6.51477 0.845774 6.54185 0.872855C6.57667 0.907675 7.2421 0.919282 9.29262 0.919282C11.7455 0.919282 12.0086 0.927021 12.1053 0.985054C12.2252 1.05469 12.5695 1.63115 12.5695 1.75883C12.5695 1.80525 12.5425 1.85168 12.5077 1.86329C12.4728 1.87489 10.9833 1.8865 9.19202 1.8865C7.00997 1.8865 5.88413 1.90198 5.78742 1.92906C5.62492 1.97162 5.52821 2.13024 5.52821 2.34303C5.52821 2.57516 5.3425 2.56356 9.21912 2.5829C12.1904 2.59838 12.8017 2.60998 12.8907 2.65641C12.9526 2.68736 13.0841 2.84985 13.2041 3.04329C13.4788 3.48434 13.5097 3.54624 13.4826 3.61588C13.4594 3.67005 13.3975 3.67391 13.0416 3.65459C12.8133 3.63909 10.8518 3.62748 8.68521 3.62748C5.34636 3.62362 4.73121 3.63137 4.68864 3.6778C4.61129 3.7513 4.54165 4.29681 4.59193 4.38966C4.63061 4.45544 4.82792 4.4593 9.25005 4.4593C14.4808 4.4593 13.9623 4.42448 14.2873 4.80364C14.4576 5.00481 14.5775 5.23309 14.5311 5.27563C14.5195 5.28723 12.144 5.29884 9.25005 5.30273C3.15657 5.31045 3.82589 5.2563 3.82589 5.75539C3.82589 6.00299 3.8375 6.06102 3.89553 6.08809C3.93035 6.10744 6.41803 6.1268 9.42029 6.1268C12.4226 6.13066 14.918 6.14612 14.9605 6.15773C15.0805 6.19644 15.2855 6.44404 15.4635 6.76902C15.7072 7.20622 15.7188 7.19072 15.1153 7.15979C14.8328 7.14043 11.9854 7.12883 8.78967 7.12883H2.98247L2.87802 7.22554C2.82385 7.27586 2.66523 7.52731 2.52595 7.7788C2.38667 8.03415 2.16614 8.39781 2.03847 8.59512C1.9108 8.78858 1.76378 9.02846 1.71348 9.12903C1.66319 9.23349 1.60129 9.31473 1.57807 9.31473C1.55486 9.31473 1.44266 9.51979 1.32273 9.76739C1.20279 10.0189 0.990002 10.4058 0.846855 10.6302C0.463836 11.2298 0.0382595 12.0655 0.0111774 12.2667C-0.0120359 12.4215 -0.00429811 12.4485 0.084686 12.5066C0.227834 12.5994 0.456097 12.5259 0.680494 12.3209C0.881675 12.1351 0.947447 12.0384 1.26469 11.4581C1.3885 11.226 1.59355 10.8739 1.71348 10.6727C2.05008 10.1195 2.25513 9.75193 2.53756 9.19095C3.10628 8.04961 3.30746 7.8523 3.94971 7.7788C4.1857 7.75559 4.29016 7.79815 4.29016 7.91422C4.29016 7.94904 4.15088 8.28174 3.97678 8.65316C3.52412 9.63972 3.44673 9.78675 3.29974 9.99567C2.99022 10.4367 2.81998 10.7114 2.60719 11.1138C2.48339 11.3459 2.28221 11.6864 2.16227 11.8682C2.04234 12.05 1.87985 12.3092 1.80247 12.4485C1.72509 12.5878 1.6245 12.7426 1.58194 12.789C1.46587 12.9128 1.07899 13.6943 1.05191 13.8568C1.03643 13.9574 1.05191 14.0077 1.11381 14.0696C1.19892 14.1547 1.44266 14.1818 1.48522 14.1122C1.50069 14.0889 1.52391 14.0812 1.53938 14.0889C1.63611 14.1508 2.19322 13.3732 2.49886 12.758C2.64201 12.4717 2.87415 12.0694 3.01729 11.8682C3.37709 11.3575 3.45448 11.2221 4.10831 9.93377C4.7815 8.59901 5.05234 8.12314 5.21869 7.98386C5.35797 7.86779 5.52046 7.81748 5.95766 7.76333C6.45674 7.70141 6.47607 7.77105 6.10854 8.36688C5.8648 8.76922 5.81838 8.84661 5.42761 9.59718C5.2303 9.9802 4.9672 10.4406 4.84342 10.6224C4.71961 10.8081 4.4449 11.2995 4.22827 11.7134C3.46609 13.1797 3.36163 13.3616 3.16818 13.5667C3.03278 13.7136 2.88575 13.9535 2.64975 14.4217C2.46792 14.7776 2.27447 15.1374 2.22031 15.2148C2.03847 15.4856 2.13519 15.7371 2.41762 15.7371C2.53756 15.7371 2.59172 15.7023 2.79677 15.4934C2.92832 15.3618 3.11403 15.1297 3.2146 14.9827C3.43902 14.6422 3.99225 13.6208 4.29016 13.0018C4.41783 12.7426 4.64611 12.3402 4.80471 12.1119C4.96334 11.8798 5.17612 11.5355 5.28447 11.3459C5.74099 10.5334 5.95766 10.1543 6.29036 9.6049C6.48381 9.2838 6.77012 8.78083 6.92872 8.48294C7.27306 7.82908 7.32724 7.78655 7.83404 7.78655C8.19385 7.78655 8.27509 7.82908 8.27509 8.01868C8.27509 8.18503 7.94625 8.84275 7.68316 9.19481C7.47038 9.48112 7.03318 10.2588 6.75463 10.843C6.55731 11.253 6.36 11.578 6.17818 11.7908C5.9383 12.0655 5.73324 12.3944 5.48564 12.9128C5.35411 13.1797 5.1297 13.555 4.9827 13.7562C4.83567 13.9574 4.6345 14.2708 4.53776 14.4565C4.14313 15.1916 3.61698 16.151 3.53187 16.2865C3.48155 16.3677 3.43902 16.4412 3.43902 16.449C3.43902 16.4606 3.35002 16.6037 3.24556 16.7662C3.03278 17.0912 3.03664 17.0835 3.09082 17.2227C3.16046 17.4046 3.51252 17.5477 3.65565 17.4471C3.7524 17.3775 3.91875 17.1067 4.22052 16.507C4.40237 16.1549 4.73121 15.5901 4.9556 15.2496C5.18001 14.913 5.4779 14.4333 5.61332 14.1895C5.74874 13.9458 5.94216 13.6208 6.0389 13.4738C6.1859 13.2455 6.50317 12.7039 7.09511 11.6748C7.16475 11.5587 7.2692 11.3807 7.3311 11.2801C7.80697 10.5141 7.98493 10.1968 8.15903 9.81382C8.61169 8.8234 9.11466 7.97611 9.30808 7.88712C9.4435 7.82137 9.84588 7.78655 10.0316 7.82137C10.1593 7.84458 10.1709 7.86005 10.1709 7.97611C10.1709 8.11925 9.517 9.4463 9.14559 10.0498C8.662 10.8391 8.42987 11.2492 8.17063 11.7521C8.02364 12.0384 7.66769 12.6497 7.38138 13.1062C7.09511 13.5628 6.79333 14.0851 6.71209 14.2669C6.63084 14.4488 6.53024 14.6693 6.48767 14.7544C6.44899 14.8434 6.31357 15.0329 6.18979 15.1722C5.94605 15.4469 5.70617 15.8454 5.35797 16.5418C5.23804 16.7817 4.99042 17.1956 4.8086 17.4626C4.40237 18.0623 4.13541 18.5923 4.13541 18.8051C4.13541 18.9096 4.17795 19.0256 4.27081 19.1843C4.34819 19.308 4.48361 19.5557 4.57647 19.7375C4.66932 19.9193 4.82021 20.1747 4.91306 20.3101C5.00202 20.4455 5.12584 20.6235 5.18387 20.7086C5.2419 20.7937 5.34636 21.0026 5.41214 21.169C5.53982 21.4978 5.72163 21.7958 6.10465 22.3142C6.24007 22.4922 6.39482 22.7359 6.45285 22.8558C6.65405 23.2698 6.85137 23.6102 6.94422 23.707C7.02158 23.7843 7.07575 23.8037 7.22278 23.7998C7.45102 23.796 7.64834 23.6992 7.6793 23.5716C7.69865 23.4942 7.64062 23.3781 7.37752 22.9796C7.19568 22.7088 6.87844 22.1904 6.66952 21.8306C6.4606 21.4669 6.2014 21.0258 6.08919 20.844C5.97698 20.6622 5.82224 20.3914 5.74485 20.2443C5.67135 20.0934 5.50886 19.8071 5.39279 19.606C5.0678 19.045 5.04459 18.9212 5.20322 18.4763C5.38893 17.9578 5.48564 17.9346 5.73324 18.3563C5.82998 18.5227 6.03115 18.8322 6.18204 19.045C6.33293 19.2578 6.54571 19.606 6.65405 19.8187C7.07961 20.6467 7.36978 21.1535 7.69865 21.6371C7.88436 21.9118 8.10099 22.2793 8.17838 22.4496C8.69682 23.5909 8.89413 23.9004 9.09531 23.9004C9.3313 23.9004 9.59439 23.4826 9.5325 23.204C9.517 23.1421 9.39708 22.968 9.26555 22.821C8.95217 22.4728 8.69293 22.0317 8.15131 20.9369C7.72958 20.0896 7.42395 19.5673 7.19568 19.3158C7.02547 19.1301 6.94033 18.9908 6.78173 18.6194C6.58053 18.1397 6.39482 17.834 6.15108 17.5632C5.80677 17.1763 5.80677 17.1956 6.08919 16.7237C6.32907 16.3174 6.37935 16.2671 6.50317 16.2865C6.57281 16.2942 6.64631 16.4064 6.86683 16.8281C7.18021 17.4355 7.27692 17.5864 7.57098 17.9501C7.70251 18.1126 7.90757 18.4685 8.12421 18.898C8.61943 19.8923 8.96377 20.5151 9.19591 20.8324C9.30808 20.9833 9.4319 21.1845 9.47447 21.2773C9.58664 21.5327 9.93484 22.1323 10.2095 22.5463C10.345 22.7475 10.5423 23.0841 10.6506 23.2969C10.8595 23.707 10.9562 23.8037 11.1149 23.7611C11.3934 23.6915 11.4476 23.3394 11.2503 22.8829C11.0723 22.4767 10.5075 21.5017 10.2018 21.0723C10.047 20.8517 9.84588 20.4997 9.72206 20.225C9.44736 19.6214 9.37772 19.5092 9.04888 19.1727C8.89799 19.0218 8.77807 18.8786 8.77807 18.8554C8.77418 18.7239 8.49562 18.1087 8.30606 17.8069C8.18224 17.6135 8.04296 17.3349 7.98882 17.184C7.8534 16.7778 7.87275 16.8126 7.10282 15.7874C6.90551 15.5243 6.90165 15.3966 7.0835 15.0948C7.42395 14.5416 7.56709 14.4255 7.68704 14.6151C7.74508 14.7118 8.15131 15.5243 8.57687 16.3948C8.77418 16.801 8.99085 17.1763 9.1688 17.4201C9.32358 17.6328 9.49379 17.8843 9.54411 17.981C9.59439 18.0777 9.71821 18.3099 9.82266 18.5033C9.92324 18.6929 10.1631 19.0914 10.3527 19.3816C10.5616 19.6988 10.8905 20.2946 11.1768 20.8711C11.6178 21.7532 11.8151 22.0782 12.1788 22.5076C12.3026 22.6546 12.5695 23.1692 12.6431 23.4091C12.7166 23.6335 12.7746 23.6683 13.057 23.6683C13.2543 23.6683 13.3201 23.6528 13.382 23.5909C13.5523 23.4207 13.4439 23.0841 13.0493 22.5618C12.674 22.0666 12.6005 21.9389 12.438 21.5094C12.2987 21.1303 12.2523 21.0568 11.8809 20.639C11.7184 20.4571 11.6062 20.283 11.525 20.0818C11.4553 19.9193 11.169 19.3351 10.8866 18.778C10.4069 17.834 10.3604 17.7566 10.167 17.598C9.91552 17.393 9.91552 17.3891 9.81878 17.0409C9.70271 16.6231 9.54411 16.329 9.26555 16.0079C9.10691 15.8299 8.91735 15.5436 8.76646 15.2535C8.62718 14.9981 8.41051 14.5919 8.27898 14.3482C8.14742 14.1044 8.0275 13.8607 8.01975 13.8026C7.98882 13.6556 8.06617 13.4119 8.22095 13.1449C8.37569 12.878 8.45694 12.8548 8.56526 13.0366C8.73936 13.3461 8.99859 13.7253 9.17269 13.9342C9.3584 14.1586 9.47447 14.352 9.52861 14.5261C9.56732 14.6461 9.90002 15.2225 10.1399 15.5746C10.4378 16.0157 10.5539 16.2284 11.1806 17.4781C11.7803 18.6736 11.9003 18.8825 12.1788 19.2152C12.2717 19.3235 12.4496 19.6098 12.5773 19.8497C12.705 20.0857 12.8984 20.4223 13.0106 20.5925C13.1228 20.7628 13.3356 21.1187 13.4788 21.3818C13.6219 21.6487 13.8153 21.9815 13.9043 22.1207C13.9972 22.2639 14.1248 22.4844 14.1868 22.6082C14.5698 23.3549 14.651 23.4942 14.7477 23.5677C14.8561 23.6489 14.8754 23.6489 17.8274 23.6489C20.3267 23.6489 20.8103 23.6412 20.8644 23.5948C20.9147 23.5522 20.9263 23.4903 20.9186 23.3472C20.907 23.1266 20.818 23.0338 20.5549 22.9641C20.4621 22.9409 19.4214 22.9139 17.8854 22.8984C15.5099 22.8752 15.359 22.8713 15.2855 22.8055C15.2004 22.7281 14.8135 22.0782 14.8135 22.0124C14.8135 21.9853 15.9123 21.9699 18.2684 21.9699C21.4602 21.966 21.7233 21.9621 21.7697 21.9002C21.8239 21.8267 21.8316 21.3547 21.7814 21.2735C21.7504 21.227 21.1933 21.2193 18.1098 21.227C14.8948 21.2347 14.4576 21.2309 14.357 21.1767C14.2873 21.1419 14.1752 21.0065 14.0707 20.8363C13.9778 20.6815 13.8772 20.5151 13.8463 20.4687C13.8153 20.4223 13.7999 20.372 13.8115 20.3604C13.8231 20.3488 15.7382 20.3333 18.0672 20.3294C20.3963 20.3217 22.3501 20.3024 22.4081 20.283C22.5706 20.2405 22.6402 20.0702 22.6209 19.7723C22.6132 19.6408 22.5861 19.5092 22.559 19.4821C22.5242 19.4473 21.4912 19.4357 17.986 19.4473C14.5466 19.4551 13.4246 19.4473 13.3163 19.4125C13.1151 19.3468 12.9913 19.2191 12.8597 18.9482C12.6663 18.5459 12.0937 18.5846 18.133 18.6116L23.4063 18.6388L23.4991 18.542C23.5842 18.4608 23.5958 18.4143 23.5958 18.159C23.5958 17.8959 23.5881 17.8611 23.5107 17.8185C23.4411 17.7799 22.3423 17.7644 18.0634 17.7605C15.1153 17.7528 12.616 17.7412 12.5077 17.7295C12.3993 17.7141 12.2601 17.6715 12.1904 17.6328C12.0472 17.5438 11.7184 17.0061 11.7184 16.8552C11.7184 16.7159 11.7997 16.7082 12.6469 16.7469C13.0183 16.7623 15.7923 16.7778 18.8062 16.7778L24.2922 16.7817L24.4354 16.6501C24.5167 16.5766 24.7101 16.2942 24.8649 16.0195C25.0235 15.7487 25.3136 15.2612 25.5187 14.944C25.7199 14.6229 25.9481 14.2398 26.0216 14.0928C26.099 13.9419 26.2073 13.7524 26.2654 13.6672C26.4743 13.3616 27.1591 11.9456 27.1629 11.8063C27.1707 11.5548 26.8535 11.3536 26.6871 11.5045C26.6445 11.5432 26.5478 11.7057 26.4704 11.8643C26.393 12.0268 26.3002 12.2009 26.2577 12.2551C26.1377 12.406 25.8398 12.9321 25.3098 13.9303C25.039 14.4449 24.7527 14.9323 24.6637 15.0329C24.4238 15.3038 24.3193 15.4546 24.1569 15.7719C23.9595 16.1472 23.8628 16.2091 23.4914 16.1936C23.3366 16.1859 23.1896 16.1588 23.1625 16.1317C23.0387 16.0079 23.1509 15.6752 23.5572 14.9633C23.7003 14.7196 23.8938 14.3443 23.9866 14.1315C24.0833 13.9187 24.2845 13.5705 24.4315 13.3577C24.7449 12.9089 24.7797 12.8509 25.1279 12.2357C25.2711 11.9804 25.5187 11.5548 25.6773 11.2879C25.8359 11.0248 26.0255 10.6921 26.0952 10.5489C26.1648 10.4096 26.2499 10.2704 26.2847 10.2433C26.4201 10.1311 26.2925 9.82157 26.0448 9.67454L25.8862 9.58169L25.7856 9.67068C25.6966 9.75193 25.391 10.2665 24.95 11.0751C24.8571 11.2453 24.6366 11.5974 24.4586 11.8527C24.1491 12.3092 23.7777 13.0289 23.3637 13.9729C23.2244 14.2863 23.1161 14.4642 22.9498 14.6577C22.826 14.8008 22.5938 15.149 22.4275 15.4353C22.265 15.7177 22.0909 15.9808 22.0367 16.0234C21.9129 16.1162 21.3403 16.1936 21.1585 16.1394C20.9728 16.0853 20.9379 16.0118 21.0153 15.8106C21.0927 15.6055 21.3713 15.1413 21.6034 14.8279C21.8123 14.5455 22.1566 13.969 22.4545 13.3964C22.5784 13.1604 22.7563 12.8509 22.8569 12.7078C23.2438 12.1351 23.4295 11.8179 23.886 10.9436C24.1452 10.4406 24.5283 9.75967 24.7372 9.4308C25.2711 8.58352 25.275 8.5758 25.244 8.44424C25.2285 8.38234 25.1202 8.23532 25.0041 8.11925C24.8068 7.92194 24.7913 7.91422 24.7101 7.96837C24.6559 8.00318 24.4431 8.37849 24.1762 8.8969C23.9324 9.37277 23.6694 9.8796 23.592 10.015C23.5146 10.1504 23.3715 10.4213 23.2748 10.6147C23.178 10.8081 23.0581 11.017 23.0078 11.0789C22.8646 11.253 22.3578 12.0655 22.3578 12.1158C22.3578 12.1622 21.7775 13.1643 21.5918 13.4467C21.468 13.6324 21.2668 13.9845 21.1507 14.2282C20.9147 14.7118 20.6207 15.1645 20.2299 15.6636C19.9359 16.035 19.7889 16.1201 19.3633 16.151C19.1312 16.1704 19.077 16.1626 19.0306 16.1046C18.9803 16.0427 18.988 16.0079 19.1196 15.7796C19.1969 15.6404 19.4213 15.2109 19.6148 14.8279C19.932 14.205 20.3112 13.5744 20.5008 13.3577C20.5394 13.3152 20.7019 13.0366 20.8567 12.7387C21.1468 12.1971 21.2591 12.0075 21.8549 11.0751C22.1798 10.5683 22.4661 10.0343 22.5474 9.77514C22.5706 9.69775 22.6673 9.54687 22.7641 9.43855C23.0271 9.12517 23.0503 9.08649 23.5881 8.038C24.0833 7.07079 24.1685 6.85027 24.122 6.67617C24.0988 6.57557 23.8899 6.33572 23.8319 6.33572C23.7545 6.33572 23.6346 6.50982 23.3792 7.00116C23.2283 7.28746 23.031 7.60084 22.9111 7.74012C22.7795 7.89101 22.6016 8.17728 22.4275 8.51776C22.2766 8.81565 21.9245 9.44241 21.6421 9.91056C21.3597 10.3825 21.0269 10.9552 20.9031 11.1911C20.5588 11.845 20.3924 12.1003 20.1912 12.3131C20.0094 12.4988 19.8198 12.8277 19.7038 13.1565C19.5645 13.5473 18.9416 14.6654 18.4773 15.3579C18.3651 15.5204 18.2297 15.7371 18.1678 15.8338C18.0324 16.0621 17.897 16.1201 17.394 16.1472C17.0575 16.1704 16.9917 16.1626 16.9452 16.1124C16.8524 15.9963 16.8988 15.9112 17.572 15.0059C17.6765 14.8666 17.8622 14.5532 17.9898 14.3017C18.1175 14.0541 18.2645 13.7833 18.3187 13.702C18.5586 13.35 19.3788 11.9185 19.6225 11.4233C19.7695 11.1254 20.0404 10.6456 20.2222 10.3593C20.6671 9.65521 20.9844 9.11742 21.2784 8.5603C21.4138 8.30885 21.6614 7.90647 21.8316 7.67048C22.0019 7.4306 22.234 7.03983 22.3578 6.77288C22.4816 6.51368 22.6557 6.19644 22.7447 6.06488C23.12 5.51165 23.2864 5.20213 23.2864 5.05899C23.2864 4.90421 23.178 4.71465 22.9614 4.47866C22.7525 4.25424 22.5551 3.95247 22.4004 3.60816C22.2147 3.20965 21.882 2.63706 21.5647 2.17667C21.4332 1.98322 21.2204 1.61181 21.0888 1.34486C20.8451 0.841904 20.4582 0.219016 20.3151 0.0952113C20.2338 0.0217026 19.9823 -0.0247239 19.8817 0.0139648ZM15.1888 7.84069C15.889 7.8639 15.9858 7.87551 16.0786 7.94515C16.1831 8.02254 16.2837 8.18889 16.8408 9.21802C17.0149 9.53526 17.2934 10.0073 17.4559 10.2626C17.6223 10.518 17.8893 10.9861 18.0479 11.3034C18.2878 11.7676 18.338 11.903 18.3226 12.0036C18.3071 12.1042 18.1021 12.5839 17.8041 13.2146C17.7693 13.2842 17.6223 13.4738 17.4753 13.6363C17.2625 13.8723 17.1503 14.0425 16.9452 14.4565C16.686 14.9827 16.1754 15.799 16.0013 15.9615C15.8465 16.1085 15.5757 16.124 13.4323 16.1046C11.0684 16.0814 11.169 16.0969 11.0607 15.6984C10.9717 15.3695 10.6042 14.7505 10.2289 14.3056C10.1167 14.1702 9.91552 13.822 9.68724 13.3538C9.43576 12.8432 9.26166 12.5375 9.11077 12.3557C8.99085 12.2087 8.89413 12.0578 8.89413 12.0152C8.89413 11.9146 8.99085 11.7367 9.1688 11.5084C9.38547 11.2337 9.57504 10.8778 9.7917 10.3439C10.0354 9.73257 10.0587 9.69389 10.3759 9.3573C10.5732 9.14838 10.6816 8.99364 10.7744 8.77697C10.9175 8.45584 11.1651 7.96836 11.2271 7.89101C11.2464 7.86779 11.3199 7.82909 11.3857 7.80976C11.5095 7.77105 13.7418 7.79041 15.1888 7.84069Z" fill="#9C9C9C"/>
</svg>
