<svg width="15" height="14" viewBox="0 0 15 14" fill="none" xmlns="http://www.w3.org/2000/svg">
<path d="M7.14402 0C6.20586 0 5.27688 0.184786 4.41012 0.543806C3.54337 0.902827 2.75582 1.42905 2.09244 2.09244C0.752672 3.4322 0 5.24931 0 7.14402C0 10.3017 2.05033 12.9807 4.88651 13.9308C5.24371 13.988 5.35802 13.7665 5.35802 13.5736V12.3663C3.37912 12.7949 2.95763 11.409 2.95763 11.409C2.629 10.5803 2.16464 10.3588 2.16464 10.3588C1.51453 9.9159 2.21465 9.93019 2.21465 9.93019C2.92905 9.9802 3.30768 10.666 3.30768 10.666C3.92921 11.7519 4.97938 11.4304 5.38659 11.259C5.45089 10.7946 5.63663 10.4803 5.83667 10.3017C4.25069 10.1231 2.58614 9.50869 2.58614 6.78682C2.58614 5.99383 2.85761 5.35802 3.32197 4.85079C3.25053 4.67219 3.00049 3.92921 3.39341 2.96477C3.39341 2.96477 3.99351 2.77188 5.35802 3.69346C5.92239 3.53629 6.53678 3.45771 7.14402 3.45771C7.75126 3.45771 8.36565 3.53629 8.93003 3.69346C10.2945 2.77188 10.8946 2.96477 10.8946 2.96477C11.2876 3.92921 11.0375 4.67219 10.9661 4.85079C11.4304 5.35802 11.7019 5.99383 11.7019 6.78682C11.7019 9.51584 10.0302 10.1159 8.43709 10.2945C8.69428 10.516 8.93003 10.9518 8.93003 11.6162V13.5736C8.93003 13.7665 9.04433 13.9951 9.40868 13.9308C12.2449 12.9735 14.288 10.3017 14.288 7.14402C14.288 6.20586 14.1033 5.27688 13.7442 4.41012C13.3852 3.54337 12.859 2.75582 12.1956 2.09244C11.5322 1.42905 10.7447 0.902827 9.87792 0.543806C9.01117 0.184786 8.08219 0 7.14402 0Z" fill="#D9D9D9"/>
</svg>
