<svg width="17" height="17" viewBox="0 0 17 17" fill="none" xmlns="http://www.w3.org/2000/svg">
<path d="M8.36512 16.3319C9.41152 16.3332 10.4479 16.1277 11.4146 15.7273C12.3814 15.3268 13.2595 14.7393 13.9984 13.9985C14.7393 13.2595 15.3268 12.3814 15.7273 11.4146C16.1277 10.4479 16.3332 9.41155 16.3319 8.36514C16.3332 7.31874 16.1277 6.28239 15.7273 5.31565C15.3268 4.3489 14.7393 3.47081 13.9984 2.73182C13.2595 1.99097 12.3814 1.40344 11.4146 1.00299C10.4479 0.602538 9.41152 0.397054 8.36512 0.398344C7.31872 0.397054 6.28237 0.602538 5.31563 1.00299C4.34888 1.40344 3.47079 1.99097 2.7318 2.73182C1.99095 3.47081 1.40342 4.3489 1.00297 5.31565C0.602515 6.28239 0.397031 7.31874 0.398321 8.36514C0.397031 9.41155 0.602515 10.4479 1.00297 11.4146C1.40342 12.3814 1.99095 13.2595 2.7318 13.9985C3.47079 14.7393 4.34888 15.3268 5.31563 15.7273C6.28237 16.1277 7.31872 16.3332 8.36512 16.3319Z" fill="#208622" stroke="#208622" stroke-width="0.79668" stroke-linejoin="round"/>
<path d="M5.17847 8.36504L7.56851 10.7551L12.3486 5.975" stroke="white" stroke-width="0.995851" stroke-linejoin="round"/>
</svg>
