<svg width="200" height="18" viewBox="0 0 200 18" fill="none" xmlns="http://www.w3.org/2000/svg">
<g clip-path="url(#clip0_13400_1447)">
<path d="M15.0877 11.5607V12.5576H13.9154V17.8994H21.5357V12.5576H20.3633V11.5607C20.3633 10.104 19.1909 8.92819 17.7381 8.92819C16.2856 8.92783 15.0877 10.1037 15.0877 11.5607ZM20.3378 16.7236H15.0877V13.7586H20.3123V16.7236H20.3378ZM19.1399 11.5607V12.5576H16.2856V11.5607C16.2856 10.7685 16.9226 10.1296 17.713 10.1296C18.5033 10.1296 19.1399 10.7681 19.1399 11.5607ZM0 9.97581V7.82872C0 7.01086 0.662501 6.37199 1.45283 6.37199H1.68228C2.14118 5.22174 2.90566 4.17376 3.89959 3.30477C4.02706 2.81931 3.92508 2.28236 3.56816 1.72019C3.33871 1.36223 3.33871 0.902339 3.56816 0.518803C3.79725 0.161191 4.20516 -0.0433616 4.63857 0.00777658C6.34599 0.212329 7.26379 1.08132 7.72233 1.77133L6.7284 2.43577C6.42247 1.97553 5.81096 1.3878 4.63857 1.20881C5.09747 2.02667 5.22459 2.84452 5.02099 3.63681V3.8925L4.81703 4.07149C3.79761 4.91491 3.03313 5.96289 2.65071 7.13871L2.49775 7.57338L2.08984 7.54781H1.47832C1.32536 7.54781 1.19788 7.67566 1.19788 7.82907V9.97617C1.19788 10.1296 1.32536 10.2574 1.47832 10.2574H2.52324L2.65071 10.6921C2.95665 11.7656 3.61915 12.7881 4.53659 13.6059L4.56209 13.6315C4.58758 13.6571 4.63857 13.6826 4.66406 13.7082H4.68956C5.73448 14.6539 5.83645 15.8041 5.86195 16.1106V16.1362V16.7239H8.46167V15.497L9.12417 15.5737C9.83766 15.6504 10.5515 15.6504 11.265 15.5481L11.9275 15.4458V16.7239H12.7175V17.9253H11.8255C11.2395 17.9253 10.7551 17.4399 10.7551 16.8518V16.8006C10.3982 16.8262 10.0416 16.8262 9.6592 16.8262V16.8518C9.6592 17.4395 9.17481 17.9253 8.58879 17.9253H5.70898C5.12296 17.9253 4.63857 17.4399 4.63857 16.8518V16.1362C4.63857 15.9828 4.56209 15.2416 3.87409 14.6028C3.8486 14.5772 3.79761 14.526 3.77211 14.5005L3.74662 14.4749C2.77818 13.6059 2.06469 12.5579 1.63129 11.4077H1.45283C0.637007 11.4329 0 10.7681 0 9.97581ZM17.4325 6.90894L18.5794 6.60211L18.7579 7.24099L18.9108 7.82872L17.764 8.10998L17.611 7.47111L17.4325 6.90894ZM16.3876 5.09389L17.3815 4.42945L17.713 4.91491C17.7385 4.94048 17.764 4.99162 17.7894 5.01719L18.1209 5.52821L17.1269 6.16708L16.7955 5.65606C16.77 5.63049 16.77 5.60492 16.7445 5.57935L16.3876 5.09389ZM15.2917 4.04627L14.8328 3.6883L15.5718 2.76817L16.0307 3.15171C16.0562 3.17728 16.0817 3.20285 16.1327 3.22842L16.5916 3.61195L15.8271 4.53208L15.2917 4.04627ZM13.4819 2.97272L12.9469 2.7426L13.4058 1.64349L13.9408 1.87361C13.9663 1.89918 14.0173 1.89918 14.0428 1.92475L14.5779 2.15487L14.0935 3.25398L13.5584 3.02386C13.5329 2.99829 13.5074 2.97272 13.4819 2.97272ZM11.4431 2.38464L10.8571 2.28236L11.0355 1.10654L11.6216 1.20881C11.6471 1.20881 11.698 1.20881 11.7235 1.23438L12.3096 1.33666L12.1056 2.51248L11.5196 2.4102C11.4941 2.38464 11.4686 2.38464 11.4431 2.38464ZM8.74176 2.35907L8.63978 1.15803L9.88865 1.05575L9.96513 2.25715L8.74176 2.35907Z" fill="#9C9C9C"/>
<path d="M26.8862 4.38099H30.373L33.0618 10.0469L35.7506 4.38099H39.2586L33.0618 16.4292L26.8862 4.38099ZM43.0287 15.3864C42.0696 14.8457 41.3098 14.112 40.7497 13.1853C40.1896 12.2585 39.9096 11.2476 39.9096 10.1521C39.9096 9.07065 40.1896 8.06694 40.7497 7.14021C41.3098 6.21349 42.0696 5.47977 43.0287 4.93905C43.9878 4.39834 45.0348 4.12799 46.1691 4.12799C47.3034 4.12799 48.3537 4.39834 49.32 4.93905C50.2863 5.47977 51.0529 6.21349 51.6202 7.14021C52.1875 8.06694 52.4708 9.07102 52.4708 10.1521C52.4708 11.2472 52.1872 12.2585 51.6202 13.1853C51.0529 14.112 50.2863 14.8457 49.32 15.3864C48.3537 15.9271 47.3034 16.1975 46.1691 16.1975C45.0348 16.1975 43.9878 15.9271 43.0287 15.3864ZM44.5724 7.31949C44.0822 7.60719 43.6973 8.00044 43.4172 8.49886C43.1372 8.99728 42.997 9.54848 42.997 10.1524C42.997 10.7842 43.1336 11.3495 43.4064 11.8479C43.6796 12.3464 44.0577 12.7396 44.5407 13.0273C45.0237 13.315 45.5665 13.4592 46.1687 13.4592C46.757 13.4592 47.2926 13.3154 47.7755 13.0273C48.2585 12.7396 48.6402 12.3428 48.9203 11.8371C49.2003 11.3315 49.3405 10.7698 49.3405 10.1521C49.3405 9.54811 49.2003 8.99728 48.9203 8.4985C48.6402 8.00007 48.2585 7.60683 47.7755 7.31913C47.2926 7.03142 46.7566 6.88721 46.1687 6.88721C45.5949 6.88757 45.0626 7.03142 44.5724 7.31949ZM55.054 0H58.2049V15.9239H55.054V0ZM65.0948 11.7952C65.0948 12.2867 65.1788 12.6973 65.3468 13.0273C65.5147 13.3573 65.9069 13.5221 66.5232 13.5221C66.8032 13.5221 67.0692 13.508 67.3215 13.4798V16.1339C66.8173 16.1899 66.3484 16.2181 65.9141 16.2181C65.0177 16.2181 64.2932 16.1444 63.74 15.9969C63.1867 15.8494 62.7564 15.565 62.4482 15.1439C62.14 14.7225 61.9861 14.1189 61.9861 13.3324V6.90853H60.5786V4.14931H61.9861V1.05287H65.0948V4.14931H67.4055V6.90853H65.0948V11.7952ZM78.5802 14.7651C78.3142 15.1302 77.8554 15.4565 77.2045 15.7446C76.5532 16.0323 75.8428 16.1765 75.0725 16.1765C73.8824 16.1765 72.8494 15.9098 71.9743 15.3763C71.0992 14.8428 70.4306 14.116 69.9682 13.1961C69.5061 12.2763 69.2751 11.2548 69.2751 10.1315C69.2751 9.00813 69.5061 7.9867 69.9682 7.06684C70.4302 6.14698 71.0988 5.42049 71.9743 4.88665C72.8494 4.35316 73.8824 4.08642 75.0725 4.08642C75.8709 4.08642 76.5744 4.22341 77.1836 4.49701C77.7927 4.77099 78.2584 5.11833 78.5806 5.53976V4.33907H81.6893V15.9239H78.5806L78.5802 14.7651ZM77.8449 7.76153C77.2708 7.15069 76.5005 6.84528 75.5342 6.84528C74.5539 6.84528 73.7804 7.15069 73.2131 7.76153C72.6458 8.37236 72.3625 9.1621 72.3625 10.1311C72.3625 11.0719 72.653 11.8512 73.2343 12.4693C73.8154 13.087 74.5823 13.396 75.5346 13.396C76.515 13.396 77.2884 13.1047 77.8558 12.522C78.4231 11.9394 78.7064 11.1424 78.7064 10.1315C78.706 9.16246 78.4191 8.37236 77.8449 7.76153Z" fill="white"/>
</g>
<defs>
<clipPath id="clip0_13400_1447">
<rect width="199.17" height="17.9253" fill="white"/>
</clipPath>
</defs>
</svg>
