<svg width="200" height="24" viewBox="0 0 200 24" fill="none" xmlns="http://www.w3.org/2000/svg">
<g clip-path="url(#clip0_13400_1377)">
<path d="M22.9074 22.9322V15.2941L17.4607 13.4764V13.4739C15.536 12.8323 15.536 10.1052 17.4607 9.46239L22.9074 7.6447V0.00160031L22.9099 -0.000915527H15.2744L13.458 5.45215C12.8177 7.37928 10.093 7.38054 9.4515 5.45341L7.63507 -0.000915527H-0.000488281L0.00328547 0.00285822V7.6447L5.45006 9.46239C7.37468 10.1039 7.37468 12.8311 5.45006 13.4739L0.00328547 15.2916V22.9309L-0.000488281 22.9347H0.00328547V22.9372L0.0058013 22.9347H7.63507L9.4515 17.4829C10.093 15.5545 12.8164 15.5545 13.458 17.4829L15.2744 22.9347H22.9024L22.9074 22.9397V22.9347H22.9099L22.9074 22.9322ZM6.30042 16.5671C8.70555 13.5984 8.70429 9.32779 6.29664 6.36163L6.35702 6.30125C9.32319 8.71267 13.5913 8.71141 16.5562 6.29873L16.6178 6.36037C14.2052 9.32779 14.2039 13.6022 16.6128 16.5721C16.6455 16.6111 16.5914 16.6652 16.5512 16.6325C13.5888 14.2249 9.32571 14.2236 6.36205 16.6287C6.3218 16.6614 6.26897 16.6074 6.30167 16.5671H6.30042Z" fill="#9C9C9C"/>
</g>
<g clip-path="url(#clip1_13400_1377)">
<path d="M43.3021 11.8251C43.9003 11.0001 44.1993 10.036 44.1993 8.93073C44.1993 7.82653 43.9661 6.96283 43.5008 6.20056C43.0345 5.43828 42.382 4.84749 41.5423 4.42715C40.7037 4.00784 39.724 3.79767 38.6051 3.79767H32.2654V20.1327H34.6892V14.0648H38.465L41.7285 20.1327H44.4325L40.9118 13.5514C41.9062 13.2252 42.703 12.6501 43.3011 11.8251H43.3021ZM38.419 11.9181H34.6902V5.94437H38.442C39.4364 5.94437 40.2332 6.2131 40.8313 6.74952C41.4294 7.28593 41.7285 8.0137 41.7285 8.93178C41.7285 9.84985 41.4294 10.5578 40.8313 11.1015C40.2332 11.6463 39.4291 11.9181 38.419 11.9181Z" fill="white"/>
<path d="M53.922 8.75499C53.075 8.297 52.0764 8.06696 50.9272 8.06696C49.777 8.06696 48.7899 8.32418 47.92 8.83759C47.05 9.34996 46.3735 10.062 45.8925 10.9728C45.4104 11.8825 45.1699 12.9522 45.1699 14.1808C45.1699 15.4105 45.4146 16.4572 45.904 17.3669C46.3933 18.2766 47.0929 18.9887 48.0015 19.5021C48.9102 20.0155 49.9705 20.2727 51.1834 20.2727C52.1465 20.2727 52.9966 20.0898 53.7348 19.7238C54.473 19.3578 55.0795 18.8643 55.5532 18.2421C56.0268 17.62 56.3416 16.9121 56.4974 16.1184H54.2137C54.0265 16.819 53.6501 17.3669 53.0833 17.7643C52.5156 18.1605 51.8359 18.3592 51.0433 18.3592C50.3594 18.3592 49.7582 18.2107 49.2375 17.9159C48.7167 17.621 48.3131 17.2038 48.0256 16.6674C47.738 16.131 47.578 15.513 47.5477 14.8124V14.6493H56.6375C56.6521 14.4935 56.6647 14.3377 56.672 14.1819C56.6793 14.0271 56.6845 13.8786 56.6845 13.7385C56.6521 12.5569 56.3959 11.5458 55.915 10.7051C55.4329 9.86546 54.7689 9.21612 53.922 8.75708V8.75499ZM47.6408 12.8978C47.7025 12.2914 47.8928 11.7696 48.2117 11.3346C48.5306 10.8996 48.9301 10.5608 49.4121 10.3193C49.8931 10.0777 50.4065 9.95748 50.9502 9.95748C51.8819 9.95748 52.6515 10.2105 53.258 10.7156C53.8634 11.2217 54.2126 11.9484 54.3068 12.8978H47.6408Z" fill="white"/>
<path d="M65.5656 13.5491C64.8201 13.3473 63.9961 13.1915 63.0958 13.0828C62.5207 13.0054 62.0115 12.927 61.5681 12.8496C61.1258 12.7722 60.7839 12.6321 60.5434 12.4303C60.3019 12.2274 60.1816 11.9242 60.1816 11.5195C60.1816 11.0218 60.4179 10.6255 60.8926 10.3296C61.3663 10.0337 61.9916 9.88624 62.7685 9.88624C63.5454 9.88624 64.2021 10.0692 64.6915 10.4342C65.1808 10.8001 65.4569 11.2707 65.5186 11.8468H67.7803C67.7019 10.6015 67.1968 9.66143 66.2652 9.02254C65.3324 8.3847 64.1592 8.06578 62.7445 8.06578C61.8285 8.05114 61.0045 8.19439 60.2747 8.49763C59.5438 8.80191 58.9728 9.22539 58.5609 9.77017C58.1499 10.315 57.9439 10.9685 57.9439 11.7297C57.9439 12.3519 58.0684 12.8621 58.3162 13.2584C58.565 13.6547 58.9111 13.9695 59.3545 14.2037C59.7968 14.4369 60.3092 14.623 60.8926 14.7631C61.4751 14.9032 62.1004 15.012 62.7685 15.0904C63.374 15.1521 63.902 15.2263 64.3537 15.3121C64.8033 15.3978 65.1536 15.5494 65.4025 15.7669C65.6503 15.9844 65.7748 16.319 65.7748 16.7697C65.7748 17.097 65.6587 17.3929 65.4255 17.6564C65.1923 17.921 64.8776 18.1196 64.4813 18.2514C64.085 18.3842 63.6145 18.4501 63.0707 18.4501C62.1234 18.4501 61.3768 18.2367 60.8341 17.808C60.2893 17.3804 60.0028 16.8398 59.9714 16.1862H57.6877C57.7338 17.4933 58.2503 18.5003 59.2374 19.2082C60.2234 19.9161 61.5012 20.2705 63.0718 20.2705C64.0034 20.2705 64.8431 20.122 65.5886 19.8272C66.3352 19.5313 66.926 19.1067 67.361 18.5557C67.7949 18.0036 68.0135 17.3532 68.0135 16.6066C68.0135 15.7052 67.7918 15.0203 67.3495 14.5529C66.9061 14.0866 66.3122 13.752 65.5667 13.5502L65.5656 13.5491Z" fill="white"/>
<path d="M71.9026 8.20538H69.6189V20.1299H71.9026V8.20538Z" fill="white"/>
<path d="M70.785 3.58453C70.3971 3.58453 70.0625 3.71733 69.7833 3.98083C69.503 4.24538 69.3629 4.57999 69.3629 4.98465C69.3629 5.38827 69.503 5.72706 69.7833 5.99892C70.0625 6.27184 70.3971 6.40777 70.785 6.40777C71.1729 6.40777 71.5263 6.27184 71.7993 5.99892C72.0711 5.72706 72.2071 5.38931 72.2071 4.98465C72.2071 4.57999 72.0711 4.24538 71.7993 3.98083C71.5263 3.71628 71.1886 3.58453 70.785 3.58453Z" fill="white"/>
<path d="M88.1324 17.7616C87.9787 17.6686 87.8291 17.5358 87.6838 17.3695C87.9515 17.0213 88.1962 16.648 88.4116 16.2444C89.0797 14.9928 89.4143 13.5644 89.4143 11.9625C89.4143 10.3595 89.0797 8.93325 88.4116 7.68057C87.7434 6.42789 86.8232 5.44394 85.65 4.72872C84.4768 4.01246 83.1133 3.65485 81.5595 3.65485C80.0056 3.65485 78.6379 4.01246 77.4564 4.72872C76.2758 5.44394 75.3515 6.42789 74.6833 7.68057C74.0152 8.93325 73.6805 10.3606 73.6805 11.9625C73.6805 13.5644 74.0152 14.9928 74.6833 16.2444C75.3515 17.4971 76.2758 18.481 77.4564 19.1962C78.6369 19.9125 80.0046 20.2701 81.5595 20.2701C83.1133 20.2701 84.4768 19.9125 85.65 19.1962C85.8288 19.0875 85.9993 18.9704 86.1655 18.8491L86.268 18.9861C86.5629 19.375 86.8933 19.6626 87.2582 19.8498C87.6242 20.0369 88.1324 20.13 88.7859 20.13H90.324V17.9592H88.972C88.6301 17.9592 88.3499 17.8934 88.1324 17.7616ZM84.3796 17.3298C83.5723 17.8589 82.6312 18.1224 81.5595 18.1224C80.4877 18.1224 79.5476 17.8589 78.7394 17.3298C77.9311 16.8007 77.2974 16.0698 76.8394 15.136C76.3814 14.2033 76.1524 13.1451 76.1524 11.9625C76.1524 10.7809 76.3814 9.70285 76.8394 8.77745C77.2974 7.85206 77.9311 7.12429 78.7394 6.59519C79.5476 6.06715 80.4877 5.8026 81.5595 5.8026C82.6312 5.8026 83.5723 6.06715 84.3796 6.59519C85.1878 7.12429 85.8163 7.85206 86.268 8.77745C86.7187 9.70285 86.9435 10.7652 86.9435 11.9625C86.9435 13.1608 86.7187 14.2033 86.268 15.136C86.2304 15.2144 86.1896 15.2887 86.1498 15.364L85.6385 14.6927C85.4681 14.4438 85.2778 14.2347 85.0676 14.0632C84.8574 13.8917 84.6169 13.7631 84.3451 13.6773C84.0732 13.5926 83.7428 13.5498 83.3548 13.5498H81.6295V15.6965H83.0516C83.3308 15.6965 83.5755 15.7592 83.7856 15.8836C83.9948 16.007 84.2008 16.2099 84.4026 16.4901L84.7989 17.0203C84.664 17.13 84.526 17.2346 84.3796 17.3298Z" fill="white"/>
<path d="M99.7807 14.1572C99.7807 15.0125 99.6532 15.7476 99.397 16.3624C99.1398 16.9762 98.7707 17.4478 98.2897 17.7741C97.8076 18.1003 97.2325 18.2645 96.5643 18.2645C95.617 18.2645 94.8945 17.9571 94.3967 17.3422C93.9 16.7274 93.6512 15.8218 93.6512 14.6235V8.20643H91.3905V14.8337C91.3905 15.8449 91.5107 16.6971 91.7512 17.3893C91.9928 18.0815 92.3305 18.6409 92.7655 19.0686C93.2005 19.4973 93.7014 19.8037 94.2692 19.9908C94.8359 20.178 95.4382 20.2711 96.075 20.2711C97.1781 20.2711 98.0492 20.0452 98.686 19.5935C99.1314 19.2787 99.5026 18.941 99.8027 18.5803L100.084 20.1309H102.065V8.20538H99.7807V14.1572Z" fill="white"/>
<path d="M114.314 17.9493C114.189 17.8489 114.127 17.643 114.127 17.3314V12.3844C114.127 10.9843 113.696 9.91461 112.834 9.17534C111.971 8.43711 110.763 8.06696 109.209 8.06696C108.231 8.06696 107.368 8.21857 106.623 8.52286C105.877 8.82609 105.282 9.25794 104.84 9.81736C104.396 10.3778 104.129 11.047 104.036 11.824H106.273C106.382 11.2488 106.684 10.794 107.182 10.4594C107.679 10.1248 108.324 9.95748 109.116 9.95748C109.972 9.95748 110.639 10.1603 111.121 10.565C111.603 10.9697 111.843 11.5291 111.843 12.2443V12.9919H108.65C107.035 12.9919 105.803 13.3182 104.956 13.9717C104.11 14.6252 103.686 15.5579 103.686 16.7719C103.686 17.5028 103.868 18.1292 104.234 18.6499C104.599 19.1717 105.116 19.5722 105.784 19.8514C106.452 20.1316 107.221 20.2717 108.092 20.2717C109.226 20.2717 110.132 20.0197 110.807 19.5136C111.304 19.1424 111.718 18.7126 112.052 18.2285C112.055 18.789 112.195 19.2376 112.474 19.5722C112.785 19.9455 113.368 20.1326 114.222 20.1326H115.434V18.102H114.875C114.626 18.102 114.44 18.0518 114.315 17.9504L114.314 17.9493ZM111.843 15.2537C111.843 15.8769 111.703 16.429 111.424 16.911C111.145 17.393 110.748 17.7705 110.235 18.0424C109.723 18.3153 109.093 18.4512 108.348 18.4512C107.602 18.4512 107.042 18.2798 106.623 17.9378C106.203 17.5959 105.993 17.1599 105.993 16.6308C105.993 15.9929 106.212 15.5224 106.647 15.2192C107.081 14.9149 107.703 14.7633 108.511 14.7633H111.845L111.843 15.2537Z" fill="white"/>
<path d="M125.131 8.59187C124.408 8.24158 123.596 8.06696 122.695 8.06696C121.561 8.06696 120.667 8.297 120.014 8.75499C119.547 9.08437 119.157 9.43466 118.841 9.80795L118.569 8.20603H116.589V20.1316H118.872V14.1338C118.872 13.2941 119.004 12.5705 119.269 11.9641C119.533 11.3576 119.917 10.8902 120.422 10.564C120.927 10.2377 121.521 10.0735 122.205 10.0735C123.199 10.0735 123.949 10.3778 124.454 10.9843C124.959 11.5908 125.211 12.4858 125.211 13.6674V20.1316H127.496V13.5043C127.496 12.1669 127.281 11.1004 126.855 10.3078C126.427 9.51413 125.853 8.94216 125.13 8.59291L125.131 8.59187Z" fill="white"/>
<path d="M133.75 18.0983C133.268 18.0983 132.93 17.9968 132.736 17.795C132.542 17.5932 132.445 17.2513 132.445 16.7682V10.235H135.428V8.20438H132.445V4.86774H130.16V8.20438H128.063V10.235H130.16V16.9324C130.16 18.0052 130.409 18.8072 130.907 19.3363C131.404 19.8643 132.219 20.1289 133.354 20.1289H135.568V18.0993H133.75V18.0983Z" fill="white"/>
</g>
<defs>
<clipPath id="clip0_13400_1377">
<rect width="23.9004" height="23.9004" fill="white"/>
</clipPath>
<clipPath id="clip1_13400_1377">
<rect width="103.519" height="16.7303" fill="white" transform="translate(32.2657 3.58374)"/>
</clipPath>
</defs>
</svg>
