<svg width="106" height="17" viewBox="0 0 106 17" fill="none" xmlns="http://www.w3.org/2000/svg">
<path d="M0 8.63467L106 8.63468" stroke="#9C9C9C" stroke-width="0.995851"/>
<path d="M77.0703 16.3319C78.1167 16.3332 79.1531 16.1277 80.1198 15.7273C81.0866 15.3268 81.9647 14.7393 82.7036 13.9985C83.4445 13.2595 84.032 12.3814 84.4325 11.4146C84.8329 10.4479 85.0384 9.41155 85.0371 8.36514C85.0384 7.31874 84.8329 6.28239 84.4325 5.31565C84.032 4.3489 83.4445 3.47081 82.7036 2.73182C81.9647 1.99097 81.0866 1.40344 80.1198 1.00299C79.1531 0.602538 78.1167 0.397054 77.0703 0.398344C76.0239 0.397054 74.9876 0.602538 74.0208 1.00299C73.0541 1.40344 72.176 1.99097 71.437 2.73182C70.6961 3.47081 70.1086 4.3489 69.7082 5.31565C69.3077 6.28239 69.1022 7.31874 69.1035 8.36514C69.1022 9.41155 69.3077 10.4479 69.7082 11.4146C70.1086 12.3814 70.6961 13.2595 71.437 13.9985C72.176 14.7393 73.0541 15.3268 74.0208 15.7273C74.9876 16.1277 76.0239 16.3332 77.0703 16.3319Z" fill="#208622" stroke="#208622" stroke-width="0.79668" stroke-linejoin="round"/>
<path d="M73.8838 8.36455L76.2738 10.7546L81.0539 5.97451" stroke="white" stroke-width="0.995851" stroke-linejoin="round"/>
</svg>
