<svg width="14" height="14" viewBox="0 0 14 14" fill="none" xmlns="http://www.w3.org/2000/svg">
<path d="M6.77641 8.91895C8.38188 8.91895 9.94513 9.33123 11.2198 10.0918C12.2089 10.6821 12.9823 11.4576 13.4737 12.3389C13.6827 12.7145 13.4601 13.1496 13.0625 13.2793L12.9805 13.3018C8.88846 14.1546 4.66437 14.1546 0.572311 13.3018C0.124725 13.2085 -0.142859 12.7394 0.080123 12.3389C0.571497 11.4575 1.34484 10.6821 2.33403 10.0918C3.60859 9.33049 5.17107 8.91899 6.77641 8.91895ZM6.77641 0C9.01549 0 10.8311 1.81561 10.8311 4.05469C10.8309 6.29358 9.01536 8.1084 6.77641 8.1084C4.53748 8.10839 2.72292 6.29357 2.7227 4.05469C2.7227 1.81561 4.53734 8.76185e-06 6.77641 0Z" fill="#D9D9D9"/>
</svg>
